<?xml version="1.0" encoding="UTF-8" standalone="no"?>
<svg width="36px" height="14px" viewBox="0 0 36 14" version="1.1" xmlns="http://www.w3.org/2000/svg" xmlns:xlink="http://www.w3.org/1999/xlink">
    <!-- Generator: Sketch 43.1 (39012) - http://www.bohemiancoding.com/sketch -->
    <title>Combined Shape</title>
    <desc>Created with Sketch.</desc>
    <defs></defs>
    <g id="Page-1" stroke="none" stroke-width="1" fill="none" fill-rule="evenodd">
        <path d="M35.62,9.63001988 L35.62,9.63001988 C35.8563004,9.68783066 36.0166997,9.90732439 36,10.1500199 L36,10.3800199 C36,10.6616851 35.7716652,10.8900199 35.49,10.8900199 L33.08,10.8900199 C32.6859809,12.304086 31.3979353,13.2822956 29.93,13.2822956 C28.4620647,13.2822956 27.1740191,12.304086 26.78,10.8900199 L9.02,10.8900199 C8.61912096,12.3002287 7.33108081,13.2731503 5.865,13.2731503 C4.39891919,13.2731503 3.11087904,12.3002287 2.71,10.8900199 L0.51,10.8900199 C0.228334778,10.8900199 1.03516993e-15,10.6616851 0,10.3800199 L0,10.1500199 C3.44940413e-17,9.86835466 0.228334778,9.64001988 0.51,9.64001988 L0.51,6.64001988 C0.509552262,6.50113364 0.529773699,6.36295383 0.57,6.23001988 L0.92,5.13001988 C1.02933739,4.69876034 1.36133644,4.35912913 1.79,4.24001988 L3.55,3.79001988 C4.07676215,3.66008544 4.57061875,3.42167191 5,3.09001988 L7.67,1.04001988 C8.25205901,0.599066125 8.94372097,0.325859651 9.67,0.250019884 C11.3313495,0.0819603911 13.0001725,-0.00148075715 14.67,1.98837496e-05 C16.6418042,0.00169812351 18.6118267,0.118563863 20.57,0.350019884 L21.9,0.510019884 C22.4962379,0.582193183 23.0695607,0.783538705 23.58,1.10001988 L26.94,3.20001988 C27.4409047,3.5060654 27.9989263,3.70681708 28.58,3.79001988 L32.85,4.34001988 C34.0284208,4.54263416 34.9300584,5.50138906 35.06,6.69001988 L35.39,7.12001988 C35.5816524,7.37303895 35.683677,7.68263091 35.68,8.00001988 L35.68,9.22001988 C35.6812183,9.35895989 35.6609799,9.49725523 35.62,9.63001988 Z M2.6,6.11001988 L2.6,6.11001988 C2.61926634,6.05213194 2.60956239,5.9885134 2.57391403,5.93900178 C2.53826567,5.88949017 2.48100982,5.86010899 2.42,5.86001988 L1.72,5.86001988 L1.56,5.94001988 L1.47,6.07001988 C1.28768045,6.34594528 1.1903261,6.66930077 1.19,7.00001988 L1.19,7.17001988 C1.19,7.22041102 1.2100178,7.26873826 1.24564971,7.30437017 C1.28128162,7.34000208 1.32960887,7.36001988 1.38,7.36001988 L2,7.36001988 L2.17,7.24001988 L2.6,6.11001988 Z M17.68,6.47001988 L17.68,6.47001988 C17.7050792,6.68954587 17.8890753,6.85642611 18.11,6.86001988 L19.38,6.86001988 C19.615257,6.85473122 19.8047113,6.66527687 19.81,6.43001988 C19.81,6.19253744 19.6174824,6.00001988 19.38,6.00001988 L18.11,6.00001988 C17.9886757,5.9994937 17.8727751,6.05024552 17.7908788,6.13976005 C17.7089825,6.22927459 17.6687128,6.34922067 17.68,6.47001988 Z M8.21,6.47001988 L8.21,6.47001988 C8.23071437,6.69175636 8.41730016,6.86098534 8.64,6.86001988 L9.91,6.86001988 C10.145257,6.85473122 10.3347113,6.66527687 10.34,6.43001988 C10.34,6.19253744 10.1474824,6.00001988 9.91,6.00001988 L8.64,6.00001988 C8.51867574,5.9994937 8.40277506,6.05024552 8.32087879,6.13976005 C8.23898251,6.22927459 8.19871278,6.34922067 8.21,6.47001988 Z M7.52,10.0000199 C7.44901238,9.77940986 7.54578459,9.53958307 7.75,9.43001988 C7.69807071,9.21518914 7.61377374,9.00950454 7.5,8.82001988 C7.33292569,8.88872446 7.14178342,8.86196454 7,8.75001988 C6.88381974,8.6100767 6.85671731,8.41648788 6.93,8.25001988 C6.74051535,8.13624614 6.53483074,8.05194917 6.32,8.00001988 C6.23877346,8.17829938 6.06091154,8.29271576 5.865,8.29271576 C5.66908846,8.29271576 5.49122654,8.17829938 5.41,8.00001988 C5.19573235,8.04881722 4.99007456,8.12973176 4.8,8.24001988 C4.8801457,8.42354274 4.84054873,8.63736637 4.7,8.78001988 C4.55799839,8.91394972 4.3510409,8.9529983 4.17,8.88001988 C4.04896804,9.06692518 3.96101689,9.2732721 3.91,9.49001988 C4.09303051,9.56404682 4.21206379,9.74259674 4.21,9.94001988 C4.21339493,10.1402509 4.09460402,10.3223969 3.91,10.4000199 C3.94951008,10.5435476 3.99964859,10.6839355 4.06,10.8200199 L4.17,11.0000199 C4.35295482,10.9296189 4.56017234,10.9726263 4.7,11.1100199 C4.83882109,11.2494871 4.87845689,11.4595568 4.8,11.6400199 C4.98690529,11.7610518 5.19325222,11.849003 5.41,11.9000199 C5.49122654,11.7217404 5.66908846,11.607324 5.865,11.607324 C6.06091154,11.607324 6.23877346,11.7217404 6.32,11.9000199 C6.53674778,11.849003 6.74309471,11.7610518 6.93,11.6400199 C6.85154311,11.4595568 6.89117891,11.2494871 7.03,11.1100199 C7.16982766,10.9726263 7.37704518,10.9296189 7.56,11.0000199 L7.67,10.8800199 C7.73476647,10.7457411 7.78504996,10.6049474 7.82,10.4600199 C7.63539598,10.3823969 7.51660507,10.2002509 7.52,10.0000199 Z M15.52,5.05001988 L15.52,5.00001988 C15.6863468,4.99071466 15.8410053,4.91151238 15.9457792,4.78197367 C16.0505532,4.65243497 16.0956747,4.48463662 16.07,4.32001988 L15.51,1.73001988 C15.4611365,1.48963476 15.2451044,1.32019784 15,1.33001988 L10.22,1.51001988 C10.0608408,1.51235871 9.91230514,1.59033991 9.82,1.72001988 L8.11,4.12001988 C7.98323629,4.29979095 7.96700596,4.53515361 8.06789351,4.73062323 C8.16878106,4.92609286 8.37003179,5.04920723 8.59,5.05001988 L15.52,5.05001988 Z M26.34,4.31001988 L26.28,4.18001988 L22.92,2.10001988 C22.562801,1.88338068 22.1642929,1.74373256 21.75,1.69001988 L20.42,1.53001988 C19.26,1.40001988 18.08,1.30001988 16.91,1.25001988 C16.8304154,1.24312665 16.7526173,1.27628242 16.7024708,1.33846407 C16.6523243,1.40064572 16.6364029,1.48370208 16.66,1.56001988 L17.33,4.00001988 C17.4717979,4.58233555 17.9906972,4.99416041 18.59,5.00001988 L25.15,5.00001988 C25.5803312,5.01159589 25.9884864,4.80939052 26.24,4.46001988 L26.34,4.31001988 Z M30.06,10.7800199 C29.8478082,10.8146338 29.6305602,10.7634681 29.4561188,10.6377953 C29.2816774,10.5121224 29.1643552,10.3222537 29.13,10.1100199 C29.0835555,9.82420741 29.1931181,9.53532794 29.4174167,9.35219956 C29.6417153,9.16907118 29.9466736,9.11951546 30.2174167,9.22219956 C30.4881598,9.32488366 30.6835555,9.56420741 30.73,9.85001988 C30.764614,10.0622117 30.7134483,10.2794596 30.5877754,10.4539011 C30.4621025,10.6283425 30.2722339,10.7456647 30.06,10.7800199 Z M31.58,10.0000199 L31.58,10.0000199 C31.5108614,9.7918675 31.5884707,9.56312425 31.77,9.44001988 L31.72,9.28001988 C31.6870768,9.17262296 31.6435281,9.06877604 31.59,8.97001988 L31.51,8.83001988 C31.3460195,8.89696017 31.158678,8.87019711 31.02,8.76001988 C30.9046725,8.62017569 30.874063,8.4288664 30.94,8.26001988 L30.84,8.20001988 L30.73,8.20001988 L30.61,8.15001988 L30.5,8.15001988 L30.37,8.15001988 C30.2983238,8.33495098 30.1182734,8.45498454 29.92,8.45001988 C29.7225769,8.45208368 29.5440269,8.3330504 29.47,8.15001988 L29.35,8.15001988 L29.23,8.15001988 L29.12,8.20001988 L29,8.20001988 L29.04,8.30001988 C29.1156384,8.48304791 29.0736655,8.69361244 28.933629,8.8336489 C28.7935926,8.97368537 28.583028,9.01565827 28.4,8.94001988 L28.32,9.08001988 C28.2706679,9.18073398 28.2272607,9.28424359 28.19,9.39001988 L28.19,9.55001988 C28.3730305,9.62404682 28.4920638,9.80259674 28.49,10.0000199 C28.4933949,10.2002509 28.374604,10.3823969 28.19,10.4600199 L28.19,10.5700199 L28.19,10.6700199 L28.19,10.7300199 L28.19,10.8300199 L28.29,11.0100199 C28.4729548,10.9396189 28.6801723,10.9826263 28.82,11.1200199 C28.9597743,11.2585656 29.0030952,11.4672937 28.93,11.6500199 C29.1169053,11.7710518 29.3232522,11.859003 29.54,11.9100199 C29.6140269,11.7269894 29.7925769,11.6079561 29.99,11.6100199 C30.1882734,11.6050552 30.3683238,11.7250888 30.44,11.9100199 C30.6573327,11.8607985 30.8639849,11.7727172 31.05,11.6500199 C30.9743616,11.4669919 31.0163345,11.2564273 31.156371,11.1163909 C31.2964074,10.9763544 31.506972,10.9343815 31.69,11.0100199 L31.8,10.8300199 L31.8,10.7300199 C31.84,10.6400199 31.89,10.5500199 31.89,10.4600199 C31.7032872,10.3833181 31.5810076,10.2018708 31.58,10.0000199 Z M33.63,6.80001988 L33.63,6.78001988 C33.758152,6.82604583 33.9013946,6.78593279 33.9870055,6.68004562 C34.0726164,6.57415845 34.0818426,6.42569167 34.01,6.31001988 C33.8729139,5.9213117 33.6347469,5.57614211 33.32,5.31001988 L33.15,5.31001988 L32.44,5.31001988 C32.3345175,5.31050424 32.2365199,5.36459278 32.1798884,5.45358521 C32.1232568,5.54257765 32.1157638,5.65426004 32.16,5.75001988 L32.44,6.33001988 L32.63,6.49001988 L33.63,6.80001988 Z M6.67,10.0000199 L6.67,10.0000199 C6.6700338,10.4434942 6.31344053,10.8045449 5.87,10.8100199 C5.54150599,10.8140757 5.24309535,10.6193178 5.11456586,10.3169853 C4.98603636,10.0146528 5.05284638,9.66462998 5.28369713,9.43089359 C5.51454788,9.19715721 5.86371378,9.1260044 6.16761952,9.25076844 C6.47152527,9.37553248 6.66997496,9.67150083 6.67,10.0000199 Z" id="Combined-Shape" fill="#77878B" fill-rule="nonzero"></path>
    </g>
</svg>