<?xml version="1.0" encoding="UTF-8" standalone="no"?>
<svg width="77px" height="60px" viewBox="0 0 77 60" version="1.1" xmlns="http://www.w3.org/2000/svg" xmlns:xlink="http://www.w3.org/1999/xlink">
    <!-- Generator: Sketch 43.1 (39012) - http://www.bohemiancoding.com/sketch -->
    <title>Car_10_bl</title>
    <desc>Created with Sketch.</desc>
    <defs></defs>
    <g id="Page-1" stroke="none" stroke-width="1" fill="none" fill-rule="evenodd">
        <g id="Car_10_bl" transform="translate(0.000000, -1.000000)" fill-rule="nonzero" fill="#3265B1">
            <path d="M12.6872455,49.5415816 L3.90011484,47.7510444 C3.02184473,47.572081 2.12069211,46.6965183 1.93297314,45.8047203 L0.967324305,41.2172045 C0.841830065,40.6210181 1.11277041,39.8219683 1.57095013,39.425178 L3.19178405,38.0215124 L3.80439446,7.40238121 L5.64222572,6.18974237 L5.0296153,2.24866606 L8.15948119,1.02008439 C8.76784354,0.781280923 9.42911571,1.04929604 9.69220057,1.59683825 L11.4620247,5.28026321 L35.4998046,10.7927963 C36.099734,10.9303769 36.4116665,11.5085876 36.2051865,12.0862523 L31.8145123,24.3699379 L44.1685102,24.3778996 C45.3796173,24.3786799 46.8570124,25.2516151 47.4444273,26.3276393 L52.733056,36.0153259 C52.8858631,36.2952375 53.2412732,36.5057138 53.5379553,36.5057138 L58.0204166,36.5057138 C58.0204166,36.5057138 61.8275616,32.1894897 65.6780467,32.2614777 C73.094508,32.4001349 74.2355836,36.5057138 74.2355836,36.5057138 L76.1383169,36.5057138 C76.4842686,36.5057138 76.7128868,36.7482341 76.7128868,37.0473978 L76.7128868,45.6005051 L52.8129953,45.6005051 L52.8129953,49.5419476 L67.2104209,49.5419476 C67.2104209,49.5419476 71.7859773,49.7391827 71.7859773,54.790392 C71.7859773,59.8416013 64.3855872,60.7252187 64.3855872,60.7252187 L24.9945767,60.7252187 C24.9945767,60.7252187 17.6903442,59.3228446 17.6903442,54.790392 C17.6903442,50.2579393 21.9275946,49.5419476 21.9275946,49.5419476 L36.6332903,49.5419476 L36.6332903,45.6063331 L28.9214217,45.6063331 L24.1160826,40.5616938 C23.6724393,40.0959576 23.4603776,39.2579709 23.608857,38.6547534 L28.3462708,19.4083529 C28.4950271,18.8040101 28.1879845,18.0701699 27.6610907,17.7667615 L11.7683299,8.61502008 L11.7683299,13.4655755 L4.41700488,37.7183525 L9.62419342,37.1120333 L12.6872455,49.5415816 Z M29.6569374,34.3260132 C29.3822876,35.5298285 30.1465924,36.5057138 31.3810879,36.5057138 L46.303507,36.5057138 C47.5303789,36.5057138 48.1137774,35.6045987 47.6050128,34.4896175 L45.1566242,29.123859 C44.6485541,28.0103996 43.2218588,27.1077627 42.0134364,27.1077627 L33.5270221,27.1077627 C32.2991575,27.1077627 31.082392,28.0781114 30.8064793,29.2874632 L29.6569374,34.3260132 Z M65.6780467,38.0215124 L67.2015178,43.1752274 L69.1441356,43.1752274 L67.7302662,38.0215124 L69.7824856,38.0215124 L71.0867537,43.1752274 L73.0293718,43.1752274 L71.8347053,38.0215124 L65.6780467,38.0215124 Z M25.245759,57.9198378 L63.227605,57.9198378 C63.227605,57.9198378 67.8311413,58.615381 67.8311413,54.9433484 C67.8311413,51.2713158 63.227605,51.9668593 63.227605,51.9668593 L25.245759,51.9668593 C25.245759,51.9668593 21.995511,51.9668593 21.9275946,54.9433484 C21.8596783,57.9198378 25.245759,57.9198378 25.245759,57.9198378 Z M64.6532034,56.7176534 C63.6781332,56.7176534 62.8876823,55.9353201 62.8876823,54.9702629 C62.8876823,54.0052056 63.6781332,53.2228721 64.6532034,53.2228721 C65.6282738,53.2228721 66.4187245,54.0052056 66.4187245,54.9702629 C66.4187245,55.9353201 65.6282738,56.7176534 64.6532034,56.7176534 Z M59.0035361,56.7176534 C58.0284657,56.7176534 57.238015,55.9353201 57.238015,54.9702629 C57.238015,54.0052056 58.0284657,53.2228721 59.0035361,53.2228721 C59.9786066,53.2228721 60.7690572,54.0052056 60.7690572,54.9702629 C60.7690572,55.9353201 59.9786066,56.7176534 59.0035361,56.7176534 Z M53.3538689,56.7176534 C52.3787985,56.7176534 51.5883478,55.9353201 51.5883478,54.9702629 C51.5883478,54.0052056 52.3787985,53.2228721 53.3538689,53.2228721 C54.3289393,53.2228721 55.11939,54.0052056 55.11939,54.9702629 C55.11939,55.9353201 54.3289393,56.7176534 53.3538689,56.7176534 Z M47.7042016,56.7176534 C46.7291312,56.7176534 45.9386805,55.9353201 45.9386805,54.9702629 C45.9386805,54.0052056 46.7291312,53.2228721 47.7042016,53.2228721 C48.6792718,53.2228721 49.4697227,54.0052056 49.4697227,54.9702629 C49.4697227,55.9353201 48.6792718,56.7176534 47.7042016,56.7176534 Z M42.0545344,56.7176534 C41.079464,56.7176534 40.2890133,55.9353201 40.2890133,54.9702629 C40.2890133,54.0052056 41.079464,53.2228721 42.0545344,53.2228721 C43.0296046,53.2228721 43.8200552,54.0052056 43.8200552,54.9702629 C43.8200552,55.9353201 43.0296046,56.7176534 42.0545344,56.7176534 Z M36.4048671,56.7176534 C35.4297967,56.7176534 34.639346,55.9353201 34.639346,54.9702629 C34.639346,54.0052056 35.4297967,53.2228721 36.4048671,53.2228721 C37.3799373,53.2228721 38.170388,54.0052056 38.170388,54.9702629 C38.170388,55.9353201 37.3799373,56.7176534 36.4048671,56.7176534 Z M30.7551997,56.7176534 C29.7801295,56.7176534 28.9896788,55.9353201 28.9896788,54.9702629 C28.9896788,54.0052056 29.7801295,53.2228721 30.7551997,53.2228721 C31.7302701,53.2228721 32.5207207,54.0052056 32.5207207,54.9702629 C32.5207207,55.9353201 31.7302701,56.7176534 30.7551997,56.7176534 Z M25.1055324,56.7176534 C24.1304622,56.7176534 23.3400115,55.9353201 23.3400115,54.9702629 C23.3400115,54.0052056 24.1304622,53.2228721 25.1055324,53.2228721 C26.0806028,53.2228721 26.8710535,54.0052056 26.8710535,54.9702629 C26.8710535,55.9353201 26.0806028,56.7176534 25.1055324,56.7176534 Z" id="Combined-Shape"></path>
        </g>
    </g>
</svg>