<?xml version="1.0" encoding="UTF-8" standalone="no"?>
<svg width="80px" height="31px" viewBox="0 0 80 31" version="1.1" xmlns="http://www.w3.org/2000/svg" xmlns:xlink="http://www.w3.org/1999/xlink">
    <!-- Generator: Sketch 43.1 (39012) - http://www.bohemiancoding.com/sketch -->
    <title>Car_9_bl</title>
    <desc>Created with Sketch.</desc>
    <defs></defs>
    <g id="Page-1" stroke="none" stroke-width="1" fill="none" fill-rule="evenodd">
        <g id="Car_9_bl" fill-rule="nonzero" fill="#3265B1">
            <path d="M0,1.81625166 L0,2.41410881 L0,2.41410881 L0,24.711966 L0,24.711966 C0.120966042,25.6142376 0.886557129,26.2923325 1.8,26.3062517 L2.84444444,26.3062517 C3.25689293,28.5452437 5.21544324,30.1711873 7.5,30.1711873 C9.78455676,30.1711873 11.7431071,28.5452437 12.1555556,26.3062517 L13.7777778,26.3062517 C14.1902263,28.5452437 16.1487766,30.1711873 18.4333333,30.1711873 C20.7178901,30.1711873 22.6764404,28.5452437 23.0888889,26.3062517 L32.4222222,26.3062517 C32.8346707,28.5452437 34.7932211,30.1711873 37.0777778,30.1711873 C39.3623344,30.1711873 41.3208849,28.5452437 41.7333333,26.3062517 L43.3111111,26.3062517 C43.7235596,28.5452437 45.68211,30.1711873 47.9666667,30.1711873 C50.2512233,30.1711873 52.2097738,28.5452437 52.6222222,26.3062517 L66.4,26.3062517 C66.8124484,28.5452437 68.7709989,30.1711873 71.0555556,30.1711873 C73.3401122,30.1711873 75.2986627,28.5452437 75.7111111,26.3062517 L78.1777778,26.3062517 C79.1877473,26.2941258 80.0000733,25.4748301 80,24.4683945 L80,23.8926803 C80.0017487,23.2027578 79.6155696,22.5699756 79,22.2541088 L78.6222222,19.4198231 C78.4279113,18.0020853 77.3606338,16.8588597 75.9555556,16.5633945 L73.7333333,16.1205374 C72.7864333,15.9436814 71.9391196,15.4229058 71.3555556,14.6591088 L67.9777778,10.2305374 C67.1906029,9.33083791 66.0419429,8.82755725 64.8444444,8.85768024 L62.4888889,8.85768024 L62.3333333,8.2598231 C62.2409396,7.97288821 62.00512,7.75469513 61.7111111,7.68410881 L58.6888889,7.0198231 C58.23766,6.98049194 57.8356536,7.30290241 57.7777778,7.75053738 L57.7777778,9.41125167 L57.7777778,9.41125167 L57.7777778,22.1433945 L55.5555556,22.1433945 L55.5555556,4.11910881 C56.2625447,3.84603015 56.7297798,3.1696411 56.7333333,2.41410881 L56.7333333,1.81625166 C56.7275358,1.32490222 56.5245127,0.856328236 56.1695998,0.515164556 C55.8146871,0.174000874 55.3374451,-0.011337147 54.8444444,0.000537374398 L1.82222222,0.000537374398 C0.815836678,0.000537374398 1.23246684e-16,0.813460349 0,1.81625166 L0,1.81625166 Z M76.0222222,20.7926802 C76.0222222,19.9955374 76.4,19.3312517 76.8444444,19.3312517 C77.2888889,19.3312517 77.6666667,19.9955374 77.6666667,20.7926802 C77.6946629,21.2557994 77.534488,21.7106677 77.2222222,22.0548231 L76.8444444,22.231966 L76.4666667,22.1433945 C76.1308269,21.7775866 75.9689456,21.2856117 76.0222222,20.7926802 Z M68.8888889,25.4205374 C68.8915876,25.180256 68.9290089,24.9416149 69,24.711966 C69.2934478,23.7436967 70.2080669,23.0966364 71.2222222,23.1398231 C72.2363776,23.0966364 73.1509967,23.7436967 73.4444444,24.711966 C73.4889327,24.9460764 73.4889327,25.186427 73.4444444,25.4205374 C73.4487302,25.7228782 73.3959627,26.0233293 73.2888889,26.3062517 C72.9460876,27.1645022 72.104612,27.7205403 71.1777778,27.7012517 C70.2509436,27.7205403 69.409468,27.1645022 69.0666667,26.3062517 C68.9525062,26.0246399 68.8922104,25.7242375 68.8888889,25.4205374 Z M59.6222222,16.186966 L59.6222222,11.4705374 C59.6222222,11.0425167 59.9704451,10.6955374 60.4,10.6955374 L64.8444444,10.6955374 C65.4819996,10.713789 66.0809484,11.0041288 66.4888889,11.4926802 L69.1111111,14.8583945 C69.2431262,15.0339361 69.2943007,15.2570007 69.2519413,15.4722612 C69.2095822,15.6875218 69.0776576,15.8748127 68.8888889,15.9876802 C68.5644249,16.1864749 68.2658651,16.4244698 68,16.6962517 C67.8560562,16.8652583 67.6446809,16.9624677 67.4222222,16.961966 L60.4,16.961966 C59.9704451,16.961966 59.6222222,16.6149866 59.6222222,16.186966 Z M45.6888889,25.4205374 C45.6915876,25.180256 45.7290089,24.9416149 45.8,24.711966 C46.0934478,23.7436967 47.0080669,23.0966364 48.0222222,23.1398231 C49.0363776,23.0966364 49.9509967,23.7436967 50.2444444,24.711966 C50.3332407,24.9376918 50.3784771,25.1780911 50.3777778,25.4205374 C50.3744562,25.7242375 50.3141604,26.0246399 50.2,26.3062517 C49.9002587,27.2149381 49.0488293,27.8291269 48.0888889,27.8291269 C47.1289484,27.8291269 46.2775191,27.2149381 45.9777778,26.3062517 C45.8252049,26.0322766 45.7271158,25.7315422 45.6888889,25.4205374 Z M34.8,25.4205374 C34.8026987,25.180256 34.84012,24.9416149 34.9111111,24.711966 C35.1415498,23.7044483 36.0407227,22.9897052 37.0777778,22.9897052 C38.1148329,22.9897052 39.0140058,23.7044483 39.2444444,24.711966 C39.3261851,24.9390126 39.3638907,25.1794666 39.3555556,25.4205374 C39.352234,25.7242375 39.2919382,26.0246399 39.1777778,26.3062517 C38.8679918,27.1981159 38.024932,27.7963103 37.0777778,27.7963103 C36.1306236,27.7963103 35.2875638,27.1981159 34.9777778,26.3062517 C34.8636173,26.0246399 34.8033216,25.7242375 34.8,25.4205374 L34.8,25.4205374 Z M16.1555556,25.4205374 C16.1472205,25.1794666 16.1849261,24.9390126 16.2666667,24.711966 C16.5601145,23.7436967 17.4747335,23.0966364 18.4888889,23.1398231 C19.5030443,23.0966364 20.4176633,23.7436967 20.7111111,24.711966 C20.7821022,24.9416149 20.8195236,25.180256 20.8222222,25.4205374 C20.8189007,25.7242375 20.7586048,26.0246399 20.6444444,26.3062517 C20.2882357,27.2043476 19.388996,27.7688452 18.4222222,27.7012517 C17.4953881,27.7205403 16.6539124,27.1645022 16.3111111,26.3062517 C16.2040373,26.0233293 16.1512699,25.7228782 16.1555556,25.4205374 L16.1555556,25.4205374 Z M5.24444444,25.4205374 C5.24714311,25.180256 5.28456442,24.9416149 5.35555556,24.711966 C5.35555556,23.4890496 6.35047833,22.4976803 7.57777778,22.4976803 C8.80507722,22.4976803 9.8,23.4890496 9.8,24.711966 C9.83373269,24.9469606 9.83373269,25.1855428 9.8,25.4205374 C9.79667844,25.7242375 9.73638262,26.0246399 9.62222222,26.3062517 C9.32248091,27.2149381 8.47105156,27.8291269 7.51111111,27.8291269 C6.55117067,27.8291269 5.69974131,27.2149381 5.4,26.3062517 C5.2934328,26.0231914 5.24068227,25.7228363 5.24444444,25.4205374 L5.24444444,25.4205374 Z M4.88888889,19.6191088 C4.88875162,19.0895557 5.31313056,18.6568584 5.84444444,18.6448231 L49.6444444,18.6448231 C49.9037673,18.6448231 50.1524689,18.7474707 50.3358378,18.9301848 C50.5192067,19.1128988 50.6222222,19.3607122 50.6222222,19.6191088 C50.6222918,19.8755165 50.5185727,20.1211149 50.334536,20.3003267 C50.1504991,20.4795385 49.9017016,20.5772146 49.6444444,20.5712517 L5.84444444,20.5712517 C5.31670569,20.5712517 4.88888889,20.1449628 4.88888889,19.6191088 L4.88888889,19.6191088 Z M4.88888889,7.21910881 C4.88875162,6.6895557 5.31313056,6.25685836 5.84444444,6.2448231 L49.6444444,6.2448231 C50.1844562,6.2448231 50.6222222,6.68102567 50.6222222,7.21910881 C50.6222222,7.75719196 50.1844562,8.19339453 49.6444444,8.19339453 L5.84444444,8.19339453 C5.31313056,8.18135924 4.88875162,7.74866191 4.88888889,7.21910881 L4.88888889,7.21910881 Z" id="Shape"></path>
        </g>
    </g>
</svg>