<?xml version="1.0" encoding="UTF-8" standalone="no"?>
<svg width="72px" height="44px" viewBox="0 0 72 44" version="1.1" xmlns="http://www.w3.org/2000/svg" xmlns:xlink="http://www.w3.org/1999/xlink">
    <!-- Generator: Sketch 43.1 (39012) - http://www.bohemiancoding.com/sketch -->
    <title>Car_4_bl</title>
    <desc>Created with Sketch.</desc>
    <defs></defs>
    <g id="Page-1" stroke="none" stroke-width="1" fill="none" fill-rule="evenodd">
        <g id="Car_4_bl" fill-rule="nonzero" fill="#3265B1">
            <path d="M22.5363636,13.3043139 C31.7078788,10.2814568 32.0890909,10.1938377 31.8648485,9.1205044 C31.3939394,6.93002821 29.1515152,6.57955202 27.8060606,6.57955202 L6.45818182,6.57955202 C5.66556952,6.57955202 5.0230303,7.20720616 5.0230303,7.98145678 L5.0230303,11.8805044 C4.98479679,12.6953168 5.62456478,13.3886175 6.45818182,13.4357425 L22.1551515,13.4357425 L22.5363636,13.3043139 Z M58.7066667,36.2605043 C55.79272,36.2483406 53.4370991,33.9373878 53.4371601,31.0909196 C53.4372211,28.2444515 55.7929409,25.9335948 58.7068882,25.9215502 C61.6208353,25.9095057 63.9964907,28.2008053 64.0212121,31.047171 C64.0393558,32.4313839 63.4859908,33.7643956 62.486022,34.7453206 C61.4860531,35.7262459 60.1237705,36.2723993 58.7066667,36.2605043 Z M57.4284848,43.8176472 L60.2090909,43.8176472 L60.5230303,43.5109805 L60.5230303,42.9414567 C61.5386083,42.807687 62.5330226,42.5501246 63.4830303,42.17479 L63.64,42.4814567 C63.6557524,42.5611077 63.7114784,42.6276688 63.7882704,42.6585567 C63.8650625,42.6894444 63.9526114,42.6805121 64.0212121,42.63479 L66.4206061,41.2328853 L66.4206061,40.9262186 L66.1739394,40.5319329 C67.0291224,39.9151686 67.7849725,39.1768285 68.4163636,38.3414567 L68.7527273,38.5824091 C68.7527273,38.6670929 68.8230051,38.7357424 68.909697,38.7357424 C68.9963889,38.7357424 69.0666667,38.6670929 69.0666667,38.5824091 L70.5018182,36.1509805 L70.5018182,35.8443139 L70.1878788,35.5376472 C70.5306383,34.6040956 70.7931629,33.6442666 70.9727273,32.6681234 L71.4660606,32.6681234 L71.78,32.339552 L71.78,29.6452662 L71.4660606,29.3385996 L70.9054545,29.3385996 C70.7974226,28.2868556 70.5172949,27.2588636 70.0757576,26.2938377 L70.4793939,26.0528853 L70.6363636,25.6805043 L69.2012121,23.3366948 L68.8872727,23.3366948 L68.4836364,23.8185996 C67.8367263,22.9964039 67.0829067,22.2600473 66.2412121,21.6281234 L66.5775758,21.2338377 L66.4206061,20.9271711 L64.1109091,19.7224092 L63.7969697,19.7224092 L63.550303,20.1166949 C62.5865844,19.7269528 61.5773581,19.4547414 60.5454545,19.3062187 L60.5454545,18.7585996 L60.2315152,18.451933 L57.4284848,18.451933 L57.1145455,18.7585996 L57.1145455,19.1528854 C56.0659592,19.2813929 55.0444721,19.5696529 54.0872727,20.0071711 L53.8181818,19.7224092 L53.4145455,19.7224092 L51.0375758,21.1243139 L51.0375758,21.3652663 L51.2618182,21.759552 C50.4315229,22.4040599 49.6791867,23.1389675 49.0193939,23.9500281 L48.4587879,23.7966948 L48.1448485,23.7966948 L46.709697,26.2062186 L47.0909091,26.2938377 L47.4272727,26.53479 C47.0021815,27.4780395 46.7080622,28.4725591 46.5527273,29.4919329 L46.1490909,29.4919329 L45.8351515,29.7985996 L45.8351515,32.5366948 L46.1490909,32.8433615 L46.5527273,32.8433615 C46.697944,33.8551065 46.961275,34.8472823 47.3375758,35.8005043 L47.0909091,35.8005043 L47.0909091,36.107171 L48.5260606,38.4509805 L48.84,38.6043139 L49.1539394,38.3633615 C49.791396,39.1936142 50.5464214,39.9311484 51.3963636,40.5538377 L51.149697,40.8605043 L51.3066667,41.167171 L53.5490909,42.5690758 L53.9527273,42.4157424 L54.1993939,42.1090758 C55.1671908,42.5184265 56.1844928,42.8055055 57.2266667,42.9633615 L57.2266667,43.3576472 L57.4284848,43.8176472 Z M12.8939394,36.2605043 C9.98300644,36.2363031 7.63862112,33.9200918 7.64687963,31.0765021 C7.65513814,28.2329122 10.0129393,25.9297319 12.923966,25.9216648 C15.8349927,25.9135977 18.2061338,28.2036729 18.2309091,31.047171 C18.2186232,33.9214297 15.8363624,36.2485032 12.8939394,36.2605043 L12.8939394,36.2605043 Z M11.5484848,43.6424091 L14.3290909,43.6424091 L14.6430303,43.3357424 L14.6430303,42.8757424 C15.6600817,42.7372463 16.6548204,42.4722388 17.6030303,42.087171 L17.76,42.4157424 C17.7823552,42.4963029 17.8425502,42.5617037 17.9221873,42.5919564 C18.0018244,42.6222088 18.0914371,42.6137168 18.1636364,42.5690758 L20.5406061,41.167171 L20.5406061,40.8605043 L20.2939394,40.5319329 C21.1425048,39.9076943 21.8973209,39.1703642 22.5363636,38.3414567 L22.850303,38.5824091 C22.850303,38.6670929 22.9205808,38.7357424 23.0072727,38.7357424 C23.0939646,38.7357424 23.1642424,38.6670929 23.1642424,38.5824091 L24.5993939,36.1728853 L24.5993939,35.8443139 L24.2854545,35.5376472 C24.6356335,34.604691 24.9056577,33.6448655 25.0927273,32.6681234 L25.5636364,32.6681234 L25.8775758,32.339552 L25.8775758,29.6452662 L25.5636364,29.3385996 L25.0927273,29.3385996 C24.9918175,28.2880796 24.7192733,27.2601343 24.2854545,26.2938377 L24.6890909,26.0528853 L24.8460606,25.6805043 L23.4109091,23.3366948 L23.0969697,23.3366948 L22.6260606,23.5557424 C21.9533428,22.7560386 21.2023057,22.0223999 20.3836364,21.3652663 L20.6975758,20.9928854 L20.630303,20.9271711 L18.2309091,19.5252663 L17.9393939,19.7224092 L17.6927273,20.0947901 C16.7213739,19.6951852 15.7053166,19.4084574 14.6654545,19.2405044 L14.6654545,18.7585996 L14.3515152,18.451933 L11.5484848,18.451933 L11.2121212,18.7585996 L11.2121212,19.1528854 C10.1641242,19.2841793 9.14307065,19.5723171 8.18484848,20.0071711 L8.02787879,19.5252663 L7.62424242,19.5252663 L5.22484848,20.9271711 L5.22484848,21.2338377 L5.47151515,21.6281234 C4.62982058,22.2600473 3.87600099,22.9964039 3.22909091,23.8185996 L2.66848485,23.5776472 L2.35454545,23.5776472 L0.919393939,25.987171 L1.12121212,26.2938377 L1.43515152,26.53479 C1.01019726,27.4704631 0.716043715,28.4577311 0.560606061,29.4700281 L0.313939394,29.4700281 L0,29.6452662 L0,32.3614567 L0.313939394,32.6900281 L0.717575758,32.6900281 C0.876128604,33.6991358 1.13909152,34.6899246 1.50242424,35.647171 L1.18848485,35.8662186 L1.18848485,36.19479 L2.62363636,38.5166948 L2.93757576,38.6700281 L3.25151515,38.4290758 C3.88264969,39.2646634 4.63853554,40.0030383 5.49393939,40.619552 L5.24727273,40.9262186 L5.40424242,41.2328853 L7.64666667,42.63479 L8.05030303,42.4814567 L8.27454545,42.17479 C9.21577388,42.5718487 10.2018347,42.8586081 11.2121212,43.0290758 L11.2121212,43.4233615 L11.5484848,43.6424091 Z M50.5666667,5.61574249 L23.3436364,14.6405044 C22.850303,14.859552 22.6933333,15.2538377 22.94,15.6481234 L30.8109091,29.7985996 C31.0545597,30.1779811 31.4740206,30.4156324 31.9321212,30.4338377 L40.9018182,30.4338377 C41.3599053,30.3802534 41.7662086,30.1210594 42.0006061,29.7328853 L49.7818182,15.3414568 C50.0108654,14.9483281 50.4200258,14.6873113 50.8806061,14.6405044 L62.7878788,14.6405044 C63.5722712,14.5821145 64.1623501,13.9177785 64.1109091,13.1509806 L64.1109091,6.57955202 C64.1006805,5.85880163 63.5243086,5.26715386 62.7878788,5.22145678 L56.0606061,5.22145678 C55.7167617,5.19204493 55.40047,5.02567936 55.1860606,4.76145678 L51.5757576,0.468123447 C51.3855805,0.188145824 51.0675032,0.0164384539 50.7236364,0.00812344581 L45.6333333,0.00812344581 C44.9294429,-0.0694775486 44.2914178,0.41743215 44.1981818,1.10336154 C44.2804369,1.80368005 44.9136383,2.3159024 45.6333333,2.26431392 L49.3333333,2.26431392 L51.0824242,4.45479011 C51.221094,4.91272285 51.0037797,5.40188928 50.5666667,5.61574249 L50.5666667,5.61574249 Z" id="Shape"></path>
        </g>
    </g>
</svg>