<?xml version="1.0" encoding="UTF-8" standalone="no"?>
<svg width="36px" height="23px" viewBox="0 0 36 23" version="1.1" xmlns="http://www.w3.org/2000/svg" xmlns:xlink="http://www.w3.org/1999/xlink">
    <!-- Generator: Sketch 43.1 (39012) - http://www.bohemiancoding.com/sketch -->
    <title>Combined Shape</title>
    <desc>Created with Sketch.</desc>
    <defs></defs>
    <g id="Page-1" stroke="none" stroke-width="1" fill="none" fill-rule="evenodd">
        <path d="M12.6065558,20.369276 L11.1904518,20.369276 L11.1904518,19.0272924 L9.53919973,18.2900077 L0,18.2900077 L0,17.4180565 L9.97739344,17.4180565 L9.97739344,6.91917686 L11.2262777,6.91917686 L11.2262777,1.21947075 L12.8792838,1.21947075 L12.8792838,15.2383539 L18.0459478,1.75253134 C18.2438027,1.23609839 18.857333,0.817446763 19.4124578,0.817446763 L27.3404744,0.817446763 C27.8973222,0.817446763 28.3487365,1.27169429 28.3487365,1.82117669 L28.3487365,7.42621681 L31.9951001,7.42621681 C34.2069452,7.42621681 36,9.22589374 36,11.4328432 L36,20.369276 L34.4810377,20.369276 C34.4810377,20.369276 34.2128768,16.6131785 30.8421559,16.6131785 C27.471435,16.6131785 27.3703133,20.369276 27.3703133,20.369276 L19.8535301,20.369276 C19.8535301,20.369276 19.6659056,16.5796419 16.1458127,16.5796419 C12.6257198,16.5796419 12.6065558,20.369276 12.6065558,20.369276 Z M14.7974648,15.2381785 L20.6962859,15.3387882 L22.7859739,13.2595199 L26.3590971,13.2595199 L26.3590971,9.53695896 L27.0669485,9.50342237 L27.5051422,9.50342237 L27.4462658,2.59118211 C27.4415454,2.03699031 26.9881,1.58878823 26.4334561,1.58878823 L20.1163187,1.58878823 C19.5596719,1.58878823 18.9527348,2.00286937 18.7562132,2.51366435 L14.7638171,12.8906175 L15.1345964,12.5887882 L15.707619,12.6223248 L18.3367813,9.6711053 L17.4460337,8.84025656 C17.3427889,8.74395453 17.33455,8.57949353 17.4287934,8.47400641 L17.6268232,8.25235054 C17.7224765,8.14528534 17.8799845,8.14122293 17.9817762,8.23975217 L20.1759559,10.3636065 C20.2749972,10.4594735 20.2837177,10.6181705 20.1892905,10.7121198 L19.9908742,10.9095316 C19.9043309,10.9956368 19.7397263,11.0045677 19.640829,10.911959 L18.6738534,10.0064712 L16.0109839,12.9912273 L16.0783387,13.6284224 L14.7974648,15.2381785 Z M30.9432179,22.8174468 C29.4539397,22.8174468 28.2466412,21.6162595 28.2466412,20.1345199 C28.2466412,18.6527804 29.4539397,17.4515931 30.9432179,17.4515931 C32.4324962,17.4515931 33.6397947,18.6527804 33.6397947,20.1345199 C33.6397947,21.6162595 32.4324962,22.8174468 30.9432179,22.8174468 Z M16.1120459,22.8174468 C14.6227677,22.8174468 13.4154692,21.6162595 13.4154692,20.1345199 C13.4154692,18.6527804 14.6227677,17.4515931 16.1120459,17.4515931 C17.6013241,17.4515931 18.8086227,18.6527804 18.8086227,20.1345199 C18.8086227,21.6162595 17.6013241,22.8174468 16.1120459,22.8174468 Z" id="Combined-Shape" fill="#77878B"></path>
    </g>
</svg>