<?xml version="1.0" encoding="UTF-8" standalone="no"?>
<svg width="31px" height="18px" viewBox="0 0 31 18" version="1.1" xmlns="http://www.w3.org/2000/svg" xmlns:xlink="http://www.w3.org/1999/xlink">
    <!-- Generator: Sketch 43.1 (39012) - http://www.bohemiancoding.com/sketch -->
    <title>Car_8</title>
    <desc>Created with Sketch.</desc>
    <defs></defs>
    <g id="Page-1" stroke="none" stroke-width="1" fill="none" fill-rule="evenodd">
        <g id="Car_8" fill-rule="nonzero" fill="#FFFFFF">
            <path d="M0,12.9996572 L0,10.2996572 C0,10.2096572 0.12,10.0996572 0.21,10.0596572 C2.82,8.7796572 5.47,7.5996572 8.21,6.5396572 C12.2450757,4.95038575 16.401924,3.68962003 20.64,2.7696572 C23.677197,2.09729673 26.7792807,1.76193632 29.89,1.7696572 L30.54,1.7696572 C30.5106489,1.8592401 30.4738539,1.94621013 30.43,2.0296572 C28.75,5.26299053 27.0633333,8.49299053 25.37,11.7196572 C25.2999226,11.8414507 25.1851307,11.9311319 25.05,11.9696572 C22.7711853,12.5927402 20.3889004,12.7424838 18.05,12.4096572 C15.8885125,12.082416 13.7481484,11.6282982 11.64,11.0496572 C9.54088898,10.5812103 7.36619517,10.5641673 5.26,10.9996572 C3.57502999,11.3253627 1.9604499,11.9447928 0.49,12.8296572 C0.331617414,12.8996969 0.167728699,12.9565563 1.74860126e-16,12.9996572 L0,12.9996572 Z M13.63,8.1496572 C13.846554,8.15255559 14.0548019,8.06642309 14.2060403,7.91140379 C14.3572786,7.7563845 14.4382437,7.5460736 14.43,7.3296572 C14.4300165,7.11308795 14.3433061,6.9055312 14.1892319,6.75333598 C14.0351578,6.60114075 13.8265527,6.51698351 13.61,6.5196572 C13.1616864,6.5356501 12.8050553,6.90108692 12.8,7.3496572 C12.799847,7.567132 12.8882381,7.77529706 13.0448198,7.92621917 C13.2014015,8.07714128 13.4126781,8.15781256 13.63,8.1496572 L13.63,8.1496572 Z M17.05,6.5196572 C17.0499664,6.06809287 16.6848534,5.70153807 16.2332928,5.69972479 C15.7817321,5.69791151 15.4136871,6.06152225 15.4100269,6.51307174 C15.4063668,6.96462124 15.7684692,7.33415032 16.22,7.3396572 C16.6723287,7.33439948 17.0392601,6.971889 17.05,6.5196572 L17.05,6.5196572 Z M11.13,7.3496572 C11.5767093,7.36039349 11.9347454,7.72284981 11.94,8.1696572 C11.9344933,8.6156646 11.5694419,8.97328978 11.1234155,8.96962993 C10.6773892,8.96597009 10.3182555,8.60240265 10.3200684,8.15636494 C10.3218814,7.71032724 10.6839586,7.34969119 11.13,7.3496572 Z M7.73,5.8396572 L7,3.4596572 C7.39,3.2996572 7.77,3.1396572 8.15,3.0096572 C8.71,2.8296572 9.28,2.6696572 9.84,2.4996572 L10.13,2.4096572 C10.3910707,2.32804576 10.5381058,2.05179805 10.46,1.7896572 C10.4272831,1.66125556 10.3439593,1.55157773 10.2290295,1.48563441 C10.1140997,1.41969109 9.97736279,1.40310457 9.85,1.4396572 C9.41,1.5396572 8.98,1.6596572 8.55,1.7996572 C7.94,1.9996572 7.33,2.2296572 6.7,2.4496572 L6.44,1.6496572 C5.70360594,1.8248167 4.93639406,1.8248167 4.2,1.6496572 C5.1771825,1.19157437 6.19934429,0.836331254 7.25,0.589657201 C9.53959852,0.0365693718 11.9056754,-0.12905601 14.25,0.0996572013 C15.1185059,0.232040846 15.97964,0.408940491 16.83,0.629657201 L21.39,1.6296572 C21.4396124,1.63875031 21.4850989,1.66324306 21.52,1.6996572 C16.7706543,2.50766164 12.1390486,3.89815096 7.73,5.8396572 L7.73,5.8396572 Z M0,14.6296572 C0.64,14.2596572 1.25,13.8596572 1.9,13.5296572 C4.16470657,12.4170757 6.68244279,11.9204264 9.2,12.0896572 C10.5350891,12.2016357 11.8552631,12.4495872 13.14,12.8296572 C14.900987,13.3181761 16.7010893,13.6527676 18.52,13.8296572 C21.8219669,14.266251 25.1782001,13.6725365 28.13,12.1296572 C28.1726198,12.1012917 28.2200665,12.0809573 28.27,12.0696572 L28.38,12.0696572 C28.07,12.3196572 27.8,12.5596572 27.5,12.7796572 C25.8976691,13.9494708 24.0397219,14.7207589 22.08,15.0296572 C19.108432,15.5214441 16.0620412,15.2881619 13.2,14.3496572 C10.9833288,13.6289319 8.66015207,13.2907693 6.33,13.3496572 C4.30022359,13.412863 2.29696136,13.8290814 0.41,14.5796572 L0.06,14.7096572 L0,14.6296572 Z M1,16.7596572 C1.60060737,16.2764799 2.27618957,15.894776 3,15.6296572 C5.28579221,14.7872572 7.78655929,14.7274639 10.11,15.4596572 C12.0014495,16.0091667 13.96036,16.291896 15.93,16.2996572 C16.6986175,16.3399329 17.4601694,16.4674174 18.2,16.6796572 C17.71,16.7996572 17.2,16.9496572 16.74,17.0496572 C14.5901174,17.4403246 12.3767694,17.2891021 10.3,16.6096572 C8.72599272,16.1060257 7.08260353,15.852937 5.43,15.8596572 C4.01132831,15.8977274 2.60886405,16.1714614 1.28,16.6696572 L1,16.7596572 Z" id="Combined-Shape"></path>
        </g>
    </g>
</svg>