<?xml version="1.0" encoding="UTF-8" standalone="no"?>
<svg width="39px" height="21px" viewBox="0 0 39 21" version="1.1" xmlns="http://www.w3.org/2000/svg" xmlns:xlink="http://www.w3.org/1999/xlink">
    <!-- Generator: Sketch 43.1 (39012) - http://www.bohemiancoding.com/sketch -->
    <title>Combined-Shape Copy</title>
    <desc>Created with Sketch.</desc>
    <defs></defs>
    <g id="Page-1" stroke="none" stroke-width="1" fill="none" fill-rule="evenodd">
        <path d="M38.9478774,15.2002925 L28.6561837,19.0656668 C27.6210531,19.4544431 26.7247239,18.8806791 26.6531484,17.7681486 L26.1617316,10.1298359 C26.1261621,9.57696346 26.5124954,9.28107771 27.0352115,9.47283799 L37.6375243,13.3623347 C38.1555034,13.5523572 38.6851468,14.1465377 38.8176058,14.6778017 L38.9478774,15.2002925 Z M27.5,17 C27.1132959,16.6216817 26,13.960375 24.04,13.460375 C22.08,12.960375 23.53,13.320375 23.53,13.320375 C23.1499952,13.2086937 22.7560747,13.1514574 22.36,13.150375 C20.8344134,13.1533784 19.4213598,13.9535567 18.634046,15.2602931 C17.8467321,16.5670296 17.7996882,18.1902341 18.51,19.540375 L10.58,19.540375 C10.9117591,18.9257436 11.0869244,18.2388207 11.09,17.540375 C11.09,15.1655506 9.16482442,13.240375 6.79,13.240375 C4.41517558,13.240375 2.49,15.1655506 2.49,17.540375 C2.49307557,18.2388207 2.66824089,18.9257436 3,19.540375 L1.81,19.540375 C0.810364603,19.540375 1.22420029e-16,18.7300104 0,17.730375 L0,15.560375 C0.00550433771,12.4201576 2.54978257,9.87587928 5.69,9.87037498 L7.61,9.87037498 L7.61,3.33037498 C7.61257302,2.43755545 7.97249693,1.58293152 8.60942971,0.95727189 C9.24636248,0.33161226 10.1072769,-0.0129943398 11,0.0003749802 L15.37,0.0003749802 C17.3491311,0.0068003802 19.0838998,1.3252246 19.62,3.23037498 L22.15,12.415375 L29,12.415375 L27.5,17 Z M16.09,17.150375 C16.4259096,17.1091058 16.6782993,16.8238102 16.6782993,16.485375 C16.6782993,16.1469398 16.4259096,15.8616442 16.09,15.820375 L13.73,15.820375 C13.4729472,15.788794 13.2207131,15.9081891 13.0821909,16.1270158 C12.9436688,16.3458425 12.9436688,16.6249075 13.0821909,16.8437342 C13.2207131,17.0625609 13.4729472,17.181956 13.73,17.150375 L16.09,17.150375 Z M11,10.460375 L18.17,10.460375 L16.41,4.15037498 C16.2877725,3.6935273 15.8825355,3.36933766 15.41,3.35037498 L12,3.35037498 C11.4477153,3.35037498 11,3.79809023 11,4.35037498 L11,10.460375 Z M6.79,14.530375 C8.44685425,14.530375 9.79,15.8735208 9.79,17.530375 C9.79,19.1872292 8.44685425,20.530375 6.79,20.530375 C5.13314575,20.530375 3.79,19.1872292 3.79,17.530375 C3.79,15.8735208 5.13314575,14.530375 6.79,14.530375 Z M6.79,18.530375 C7.34228475,18.530375 7.79,18.0826597 7.79,17.530375 C7.79,16.9780903 7.34228475,16.530375 6.79,16.530375 C6.23771525,16.530375 5.79,16.9780903 5.79,17.530375 C5.79,18.0826597 6.23771525,18.530375 6.79,18.530375 Z M22.36,14.460375 C23.2123922,14.4558106 24.0264817,14.8140676 24.5989205,15.4456585 C25.1713594,16.0772493 25.448094,16.922535 25.36,17.770375 C25.1931463,19.3762191 23.7853469,20.5620246 22.1745057,20.4535534 C20.5636645,20.3450821 19.3275541,18.9812402 19.3775,17.3675237 C19.427446,15.7538073 20.7455339,14.4690201 22.36,14.460375 Z M22.36,18.460375 L22.35,18.530375 C22.6295351,18.5338578 22.8977656,18.4201707 23.0896601,18.2168766 C23.2815545,18.0135824 23.3795907,17.7392445 23.36,17.460375 C23.36,16.9080903 22.9122847,16.460375 22.36,16.460375 C21.8077153,16.460375 21.36,16.9080903 21.36,17.460375 C21.36,18.0126597 21.8077153,18.460375 22.36,18.460375 Z" id="Combined-Shape-Copy" fill="#FFFFFF" fill-rule="nonzero"></path>
    </g>
</svg>