<?xml version="1.0" encoding="UTF-8" standalone="no"?>
<svg width="80px" height="30px" viewBox="0 0 80 30" version="1.1" xmlns="http://www.w3.org/2000/svg" xmlns:xlink="http://www.w3.org/1999/xlink">
    <!-- Generator: Sketch 43.1 (39012) - http://www.bohemiancoding.com/sketch -->
    <title>Car_3_bl</title>
    <desc>Created with Sketch.</desc>
    <defs></defs>
    <g id="Page-1" stroke="none" stroke-width="1" fill="none" fill-rule="evenodd">
        <path d="M15.2739559,14.2981851 L15.308631,14.2981851 C19.300718,14.2981851 22.5477339,17.5307718 22.5637378,21.5345486 C22.5815199,25.5507926 19.3469515,28.8172191 15.3406388,28.834139 L15.3068528,28.834139 C11.3156549,28.834139 8.06774989,25.6006618 8.05085688,21.596885 C8.03396386,17.584203 11.2676432,14.315105 15.2739559,14.2981851 Z M15.325524,24.8027561 L15.3441952,24.8027561 C17.1295205,24.7867267 18.5592034,23.3191502 18.5423103,21.5292055 C18.5263064,19.7463849 17.0690613,18.3135386 15.2908489,18.3268964 L15.2730667,18.3268964 C13.4886306,18.3447068 12.0589477,19.8105023 12.0740625,21.6022281 C12.0918447,23.3850486 13.5499789,24.8152233 15.325524,24.8027561 Z M65.6258196,14.5804799 L65.6578275,14.5804799 C69.6508035,14.5804799 72.8951521,17.812176 72.9129343,21.8177339 C72.9307164,25.8339779 69.6970371,29.1004044 65.6880571,29.1173242 L65.6560493,29.1173242 C61.6639623,29.1173242 58.4187246,25.883847 58.4000533,21.8800702 C58.3831603,17.8682788 61.6186179,14.5982903 65.6258196,14.5804799 Z M65.6764987,25.0859413 L65.6916135,25.0859413 C67.4778279,25.0681309 68.910178,23.6005544 68.8915068,21.8123907 C68.8719465,20.0277892 67.4182578,18.5967239 65.6382671,18.6100817 L65.6231523,18.6100817 C63.837827,18.6261111 62.406366,20.0936876 62.4241481,21.8836323 C62.4419302,23.6682339 63.8973971,25.0984086 65.6764987,25.0859413 Z M27.5027229,21.2682832 L27.5027229,22.4740469 C27.5027229,22.929993 27.9028207,23.3022303 28.3918291,23.3022303 L56.2084065,23.3022303 C56.6716308,23.3022303 56.7667652,22.9139637 56.7658761,22.7162683 C56.764987,22.5078867 56.7809909,21.4739932 56.7943275,21.2691737 L27.5027229,21.2691737 L27.5027229,21.2682832 Z M0.40276512,16.4176221 C0.647269333,16.4176221 0.889106226,16.0177787 0.889106226,15.5271024 L0.889106226,8.39047708 C0.889106226,7.46077446 1.78977083,6.58717459 2.67887706,6.58717459 L26.6313988,6.58717459 L28.1117607,0.874490394 C28.2024495,0.393609729 28.6772322,0 29.1662406,0 L50.487897,0 C50.9769055,0 51.6908578,0.24845501 52.0740625,0.553012764 L58.7512503,5.18015338 C59.1344551,5.48382062 59.8466292,5.77413005 60.3329703,5.82488968 L75.3064082,7.3859708 C75.7927493,7.43673043 76.5573807,7.63887841 77.0054902,7.83568327 L77.4038098,8.01022515 C77.8412501,8.20257741 78.1951144,8.74223238 78.2120074,9.22311304 L78.2217875,9.22311304 C78.710796,9.22311304 79.1108938,9.62384693 79.1108938,10.1136328 L79.1108938,16.1246411 C79.5999022,16.1246411 80,16.5262655 80,17.0151609 L80,19.8220791 C80,20.4009169 79.5527796,20.7054747 79.1108938,20.8256949 L74.5151037,20.8256949 C74.5151037,20.8256949 74.4528663,20.5211371 74.4030763,20.246857 C73.6446687,16.1023781 70.0055569,12.9445951 65.6587166,12.9445951 C61.0798195,12.963296 57.3402387,16.4113885 56.83167,20.8239138 L27.5027229,20.8239138 L27.5027229,20.8185707 L24.1587944,20.8239138 C23.7782569,16.2635622 19.9506546,12.6614098 15.3077419,12.6614098 C10.6337105,12.6818918 6.83278135,16.2751389 6.45135478,20.8203517 C6.10993798,20.7980887 5.76407566,20.8568631 5.50623486,20.8203517 L0.838427171,20.8203517 C0.353864278,20.7526722 0,20.3991359 0,19.90935 L0,17.0311902 C0,16.5414043 0.158260908,16.4176221 0.40276512,16.4176221 Z M29.7263776,6.54353912 C29.6525817,7.02798186 29.9931094,7.42426315 30.4821179,7.42426315 L40.0035564,7.42426315 L40.0035564,1.1995301 L31.6157283,1.1995301 C31.1267199,1.1995301 30.6670519,1.59581139 30.5932561,2.08025413 L29.7263776,6.54353912 Z M51.3298806,1.76233858 C50.9511214,1.45243771 50.2407255,1.1995301 49.7526062,1.1995301 L41.7462046,1.1995301 L41.7462046,7.42426315 L47.0719509,7.42426315 C47.5609593,7.42426315 48.1877792,7.75464598 48.4660695,8.1571609 L49.3142768,9.38874972 C49.591678,9.79215516 50.219387,10.1216475 50.7083954,10.1216475 L56.8699015,10.1216475 C57.35891,10.1216475 57.7590078,9.72091358 57.7590078,9.23112772 L57.7590078,7.36994145 C57.7590078,6.88015558 57.4487097,6.22562357 57.0708395,5.91661321 L51.3298806,1.76233858 Z" id="Car_3_bl" fill="#3265B1" fill-rule="nonzero"></path>
    </g>
</svg>