<svg width="36" height="14" viewBox="0 0 36 14" fill="none" xmlns="http://www.w3.org/2000/svg">
<path d="M19.6224 1.10547H20.2542V5.50892H19.6224V1.10547Z" fill="#FFFFFF"/>
<path d="M25.5959 1.62575L25.921 2.20173V5.50896H25.2893V1.3006C25.4101 1.38421 25.5123 1.49569 25.5959 1.62575Z" fill="#FFFFFF"/>
<path d="M8.29794 1.10547H8.92966V5.50892H8.29794V1.10547Z" fill="#FFFFFF"/>
<path d="M13.9648 1.10547H14.5965V5.50892H13.9648V1.10547Z" fill="#FFFFFF"/>
<path d="M32.842 10.5441C32.842 11.7983 32.2103 12.43 31.5879 12.43C30.9562 12.43 29.702 12.43 29.702 12.43C29.702 11.7425 29.702 11.0365 29.3118 10.5441H29.3769H32.842V10.5441Z" fill="#FFFFFF"/>
<path d="M6.09621 10.5441H6.17053C5.78035 11.0365 5.78035 11.7425 5.78035 12.43C5.78035 12.43 5.14863 12.43 4.5262 12.43C3.90378 12.43 3.27206 11.7983 3.27206 10.5441H6.09621V10.5441Z" fill="#FFFFFF"/>
<path d="M3.26279 9.2807H4.03386C4.30327 9.2807 4.51694 9.06703 4.51694 8.79762V7.87792C4.51694 7.60851 4.30327 7.39484 4.03386 7.39484H3.26279V9.2807Z" fill="white"/>
<path d="M32.8235 9.07629C32.8235 9.10416 32.8328 9.12274 32.8328 9.15061C32.8328 9.12274 32.8328 9.09487 32.8235 9.07629Z" fill="#FFFFFF"/>
<path d="M4.05239 0.157959H24.927C25.3543 0.157959 25.7538 0.362339 26.0046 0.706068L29.0703 4.87727C29.0703 4.87727 31.6158 6.57734 32.5262 8.22166C32.3683 7.94296 32.1732 7.66426 31.9502 7.39485H31.9038H31.3464C31.1327 7.39485 30.9655 7.56207 30.9655 7.77574V8.34243C30.9655 8.86267 31.3835 9.28072 31.9038 9.28072H32.842V10.5349H29.3026C28.996 10.154 28.4572 9.90315 27.491 9.90315C26.5249 9.90315 25.986 10.154 25.6795 10.5349C25.2893 11.0272 25.2893 11.7333 25.2893 12.4207H10.1838C10.1838 11.7333 10.1838 11.0272 9.7936 10.5349C9.48703 10.154 8.94821 9.90315 7.98206 9.90315C7.0159 9.90315 6.47708 10.154 6.17051 10.5349H3.26275V0.947607C3.26275 0.510978 3.61576 0.157959 4.05239 0.157959ZM4.34038 5.35106L27.8069 5.50899L25.6051 1.48643H4.33109V5.35106H4.34038Z" fill="#FFFFFF"/>
<path d="M32.7399 8.71399C32.7492 8.75115 32.7585 8.77902 32.7678 8.81618C32.7678 8.77902 32.7492 8.75115 32.7399 8.71399Z" fill="#FFFFFF"/>
<path d="M32.5262 8.2309C32.5912 8.34238 32.647 8.46315 32.6934 8.57463C32.647 8.46315 32.5912 8.35167 32.5262 8.2309Z" fill="#FFFFFF"/>
<path d="M32.8049 8.95557C32.8142 8.98344 32.8142 9.01131 32.8235 9.03918C32.8142 9.01131 32.8142 8.98344 32.8049 8.95557Z" fill="#FFFFFF"/>
<path d="M32.7027 8.60254C32.712 8.63041 32.7213 8.65828 32.7399 8.69544C32.7213 8.65828 32.712 8.63041 32.7027 8.60254Z" fill="#FFFFFF"/>
<path d="M32.7771 8.8255C32.7864 8.86266 32.7956 8.89982 32.8049 8.93698C32.7956 8.89982 32.7864 8.86266 32.7771 8.8255Z" fill="#FFFFFF"/>
<path d="M27.491 10.2283C28.5315 10.2283 29.3769 11.0737 29.3769 12.1141C29.3769 13.1546 28.5315 14 27.491 14C26.4505 14 25.6052 13.1546 25.6052 12.1141C25.6052 11.0737 26.4505 10.2283 27.491 10.2283ZM27.491 13.6841C28.3643 13.6841 29.061 12.9781 29.061 12.1141C29.061 11.2409 28.355 10.5441 27.491 10.5441C26.6271 10.5441 25.921 11.2502 25.921 12.1141C25.921 12.9874 26.6271 13.6841 27.491 13.6841Z" fill="#FFFFFF"/>
<path d="M27.491 10.3862C28.4479 10.3862 29.2189 11.1665 29.2189 12.1141C29.2189 13.071 28.4386 13.842 27.491 13.842C26.5341 13.842 25.7631 13.0617 25.7631 12.1141C25.7631 11.1572 26.5434 10.3862 27.491 10.3862ZM27.491 13.3775C28.1877 13.3775 28.7451 12.8109 28.7451 12.1234C28.7451 11.4266 28.1785 10.8692 27.491 10.8692C26.8035 10.8692 26.2368 11.4359 26.2368 12.1234C26.2368 12.8109 26.8035 13.3775 27.491 13.3775Z" fill="#FFFFFF"/>
<path d="M27.4911 11.0179C28.0949 11.0179 28.5966 11.5103 28.5966 12.1235C28.5966 12.7273 28.1042 13.229 27.4911 13.229C26.8872 13.229 26.3855 12.7366 26.3855 12.1235C26.3948 11.5103 26.8872 11.0179 27.4911 11.0179Z" fill="#FFFFFF"/>
<path d="M7.98205 10.2283C9.02253 10.2283 9.86792 11.0737 9.86792 12.1141C9.86792 13.1546 9.02253 14 7.98205 14C6.94158 14 6.09619 13.1546 6.09619 12.1141C6.09619 11.0737 6.94158 10.2283 7.98205 10.2283ZM7.98205 13.6841C8.85531 13.6841 9.55206 12.9781 9.55206 12.1141C9.55206 11.2409 8.84602 10.5441 7.98205 10.5441C7.11809 10.5441 6.41205 11.2502 6.41205 12.1141C6.41205 12.9874 7.11809 13.6841 7.98205 13.6841Z" fill="#FFFFFF"/>
<path d="M7.98206 10.3862C8.93892 10.3862 9.70999 11.1665 9.70999 12.1141C9.70999 13.071 8.92963 13.842 7.98206 13.842C7.02519 13.842 6.25412 13.0617 6.25412 12.1141C6.25412 11.1572 7.02519 10.3862 7.98206 10.3862ZM7.98206 13.3775C8.6788 13.3775 9.2362 12.8109 9.2362 12.1234C9.2362 11.4266 8.66951 10.8692 7.98206 10.8692C7.28531 10.8692 6.72791 11.4359 6.72791 12.1234C6.72791 12.8109 7.2946 13.3775 7.98206 13.3775Z" fill="#FFFFFF"/>
<path d="M7.98205 11.0179C8.5859 11.0179 9.08755 11.5103 9.08755 12.1235C9.08755 12.7273 8.59519 13.229 7.98205 13.229C7.3782 13.229 6.87654 12.7366 6.87654 12.1235C6.88583 11.5103 7.3782 11.0179 7.98205 11.0179Z" fill="#FFFFFF"/>
<path d="M4.82348 0.947571H24.6855C25.1128 0.947571 25.5215 1.17982 25.7352 1.55142L28.0763 5.66688H4.05241V1.71864C4.05241 1.2913 4.39614 0.947571 4.82348 0.947571ZM26.0789 5.35102H27.5375L26.0789 2.79628V5.35102ZM25.4472 5.35102H25.7631V2.24817L25.4565 1.70935L25.4472 1.70006V5.35102V5.35102ZM20.4121 5.35102H25.1314V1.3842C25.0013 1.30059 24.8434 1.26343 24.6762 1.26343H20.4028V5.35102H20.4121ZM19.7803 5.35102H20.0962V1.26343H19.7803V5.35102ZM14.7452 5.35102H19.4645V1.26343H14.7452V5.35102ZM14.1227 5.35102H14.4386V1.26343H14.1227V5.35102ZM9.08758 5.35102H13.8069V1.26343H9.08758V5.35102ZM8.45585 5.35102H8.77172V1.26343H8.45585V5.35102ZM4.36826 5.35102H8.14V1.26343H4.82348C4.57265 1.26343 4.36826 1.46781 4.36826 1.71864V5.35102V5.35102Z" fill="#FFFFFF"/>
<path d="M4.05242 0H24.927C25.4008 0 25.856 0.232249 26.1347 0.613139L29.1818 4.76576C29.5255 4.99801 33 7.39482 33 9.28069V10.3862V10.5441C33 11.9469 32.2661 12.5879 31.5879 12.5879H29.5441V12.43C29.5441 11.213 29.5441 10.0703 27.5003 10.0703C25.4565 10.0703 25.4565 11.213 25.4565 12.43V12.5879H10.0352V12.43C10.0352 11.213 10.0352 10.0703 7.99137 10.0703C5.94758 10.0703 5.94758 11.213 5.94758 12.43V12.5879H4.5355C3.85733 12.5879 3.12342 11.9469 3.12342 10.5441V10.3862V0.947578C3.10484 0.427339 3.53218 0 4.05242 0ZM31.8666 7.55275H31.3371C31.2163 7.55275 31.1141 7.65494 31.1141 7.77571V8.3424C31.1141 8.76974 31.4672 9.12276 31.8945 9.12276H32.6749C32.6191 8.6211 32.3033 8.08228 31.8666 7.55275ZM29.8507 12.2721H31.5879C32.0989 12.2721 32.6377 11.7797 32.6841 10.7021H29.5906C29.8321 11.1666 29.8507 11.7425 29.8507 12.2721ZM4.52621 12.2721H5.63172C5.63172 11.7425 5.65959 11.1666 5.90113 10.7021H3.43928C3.47644 11.7797 4.01526 12.2721 4.52621 12.2721ZM3.4207 9.12276H4.03384C4.21035 9.12276 4.35899 8.97412 4.35899 8.79761V7.8779C4.35899 7.70139 4.21035 7.55275 4.03384 7.55275H3.4207V9.12276ZM3.4207 7.23689H4.03384C4.38686 7.23689 4.67485 7.52488 4.67485 7.8779V8.79761C4.67485 9.15063 4.38686 9.43862 4.03384 9.43862H3.4207V10.3862H6.09622V10.3955C6.43066 10.0146 7.00664 9.75448 7.98209 9.75448C10.2396 9.75448 10.3417 11.1108 10.3417 12.2721H25.1314C25.1314 11.1108 25.2336 9.75448 27.491 9.75448C28.4665 9.75448 29.0425 10.0146 29.3769 10.3955V10.3862H32.6841V9.43862H31.8852C31.2814 9.43862 30.7983 8.94625 30.7983 8.35169V7.785C30.7983 7.48772 31.0398 7.24618 31.3371 7.24618H31.5972C30.5103 6.03849 29.0053 5.02588 28.9774 5.0073L28.9589 4.98872L25.8839 0.798938C25.6609 0.492369 25.3079 0.315859 24.927 0.315859H4.05242C3.70869 0.315859 3.4207 0.594559 3.4207 0.947578V7.23689Z" fill="#FFFFFF"/>
</svg>
