<?xml version="1.0" encoding="UTF-8" standalone="no"?>
<svg width="87px" height="45px" viewBox="0 0 87 45" version="1.1" xmlns="http://www.w3.org/2000/svg" xmlns:xlink="http://www.w3.org/1999/xlink">
    <!-- Generator: Sketch 43.1 (39012) - http://www.bohemiancoding.com/sketch -->
    <title>Car_6_bl</title>
    <desc>Created with Sketch.</desc>
    <defs></defs>
    <g id="Page-1" stroke="none" stroke-width="1" fill="none" fill-rule="evenodd">
        <g id="Car_6_bl" fill-rule="nonzero" fill="#3265B1">
            <path d="M86.8837265,33.2958788 L63.9253329,41.7628892 C61.6161954,42.6144944 59.6166918,41.357678 59.4570234,38.9207065 L58.3607859,22.1891644 C58.2814385,20.9781104 59.143259,20.3299797 60.309318,20.7500261 L83.9606311,29.269876 C85.116123,29.6861158 86.2976352,30.987654 86.5931206,32.1513752 L86.8837265,33.2958788 Z M61.3461538,37.2380952 C60.4835062,36.409398 58,30.579869 53.6276923,29.484631 C49.2553846,28.3893929 52.49,29.1779643 52.49,29.1779643 C51.642297,28.9333291 50.7635513,28.8079543 49.88,28.8055833 C46.4767684,28.8121622 43.3245719,30.5649337 41.5682565,33.4273087 C39.8119408,36.2896839 39.7069968,39.8452747 41.2915385,42.8027262 L23.6015385,42.8027262 C24.3416165,41.4563907 24.7323698,39.9517025 24.7392308,38.4217738 C24.7392308,33.2197775 20.4446083,29.0027262 15.1469231,29.0027262 C9.84923783,29.0027262 5.55461538,33.2197775 5.55461538,38.4217738 C5.56147627,39.9517025 5.95222968,41.4563907 6.69230769,42.8027262 L4.03769231,42.8027262 C1.80773642,42.8027262 2.73090834e-16,41.0276418 0,38.8379643 L0,34.084631 C0.0122789072,27.2060595 5.6879765,21.6328784 12.6930769,21.6208214 L16.9761538,21.6208214 L16.9761538,7.2951071 C16.9818937,5.33940718 17.7848008,3.46737381 19.2056509,2.09688128 C20.6265009,0.72638876 22.5470023,-0.0284637919 24.5384615,0.0008213852 L34.2869231,0.0008213852 C38.7019078,0.0148960709 42.5717765,2.90287293 43.7676923,7.07605948 L49.4115385,27.1955833 L64.6923077,27.1955833 L61.3461538,37.2380952 Z M35.8930769,37.5674881 C36.6424137,37.4770889 37.2054369,36.8521557 37.2054369,36.1108214 C37.2054369,35.3694872 36.6424137,34.744554 35.8930769,34.6541548 L30.6284615,34.6541548 C30.0550361,34.5849773 29.49236,34.8465095 29.1833489,35.3258441 C28.8743381,35.8051788 28.8743381,36.416464 29.1833489,36.8957987 C29.49236,37.3751334 30.0550361,37.6366655 30.6284615,37.5674881 L35.8930769,37.5674881 Z M24.5384615,22.9132024 L40.5330769,22.9132024 L36.6069231,9.09129758 C36.3342617,8.09058361 35.4302715,7.38045392 34.3761538,7.33891662 L26.7692308,7.33891662 C25.5372111,7.33891662 24.5384615,8.31962622 24.5384615,9.52939281 L24.5384615,22.9132024 Z M15.1469231,31.8284405 C18.8429826,31.8284405 21.8392308,34.7705694 21.8392308,38.399869 C21.8392308,42.0291687 18.8429826,44.9712976 15.1469231,44.9712976 C11.4508636,44.9712976 8.45461538,42.0291687 8.45461538,38.399869 C8.45461538,34.7705694 11.4508636,31.8284405 15.1469231,31.8284405 Z M15.1469231,40.5903452 C16.3789429,40.5903452 17.3776923,39.6096355 17.3776923,38.399869 C17.3776923,37.1901026 16.3789429,36.2093929 15.1469231,36.2093929 C13.9149032,36.2093929 12.9161538,37.1901026 12.9161538,38.399869 C12.9161538,39.6096355 13.9149032,40.5903452 15.1469231,40.5903452 Z M49.88,31.6751071 C51.7814903,31.6651089 53.5975361,32.4498624 54.874515,33.8333472 C56.151494,35.2168318 56.7688251,37.06841 56.5723077,38.9255833 C56.2000956,42.4431466 53.05962,45.0406253 49.466205,44.8030217 C45.87279,44.5654179 43.115313,41.5779547 43.2267308,38.0431472 C43.3381488,34.5083398 46.2784987,31.694044 49.88,31.6751071 Z M49.88,40.4370119 L49.8576923,40.5903452 C50.4812706,40.5979742 51.079631,40.3489453 51.5077033,39.9036345 C51.9357754,39.4583234 52.1544716,38.8573927 52.1107692,38.2465357 C52.1107692,37.0367692 51.1120197,36.0560595 49.88,36.0560595 C48.6479803,36.0560595 47.6492308,37.0367692 47.6492308,38.2465357 C47.6492308,39.4563022 48.6479803,40.4370119 49.88,40.4370119 Z" id="Combined-Shape"></path>
        </g>
    </g>
</svg>