<?xml version="1.0" encoding="UTF-8" standalone="no"?>
<svg width="34px" height="27px" viewBox="0 0 34 27" version="1.1" xmlns="http://www.w3.org/2000/svg" xmlns:xlink="http://www.w3.org/1999/xlink">
    <!-- Generator: Sketch 43.1 (39012) - http://www.bohemiancoding.com/sketch -->
    <title>Combined Shape Copy 2</title>
    <desc>Created with Sketch.</desc>
    <defs></defs>
    <g id="Page-1" stroke="none" stroke-width="1" fill="none" fill-rule="evenodd">
        <path d="M5.25174394,21.9423934 L1.30622027,21.132654 C0.911866804,21.0517208 0.507238821,20.6557628 0.422950824,20.2524625 L-0.0106367108,18.1778378 C-0.0669850816,17.9082228 0.0546702791,17.5468663 0.26039829,17.3674248 L0.988171526,16.7326413 L1.26324071,2.88566848 L2.08844828,2.33727352 L1.81337909,0.554989897 L3.22840765,-0.0044428919 C3.49188697,-0.108609672 3.78880584,0.012595533 3.906934,0.260212031 L4.70160556,1.9259773 L15.4948477,4.4189251 C15.764223,4.48114352 15.9042844,4.74262932 15.8115724,5.00386821 L13.8401088,10.5589526 L19.3871971,10.5625532 C19.9309983,10.5629061 20.5943659,10.957676 20.858122,11.4442893 L23.2327776,15.8253781 C23.3013898,15.9519633 23.460973,16.0471476 23.5941868,16.0471476 L25.6068639,16.0471476 C25.6068639,16.0471476 27.3163161,14.0952098 29.0452287,14.1277652 C32.3753059,14.1904705 32.8876621,16.0471476 32.8876621,16.0471476 L33.7420115,16.0471476 C33.8973477,16.0471476 34,16.1568231 34,16.2921149 L34,20.1601098 L23.2686713,20.1601098 L23.2686713,21.942559 L29.7332825,21.942559 C29.7332825,21.942559 31.7877604,22.0317552 31.7877604,24.3160772 C31.7877604,26.6003993 28.4648994,27 28.4648994,27 L10.7778785,27 C10.7778785,27 7.49819331,26.3658006 7.49819331,24.3160772 C7.49819331,22.2663539 9.40076794,21.942559 9.40076794,21.942559 L16.003796,21.942559 L16.003796,20.1627453 L12.5410774,20.1627453 L10.3834244,17.8813944 C10.1842234,17.6707732 10.0890053,17.2918082 10.1556742,17.0190135 L12.2828281,8.31516163 C12.3496214,8.04185804 12.2117557,7.70999149 11.9751742,7.57278031 L4.83914016,3.43406344 L4.83914016,5.62764329 L1.5383099,16.5955425 L3.876398,16.321345 L5.25174394,21.9423934 Z M12.8689128,15.0720977 C12.7469283,15.6106029 13.0911933,16.0471476 13.6454961,16.0471476 L20.3458356,16.0471476 C20.8967152,16.0471476 21.1586679,15.6396338 20.9302267,15.1354029 L19.8308718,12.7088313 C19.6027425,12.2052886 18.9621396,11.7970866 18.419544,11.7970866 L14.6090456,11.7970866 C14.0577201,11.7970866 13.5113782,12.2359101 13.3899099,12.7721364 L12.8689128,15.0720977 Z M29.0452287,16.7326413 L29.7292848,19.0633198 L30.6015429,19.0633198 L29.9666991,16.7326413 L30.8881695,16.7326413 L31.4738009,19.0633198 L32.346059,19.0633198 L31.8096398,16.7326413 L29.0452287,16.7326413 Z M10.8906623,25.7313149 L27.9449519,25.7313149 C27.9449519,25.7313149 30.0119931,26.0458624 30.0119931,24.3852491 C30.0119931,22.7246358 27.9449519,23.0391833 27.9449519,23.0391833 L10.8906623,23.0391833 C10.8906623,23.0391833 9.43126319,23.0391833 9.40076794,24.3852491 C9.3702727,25.7313149 10.8906623,25.7313149 10.8906623,25.7313149 Z M28.5850622,25.1876479 C28.1472443,25.1876479 27.7923227,24.8338511 27.7923227,24.3974207 C27.7923227,23.9609902 28.1472443,23.6071935 28.5850622,23.6071935 C29.0228801,23.6071935 29.3778016,23.9609902 29.3778016,24.3974207 C29.3778016,24.8338511 29.0228801,25.1876479 28.5850622,25.1876479 Z M26.048296,25.1876479 C25.6104781,25.1876479 25.2555566,24.8338511 25.2555566,24.3974207 C25.2555566,23.9609902 25.6104781,23.6071935 26.048296,23.6071935 C26.4861139,23.6071935 26.8410354,23.9609902 26.8410354,24.3974207 C26.8410354,24.8338511 26.4861139,25.1876479 26.048296,25.1876479 Z M23.5115298,25.1876479 C23.0737119,25.1876479 22.7187904,24.8338511 22.7187904,24.3974207 C22.7187904,23.9609902 23.0737119,23.6071935 23.5115298,23.6071935 C23.9493477,23.6071935 24.3042692,23.9609902 24.3042692,24.3974207 C24.3042692,24.8338511 23.9493477,25.1876479 23.5115298,25.1876479 Z M20.9747636,25.1876479 C20.5369457,25.1876479 20.1820242,24.8338511 20.1820242,24.3974207 C20.1820242,23.9609902 20.5369457,23.6071935 20.9747636,23.6071935 C21.4125815,23.6071935 21.7675031,23.9609902 21.7675031,24.3974207 C21.7675031,24.8338511 21.4125815,25.1876479 20.9747636,25.1876479 Z M18.4379975,25.1876479 C18.0001796,25.1876479 17.645258,24.8338511 17.645258,24.3974207 C17.645258,23.9609902 18.0001796,23.6071935 18.4379975,23.6071935 C18.8758154,23.6071935 19.2307369,23.9609902 19.2307369,24.3974207 C19.2307369,24.8338511 18.8758154,25.1876479 18.4379975,25.1876479 Z M15.9012313,25.1876479 C15.4634134,25.1876479 15.1084918,24.8338511 15.1084918,24.3974207 C15.1084918,23.9609902 15.4634134,23.6071935 15.9012313,23.6071935 C16.3390492,23.6071935 16.6939707,23.9609902 16.6939707,24.3974207 C16.6939707,24.8338511 16.3390492,25.1876479 15.9012313,25.1876479 Z M13.3644651,25.1876479 C12.9266472,25.1876479 12.5717257,24.8338511 12.5717257,24.3974207 C12.5717257,23.9609902 12.9266472,23.6071935 13.3644651,23.6071935 C13.802283,23.6071935 14.1572045,23.9609902 14.1572045,24.3974207 C14.1572045,24.8338511 13.802283,25.1876479 13.3644651,25.1876479 Z M10.8276989,25.1876479 C10.389881,25.1876479 10.0349595,24.8338511 10.0349595,24.3974207 C10.0349595,23.9609902 10.389881,23.6071935 10.8276989,23.6071935 C11.2655168,23.6071935 11.6204384,23.9609902 11.6204384,24.3974207 C11.6204384,24.8338511 11.2655168,25.1876479 10.8276989,25.1876479 Z" id="Combined-Shape-Copy-2" fill="#FFFFFF"></path>
    </g>
</svg>