<?xml version="1.0" encoding="UTF-8" standalone="no"?>
<svg width="32px" height="18px" viewBox="0 0 32 18" version="1.1" xmlns="http://www.w3.org/2000/svg" xmlns:xlink="http://www.w3.org/1999/xlink">
    <!-- Generator: Sketch 43.1 (39012) - http://www.bohemiancoding.com/sketch -->
    <title>Shape</title>
    <desc>Created with Sketch.</desc>
    <defs></defs>
    <g id="Page-1" stroke="none" stroke-width="1" fill="none" fill-rule="evenodd">
        <path d="M16,18 L32,9.72457627 L32,6.33050847 L32,6.33050847 L16,0 L16,0 L16,0 L0,6.33050847 L0,6.33050847 L0,6.33050847 L0,6.33050847 L0,6.33050847 L0,9.72457627 L1.74222222,10.6398305 L1.74222222,10.1440678 C1.74222222,9.61016949 1.99111111,9.30508475 2.34666667,9.45762712 L4.16,10.3728814 C4.48,10.5254237 4.76444444,11.1355932 4.76444444,11.6694915 L4.76444444,12.1652542 L9.84888889,14.7966102 L9.84888889,14.2627119 C9.84888889,13.690678 10.1333333,13.3855932 10.5244444,13.5381356 L12.5511111,14.5677966 C12.9422222,14.7584746 13.2266667,15.4067797 13.2266667,15.9788136 L13.2266667,16.5127119 L16,18 L16,18 Z M14.2577778,12.6610169 L13.6888889,12.3940678 L21.12,8.88559322 L21.6888889,9.11440678 L14.2577778,12.6610169 Z M22.2933333,8.80932203 L21.7244444,8.58050847 L28.4444444,5.41525424 L28.9777778,5.6440678 L22.2933333,8.80932203 Z M8,9.61016949 L15.4311111,6.36864407 L15.9288889,6.59745763 L8.49777778,9.87711864 L8,9.61016949 Z M16.0711111,6.10169492 L22.7555556,3.16525424 L23.2533333,3.3559322 L16.5688889,6.33050847 L16.0711111,6.10169492 Z M13.8666667,5.11016949 L13.3688889,4.88135593 L20.0533333,2.05932203 L20.5511111,2.25 L13.8666667,5.11016949 Z M13.2266667,5.41525424 L5.83111111,8.58050847 L5.33333333,8.31355932 L12.7288889,5.18644068 L13.2266667,5.41525424 Z M10.8088889,10.9830508 L18.24,7.62711864 L18.7733333,7.8559322 L11.3422222,11.25 L10.8088889,10.9830508 Z M18.8444444,7.3220339 L25.5288889,4.27118644 L26.0622222,4.5 L19.3777778,7.55084746 L18.8444444,7.3220339 Z M11.2355556,3.96610169 L10.7733333,3.77542373 L17.4577778,1.02966102 L17.92,1.22033898 L11.2355556,3.96610169 Z M10.5955556,4.23305085 L3.2,7.28389831 L2.73777778,7.05508475 L10.1333333,4.04237288 L10.5955556,4.23305085 Z M31.4311111,9.64830508 L31.4311111,9.64830508 L29.4755556,8.84745763 L24.7822222,11.1737288 L24.7822222,10.220339 L31.4311111,6.94067797 L31.4311111,9.64830508 Z M16.7111111,15.2161017 L16.7111111,14.2245763 L24.1422222,10.5635593 L24.1422222,13.4237288 L22.1511111,12.5084746 L16.96,15.1016949 L16.7111111,16.6271186 L16.7111111,15.2161017 Z" id="Shape" fill="#77878B" fill-rule="nonzero"></path>
    </g>
</svg>