<?xml version="1.0" encoding="UTF-8" standalone="no"?>
<svg width="75px" height="32px" viewBox="0 0 75 32" version="1.1" xmlns="http://www.w3.org/2000/svg" xmlns:xlink="http://www.w3.org/1999/xlink">
    <!-- Generator: Sketch 43.1 (39012) - http://www.bohemiancoding.com/sketch -->
    <title>Car_7_bl</title>
    <desc>Created with Sketch.</desc>
    <defs></defs>
    <g id="Page-1" stroke="none" stroke-width="1" fill="none" fill-rule="evenodd">
        <g id="Car_7_bl" fill-rule="nonzero" fill="#3265B1">
            <path d="M75,25.088 C74.9418479,25.9297474 74.2178996,26.58321 73.3455882,26.5813333 L69.2426471,26.5813333 C68.4274789,29.4662142 65.7173643,31.4670569 62.625,31.4670569 C59.5326357,31.4670569 56.8225211,29.4662142 56.0073529,26.5813333 L18.9926471,26.5813333 C18.1774789,29.4662142 15.4673642,31.4670569 12.375,31.4670569 C9.28263576,31.4670569 6.57252108,29.4662142 5.75735294,26.5813333 L1.61029412,26.5813333 C1.18321756,26.5813333 0.773632954,26.4172576 0.471644228,26.1252011 C0.1696555,25.8331443 -1.56958251e-15,25.4370304 0,25.024 L0,1.55733333 C1.08912847e-16,0.697241884 0.720953235,8.39592682e-14 1.61029412,8.40119337e-14 L43.3897059,8.40119337e-14 C47.9050348,-0.00239158475 52.227849,1.76841424 55.3676471,4.90666667 L60.5073529,10.048 C60.9044193,10.4340214 61.3985698,10.7134081 61.9411765,10.8586667 L69.3308824,12.8 C70.4060704,13.0812426 71.2459579,13.8935069 71.5367647,14.9333333 L73.1029412,20.224 L74.1617647,20.8213333 C74.6782176,21.1046044 74.998114,21.633799 75,22.208 L75,25.088 Z M41.5588235,17.984 C41.5823914,18.4621099 41.9903638,18.8378763 42.4852941,18.8373333 L45.2205882,18.8373333 C45.7322638,18.8373333 46.1470588,18.4361805 46.1470588,17.9413333 C46.1471314,17.7056133 46.0488234,17.4798433 45.874412,17.3151842 C45.7000006,17.1505251 45.464252,17.0609174 45.2205882,17.0666667 L42.4852941,17.0666667 C42.2337799,17.0604384 41.9909501,17.1558158 41.8151495,17.3298826 C41.6393488,17.5039494 41.5464682,17.7409715 41.5588235,17.984 Z M10.6544118,24.9813333 L10.5661765,24.9813333 C10.5661765,24.0623315 11.3365101,23.3173333 12.2867647,23.3173333 C13.2370193,23.3173333 14.0073529,24.0623315 14.0073529,24.9813333 L14.0073529,25.408 C13.7946512,26.1329941 13.110123,26.6333043 12.3308824,26.6333043 C11.5516417,26.6333043 10.8671135,26.1329941 10.6544118,25.408 L10.6544118,24.9813333 Z M8.22794118,24.9813333 C8.22033302,25.5724378 8.35633533,26.1570125 8.625,26.688 C9.31008024,28.0911012 10.7705672,28.9861434 12.375,28.9861434 C13.9794328,28.9861434 15.4399198,28.0911012 16.125,26.688 C16.3936647,26.1570125 16.529667,25.5724378 16.5220588,24.9813333 C16.5220588,22.7663034 14.6653573,20.9706667 12.375,20.9706667 C10.0846427,20.9706667 8.22794118,22.7663034 8.22794118,24.9813333 Z M3.81617647,20.5013333 L3.72794118,20.5013333 C3.84578475,20.5029294 3.95827174,20.4538142 4.03497084,20.3672749 C4.11166994,20.2807356 4.14465408,20.1657163 4.125,20.0533333 L3.35294118,15.9573333 L2.95588235,15.6373333 L2.20588235,15.6373333 C1.98659282,15.6373333 1.80882353,15.809256 1.80882353,16.0213333 L1.80882353,20.1173333 C1.80882353,20.3294107 1.98659282,20.5013333 2.20588235,20.5013333 L3.81617647,20.5013333 Z M20.7352941,14.2933333 L20.7352941,2.60266667 L6.48529412,2.60266667 C5.95788695,2.61426195 5.53662845,3.03114022 5.53676471,3.54133333 L5.53676471,13.3546667 C5.53662845,13.8648598 5.95788695,14.281738 6.48529412,14.2933333 L20.7352941,14.2933333 Z M22.9411765,17.1093333 L22.9632353,17.0666667 C22.7155271,17.0663815 22.4785392,17.1643672 22.3076018,17.3377468 C22.1366645,17.5111265 22.04674,17.7447237 22.0588235,17.984 C22.0586809,18.4706343 22.4601944,18.8684135 22.9632353,18.88 L25.6764706,18.88 C26.1881462,18.88 26.6029412,18.4788471 26.6029412,17.984 C26.6030137,17.74828 26.5047057,17.52251 26.3302943,17.3578509 C26.1558829,17.1931918 25.9201343,17.1035841 25.6764706,17.1093333 L22.9411765,17.1093333 Z M36.8161765,14.2933333 C37.1176701,14.3239839 37.4166563,14.2166362 37.6244279,14.0031393 C37.8321995,13.7896424 37.9248904,13.4945202 37.875,13.2053333 L36.2426471,3.392 C36.176214,2.93590074 35.7703608,2.59816378 35.2941176,2.60266667 L22.5661765,2.60266667 L22.5661765,14.2933333 L36.8161765,14.2933333 Z M57.9926471,12.16 L57.9926471,12.2666667 C58.1343609,12.1372422 58.2164854,11.9582602 58.2206316,11.7697976 C58.224778,11.581335 58.1505993,11.3991367 58.0147059,11.264 L53.4485294,6.63466667 C50.8069222,4.00649331 47.1795803,2.52172966 43.3897059,2.51733333 L40.0367647,2.51733333 C39.8222749,2.52015846 39.619993,2.61433148 39.4839258,2.77470916 C39.3478588,2.93508683 39.2918607,3.14534005 39.3308824,3.34933333 L40.1470588,7.95733333 C40.3971827,9.37998874 41.0987104,10.6921659 42.1544118,11.712 L42.6176471,12.16 C43.9647977,13.4974975 45.8048618,14.2645433 47.7352941,14.2933333 L52.9411765,14.2933333 C54.8059665,14.2304979 56.5714059,13.4648584 57.8602941,12.16 L57.9926471,12.16 Z M64.3014706,25.408 L64.2132353,25.408 C64.0005335,26.1329941 63.3160054,26.6333043 62.5367647,26.6333043 C61.757524,26.6333043 61.0729959,26.1329941 60.8602941,25.408 L60.8602941,24.9813333 C60.8602941,24.0623315 61.6306277,23.3173333 62.5808824,23.3173333 C63.531137,23.3173333 64.3014706,24.0623315 64.3014706,24.9813333 L64.3014706,25.408 Z M66.8161765,24.96 L66.8161765,24.96 C66.8161765,23.5271268 66.0257517,22.2030972 64.7426471,21.4866607 C63.4595426,20.770224 61.8786926,20.770224 60.5955882,21.4866607 C59.3124836,22.2030972 58.5220588,23.5271268 58.5220588,24.96 C58.5144507,25.5511044 58.6504529,26.1356791 58.9191176,26.6666667 C59.6041979,28.0697679 61.0646848,28.96481 62.6691176,28.96481 C64.2735505,28.96481 65.7340374,28.0697679 66.4191176,26.6666667 C66.6877824,26.1356791 66.8237846,25.5511044 66.8161765,24.96 Z M70.0808824,19.456 L70.0367647,19.4773333 C70.210999,19.4754031 70.3748771,19.3969741 70.4821504,19.2641803 C70.5894236,19.1313865 70.6284574,18.9586305 70.5882353,18.7946667 L70.0367647,16.0426667 C69.9675845,15.8033372 69.7422501,15.6377154 69.4852941,15.6373333 L67.5441176,15.6373333 C67.3502731,15.6413408 67.1716454,15.7397946 67.0692849,15.8990458 C66.9669243,16.0582971 66.9546904,16.2567831 67.0367647,16.4266667 L68.3823529,18.9866667 L68.6911765,19.2 L70.0808824,19.456 Z" id="Combined-Shape"></path>
        </g>
    </g>
</svg>