<svg width="36" height="14" viewBox="0 0 36 14" fill="none" xmlns="http://www.w3.org/2000/svg">
<g clip-path="url(#clip0_143_4551)">
<path d="M7.67374 10.2953C7.50143 10.2953 7.36176 10.4345 7.36176 10.6062C7.36176 10.7779 7.50143 10.9171 7.67374 10.9171C7.84605 10.9171 7.98572 10.7779 7.98572 10.6062C7.98572 10.4345 7.84605 10.2953 7.67374 10.2953ZM7.67374 11.1775C7.60072 11.1775 7.54148 11.2365 7.54148 11.3093C7.54148 11.382 7.60068 11.441 7.67374 11.441C7.74679 11.441 7.806 11.382 7.806 11.3093C7.806 11.2365 7.74675 11.1775 7.67374 11.1775ZM8.02418 11.582V12.6494C8.33743 12.5964 8.62672 12.4736 8.87562 12.2977L8.11826 11.543C8.08766 11.5574 8.05633 11.5706 8.02418 11.582ZM8.65296 10.9554C8.64142 10.9874 8.62843 11.0188 8.61396 11.0492L9.37128 11.8039C9.54783 11.5559 9.67096 11.2675 9.72417 10.9554H8.65296V10.9554ZM7.22925 9.66933C7.25985 9.6549 7.29119 9.64174 7.32333 9.63029V8.56295C7.01009 8.61591 6.72076 8.73872 6.47189 8.91461L7.22925 9.66933ZM7.67374 7.21234C5.7928 7.21234 4.26801 8.73183 4.26801 10.6062C4.26801 12.4805 5.7928 14 7.67374 14C9.55468 14 11.0795 12.4805 11.0795 10.6062C11.0795 8.73183 9.55468 7.21234 7.67374 7.21234ZM7.67374 13.0304C6.33022 13.0304 5.24108 11.945 5.24108 10.6062C5.24108 9.26738 6.33018 8.18202 7.67374 8.18202C9.01729 8.18202 10.1064 9.26738 10.1064 10.6062C10.1064 11.945 9.01725 13.0304 7.67374 13.0304ZM6.47181 12.2977C6.72068 12.4736 7.01005 12.5964 7.32329 12.6494V11.582C7.2911 11.5706 7.25973 11.5574 7.22913 11.543L6.47181 12.2977ZM7.10034 10.6061C7.10034 10.5334 7.04114 10.4744 6.96808 10.4744C6.89503 10.4744 6.83582 10.5334 6.83582 10.6061C6.83582 10.6789 6.89503 10.7379 6.96808 10.7379C7.04114 10.7379 7.10034 10.6789 7.10034 10.6061ZM8.653 10.2569H9.72417C9.671 9.9448 9.54779 9.65645 9.37124 9.40844L8.61388 10.1632C8.62834 10.1937 8.64147 10.2249 8.653 10.2569ZM7.67374 10.0347C7.74675 10.0347 7.806 9.97573 7.806 9.90296C7.806 9.83019 7.74679 9.77119 7.67374 9.77119C7.60068 9.77119 7.54148 9.83019 7.54148 9.90296C7.54148 9.97573 7.60068 10.0347 7.67374 10.0347ZM8.24714 10.6061C8.24714 10.6789 8.30634 10.7379 8.3794 10.7379C8.45245 10.7379 8.51165 10.6789 8.51165 10.6061C8.51165 10.5334 8.45245 10.4744 8.3794 10.4744C8.30634 10.4744 8.24714 10.5334 8.24714 10.6061ZM6.73355 10.1631L5.97623 9.40844C5.79969 9.65645 5.67656 9.94484 5.62334 10.257H6.6946C6.70609 10.2249 6.71905 10.1936 6.73355 10.1631ZM30.4499 10.0967H31.5211C31.4679 9.78455 31.3447 9.4962 31.1681 9.24819L30.4108 10.0029C30.4252 10.0334 30.4384 10.0647 30.4499 10.0967ZM6.69448 10.9554H5.62334C5.67651 11.2675 5.79969 11.5558 5.97623 11.8039L6.7336 11.0491C6.71913 11.0187 6.70597 10.9874 6.69448 10.9554ZM8.87562 8.91457C8.62676 8.73872 8.33739 8.61591 8.02418 8.56295V9.63029C8.05633 9.64174 8.0877 9.65486 8.1183 9.66929L8.87562 8.91457ZM29.8211 11.4217V12.4891C30.1343 12.4361 30.4237 12.3133 30.6725 12.1374L29.9151 11.3827C29.8846 11.3971 29.8532 11.4103 29.8211 11.4217ZM30.4109 10.8889L31.1682 11.6436C31.3448 11.3956 31.4679 11.1072 31.5211 10.7951H30.4499C30.4383 10.8271 30.4253 10.8585 30.4109 10.8889ZM29.4706 10.135C29.2983 10.135 29.1587 10.2742 29.1587 10.4459C29.1587 10.6176 29.2984 10.7568 29.4706 10.7568C29.6429 10.7568 29.7826 10.6176 29.7826 10.4459C29.7827 10.2742 29.643 10.135 29.4706 10.135ZM29.4706 11.0172C29.3976 11.0172 29.3384 11.0762 29.3384 11.149C29.3384 11.2218 29.3976 11.2808 29.4706 11.2808C29.5437 11.2808 29.6029 11.2218 29.6029 11.149C29.6029 11.0762 29.5437 11.0172 29.4706 11.0172ZM0.547246 7.47412C0.54635 7.47433 0.545943 7.47425 0.544965 7.47449C0.545943 7.48016 0.546717 7.47971 0.547246 7.47412ZM36.0408 8.33543C36.1009 6.18244 34.6622 5.31005 34.732 5.36212C34.3708 5.09292 33.889 4.99514 33.3889 4.85701C34.2546 5.09614 32.162 4.64164 27.5342 4.13379C27.4462 4.12996 27.3582 4.12613 27.2701 4.12234C26.2406 3.80881 26.2029 3.74908 25.8696 3.51386C25.5477 3.28671 25.2252 3.06147 24.9053 2.83656C24.2358 2.36592 23.5343 1.93219 22.8389 1.49342C22.58 1.32999 22.3106 1.20621 22.0468 1.04571C21.7994 0.895161 21.2729 0.669109 21.2317 0.655378C21.2061 0.636187 21.2038 0.59202 21.1858 0.56354C21.0879 0.408506 20.9493 0.113352 20.6922 0.161756C20.6922 0.192396 20.6922 0.222996 20.6922 0.253595C20.7214 0.298577 20.7163 0.403658 20.7151 0.471742C20.3792 0.438657 19.7049 0.345474 19.7049 0.345474C19.7049 0.345474 18.5631 0.189259 17.1458 0.140039C14.8276 0.0594871 11.7723 0 11.7723 0C11.7723 0 8.83248 0.0749702 6.63483 0.16579C5.32318 0.220021 4.27592 0.309945 4.27592 0.309945C4.27592 0.309945 2.64759 0.588312 2.71466 0.56354C2.03035 0.816442 2.51122 0.873199 2.53098 0.988303C2.1541 1.39461 1.4794 1.68911 0.613823 4.24861C0.541705 4.46183 0.563381 4.72528 0.510495 4.94893C0.510495 5.86781 0.556006 7.3829 0.547206 7.47417C0.698898 7.4408 -0.376925 8.06806 0.143141 9.86229C0.195049 10.0414 0.445099 10.5855 0.556821 10.4383C0.0580656 11.0952 1.93835 11.4407 4.24507 11.6211C4.14932 11.2994 4.0977 10.9589 4.0977 10.6062C4.0977 8.63812 5.69872 7.04264 7.67374 7.04264C9.64876 7.04264 11.2498 8.63812 11.2498 10.6062C11.2498 11.0288 11.1758 11.434 11.0404 11.8101C11.091 11.8096 11.1179 11.8093 11.1179 11.8093L26.1737 11.8283C25.994 11.4032 25.8946 10.9362 25.8946 10.446C25.8946 8.47787 27.4956 6.88239 29.4706 6.88239C31.4457 6.88239 33.0467 8.47787 33.0467 10.446C33.0467 10.9394 32.946 11.4094 32.7641 11.8367L32.9527 11.8369C32.9527 11.8369 34.5526 11.9402 34.778 11.3433C34.8494 11.2993 34.9827 11.3245 35.065 11.2974C35.3201 11.2133 35.7177 10.6915 35.5701 10.7808C35.8588 10.6059 36.0164 9.20708 36.0408 8.33543ZM9.74035 1.4048L7.84617 4.07769C7.84617 4.07769 8.50371 4.08918 2.0198 4.07174C2.56329 2.21944 3.90791 1.20531 3.90791 1.20531L9.47632 0.879148C9.47632 0.879148 9.80151 0.877519 9.84372 0.990993C9.9347 1.10214 9.74035 1.4048 9.74035 1.4048ZM11.4164 4.18603C11.4164 4.18603 10.756 3.99229 10.6472 3.65166C10.601 3.50657 10.6313 3.31315 10.6685 3.18738C10.6683 3.18766 10.6688 3.18579 10.6703 3.18098C10.6696 3.18298 10.6691 3.18534 10.6685 3.18738C10.6736 3.18025 11.2237 1.51338 11.6575 1.13751C12.2151 0.823939 15.7903 1.06865 15.7903 1.06865L15.7918 4.18012L11.4164 4.18603ZM22.9078 2.76771C22.9078 2.77154 22.9078 2.77537 22.9078 2.7792C22.9039 2.7792 22.9001 2.7792 22.8963 2.7792C22.426 3.39008 22.8734 4.34041 22.8734 4.34041L17.2718 4.33845C17.2718 4.33845 17.2826 1.25714 17.2826 1.50486C17.3168 1.34743 17.3081 1.19842 17.386 1.09159C17.4622 0.987081 17.6022 0.999508 17.7418 0.953833C17.7706 0.954933 19.4133 0.917978 20.3019 1.20637C20.8526 1.3852 23.0198 2.84145 22.9078 2.76771ZM29.4706 7.05205C27.5897 7.05205 26.0649 8.57154 26.0649 10.4459C26.0649 12.3203 27.5897 13.8397 29.4706 13.8397C31.3516 13.8397 32.8764 12.3203 32.8764 10.4459C32.8764 8.57154 31.3516 7.05205 29.4706 7.05205ZM29.4706 12.8701C28.1271 12.8701 27.038 11.7847 27.038 10.4459C27.038 9.10709 28.1271 8.02173 29.4706 8.02173C30.8142 8.02173 31.9033 9.10709 31.9033 10.4459C31.9033 11.7847 30.8142 12.8701 29.4706 12.8701ZM30.044 10.4458C30.044 10.5186 30.1032 10.5776 30.1763 10.5776C30.2493 10.5776 30.3085 10.5186 30.3085 10.4458C30.3085 10.3731 30.2493 10.3141 30.1763 10.3141C30.1032 10.3141 30.044 10.3731 30.044 10.4458ZM29.0262 9.50912C29.0568 9.4947 29.0881 9.48149 29.1202 9.47004V8.4027C28.807 8.45566 28.5177 8.57847 28.2688 8.75436L29.0262 9.50912ZM29.4706 9.87448C29.5437 9.87448 29.6029 9.81548 29.6029 9.74271C29.6029 9.66994 29.5437 9.61094 29.4706 9.61094C29.3976 9.61094 29.3384 9.66994 29.3384 9.74271C29.3384 9.81548 29.3976 9.87448 29.4706 9.87448ZM30.6725 8.75432C30.4237 8.57843 30.1343 8.45562 29.8211 8.40266V9.47C29.8532 9.48145 29.8846 9.49457 29.9152 9.509L30.6725 8.75432ZM28.5305 10.0028L27.7731 9.24815C27.5965 9.49616 27.4734 9.78455 27.4202 10.0967H28.4915C28.503 10.0647 28.516 10.0333 28.5305 10.0028ZM28.8972 10.4458C28.8972 10.3731 28.838 10.3141 28.765 10.3141C28.692 10.3141 28.6328 10.3731 28.6328 10.4458C28.6328 10.5186 28.692 10.5776 28.765 10.5776C28.838 10.5776 28.8972 10.5186 28.8972 10.4458ZM28.2687 12.1375C28.5176 12.3134 28.807 12.4361 29.1202 12.4891V11.4218C29.088 11.4103 29.0566 11.3972 29.026 11.3828L28.2687 12.1375ZM28.4914 10.7951H27.4202C27.4734 11.1072 27.5966 11.3956 27.7731 11.6436L28.5305 10.8889C28.516 10.8584 28.5029 10.8271 28.4914 10.7951Z" fill="#77878B"/>
</g>
<defs>
<clipPath id="clip0_143_4551">
<rect width="36" height="14" fill="white"/>
</clipPath>
</defs>
</svg>
