<?xml version="1.0" encoding="UTF-8" standalone="no"?>
<svg width="37px" height="14px" viewBox="0 0 37 14" version="1.1" xmlns="http://www.w3.org/2000/svg" xmlns:xlink="http://www.w3.org/1999/xlink">
    <!-- Generator: Sketch 43.1 (39012) - http://www.bohemiancoding.com/sketch -->
    <title>Car_3-w</title>
    <desc>Created with Sketch.</desc>
    <defs></defs>
    <g id="Page-1" stroke="none" stroke-width="1" fill="none" fill-rule="evenodd">
        <path d="M7.06247778,6.61129412 L7.07851111,6.61129412 C8.9244,6.61129412 10.4257778,8.106 10.4331778,9.95729412 C10.4414,11.8143529 8.94577778,13.3247059 7.09331111,13.3325294 L7.07768889,13.3325294 C5.23221111,13.3325294 3.73042222,11.8374118 3.72261111,9.98611765 C3.7148,8.13070588 5.21001111,6.61911765 7.06247778,6.61129412 Z M7.08632222,11.4684706 L7.09495556,11.4684706 C7.92046667,11.4610588 8.58153333,10.7824706 8.57372222,9.95482353 C8.56632222,9.13047059 7.89251111,8.46794118 7.07028889,8.47411765 L7.06206667,8.47411765 C6.23696667,8.48235294 5.5759,9.16011765 5.58288889,9.98858824 C5.59111111,10.8129412 6.26533333,11.4742353 7.08632222,11.4684706 Z M30.3445222,6.74182353 L30.3593222,6.74182353 C32.2056222,6.74182353 33.7057667,8.23611765 33.7139889,10.0882353 C33.7222111,11.9452941 32.227,13.4556471 30.3733,13.4634706 L30.3585,13.4634706 C28.5126111,13.4634706 27.0120556,11.9683529 27.0034222,10.1170588 C26.9956111,8.26205882 28.4916444,6.75005882 30.3445222,6.74182353 Z M30.3679556,11.5994118 L30.3749444,11.5994118 C31.2008667,11.5911765 31.8631667,10.9125882 31.8545333,10.0857647 C31.8454889,9.26058824 31.1733222,8.59888235 30.3502778,8.60505882 L30.3432889,8.60505882 C29.5177778,8.61247059 28.8558889,9.29105882 28.8641111,10.1187059 C28.8723333,10.9438824 29.5453222,11.6051765 30.3679556,11.5994118 Z M12.7169,9.83417647 L12.7169,10.3917059 C12.7169,10.6025294 12.9019,10.7746471 13.1280111,10.7746471 L25.9900333,10.7746471 C26.2042222,10.7746471 26.2482111,10.5951176 26.2478,10.5037059 C26.2473889,10.4073529 26.2547889,9.92929412 26.2609556,9.83458824 L12.7169,9.83458824 L12.7169,9.83417647 Z M0.186233333,7.59129412 C0.299288889,7.59129412 0.411111111,7.40641176 0.411111111,7.17952941 L0.411111111,3.87964706 C0.411111111,3.44976471 0.827566667,3.04582353 1.23867778,3.04582353 L12.3140111,3.04582353 L12.9985111,0.404352941 C13.0404444,0.182 13.2599778,0 13.4860889,0 L23.3449444,0 C23.5710556,0 23.9011778,0.114882353 24.0783667,0.255705882 L27.1658111,2.39523529 C27.343,2.53564706 27.6723,2.66988235 27.8971778,2.69335294 L34.8207,3.41517647 C35.0455778,3.43864706 35.3991333,3.53211765 35.6063333,3.62311765 L35.7905111,3.70382353 C35.9927778,3.79276471 36.1564,4.04229412 36.1642111,4.26464706 L36.1687333,4.26464706 C36.3948444,4.26464706 36.5798444,4.44994118 36.5798444,4.67641176 L36.5798444,7.45582353 C36.8059556,7.45582353 36.9909556,7.64152941 36.9909556,7.86758824 L36.9909556,9.16547059 C36.9909556,9.43311765 36.7841667,9.57394118 36.5798444,9.62952941 L34.4548111,9.62952941 C34.4548111,9.62952941 34.4260333,9.48870588 34.4030111,9.36188235 C34.0523333,7.44552941 32.3696556,5.98541176 30.3597333,5.98541176 C28.2425111,5.99405882 26.5133778,7.58841176 26.2782222,9.62870588 L12.7169,9.62870588 L12.7169,9.62623529 L11.1707111,9.62870588 C10.9947556,7.52005882 9.22492222,5.85447059 7.0781,5.85447059 C4.91688889,5.86394118 3.15938889,7.52541176 2.98302222,9.62705882 C2.82515556,9.61676471 2.66523333,9.64394118 2.54601111,9.62705882 L0.387677778,9.62705882 C0.163622222,9.59576471 0,9.43229412 0,9.20582353 L0,7.875 C0,7.64852941 0.0731777778,7.59129412 0.186233333,7.59129412 Z M13.7450889,3.02564706 C13.7109667,3.24964706 13.8684222,3.43288235 14.0945333,3.43288235 L18.4971222,3.43288235 L18.4971222,0.554647059 L14.6187,0.554647059 C14.3925889,0.554647059 14.1800444,0.737882353 14.1459222,0.961882353 L13.7450889,3.02564706 Z M23.7342667,0.814882353 C23.5591333,0.671588235 23.2306556,0.554647059 23.0049556,0.554647059 L19.3029,0.554647059 L19.3029,3.43288235 L21.7654556,3.43288235 C21.9915667,3.43288235 22.2814,3.58564706 22.4100778,3.77176471 L22.8022778,4.34123529 C22.9305444,4.52776471 23.2207889,4.68011765 23.4469,4.68011765 L26.2959,4.68011765 C26.5220111,4.68011765 26.7070111,4.49482353 26.7070111,4.26835294 L26.7070111,3.40776471 C26.7070111,3.18129412 26.5635333,2.87864706 26.3888111,2.73576471 L23.7342667,0.814882353 Z" id="Car_3-w" fill="#FFFFFF" fill-rule="nonzero"></path>
    </g>
</svg>