<?xml version="1.0" encoding="UTF-8" standalone="no"?>
<svg width="80px" height="50px" viewBox="0 0 80 50" version="1.1" xmlns="http://www.w3.org/2000/svg" xmlns:xlink="http://www.w3.org/1999/xlink">
    <!-- Generator: Sketch 43.1 (39012) - http://www.bohemiancoding.com/sketch -->
    <title>Car_11_bl</title>
    <desc>Created with Sketch.</desc>
    <defs></defs>
    <g id="Page-1" stroke="none" stroke-width="1" fill="none" fill-rule="evenodd">
        <g id="Car_11_bl" fill-rule="nonzero" fill="#3265B1">
            <path d="M28.0145684,44.1666555 L24.8676707,44.1666555 L24.8676707,41.1909527 L21.1982216,39.556104 L0,39.556104 L0,37.622647 L22.1719854,37.622647 L22.1719854,14.3425226 L24.9472838,14.3425226 L24.9472838,1.70404384 L28.6206307,1.70404384 L28.6206307,32.7893934 L40.1021062,2.88604775 C40.5417838,1.74091382 41.9051844,0.812599344 43.1387951,0.812599344 L60.7566098,0.812599344 C61.9940493,0.812599344 62.9971922,1.81984386 62.9971922,3.03826136 L62.9971922,15.4668286 L71.1002224,15.4668286 C76.0154338,15.4668286 80,19.4574166 80,24.3510871 L80,44.1666555 L76.6245282,44.1666555 C76.6245282,44.1666555 76.0286151,35.8379175 68.5381242,35.8379175 C61.0476333,35.8379175 60.8229184,44.1666555 60.8229184,44.1666555 L44.1189558,44.1666555 C44.1189558,44.1666555 43.7020124,35.7635538 35.8795838,35.7635538 C28.0571551,35.7635538 28.0145684,44.1666555 28.0145684,44.1666555 Z M32.8832551,32.7890045 L45.9917464,33.0120956 L50.6354976,28.4015441 L58.5757713,28.4015441 L58.5757713,20.1471699 L60.1487744,20.0728061 L61.1225382,20.0728061 L60.9917018,4.74566468 C60.981212,3.5168046 59.9735556,2.52296521 58.7410136,2.52296521 L44.7029304,2.52296521 C43.4659376,2.52296521 42.1171884,3.44114512 41.6804738,4.57377747 L32.8084824,27.5835432 L33.6324364,26.9142695 L34.90582,26.9886333 L40.7484029,20.4446248 L38.7689638,18.602308 C38.5395309,18.3887687 38.5212222,18.0240943 38.730652,17.7901881 L39.1707182,17.2986903 C39.3832811,17.0612849 39.7332989,17.0522769 39.9595027,17.2707548 L44.8354576,21.9801709 C45.0555493,22.1927456 45.0749282,22.5446389 44.86509,22.7529613 L44.4241649,23.1907005 C44.2318464,23.3816294 43.8660584,23.4014327 43.6462867,23.196083 L41.497452,21.1882622 L35.5799642,27.8066344 L35.7296416,29.2195453 L32.8832551,32.7890045 Z M68.7627064,49.5952081 C65.4531993,49.5952081 62.7703138,46.9317058 62.7703138,43.6461093 C62.7703138,40.3605131 65.4531993,37.6970108 68.7627064,37.6970108 C72.0722138,37.6970108 74.7550993,40.3605131 74.7550993,43.6461093 C74.7550993,46.9317058 72.0722138,49.5952081 68.7627064,49.5952081 Z M35.8045464,49.5952081 C32.4950393,49.5952081 29.8121538,46.9317058 29.8121538,43.6461093 C29.8121538,40.3605131 32.4950393,37.6970108 35.8045464,37.6970108 C39.1140536,37.6970108 41.7969393,40.3605131 41.7969393,43.6461093 C41.7969393,46.9317058 39.1140536,49.5952081 35.8045464,49.5952081 Z" id="Combined-Shape"></path>
        </g>
    </g>
</svg>