<?xml version="1.0" encoding="UTF-8" standalone="no"?>
<svg width="34px" height="15px" viewBox="0 0 34 15" version="1.1" xmlns="http://www.w3.org/2000/svg" xmlns:xlink="http://www.w3.org/1999/xlink">
    <!-- Generator: Sketch 43.1 (39012) - http://www.bohemiancoding.com/sketch -->
    <title>Combined Shape</title>
    <desc>Created with Sketch.</desc>
    <defs></defs>
    <g id="Page-1" stroke="none" stroke-width="1" fill="none" fill-rule="evenodd">
        <path d="M34,11.76 C33.9736377,12.1545691 33.6454478,12.4608797 33.25,12.46 L31.39,12.46 C31.0204571,13.8122879 29.7918718,14.7501829 28.39,14.7501829 C26.9881282,14.7501829 25.7595429,13.8122879 25.39,12.46 L8.61,12.46 C8.24045711,13.8122879 7.01187179,14.7501829 5.61,14.7501829 C4.20812821,14.7501829 2.97954289,13.8122879 2.61,12.46 L0.73,12.46 C0.536391962,12.46 0.350713606,12.3830895 0.21381205,12.246188 C0.0769104935,12.1092864 -7.1154407e-16,11.923608 0,11.73 L0,0.73 C4.93738238e-17,0.326832133 0.326832133,3.90551635e-14 0.73,3.90798503e-14 L19.67,3.90798503e-14 C21.7169491,-0.00112105535 23.6766249,0.828944177 25.1,2.3 L27.43,4.71 C27.6100034,4.89094753 27.8340183,5.02191005 28.08,5.09 L31.43,6 C31.9174186,6.13183245 32.2981676,6.51258136 32.43,7 L33.14,9.48 L33.62,9.76 C33.8541253,9.8927833 33.999145,10.1408433 34,10.41 L34,11.76 Z M18.84,8.43 C18.8506841,8.65411401 19.0356316,8.83025452 19.26,8.83 L20.5,8.83 C20.7319596,8.83 20.92,8.64195959 20.92,8.41 C20.9200329,8.29950624 20.8754666,8.19367656 20.7964001,8.11649261 C20.7173336,8.03930866 20.6104609,7.99730503 20.5,8 L19.26,8 C19.1459802,7.9970805 19.0358974,8.04178864 18.9562011,8.12338246 C18.8765048,8.20497627 18.8343989,8.3160804 18.84,8.43 Z M4.83,11.71 L4.79,11.71 C4.79000001,11.2792179 5.1392179,10.93 5.57,10.93 C6.0007821,10.93 6.34999999,11.2792179 6.35,11.71 L6.35,11.91 C6.25357522,12.249841 5.94325576,12.4843614 5.59,12.4843614 C5.23674424,12.4843614 4.92642478,12.249841 4.83,11.91 L4.83,11.71 Z M3.73,11.71 C3.72655097,11.9870802 3.78820535,12.2610996 3.91,12.51 C4.22056971,13.1677037 4.88265714,13.5872547 5.61,13.5872547 C6.33734286,13.5872547 6.99943029,13.1677037 7.31,12.51 C7.43179465,12.2610996 7.49344903,11.9870802 7.49,11.71 C7.49,10.6717047 6.64829533,9.83 5.61,9.83 C4.57170467,9.83 3.73,10.6717047 3.73,11.71 Z M1.73,9.61 L1.69,9.61 C1.74342242,9.61074816 1.79441652,9.5877254 1.82918678,9.5471601 C1.86395704,9.50659479 1.87890985,9.4526795 1.87,9.4 L1.52,7.48 L1.34,7.33 L1,7.33 C0.900588745,7.33 0.82,7.41058875 0.82,7.51 L0.82,9.43 C0.82,9.52941125 0.900588745,9.61 1,9.61 L1.73,9.61 Z M9.4,6.7 L9.4,1.22 L2.94,1.22 C2.70090875,1.22543529 2.50993823,1.42084698 2.51,1.66 L2.51,6.26 C2.50993823,6.49915302 2.70090875,6.69456471 2.94,6.7 L9.4,6.7 Z M10.4,8.02 L10.41,8 C10.2977056,7.99986631 10.1902711,8.04579712 10.1127795,8.12706882 C10.0352879,8.20834053 9.99452214,8.31783924 10,8.43 C9.99993533,8.65810981 10.1819548,8.84456882 10.41,8.85 L11.64,8.85 C11.8719596,8.85 12.06,8.66195959 12.06,8.43 C12.0600329,8.31950624 12.0154666,8.21367656 11.9364001,8.13649261 C11.8573336,8.05930866 11.7504609,8.01730503 11.64,8.02 L10.4,8.02 Z M16.69,6.7 C16.8266771,6.71436747 16.9622175,6.6640482 17.0564073,6.56397154 C17.1505971,6.46389489 17.192617,6.32555636 17.17,6.19 L16.43,1.59 C16.3998837,1.37620347 16.2158969,1.21788927 16,1.22 L10.23,1.22 L10.23,6.7 L16.69,6.7 Z M26.29,5.7 L26.29,5.75 C26.3542436,5.6893323 26.3914734,5.60543446 26.393353,5.51709262 C26.3952327,5.42875078 26.361605,5.34334534 26.3,5.28 L24.23,3.11 C23.0324714,1.87804374 21.3880764,1.18206078 19.67,1.18 L18.15,1.18 C18.0527646,1.18132428 17.9610635,1.22546788 17.8993797,1.30064492 C17.837696,1.37582195 17.8123102,1.47437815 17.83,1.57 L18.2,3.73 C18.3133895,4.39686972 18.6314154,5.01195276 19.11,5.49 L19.32,5.7 C19.9307083,6.32695193 20.7648707,6.68650467 21.64,6.7 L24,6.7 C24.8453715,6.67054587 25.645704,6.31165239 26.23,5.7 L26.29,5.7 Z M29.15,11.91 L29.11,11.91 C29.0135752,12.249841 28.7032558,12.4843614 28.35,12.4843614 C27.9967442,12.4843614 27.6864248,12.249841 27.59,11.91 L27.59,11.71 C27.59,11.2792179 27.9392179,10.93 28.37,10.93 C28.8007821,10.93 29.15,11.2792179 29.15,11.71 L29.15,11.91 Z M30.29,11.7 L30.29,11.7 C30.29,11.0283407 29.9316741,10.4077018 29.35,10.0718722 C28.768326,9.7360425 28.051674,9.7360425 27.47,10.0718722 C26.8883259,10.4077018 26.53,11.0283407 26.53,11.7 C26.526551,11.9770802 26.5882053,12.2510996 26.71,12.5 C27.0205697,13.1577037 27.6826571,13.5772547 28.41,13.5772547 C29.1373429,13.5772547 29.7994303,13.1577037 30.11,12.5 C30.2317947,12.2510996 30.293449,11.9770802 30.29,11.7 Z M31.77,9.12 L31.75,9.13 C31.8289862,9.12909519 31.9032776,9.09233162 31.9519082,9.03008451 C32.0005387,8.9678374 32.018234,8.88685803 32,8.81 L31.75,7.52 C31.7186383,7.40781429 31.6164867,7.33017911 31.5,7.33 L30.62,7.33 C30.5321238,7.33187849 30.4511459,7.37802872 30.4047425,7.45267774 C30.358339,7.52732677 30.352793,7.6203671 30.39,7.7 L31,8.9 L31.14,9 L31.77,9.12 Z" id="Combined-Shape" fill="#77878B" fill-rule="nonzero"></path>
    </g>
</svg>