<?xml version="1.0" encoding="UTF-8" standalone="no"?>
<svg width="36px" height="22px" viewBox="0 0 36 22" version="1.1" xmlns="http://www.w3.org/2000/svg" xmlns:xlink="http://www.w3.org/1999/xlink">
    <!-- Generator: Sketch 43.1 (39012) - http://www.bohemiancoding.com/sketch -->
    <title>Combined Shape Copy</title>
    <desc>Created with Sketch.</desc>
    <defs></defs>
    <g id="Page-1" stroke="none" stroke-width="1" fill="none" fill-rule="evenodd">
        <path d="M12.6065558,19.5518293 L11.1904518,19.5518293 L11.1904518,18.2098457 L9.53919973,17.472561 L0,17.472561 L0,16.6006098 L9.97739344,16.6006098 L9.97739344,6.10173009 L11.2262777,6.10173009 L11.2262777,0.402023991 L12.8792838,0.402023991 L12.8792838,14.4209071 L18.0459478,0.935084577 C18.2438027,0.418651626 18.857333,0 19.4124578,0 L27.3404744,0 C27.8973222,0 28.3487365,0.45424753 28.3487365,1.00372992 L28.3487365,6.60877005 L31.9951001,6.60877005 C34.2069452,6.60877005 36,8.40844698 36,10.6153964 L36,19.5518293 L34.4810377,19.5518293 C34.4810377,19.5518293 34.2128768,15.7957317 30.8421559,15.7957317 C27.471435,15.7957317 27.3703133,19.5518293 27.3703133,19.5518293 L19.8535301,19.5518293 C19.8535301,19.5518293 19.6659056,15.7621951 16.1458127,15.7621951 C12.6257198,15.7621951 12.6065558,19.5518293 12.6065558,19.5518293 Z M14.7974648,14.4207317 L20.6962859,14.5213415 L22.7859739,12.4420732 L26.3590971,12.4420732 L26.3590971,8.7195122 L27.0669485,8.68597561 L27.5051422,8.68597561 L27.4462658,1.77373535 C27.4415454,1.21954354 26.9881,0.771341463 26.4334561,0.771341463 L20.1163187,0.771341463 C19.5596719,0.771341463 18.9527348,1.18542261 18.7562132,1.69621759 L14.7638171,12.0731707 L15.1345964,11.7713415 L15.707619,11.804878 L18.3367813,8.85365854 L17.4460337,8.0228098 C17.3427889,7.92650776 17.33455,7.76204677 17.4287934,7.65655964 L17.6268232,7.43490377 C17.7224765,7.32783857 17.8799845,7.32377617 17.9817762,7.42230541 L20.1759559,9.54615979 C20.2749972,9.64202675 20.2837177,9.80072371 20.1892905,9.894673 L19.9908742,10.0920849 C19.9043309,10.1781901 19.7397263,10.1871209 19.640829,10.0945122 L18.6738534,9.18902439 L16.0109839,12.1737805 L16.0783387,12.8109756 L14.7974648,14.4207317 Z M30.9432179,22 C29.4539397,22 28.2466412,20.7988127 28.2466412,19.3170732 C28.2466412,17.8353336 29.4539397,16.6341463 30.9432179,16.6341463 C32.4324962,16.6341463 33.6397947,17.8353336 33.6397947,19.3170732 C33.6397947,20.7988127 32.4324962,22 30.9432179,22 Z M16.1120459,22 C14.6227677,22 13.4154692,20.7988127 13.4154692,19.3170732 C13.4154692,17.8353336 14.6227677,16.6341463 16.1120459,16.6341463 C17.6013241,16.6341463 18.8086227,17.8353336 18.8086227,19.3170732 C18.8086227,20.7988127 17.6013241,22 16.1120459,22 Z" id="Combined-Shape-Copy" fill="#FFFFFF"></path>
    </g>
</svg>