<?xml version="1.0" encoding="UTF-8" standalone="no"?>
<svg width="36px" height="14px" viewBox="0 0 36 14" version="1.1" xmlns="http://www.w3.org/2000/svg" xmlns:xlink="http://www.w3.org/1999/xlink">
    <!-- Generator: Sketch 43.1 (39012) - http://www.bohemiancoding.com/sketch -->
    <title>Car_9</title>
    <desc>Created with Sketch.</desc>
    <defs></defs>
    <g id="Page-1" stroke="none" stroke-width="1" fill="none" fill-rule="evenodd">
        <g id="Car_9" fill-rule="nonzero" fill="#FFFFFF">
            <path d="M0,0.820242685 L0,1.09024269 L0,1.09024269 L0,11.1602427 L0,11.1602427 C0.054434719,11.5677202 0.398950708,11.8739566 0.81,11.8802427 L1.28,11.8802427 C1.46560182,12.8914004 2.34694946,13.6256975 3.375,13.6256975 C4.40305054,13.6256975 5.28439818,12.8914004 5.47,11.8802427 L6.2,11.8802427 C6.38560182,12.8914004 7.26694946,13.6256975 8.295,13.6256975 C9.32305054,13.6256975 10.2043982,12.8914004 10.39,11.8802427 L14.59,11.8802427 C14.7756018,12.8914004 15.6569495,13.6256975 16.685,13.6256975 C17.7130505,13.6256975 18.5943982,12.8914004 18.78,11.8802427 L19.49,11.8802427 C19.6756018,12.8914004 20.5569495,13.6256975 21.585,13.6256975 C22.6130505,13.6256975 23.4943982,12.8914004 23.68,11.8802427 L29.88,11.8802427 C30.0656018,12.8914004 30.9469495,13.6256975 31.975,13.6256975 C33.0030505,13.6256975 33.8843982,12.8914004 34.07,11.8802427 L35.18,11.8802427 C35.6344863,11.8747665 36.000033,11.504762 36,11.0502427 L36,10.7902427 C36.0007869,10.4786648 35.8270063,10.1928922 35.55,10.0502427 L35.38,8.77024269 C35.2925601,8.12997401 34.8122852,7.61367856 34.18,7.48024269 L33.18,7.28024269 C32.753895,7.20037226 32.3726038,6.96518325 32.11,6.62024269 L30.59,4.62024269 C30.2357713,4.2139268 29.7188743,3.98663876 29.18,4.00024269 L28.12,4.00024269 L28.05,3.73024269 C28.0084228,3.60065919 27.902304,3.50212038 27.77,3.47024269 L26.41,3.17024269 C26.206947,3.15248023 26.0260441,3.29808496 26,3.50024269 L26,4.25024269 L26,4.25024269 L26,10.0002427 L25,10.0002427 L25,1.86024269 C25.3181451,1.73691684 25.5284009,1.43145082 25.53,1.09024269 L25.53,0.820242685 C25.5273911,0.598342939 25.4360307,0.386728881 25.2763199,0.232654961 C25.1166092,0.0785810398 24.9018503,-0.00512000185 24.68,0.000242685212 L0.82,0.000242685212 C0.367126505,0.000242685212 5.54610076e-17,0.36736919 0,0.820242685 L0,0.820242685 Z M34.21,9.39024269 C34.21,9.03024269 34.38,8.73024269 34.58,8.73024269 C34.78,8.73024269 34.95,9.03024269 34.95,9.39024269 C34.9625983,9.59939327 34.8905196,9.80481766 34.75,9.96024269 L34.58,10.0402427 L34.41,10.0002427 C34.2588721,9.83503911 34.1860255,9.61285689 34.21,9.39024269 Z M31,11.4802427 C31.0012144,11.3717285 31.018054,11.2639551 31.05,11.1602427 C31.1820515,10.7229598 31.5936301,10.430739 32.05,10.4502427 C32.5063699,10.430739 32.9179485,10.7229598 33.05,11.1602427 C33.0700197,11.26597 33.0700197,11.3745154 33.05,11.4802427 C33.0519286,11.6167837 33.0281832,11.7524713 32.98,11.8802427 C32.8257394,12.2678397 32.4470754,12.5189537 32.03,12.5102427 C31.6129246,12.5189537 31.2342606,12.2678397 31.08,11.8802427 C31.0286278,11.7530632 31.0014947,11.6173976 31,11.4802427 Z M26.83,7.31024269 L26.83,5.18024269 C26.83,4.98694302 26.9867003,4.83024269 27.18,4.83024269 L29.18,4.83024269 C29.4668998,4.83848535 29.7364268,4.96960657 29.92,5.19024269 L31.1,6.71024269 C31.1594068,6.78951955 31.1824353,6.89025838 31.1633736,6.98747281 C31.144312,7.08468725 31.0849459,7.16927027 31,7.22024269 C30.8539912,7.31002094 30.7196393,7.41750247 30.6,7.54024269 C30.5352253,7.61656825 30.4401064,7.66046929 30.34,7.66024269 L27.18,7.66024269 C26.9867003,7.66024269 26.83,7.50354235 26.83,7.31024269 Z M20.56,11.4802427 C20.5612144,11.3717285 20.578054,11.2639551 20.61,11.1602427 C20.7420515,10.7229598 21.1536301,10.430739 21.61,10.4502427 C22.0663699,10.430739 22.4779485,10.7229598 22.61,11.1602427 C22.6499583,11.2621834 22.6703147,11.3707508 22.67,11.4802427 C22.6685053,11.6173976 22.6413722,11.7530632 22.59,11.8802427 C22.4551164,12.2906172 22.0719732,12.5679928 21.64,12.5679928 C21.2080268,12.5679928 20.8248836,12.2906172 20.69,11.8802427 C20.6213422,11.756512 20.5772021,11.6206965 20.56,11.4802427 Z M15.66,11.4802427 C15.6612144,11.3717285 15.678054,11.2639551 15.71,11.1602427 C15.8136974,10.7052347 16.2183252,10.3824475 16.685,10.3824475 C17.1516748,10.3824475 17.5563026,10.7052347 17.66,11.1602427 C17.6967833,11.2627799 17.7137508,11.371372 17.71,11.4802427 C17.7085053,11.6173976 17.6813722,11.7530632 17.63,11.8802427 C17.4905963,12.2830201 17.1112194,12.5531724 16.685,12.5531724 C16.2587806,12.5531724 15.8794037,12.2830201 15.74,11.8802427 C15.6886278,11.7530632 15.6614947,11.6173976 15.66,11.4802427 L15.66,11.4802427 Z M7.27,11.4802427 C7.26624922,11.371372 7.28321673,11.2627799 7.32,11.1602427 C7.45205152,10.7229598 7.86363007,10.430739 8.32,10.4502427 C8.77636993,10.430739 9.18794848,10.7229598 9.32,11.1602427 C9.35194601,11.2639551 9.3687856,11.3717285 9.37,11.4802427 C9.3685053,11.6173976 9.34137218,11.7530632 9.29,11.8802427 C9.12970605,12.2858344 8.72504818,12.5407688 8.29,12.5102427 C7.87292463,12.5189537 7.49426058,12.2678397 7.34,11.8802427 C7.29181677,11.7524713 7.26807144,11.6167837 7.27,11.4802427 L7.27,11.4802427 Z M2.36,11.4802427 C2.3612144,11.3717285 2.37805399,11.2639551 2.41,11.1602427 C2.41,10.6079579 2.85771525,10.1602427 3.41,10.1602427 C3.96228475,10.1602427 4.41,10.6079579 4.41,11.1602427 C4.42517971,11.2663693 4.42517971,11.3741161 4.41,11.4802427 C4.4085053,11.6173976 4.38137218,11.7530632 4.33,11.8802427 C4.19511641,12.2906172 3.8119732,12.5679928 3.38,12.5679928 C2.9480268,12.5679928 2.56488359,12.2906172 2.43,11.8802427 C2.38204476,11.752409 2.35830702,11.6167648 2.36,11.4802427 L2.36,11.4802427 Z M2.2,8.86024269 C2.19993823,8.62108967 2.39090875,8.42567797 2.63,8.42024269 L22.34,8.42024269 C22.4566953,8.42024269 22.568611,8.46659969 22.651127,8.5491157 C22.733643,8.63163171 22.78,8.74354743 22.78,8.86024269 C22.7800313,8.97603972 22.7333577,9.08695511 22.6505412,9.16788948 C22.5677246,9.24882384 22.4557657,9.29293564 22.34,9.29024269 L2.63,9.29024269 C2.39251756,9.29024269 2.2,9.09772513 2.2,8.86024269 L2.2,8.86024269 Z M2.2,3.26024269 C2.19993823,3.02108967 2.39090875,2.82567797 2.63,2.82024269 L22.34,2.82024269 C22.5830053,2.82024269 22.78,3.0172374 22.78,3.26024269 C22.78,3.50324798 22.5830053,3.70024269 22.34,3.70024269 L2.63,3.70024269 C2.39090875,3.6948074 2.19993823,3.4993957 2.2,3.26024269 L2.2,3.26024269 Z" id="Shape"></path>
        </g>
    </g>
</svg>