<?xml version="1.0" encoding="UTF-8" standalone="no"?>
<svg width="70px" height="46px" viewBox="0 0 70 46" version="1.1" xmlns="http://www.w3.org/2000/svg" xmlns:xlink="http://www.w3.org/1999/xlink">
    <!-- Generator: Sketch 43.1 (39012) - http://www.bohemiancoding.com/sketch -->
    <title>Car_5_bl</title>
    <desc>Created with Sketch.</desc>
    <defs></defs>
    <g id="Page-1" stroke="none" stroke-width="1" fill="none" fill-rule="evenodd">
        <g id="Car_5_bl" fill-rule="nonzero" fill="#3265B1">
            <path d="M40.140625,17.9180952 L29.3125,15.8809524 C29.3125,15.8809524 28.240625,10.4485714 36.75,10.207619 C45.259375,9.96666667 45.5,14.0190476 45.5,14.0190476 L40.140625,17.9180952 Z M63,12.3761905 L51.7125,9.50666667 L46.8125,5.36666667 C48.6228238,3.32089064 50.6887833,1.51715849 52.959375,0 C56.875,2.19047619 63,12.3761905 63,12.3761905 Z M21.459375,18.2247619 C21.0635649,18.0579023 20.776567,17.7048252 20.69375,17.2828571 C20.6499569,17.051264 20.6499569,16.8134979 20.69375,16.5819048 L31.4125,18.1371429 C31.2386218,19.1804704 30.6143989,20.0940374 29.70625,20.6342857 C27.540625,21.7295238 24.10625,19.7142857 22.246875,18.6190476 C21.9911488,18.4744692 21.7283162,18.3428741 21.459375,18.2247619 Z M47.359375,8.5647619 C48.1241788,8.55590732 48.8182048,9.01160514 49.114982,9.7174942 C49.4117593,10.4233833 49.252203,11.2389301 48.711369,11.7805 C48.1705348,12.3220699 47.3560959,12.4818432 46.651166,12.1846622 C45.946236,11.8874813 45.4911575,11.192511 45.5,10.4266667 C45.5,9.39836506 46.3324706,8.5647619 47.359375,8.5647619 L47.359375,8.5647619 Z M59.89375,24.84 C62.5911414,24.8339819 65.1785083,25.9103241 67.0776177,27.8284822 C68.9767273,29.7466404 70.0292626,32.34671 70,35.047619 C69.9999998,40.6851313 65.4361026,45.2552379 59.80625,45.2552379 C54.1763974,45.2552379 49.6125002,40.6851313 49.6125,35.047619 C49.5746654,32.3231628 50.6123686,29.6938869 52.5,27.7314286 C51.3581688,28.2135427 50.2902743,28.8551512 49.328125,29.6371429 C47.29375,31.6742857 47.775,36.34 47.775,36.34 L23.7125,36.34 C22.4739493,40.7390582 18.4767748,43.7856899 13.9125,43.8095238 C9.30740753,43.7755394 5.29961405,40.6476413 4.14212407,36.1841958 C2.98463408,31.7207503 4.96624748,27.0354107 8.9729887,24.7620679 C12.9797299,22.4887251 18.0118958,23.1945903 21.240625,26.4828571 L23.253125,25.2342857 L22.09375,23.92 C22.09375,23.92 12.359375,21.9047619 0,11.412381 L14.371875,11.412381 L19.359375,15.7933333 C19.204959,16.3597963 19.204959,16.9573466 19.359375,17.5238095 C19.538799,18.3638477 20.0846234,19.0792075 20.846875,19.4733333 L21.546875,19.867619 C23.581311,21.1880689 25.8962005,22.0132608 28.30625,22.2771429 C28.9756423,22.311184 29.6433889,22.1834634 30.253125,21.9047619 C31.5879093,21.2122446 32.5313717,19.9445085 32.8125,18.4657143 L40.6875,19.7142857 L51.8875,11.6095238 L63.4375,14.632381 C65.0654675,16.6373047 66.1704444,19.0158613 66.653125,21.5542857 C66.653125,21.5542857 62.846875,23.0438095 58.8,24.84 C59.1632947,24.7965913 59.5304553,24.7965913 59.89375,24.84 Z M13.95625,40.8961905 L14,40.8961905 C17.9889507,40.8722714 21.2167384,37.6400921 21.240625,33.6457143 C21.2238864,32.9620949 21.1134802,32.2840153 20.9125,31.6304762 L15.09375,35.3542857 C14.7740859,35.5769899 14.3886752,35.6850516 14,35.6609524 C13.3084059,35.6796505 12.6588549,35.3294164 12.29375,34.7409524 C11.9998276,34.2888955 11.8991615,33.7377125 12.0142787,33.2107468 C12.1293958,32.6837809 12.4506855,32.2250264 12.90625,31.9371429 L18.703125,28.1914286 C16.2801599,26.0664619 12.746733,25.7996397 10.0329232,27.5367093 C7.31911331,29.273779 6.07743019,32.5970788 6.9861237,35.6913082 C7.89481722,38.7855379 10.7354007,40.9067192 13.95625,40.8961905 Z M23.84375,31.2361905 L28.13125,30.9952381 L25.94375,28.3447619 L23.45,29.987619 C23.6109081,30.3938418 23.7424961,30.811104 23.84375,31.2361905 Z M59.85,42.1885714 L60.003125,42.2104762 C62.92153,42.2328256 65.5662613,40.4932966 66.7049558,37.8024561 C67.8436504,35.1116156 67.2522585,31.9989138 65.2063506,29.9147732 C63.1604426,27.8306326 60.0625718,27.1851291 57.35625,28.2790476 L61.25,33.3390476 C61.5234924,33.7125937 61.6315413,34.1823253 61.5487974,34.638037 C61.4660533,35.0937487 61.1997984,35.4953327 60.8125,35.7485714 C60.556218,36.0290356 60.1845593,36.174665 59.80625,36.1428571 C59.3001697,36.140721 58.8204586,35.9165512 58.49375,35.5295238 L54.446875,30.3161905 C53.2850439,31.6168348 52.6459535,33.302583 52.653125,35.047619 C52.724082,38.9871962 55.9152908,42.1536077 59.85,42.1885714 Z" id="Combined-Shape"></path>
        </g>
    </g>
</svg>