<?xml version="1.0" encoding="UTF-8" standalone="no"?>
<svg width="79px" height="43px" viewBox="0 0 79 43" version="1.1" xmlns="http://www.w3.org/2000/svg" xmlns:xlink="http://www.w3.org/1999/xlink">
    <!-- Generator: Sketch 43.1 (39012) - http://www.bohemiancoding.com/sketch -->
    <title>Car_2_bl</title>
    <desc>Created with Sketch.</desc>
    <defs></defs>
    <g id="Page-1" stroke="none" stroke-width="1" fill="none" fill-rule="evenodd">
        <g id="Car_2_bl" fill-rule="nonzero" fill="#3265B1">
            <path d="M78.8108108,32.3662596 L78.8108108,32.3662596 C78.8511079,33.4843295 78.1452237,34.4853756 77.1032432,34.7878385 C75.9996285,35.1092909 74.8563978,35.2617886 73.71,35.2404701 L72.5716216,35.2404701 C71.8242397,39.4649659 68.2374631,42.5155251 64.0836093,42.4595382 C59.9297555,42.4035511 56.4211306,39.2573579 55.7805405,35.0141543 L26.6643243,34.6067859 C26.1739694,39.0974207 22.4742655,42.4748924 18.1031083,42.4223475 C13.731951,42.3698026 10.1092159,38.9043095 9.72,34.4031017 L5.34162162,34.4031017 C4.33810531,34.4031017 3.52459459,33.5621038 3.52459459,32.5246806 L3.52459459,29.8315227 C3.53149245,29.1408069 3.90026316,28.5083104 4.48783784,28.1794174 L4.24702703,25.4183648 C3.99601748,25.5209458 3.72882224,25.574656 3.45891892,25.5767859 L2.05783784,25.5767859 C0.921325382,25.5767859 1.39182634e-16,24.6243304 0,23.4494174 L0,14.3967858 C1.39182634e-16,13.2218727 0.921325382,12.2694174 2.05783784,12.2694174 L3.45891892,12.2694174 C3.8464222,12.2803928 4.22415753,12.3975423 4.55351351,12.6088911 C4.61918919,12.2241542 4.79432432,11.862049 4.79432432,11.4999437 L6.72081081,3.60152264 C6.88961527,2.8789683 7.22795685,2.2105122 7.70594595,1.65520686 C8.18056803,1.08550367 8.78143328,0.642921905 9.4572973,0.365206858 C10.1468525,0.0600623597 10.9006756,-0.0568316493 11.6464865,0.0257331723 L45.5789189,2.85468054 C47.1876012,2.98285082 48.6150121,3.96947088 49.3443243,5.45731212 L54.3794595,15.6415226 L67.9524324,17.2483647 L67.9524324,14.9852069 L66.9891892,14.8041542 C66.4951036,14.7016313 66.1729121,14.2070613 66.2667568,13.6952069 C66.3660104,13.1948093 66.8300815,12.8649804 67.3175676,12.9483647 L69.3097297,13.3331016 C69.7366838,13.4095603 70.049844,13.7904325 70.0540541,14.2383647 L70.0540541,17.3841542 L72.0243243,17.61047 C73.4759857,17.7877065 74.6517863,18.9118422 74.9359459,20.3941542 L75.9867568,26.6857332 C76.056091,27.0840391 76.2217717,27.457738 76.4683784,27.772049 C76.706567,28.0942521 77.0241238,28.3443752 77.3878378,28.4962596 C78.2547403,28.8916699 78.8132034,29.7798736 78.8108108,30.7594174 L78.8108108,32.3662596 Z M7.94675676,27.7041543 L7.94675676,27.7041543 C8.17028941,27.6989246 8.37888287,27.5869902 8.51166225,27.4010172 C8.64444161,27.2150442 8.68644171,26.9759934 8.62540541,26.753628 L8.1,24.9204701 C7.97363083,24.6583654 7.70307062,24.5049805 7.42135135,24.5357332 L6.80837838,24.5357332 C6.60866563,24.54113 6.42003077,24.6317821 6.28730352,24.7861453 C6.15457628,24.9405088 6.08960772,25.1448004 6.10783784,25.3504701 L6.34864865,27.183628 C6.44531344,27.498053 6.73009337,27.7096547 7.04918919,27.7041543 L7.94675676,27.7041543 Z M36.0340541,21.3899437 C36.0574436,21.8971491 36.4623286,22.2957829 36.9535135,22.2952069 L38.5735135,22.2952069 C39.081317,22.2952069 39.492973,21.8696417 39.492973,21.3446805 C39.492973,20.8197194 39.081317,20.3941542 38.5735135,20.3941542 L36.9535135,20.3941542 C36.7018787,20.3938591 36.4611222,20.5001928 36.2873743,20.6883646 C36.1136265,20.8765364 36.0220713,21.1301015 36.0340541,21.3899437 Z M15.2367568,30.4425753 L15.3243243,30.4425753 C15.0452182,30.7585246 14.6529322,30.9422399 14.2391241,30.9507957 C13.825316,30.9593516 13.4262381,30.7919983 13.1351351,30.4878385 C12.877059,30.9254635 12.6781835,31.3975707 12.5440541,31.8909964 C13.3476345,31.9384774 13.978732,32.6205541 13.9889189,33.4525753 C13.9891757,33.7359005 13.9051019,34.0124467 13.7481081,34.2446806 C13.4875118,34.6772973 13.0366429,34.9484842 12.5440541,34.9688911 C12.672428,35.4857989 12.871459,35.9811372 13.1351351,36.4399438 C13.739663,35.8149899 14.7197964,35.8149899 15.3243243,36.4399438 C15.9288522,37.0648974 15.9288522,38.0781478 15.3243243,38.7031017 C15.7486234,39.0409169 16.221344,39.308171 16.7254054,39.4952069 C16.7254054,38.6452696 17.3918961,37.9562596 18.2140541,37.9562596 C19.036212,37.9562596 19.7027027,38.6452696 19.7027027,39.4952069 C20.202716,39.3624953 20.6818648,39.1567394 21.1256757,38.8841543 C20.5211478,38.2592004 20.5211478,37.24595 21.1256757,36.6209964 C21.7302036,35.9960425 22.7103369,35.9960425 23.3148649,36.6209964 C23.5765192,36.1583562 23.7823761,35.6643272 23.9278378,35.1499438 C23.4908155,35.130181 23.0835411,34.9155354 22.8113514,34.5615227 C22.5951912,34.2956309 22.4786509,33.9582925 22.482973,33.6109964 C22.4822076,32.7743936 23.1193433,32.0857911 23.9278378,32.0494174 C23.7823761,31.5350338 23.5765192,31.041005 23.3148649,30.5783648 C22.7103369,31.2033184 21.7302036,31.2033184 21.1256757,30.5783648 C20.5211478,29.953411 20.5211478,28.9401605 21.1256757,28.3152069 C20.6818648,28.0426215 20.202716,27.8368656 19.7027027,27.7041543 C19.6915647,28.1145805 19.5199016,28.5027926 19.2269563,28.7800437 C18.9340109,29.0572948 18.5448287,29.199881 18.1483784,29.1752069 C17.4150506,29.1757725 16.7872648,28.63176 16.6597297,27.8852069 L16.1124324,27.8852069 C15.8048598,27.9915735 15.5108391,28.1359521 15.2367568,28.3152069 C15.7871875,28.9101766 15.7871875,29.8476054 15.2367568,30.4425753 Z M19.8340541,22.34047 C20.3418575,22.34047 20.7535135,21.9149049 20.7535135,21.3899437 C20.7535135,20.8649825 20.3418575,20.4394174 19.8340541,20.4394174 L18.2140541,20.4394174 C17.7062506,20.4394174 17.2945946,20.8649825 17.2945946,21.3899437 C17.2945946,21.9149049 17.7062506,22.34047 18.2140541,22.34047 L19.8340541,22.34047 Z M31.9621622,17.5652069 L31.9621622,17.5652069 C32.2282003,17.5707762 32.4822553,17.4509897 32.6526038,17.2396646 C32.8229522,17.0283395 32.8911109,16.7484053 32.8378378,16.4788911 L30.5391892,5.0499437 C30.4538215,4.66266748 30.1342209,4.37815705 29.7510811,4.34836475 L16.6159459,3.28468054 C16.1903225,3.24896114 15.8018422,3.53582278 15.6964865,3.96362791 L14.7332432,7.69783843 C14.2665671,9.51383442 14.3896273,11.4380086 15.0835135,13.1746805 L16.2,16.592049 C16.3172888,16.9560958 16.6392311,17.2079597 17.01,17.2257332 L31.9621622,17.5652069 Z M50.7235135,15.8678384 C51.0688452,15.5976074 51.1712064,15.1069882 50.9643243,14.7136279 L46.98,6.63415422 C46.668502,6.01755672 46.0741551,5.60793756 45.4037838,5.54783843 L34.2827027,4.66520685 C34.0080486,4.64704965 33.7405183,4.76015778 33.5568814,4.97207391 C33.3732446,5.18399004 33.2938024,5.47128705 33.3413514,5.75152264 L35.5305405,16.8636279 C35.6042591,17.2925058 35.9629844,17.6062985 36.3843243,17.61047 L48.1621622,17.61047 L48.7751351,17.4294174 L50.7235135,15.8678384 Z M65.6756757,33.5204701 L65.6756757,33.5204701 C65.6698518,34.2958115 65.1069793,34.9455899 64.3621622,35.0367859 L63.9243243,35.0367859 C63.3924814,34.9923157 62.9239875,34.6579018 62.6953194,34.1595148 C62.4666516,33.6611276 62.5125499,33.0744843 62.8157248,32.6205674 C63.1188999,32.1666504 63.6332922,31.914421 64.1651351,31.9588911 C64.9993837,31.9588911 65.6756757,32.6580338 65.6756757,33.5204701 Z M68.237027,33.5431017 L68.3464865,33.5204701 C68.4806393,32.839583 69.0338538,32.3322466 69.7037838,32.2757332 C69.5754097,31.7588253 69.3763787,31.263487 69.1127027,30.8046806 C68.5081747,31.4296342 67.5280415,31.4296342 66.9235135,30.8046806 C66.3189856,30.1797268 66.3189856,29.1664763 66.9235135,28.5415227 C66.4797027,28.2689373 66.000554,28.0631814 65.5005405,27.9304701 C65.5005405,28.7804072 64.8340498,29.4694174 64.0118919,29.4694174 C63.189734,29.4694174 62.5232432,28.7804072 62.5232432,27.9304701 C62.0232298,28.0631814 61.5440811,28.2689373 61.1002703,28.5415227 C61.6621813,29.1316812 61.6621813,30.0787327 61.1002703,30.6688911 C60.5173923,31.2407918 59.6034185,31.2407918 59.0205405,30.6688911 C58.7658772,31.1323141 58.5673576,31.6263794 58.4294595,32.1399438 C59.237954,32.1763175 59.8750897,32.8649199 59.8743243,33.7015227 C59.8711261,34.3567155 59.4670005,34.9379753 58.8672973,35.1499438 L58.4294595,35.1499438 C58.5673576,35.6635079 58.7658772,36.1575734 59.0205405,36.6209964 C59.6034185,36.0490957 60.5173923,36.0490957 61.1002703,36.6209964 C61.6621813,37.2111549 61.6621813,38.1582063 61.1002703,38.7483648 C61.5440811,39.02095 62.0232298,39.2267059 62.5232432,39.3594174 C62.5232432,38.5094801 63.189734,37.8204701 64.0118919,37.8204701 C64.8340498,37.8204701 65.5005405,38.5094801 65.5005405,39.3594174 C66.000554,39.2267059 66.4797027,39.02095 66.9235135,38.7483648 C66.3189856,38.123411 66.3189858,37.1101608 66.9235135,36.4852069 C67.5280415,35.8602531 68.5081747,35.8602531 69.1127027,36.4852069 C69.3560674,36.0427215 69.5471646,35.5716312 69.6818919,35.082049 C68.8817986,35.0461291 68.2478795,34.370932 68.237027,33.5431017 Z M73.4254054,26.482049 L73.5348649,26.4594174 C73.7335546,26.4691875 73.9258214,26.3853389 74.0577087,26.2314027 C74.189596,26.0774666 74.2468905,25.8700318 74.2135135,25.6673122 L73.5786486,22.182049 C73.5169019,21.8691913 73.2526243,21.6430889 72.9437838,21.6388911 L71.7178378,21.6388911 C71.5267488,21.6427074 71.3467473,21.7323885 71.2248064,21.8845312 C71.1028653,22.0366739 71.0510833,22.2361837 71.082973,22.4309963 L71.5864865,25.9388911 C71.6350145,26.2324888 71.8687052,26.4554918 72.1556757,26.482049 L73.4254054,26.482049 Z M16.6816216,33.5204701 L16.6816216,33.5204701 C16.6638639,33.1024241 16.8091448,32.6944998 17.0848882,32.3881665 C17.3606316,32.0818331 17.7437649,31.9027225 18.1483784,31.8909964 C18.7088827,31.9012026 19.2178223,32.2314654 19.4703613,32.7488622 C19.7229003,33.2662593 19.6774998,33.8856861 19.3524324,34.3578385 C19.0722547,34.7560337 18.6246804,34.9915886 18.1483784,34.9915227 C17.6504322,34.9882382 17.1850769,34.7350388 16.9005405,34.3125753 C16.7592937,34.0740127 16.683609,33.8001654 16.6816216,33.5204701 Z" id="Combined-Shape"></path>
        </g>
    </g>
</svg>