<?xml version="1.0" encoding="UTF-8" standalone="no"?>
<svg width="67px" height="38px" viewBox="0 0 67 38" version="1.1" xmlns="http://www.w3.org/2000/svg" xmlns:xlink="http://www.w3.org/1999/xlink">
    <!-- Generator: Sketch 43.1 (39012) - http://www.bohemiancoding.com/sketch -->
    <title>Car_8_bl</title>
    <desc>Created with Sketch.</desc>
    <defs></defs>
    <g id="Page-1" stroke="none" stroke-width="1" fill="none" fill-rule="evenodd">
        <g id="Car_8_bl" fill-rule="nonzero" fill="#3265B1">
            <path d="M0,28.1659239 L0,22.3159239 C0,22.1209239 0.263225806,21.8825906 0.460645161,21.7959239 C6.18580645,19.0225906 11.9987097,16.4659239 18.0090323,14.1692573 C26.8601661,10.7258358 35.9784139,7.99417673 45.2748387,6.00092393 C51.9370773,4.54414291 58.741648,3.81752869 65.5651613,3.83425727 L66.9909677,3.83425727 C66.9265847,4.02835355 66.8458731,4.21678861 66.7496774,4.3975906 C63.0645161,11.4031461 59.3647311,18.4014795 55.6503226,25.3925906 C55.4966044,25.6564765 55.2448028,25.8507858 54.9483871,25.9342573 C49.9496968,27.2842704 44.7240396,27.6087149 39.5935484,26.8875906 C34.852221,26.178568 30.1572287,25.1946461 25.5329032,23.9409239 C20.9284016,22.9259556 16.1581055,22.8890291 11.5380645,23.8325906 C7.84200127,24.5382858 4.30034172,25.8803844 1.07483871,27.7975906 C0.727418844,27.9493433 0.367921017,28.0725386 3.83564147e-16,28.1659239 L0,28.1659239 Z M29.8980645,17.6575906 C30.3730862,17.6638704 30.829888,17.47725 31.1616368,17.1413749 C31.4933853,16.8054997 31.6709862,16.3498261 31.6529032,15.8809239 C31.6529394,15.4116906 31.462736,14.9619843 31.1247667,14.632228 C30.7867978,14.3024716 30.3292124,14.1201309 29.8541935,14.1259239 C28.870796,14.1605752 28.0885084,14.952355 28.0774194,15.9242573 C28.0770837,16.3954527 28.2709739,16.846477 28.6144434,17.1734749 C28.957913,17.5004728 29.4213584,17.6752605 29.8980645,17.6575906 L29.8980645,17.6575906 Z M37.4,14.1259239 C37.3999263,13.1475346 36.5990333,12.3533325 35.6085132,12.3494037 C34.617993,12.3454749 33.8106685,13.1332982 33.8026397,14.1116554 C33.794611,15.0900127 34.5889002,15.890659 35.5793548,15.9025906 C36.5715597,15.8911989 37.3764415,15.1057595 37.4,14.1259239 L37.4,14.1259239 Z M24.4141935,15.9242573 C25.394072,15.9475192 26.1794415,16.7328413 26.1909677,17.7009239 C26.1788885,18.6672733 25.3781306,19.4421279 24.3997501,19.4341982 C23.4213699,19.4262685 22.6335927,18.6385391 22.6375694,17.672124 C22.6415463,16.705709 23.4357802,15.9243309 24.4141935,15.9242573 Z M16.956129,12.6525906 L15.3548387,7.49592393 C16.2103226,7.14925727 17.043871,6.8025906 17.8774194,6.52092393 C19.1058065,6.13092393 20.356129,5.78425727 21.5845161,5.41592393 L22.2206452,5.22092393 C22.7933164,5.04409915 23.115845,4.44556244 22.9445161,3.8775906 C22.87275,3.59938705 22.6899752,3.36175175 22.4378712,3.21887455 C22.1857671,3.07599736 21.8858281,3.0400599 21.6064516,3.11925727 C20.6412903,3.33592393 19.6980645,3.59592393 18.7548387,3.89925727 C17.4167742,4.3325906 16.0787097,4.83092393 14.6967742,5.3075906 L14.1264516,3.57425727 C12.5111356,3.95376952 10.8282192,3.95376952 9.21290323,3.57425727 C11.3564003,2.58174447 13.5985617,1.81205105 15.9032258,1.2775906 C20.9255709,0.0792336389 26.1156751,-0.279621355 31.2580645,0.215923936 C33.1631742,0.502755166 35.0521135,0.88603773 36.9174194,1.36425727 L46.92,3.53092393 C47.0288272,3.55062567 47.128604,3.6036933 47.2051613,3.6825906 C36.7872417,5.43326689 26.6275905,8.44599375 16.956129,12.6525906 L16.956129,12.6525906 Z M0,31.6975906 C1.40387097,30.8959239 2.74193548,30.0292573 4.16774194,29.3142573 C9.13548538,26.903664 14.6582616,25.8275905 20.1806452,26.1942573 C23.1092277,26.4368773 26.0050933,26.9741056 28.8232258,27.7975906 C32.686036,28.8560482 36.6346475,29.5809965 40.6245161,29.9642573 C47.8675403,30.9102105 55.2296002,29.6238291 61.7045161,26.2809239 C61.7980047,26.2194654 61.9020814,26.1754075 62.0116129,26.1509239 L62.2529032,26.1509239 C61.5729032,26.6925906 60.9806452,27.2125906 60.3225806,27.6892573 C56.8077903,30.2238534 52.7322932,31.8949776 48.4335484,32.5642573 C41.9152702,33.6297955 35.2328646,33.1243508 28.9548387,31.0909239 C24.0924632,29.5293524 18.9964626,28.7966668 13.8851613,28.9242573 C9.43274852,29.0612032 5.03849589,29.9630097 0.899354839,31.5892573 L0.131612903,31.8709239 L0,31.6975906 Z M2.19354839,36.3125906 C3.51100971,35.2657064 4.99293196,34.4386813 6.58064516,33.8642573 C11.594641,32.0390573 17.0801946,31.9095051 22.1767742,33.4959239 C26.3257602,34.6865278 30.6227252,35.299108 34.9432258,35.3159239 C36.6292255,35.4031879 38.2997264,35.6794044 39.9225806,36.1392573 C38.8477419,36.3992573 37.7290323,36.7242573 36.72,36.9409239 C32.0041285,37.78737 27.1490426,37.4597212 22.5935484,35.9875906 C19.1408873,34.896389 15.5360335,34.3480302 11.9109677,34.3625906 C8.79904274,34.445076 5.72266953,35.0381664 2.80774194,36.1175906 L2.19354839,36.3125906 Z" id="Combined-Shape"></path>
        </g>
    </g>
</svg>