<?xml version="1.0" encoding="UTF-8" standalone="no"?>
<svg width="32px" height="21px" viewBox="0 0 32 21" version="1.1" xmlns="http://www.w3.org/2000/svg" xmlns:xlink="http://www.w3.org/1999/xlink">
    <!-- Generator: Sketch 43.1 (39012) - http://www.bohemiancoding.com/sketch -->
    <title>Combined Shape</title>
    <desc>Created with Sketch.</desc>
    <defs></defs>
    <g id="Page-1" stroke="none" stroke-width="1" fill="none" fill-rule="evenodd">
        <path d="M18.35,8.18 L13.4,7.25 C13.4,7.25 12.91,4.77 16.8,4.66 C20.69,4.55 20.8,6.4 20.8,6.4 L18.35,8.18 Z M28.8,5.65 L23.64,4.34 L21.4,2.45 C22.2275766,1.51605877 23.1720152,0.692615834 24.21,0 C26,1 28.8,5.65 28.8,5.65 Z M9.81,8.32 C9.62905822,8.24382496 9.4978592,8.0826376 9.46,7.89 C9.43998028,7.78427268 9.43998028,7.67572732 9.46,7.57 L14.36,8.28 C14.2805128,8.75630171 13.9951538,9.17336488 13.58,9.42 C12.59,9.92 11.02,9 10.17,8.5 C10.0530966,8.43399681 9.93294457,8.37392077 9.81,8.32 Z M21.65,3.91 C21.9996246,3.90595769 22.3168936,4.11399365 22.4525632,4.43624735 C22.5882328,4.75850105 22.5152928,5.13081593 22.2680544,5.37805436 C22.0208159,5.62529278 21.648501,5.69823277 21.3262473,5.5625632 C21.0039936,5.42689363 20.7959577,5.10962457 20.8,4.76 C20.8,4.29055796 21.180558,3.91 21.65,3.91 L21.65,3.91 Z M27.38,11.34 C28.6130932,11.3372526 29.7958895,11.8286262 30.6640538,12.7043071 C31.5322182,13.579988 32.0133772,14.7669763 32,16 C31.9999999,18.5736469 29.9136469,20.6599999 27.34,20.6599999 C24.7663531,20.6599999 22.6800001,18.5736469 22.68,16 C22.6627042,14.7562265 23.1370828,13.5559049 24,12.66 C23.47802,12.8800956 22.9898397,13.1730038 22.55,13.53 C21.62,14.46 21.84,16.59 21.84,16.59 L10.84,16.59 C10.2738054,18.5982657 8.44652561,19.9891193 6.36,20 C4.25481487,19.9844854 2.42268071,18.5565319 1.89354243,16.518872 C1.36440415,14.4812121 2.27028456,12.3422527 4.10193769,11.3044223 C5.93359081,10.2665919 8.23400952,10.5888347 9.71,12.09 L10.63,11.52 L10.1,10.92 C10.1,10.92 5.65,10 0,5.21 L6.57,5.21 L8.85,7.21 C8.77940981,7.46860266 8.77940981,7.74139734 8.85,8 C8.93202238,8.38349571 9.18154211,8.710073 9.53,8.89 L9.85,9.07 C10.7800279,9.67281408 11.8382631,10.0495321 12.94,10.17 C13.2460079,10.1855405 13.5512635,10.1272333 13.83,10 C14.4401871,9.68385079 14.8714842,9.10510172 15,8.43 L18.6,9 L23.72,5.3 L29,6.68 C29.7442137,7.59529129 30.249346,8.68115406 30.47,9.84 C30.47,9.84 28.73,10.52 26.88,11.34 C27.0460776,11.320183 27.2139224,11.320183 27.38,11.34 Z M6.38,18.67 L6.4,18.67 C8.22352033,18.6590804 9.69908042,17.1835203 9.71,15.36 C9.70234809,15.0479129 9.65187665,14.7383548 9.56,14.44 L6.9,16.14 C6.75386783,16.2416693 6.57768008,16.2910018 6.4,16.28 C6.08384271,16.2885361 5.7869051,16.1286466 5.62,15.86 C5.48563547,15.6536262 5.43961669,15.4019992 5.49224168,15.1614279 C5.54486667,14.9208565 5.69174196,14.7114251 5.9,14.58 L8.55,12.87 C7.44235883,11.8999065 5.82707795,11.7780964 4.58647916,12.5711064 C3.34588037,13.3641165 2.7782538,14.8812751 3.19365655,16.2938581 C3.6090593,17.7064412 4.90761173,18.6748066 6.38,18.67 Z M10.9,14.26 L12.86,14.15 L11.86,12.94 L10.72,13.69 C10.793558,13.8754495 10.8537125,14.0659388 10.9,14.26 Z M27.36,19.26 L27.43,19.27 C28.764128,19.280203 29.973148,18.4860702 30.4936941,17.257643 C31.0142402,16.0292158 30.7438896,14.6081998 29.8086174,13.6567443 C28.8733452,12.7052888 27.4571757,12.4106024 26.22,12.91 L28,15.22 C28.1250251,15.3905319 28.1744189,15.6049746 28.1365931,15.8130169 C28.0987672,16.0210592 27.9770507,16.204391 27.8,16.32 C27.6828425,16.448038 27.5129414,16.514521 27.34,16.5 C27.108649,16.4990248 26.8893525,16.3966864 26.74,16.22 L24.89,13.84 C24.3588772,14.4337724 24.0667216,15.2033531 24.07,16 C24.1024375,17.7985026 25.5612758,19.2440383 27.36,19.26 Z" id="Combined-Shape" fill="#77878B" fill-rule="nonzero"></path>
    </g>
</svg>