<svg width="36" height="14" viewBox="0 0 36 14" fill="none" xmlns="http://www.w3.org/2000/svg">
<g clip-path="url(#clip0_144_4870)">
<path d="M32.9156 7.17978C32.9028 7.14125 32.8771 7.10271 32.8514 7.07703C32.8771 7.10271 32.8899 7.14125 32.9156 7.17978Z" fill="#FFFFFF"/>
<path d="M32.6587 6.84583C32.7358 6.91005 32.7871 6.97427 32.8385 7.05133C32.7871 6.97427 32.7229 6.91005 32.6587 6.84583Z" fill="#FFFFFF"/>
<path d="M32.9156 7.17975C32.9413 7.23112 32.967 7.2825 32.9798 7.33388C32.967 7.2825 32.9413 7.23112 32.9156 7.17975Z" fill="#FFFFFF"/>
<path d="M33.0954 7.65502C33.0825 7.60364 33.0697 7.56511 33.044 7.51373C33.0697 7.56511 33.0825 7.61649 33.0954 7.65502Z" fill="#FFFFFF"/>
<path d="M33.044 7.488C33.0311 7.44947 33.0183 7.39809 32.9926 7.35956C33.0183 7.41093 33.0311 7.44947 33.044 7.488Z" fill="#FFFFFF"/>
<path d="M15.8587 1.09174H15.011V5.44587H15.8587V1.09174Z" fill="white"/>
<path d="M9.02569 1.09174H8.17798V5.44587H9.02569V1.09174Z" fill="white"/>
<path d="M32.5431 6.75595C32.5431 6.75595 32.5303 6.74311 32.5431 6.75595C32.5431 6.74311 32.5431 6.75595 32.5431 6.75595Z" fill="#FFFFFF"/>
<path d="M33.1468 7.86051C33.1339 7.79629 33.1211 7.73207 33.0954 7.66785C33.1211 7.73207 33.1339 7.79629 33.1468 7.86051Z" fill="#FFFFFF"/>
<path d="M32.5432 6.75592C32.5817 6.78161 32.6202 6.82014 32.6459 6.84583C32.6202 6.8073 32.5817 6.78161 32.5432 6.75592Z" fill="#FFFFFF"/>
<path d="M3.91377 6.91007V8.31007C3.91377 8.64401 3.64404 8.91374 3.32294 8.91374H2.21835V10.6605H4.87707C5.10826 9.32475 5.82753 8.05319 8.19083 8.05319C10.5413 8.05319 11.2734 9.32475 11.5046 10.6605C11.6073 11.2642 11.6073 11.8807 11.6073 12.3945H23.5523C23.5523 11.8679 23.5523 11.2514 23.6551 10.6605C23.8862 9.32475 24.6055 8.05319 26.9688 8.05319C29.3193 8.05319 30.0514 9.32475 30.2826 10.6605H32.9413C32.9413 10.6605 33.4936 9.26052 33.1853 7.87337C33.2367 8.07887 33.2624 8.28438 33.2752 8.47704H33.1596H30.8991C30.6165 8.47704 30.3982 8.24585 30.3982 7.96328V7.25685C30.3982 6.97429 30.6294 6.74309 30.8991 6.74309H32.3119H32.5688C30.8606 5.433 25.0679 5.433 25.0679 5.433L20.8551 0.796304C20.5211 0.423827 20.0459 0.218323 19.5578 0.218323H4.81285C4.2734 0.218323 3.79817 0.565112 3.6312 1.09172L2.21835 5.433V6.3064H3.33578C3.65689 6.3064 3.91377 6.57612 3.91377 6.91007ZM15.8587 1.09172H19.1339C19.622 1.09172 20.0844 1.32291 20.3927 1.70823L23.3211 5.433H15.8587V1.09172V1.09172ZM9.03854 1.09172H15.011V5.44585H9.03854V1.09172ZM3.91377 5.433L4.58166 2.01649C4.68441 1.47704 5.14679 1.09172 5.68624 1.09172H8.16514V5.44585H3.91377V5.433Z" fill="#FFFFFF"/>
<path d="M32.9156 10.6605C32.9156 12.3945 32.0679 12.3945 32.0679 12.3945H30.3596C30.3596 11.8679 30.3596 11.2513 30.2569 10.6605H30.3596H32.9156Z" fill="#FFFFFF"/>
<path d="M4.77432 10.6605H4.87707C4.77432 11.2642 4.77432 11.8807 4.77432 12.3945C4.77432 12.3945 2.21835 12.3945 2.21835 10.6605H4.77432Z" fill="#FFFFFF"/>
<path d="M3.65689 5.65136H23.7578L20.5596 1.56696C20.2129 1.11742 19.6862 0.860535 19.134 0.860535H5.69909C5.05689 0.860535 4.5046 1.32292 4.37616 1.96512L3.65689 5.65136ZM16.0771 1.31008H19.134C19.5578 1.31008 19.9688 1.50274 20.2257 1.84953L22.8716 5.22751H16.0642V1.31008H16.0771ZM15.2165 1.31008H15.6404V5.22751H15.2165V1.31008ZM9.24405 1.31008H14.7927V5.22751H9.24405V1.31008ZM8.39634 1.31008H8.82019V5.22751H8.39634V1.31008ZM7.97249 5.21466H4.1835L4.80001 2.05503C4.88992 1.61833 5.2624 1.29723 5.69909 1.29723H7.97249V5.21466Z" fill="#FFFFFF"/>
<path d="M2 5.21468V5.65138V10.4422V10.8789H2.01284C2.17982 12.2532 3.86239 12.6128 4.77431 12.6128H4.99266V12.3945C4.99266 10.6477 4.99266 8.46422 8.19083 8.46422C11.3761 8.46422 11.3761 10.6606 11.3761 12.3945V12.6128H23.745V12.3945C23.745 10.6477 23.745 8.46422 26.9431 8.46422C30.1413 8.46422 30.1413 10.6477 30.1413 12.3945V12.6128H32.055C32.0936 12.6128 32.6844 12.6 32.967 11.7394L33.0697 11.3028C33.0954 11.1229 33.1083 10.9174 33.1211 10.6991C33.1596 10.6092 33.2495 10.3523 33.3266 10.0055L33.4037 9.56881C33.5064 8.84954 33.5193 7.92477 33.1083 7.07706C32.2477 5.33027 26.1982 5.22752 25.1193 5.21468L21.0092 0.655046C20.6367 0.244037 20.1101 0 19.5578 0H16.9248H16.5009H7.54862H7.12477H4.95413H4.81284C4.18349 0 3.63119 0.411009 3.43853 1.01468L2.06422 5.21468H2ZM33.0055 8.27156H30.8605C30.6936 8.27156 30.5651 8.14312 30.5651 7.97615V7.26972C30.5651 7.10275 30.6936 6.97431 30.8605 6.97431H32.4661C32.5817 7.07706 32.6716 7.17982 32.7229 7.29541C32.8771 7.59083 32.967 7.93761 33.0055 8.27156ZM30.5009 10.8789H32.6972C32.6459 12.1376 32.0807 12.189 32.055 12.189H30.5651C30.5651 11.778 30.5523 11.3284 30.5009 10.8789ZM2.44954 10.8789H4.63303C4.58165 11.3284 4.56881 11.778 4.56881 12.1761C4.01651 12.1248 2.61651 11.9193 2.44954 10.8789ZM2.42385 6.52477H3.32294C3.52844 6.52477 3.70826 6.70459 3.70826 6.91009V8.31009C3.70826 8.52844 3.54128 8.69541 3.32294 8.69541H2.42385V6.52477V6.52477ZM2.42385 5.47156L3.8367 1.15596C3.97798 0.73211 4.37615 0.436697 4.81284 0.436697H19.5578C19.9945 0.436697 20.4055 0.629358 20.7009 0.950459L24.9266 5.65138H25.0165C26.5064 5.65138 29.9101 5.83119 31.6697 6.52477H30.8477C30.4495 6.52477 30.1284 6.85872 30.1284 7.25688V7.9633C30.1284 8.37431 30.4495 8.69541 30.8477 8.69541H33.0183C33.0312 9.46605 32.8385 10.1596 32.7486 10.4294H30.411C30.1413 9.08073 29.3321 7.82202 26.9174 7.82202C23.4752 7.83486 23.3211 10.455 23.3211 12.1761H11.8128C11.8128 10.455 11.6587 7.82202 8.19083 7.82202C5.78899 7.82202 4.97982 9.08073 4.69725 10.4294H2.42385V9.13211H3.32294C3.77248 9.13211 4.13211 8.75963 4.13211 8.31009V6.91009C4.13211 6.46055 3.77248 6.08807 3.32294 6.08807H2.42385V5.47156V5.47156Z" fill="#FFFFFF"/>
<path d="M8.06241 10.1082C8.84589 10.1082 9.48809 10.7504 9.48809 11.5339C9.48809 12.3174 8.84589 12.9596 8.06241 12.9596C7.27892 12.9596 6.63672 12.3174 6.63672 11.5339C6.63672 10.7376 7.27892 10.1082 8.06241 10.1082Z" fill="#FFFFFF"/>
<path d="M8.29359 13.7945C9.35965 13.6917 10.2202 12.8312 10.323 11.7651C10.4642 10.3266 9.26974 9.11925 7.81837 9.26053C6.75231 9.36329 5.89176 10.2238 5.78901 11.2899C5.64772 12.7413 6.85506 13.9358 8.29359 13.7945ZM6.44405 11.5339C6.44405 10.6477 7.16332 9.91558 8.0624 9.91558C8.94864 9.91558 9.68075 10.6348 9.68075 11.5339C9.68075 12.4202 8.96148 13.1523 8.0624 13.1523C7.16332 13.1394 6.44405 12.4202 6.44405 11.5339Z" fill="#FFFFFF"/>
<path d="M5.5835 11.5339C5.5835 12.8954 6.68808 14 8.04955 14C9.41102 14 10.5156 12.8954 10.5156 11.5339C10.5156 10.1725 9.41102 9.06787 8.04955 9.06787C6.68808 9.06787 5.5835 10.1725 5.5835 11.5339ZM5.96882 11.5339C5.96882 10.378 6.90643 9.44035 8.0624 9.44035C9.21836 9.44035 10.156 10.378 10.156 11.5339C10.156 12.6899 9.21836 13.6275 8.0624 13.6275C6.90643 13.6147 5.96882 12.677 5.96882 11.5339Z" fill="#FFFFFF"/>
<path d="M26.8147 10.1082C27.5982 10.1082 28.2404 10.7504 28.2404 11.5339C28.2404 12.3174 27.5982 12.9596 26.8147 12.9596C26.0312 12.9596 25.389 12.3174 25.389 11.5339C25.4019 10.7376 26.0312 10.1082 26.8147 10.1082Z" fill="#FFFFFF"/>
<path d="M27.0587 13.7945C28.1248 13.6917 28.9853 12.8312 29.0881 11.7651C29.2294 10.3266 28.0349 9.11925 26.5835 9.26053C25.5175 9.36329 24.6569 10.2238 24.5542 11.2899C24.4129 12.7413 25.6074 13.9358 27.0587 13.7945ZM25.2092 11.5339C25.2092 10.6477 25.9285 9.91558 26.8276 9.91558C27.7138 9.91558 28.4459 10.6348 28.4459 11.5339C28.4459 12.4202 27.7266 13.1523 26.8276 13.1523C25.9285 13.1394 25.2092 12.4202 25.2092 11.5339Z" fill="#FFFFFF"/>
<path d="M24.3486 11.5339C24.3486 12.8954 25.4532 14 26.8147 14C28.1762 14 29.2807 12.8954 29.2807 11.5339C29.2807 10.1724 28.1762 9.06786 26.8147 9.06786C25.4532 9.05501 24.3486 10.1724 24.3486 11.5339ZM24.734 11.5339C24.734 10.378 25.6716 9.44034 26.8275 9.44034C27.9835 9.44034 28.9211 10.378 28.9211 11.5339C28.9211 12.6899 27.9835 13.6275 26.8275 13.6275C25.6716 13.6146 24.734 12.677 24.734 11.5339Z" fill="#FFFFFF"/>
</g>
<defs>
<clipPath id="clip0_144_4870">
<rect width="31.4679" height="14" fill="white" transform="translate(2)"/>
</clipPath>
</defs>
</svg>
