<?xml version="1.0" encoding="UTF-8" standalone="no"?>
<svg width="35px" height="28px" viewBox="0 0 35 28" version="1.1" xmlns="http://www.w3.org/2000/svg" xmlns:xlink="http://www.w3.org/1999/xlink">
    <!-- Generator: Sketch 43.1 (39012) - http://www.bohemiancoding.com/sketch -->
    <title>Combined Shape</title>
    <desc>Created with Sketch.</desc>
    <defs></defs>
    <g id="Page-1" stroke="none" stroke-width="1" fill="none" fill-rule="evenodd">
        <path d="M5.69299478,22.3736175 L1.75005153,21.5649878 C1.35595597,21.4841656 0.951592615,21.0887502 0.867359743,20.6860027 L0.434055778,18.6142214 C0.37774426,18.3449759 0.499320057,17.9841147 0.70491352,17.8049191 L1.43221079,17.1710056 L1.70710008,3.34301087 L2.53176795,2.79536752 L2.25687866,1.01552661 L3.66130566,0.460683275 C3.93428877,0.352836546 4.23101346,0.473875633 4.34906436,0.721152758 L5.1432162,2.384635 L15.9293995,4.87416607 C16.1985986,4.93629923 16.3385683,5.19742664 16.245917,5.45830748 L14.2757427,11.0057784 L19.8192033,11.009374 C20.3626488,11.0097264 21.0255825,11.4039552 21.2891661,11.8899016 L23.6622687,16.2649859 C23.730836,16.3913976 23.8903149,16.4864514 24.0234415,16.4864514 L26.0348023,16.4864514 C26.0348023,16.4864514 27.7431366,14.5371889 29.4709184,14.5696996 C32.7988177,14.632319 33.3108388,16.4864514 33.3108388,16.4864514 L34.1646294,16.4864514 C34.3198641,16.4864514 34.4224492,16.5959767 34.4224492,16.7310829 L34.4224492,20.5937765 L23.6981389,20.5937765 L23.6981389,22.3737828 L30.1585222,22.3737828 C30.1585222,22.3737828 32.2116565,22.4628567 32.2116565,24.744048 C32.2116565,27.0252393 28.8909686,27.4242923 28.8909686,27.4242923 L11.2155152,27.4242923 C11.2155152,27.4242923 7.93797496,26.7909621 7.93797496,24.744048 C7.93797496,22.6971339 9.83930529,22.3737828 9.83930529,22.3737828 L16.4380149,22.3737828 L16.4380149,20.5964085 L12.977561,20.5964085 L10.8213191,18.3181843 C10.6222484,18.1078518 10.5270925,17.7294062 10.5937179,17.4569854 L12.7194805,8.76506259 C12.7862301,8.49213358 12.6484546,8.16072187 12.4120279,8.02369874 L5.28066085,3.89065423 L5.28066085,6.08122765 L1.98198937,17.0340947 L4.31854833,16.7602731 L5.69299478,22.3736175 Z M13.3076001,15.5020705 C13.1843598,16.045729 13.5273171,16.4864514 14.0812574,16.4864514 L20.7772147,16.4864514 C21.3277341,16.4864514 21.5895155,16.0794962 21.3612237,15.5759563 L20.2625878,13.1527105 C20.0346076,12.6498579 19.3944238,12.2422154 18.852183,12.2422154 L15.0441766,12.2422154 C14.4932117,12.2422154 13.9472272,12.6804374 13.8234202,13.2265963 L13.3076001,15.5020705 Z M29.4709184,17.1710056 L30.1545272,19.4984898 L31.0262147,19.4984898 L30.3917861,17.1710056 L31.3126538,17.1710056 L31.8979023,19.4984898 L32.7695899,19.4984898 L32.2335216,17.1710056 L29.4709184,17.1710056 Z M11.3282252,26.1573461 L28.3713612,26.1573461 C28.3713612,26.1573461 30.4370506,26.4714624 30.4370506,24.8131251 C30.4370506,23.1547878 28.3713612,23.4689042 28.3713612,23.4689042 L11.3282252,23.4689042 C11.3282252,23.4689042 9.86978059,23.4689042 9.83930529,24.8131251 C9.80882999,26.1573461 11.3282252,26.1573461 11.3282252,26.1573461 Z M29.0110528,25.6144241 C28.5735213,25.6144241 28.2188318,25.2611123 28.2188318,24.82528 C28.2188318,24.3894477 28.5735213,24.0361358 29.0110528,24.0361358 C29.4485844,24.0361358 29.8032738,24.3894477 29.8032738,24.82528 C29.8032738,25.2611123 29.4485844,25.6144241 29.0110528,25.6144241 Z M26.4759457,25.6144241 C26.0384141,25.6144241 25.6837247,25.2611123 25.6837247,24.82528 C25.6837247,24.3894477 26.0384141,24.0361358 26.4759457,24.0361358 C26.9134773,24.0361358 27.2681667,24.3894477 27.2681667,24.82528 C27.2681667,25.2611123 26.9134773,25.6144241 26.4759457,25.6144241 Z M23.9408386,25.6144241 C23.503307,25.6144241 23.1486176,25.2611123 23.1486176,24.82528 C23.1486176,24.3894477 23.503307,24.0361358 23.9408386,24.0361358 C24.3783702,24.0361358 24.7330596,24.3894477 24.7330596,24.82528 C24.7330596,25.2611123 24.3783702,25.6144241 23.9408386,25.6144241 Z M21.4057315,25.6144241 C20.9681999,25.6144241 20.6135105,25.2611123 20.6135105,24.82528 C20.6135105,24.3894477 20.9681999,24.0361358 21.4057315,24.0361358 C21.843263,24.0361358 22.1979525,24.3894477 22.1979525,24.82528 C22.1979525,25.2611123 21.843263,25.6144241 21.4057315,25.6144241 Z M18.8706244,25.6144241 C18.4330928,25.6144241 18.0784034,25.2611123 18.0784034,24.82528 C18.0784034,24.3894477 18.4330928,24.0361358 18.8706244,24.0361358 C19.3081559,24.0361358 19.6628453,24.3894477 19.6628453,24.82528 C19.6628453,25.2611123 19.3081559,25.6144241 18.8706244,25.6144241 Z M16.3355173,25.6144241 C15.8979857,25.6144241 15.5432963,25.2611123 15.5432963,24.82528 C15.5432963,24.3894477 15.8979857,24.0361358 16.3355173,24.0361358 C16.7730488,24.0361358 17.1277382,24.3894477 17.1277382,24.82528 C17.1277382,25.2611123 16.7730488,25.6144241 16.3355173,25.6144241 Z M13.8004101,25.6144241 C13.3628786,25.6144241 13.0081892,25.2611123 13.0081892,24.82528 C13.0081892,24.3894477 13.3628786,24.0361358 13.8004101,24.0361358 C14.2379417,24.0361358 14.5926311,24.3894477 14.5926311,24.82528 C14.5926311,25.2611123 14.2379417,25.6144241 13.8004101,25.6144241 Z M11.265303,25.6144241 C10.8277715,25.6144241 10.4730821,25.2611123 10.4730821,24.82528 C10.4730821,24.3894477 10.8277715,24.0361358 11.265303,24.0361358 C11.7028346,24.0361358 12.057524,24.3894477 12.057524,24.82528 C12.057524,25.2611123 11.7028346,25.6144241 11.265303,25.6144241 Z" id="Combined-Shape" fill="#77878B"></path>
    </g>
</svg>