<?xml version="1.0" encoding="UTF-8" standalone="no"?>
<svg width="33px" height="20px" viewBox="0 0 33 20" version="1.1" xmlns="http://www.w3.org/2000/svg" xmlns:xlink="http://www.w3.org/1999/xlink">
    <!-- Generator: Sketch 43.1 (39012) - http://www.bohemiancoding.com/sketch -->
    <title>Car_4</title>
    <desc>Created with Sketch.</desc>
    <defs></defs>
    <g id="Page-1" stroke="none" stroke-width="1" fill="none" fill-rule="evenodd">
        <g id="Car_4" fill-rule="nonzero" fill="#FFFFFF">
            <path d="M10.05,6.07370853 C14.14,4.69370853 14.31,4.65370853 14.21,4.16370853 C14,3.16370853 13,3.00370853 12.4,3.00370853 L2.88,3.00370853 C2.52653776,3.00370853 2.24,3.29024629 2.24,3.64370853 L2.24,5.42370853 C2.22294992,5.79568811 2.50825186,6.11219495 2.88,6.13370853 L9.88,6.13370853 L10.05,6.07370853 Z M26.18,16.5537085 C24.8805373,16.5481555 23.8300577,15.4931553 23.8300849,14.1936807 C23.8301121,12.8942061 24.8806358,11.8392498 26.1800988,11.8337512 C27.4795617,11.8282526 28.5389756,12.8742807 28.55,14.1737085 C28.5580911,14.8056318 28.3113202,15.4141806 27.8653882,15.8619942 C27.4194561,16.3098079 26.8119517,16.5591388 26.18,16.5537085 Z M25.61,20.0037085 L26.85,20.0037085 L26.99,19.8637085 L26.99,19.6037085 C27.4428929,19.5426397 27.8863479,19.4250569 28.31,19.2537085 L28.38,19.3937085 C28.3870247,19.4300709 28.4118755,19.4604575 28.4461206,19.4745585 C28.4803657,19.4886594 28.5194078,19.4845816 28.55,19.4637085 L29.62,18.8237085 L29.62,18.6837085 L29.51,18.5037085 C29.8913654,18.2221422 30.2284337,17.8850739 30.51,17.5037085 L30.66,17.6137085 C30.66,17.6523685 30.6913401,17.6837085 30.73,17.6837085 C30.7686599,17.6837085 30.8,17.6523685 30.8,17.6137085 L31.44,16.5037085 L31.44,16.3637085 L31.3,16.2237085 C31.4528522,15.7975219 31.569924,15.3593391 31.65,14.9137085 L31.87,14.9137085 L32.01,14.7637085 L32.01,13.5337085 L31.87,13.3937085 L31.62,13.3937085 C31.5718236,12.9135645 31.4469018,12.4442638 31.25,12.0037085 L31.43,11.8937085 L31.5,11.7237085 L30.86,10.6537085 L30.72,10.6537085 L30.54,10.8737085 C30.2515131,10.4983583 29.9153503,10.1621955 29.54,9.87370853 L29.69,9.69370853 L29.62,9.55370853 L28.59,9.00370853 L28.45,9.00370853 L28.34,9.18370853 C27.9102336,9.00578279 27.4601732,8.88151239 27,8.81370853 L27,8.56370853 L26.86,8.42370853 L25.61,8.42370853 L25.47,8.56370853 L25.47,8.74370853 C25.0023872,8.802375 24.5468592,8.93397198 24.12,9.13370853 L24,9.00370853 L23.82,9.00370853 L22.76,9.64370853 L22.76,9.75370853 L22.86,9.93370853 C22.4897332,10.2279404 22.1542319,10.5634417 21.86,10.9337085 L21.61,10.8637085 L21.47,10.8637085 L20.83,11.9637085 L21,12.0037085 L21.15,12.1137085 C20.9604323,12.5443224 20.829271,12.9983422 20.76,13.4637085 L20.58,13.4637085 L20.44,13.6037085 L20.44,14.8537085 L20.58,14.9937085 L20.76,14.9937085 C20.8247588,15.4555921 20.9421902,15.9085419 21.11,16.3437085 L21,16.3437085 L21,16.4837085 L21.64,17.5537085 L21.78,17.6237085 L21.92,17.5137085 C22.2042712,17.8927369 22.5409717,18.2294373 22.92,18.5137085 L22.81,18.6537085 L22.88,18.7937085 L23.88,19.4337085 L24.06,19.3637085 L24.17,19.2237085 C24.6015851,19.410586 25.0552468,19.5416438 25.52,19.6137085 L25.52,19.7937085 L25.61,20.0037085 Z M5.75,16.5537085 C4.45188125,16.5426601 3.40641212,15.4852593 3.41009497,14.1870988 C3.41377782,12.8889382 4.4652297,11.8374863 5.76339024,11.8338035 C7.06155079,11.8301207 8.11895158,12.8755898 8.13,14.1737085 C8.12452117,15.4858701 7.0621616,16.5482297 5.75,16.5537085 L5.75,16.5537085 Z M5.15,19.9237085 L6.39,19.9237085 L6.53,19.7837085 L6.53,19.5737085 C6.98354995,19.510482 7.42714965,19.3895003 7.85,19.2137085 L7.92,19.3637085 C7.9299692,19.4004861 7.95681293,19.430343 7.99232677,19.444154 C8.02784061,19.4579649 8.06780301,19.4540881 8.1,19.4337085 L9.16,18.7937085 L9.16,18.6537085 L9.05,18.5037085 C9.42841431,18.21873 9.76502149,17.8821228 10.05,17.5037085 L10.19,17.6137085 C10.19,17.6523685 10.2213401,17.6837085 10.26,17.6837085 C10.2986599,17.6837085 10.33,17.6523685 10.33,17.6137085 L10.97,16.5137085 L10.97,16.3637085 L10.83,16.2237085 C10.9861609,15.7977937 11.1065771,15.3596125 11.19,14.9137085 L11.4,14.9137085 L11.54,14.7637085 L11.54,13.5337085 L11.4,13.3937085 L11.19,13.3937085 C11.1449997,12.9141233 11.0234597,12.4448439 10.83,12.0037085 L11.01,11.8937085 L11.08,11.7237085 L10.44,10.6537085 L10.3,10.6537085 L10.09,10.7537085 C9.7900042,10.3886263 9.45508228,10.0537043 9.09,9.75370853 L9.23,9.58370853 L9.2,9.55370853 L8.13,8.91370853 L8,9.00370853 L7.89,9.17370853 C7.45682892,8.9912802 7.00372227,8.86038272 6.54,8.78370853 L6.54,8.56370853 L6.4,8.42370853 L5.15,8.42370853 L5,8.56370853 L5,8.74370853 C4.53264998,8.80364709 4.07731529,8.93518822 3.65,9.13370853 L3.58,8.91370853 L3.4,8.91370853 L2.33,9.55370853 L2.33,9.69370853 L2.44,9.87370853 C2.06464972,10.1621955 1.72848693,10.4983583 1.44,10.8737085 L1.19,10.7637085 L1.05,10.7637085 L0.41,11.8637085 L0.5,12.0037085 L0.64,12.1137085 C0.450493373,12.5408636 0.319316792,12.9915729 0.25,13.4537085 L0.14,13.4537085 L0,13.5337085 L0,14.7737085 L0.14,14.9237085 L0.32,14.9237085 C0.390705999,15.3843881 0.507973246,15.8367047 0.67,16.2737085 L0.53,16.3737085 L0.53,16.5237085 L1.17,17.5837085 L1.31,17.6537085 L1.45,17.5437085 C1.73145189,17.9251724 2.06853612,18.2622566 2.45,18.5437085 L2.34,18.6837085 L2.41,18.8237085 L3.41,19.4637085 L3.59,19.3937085 L3.69,19.2537085 C4.109737,19.4349744 4.54946681,19.5658863 5,19.6437085 L5,19.8237085 L5.15,19.9237085 Z M22.55,2.56370853 L10.41,6.68370853 C10.19,6.78370853 10.12,6.96370853 10.23,7.14370853 L13.74,13.6037085 C13.848655,13.7769044 14.0357119,13.8853974 14.24,13.8937085 L18.24,13.8937085 C18.4442821,13.8692461 18.6254714,13.7509184 18.73,13.5737085 L22.2,7.00370853 C22.3021427,6.82423672 22.4846061,6.70507691 22.69,6.68370853 L28,6.68370853 C28.3497966,6.65705227 28.6129399,6.35376845 28.59,6.00370853 L28.59,3.00370853 C28.5854386,2.67467031 28.3284079,2.40457024 28,2.38370853 L25,2.38370853 C24.846664,2.37028138 24.705615,2.29433188 24.61,2.17370853 L23,0.21370853 C22.9151913,0.0858926588 22.773346,0.00750451156 22.62,0.00370852961 L20.35,0.00370852961 C20.0361029,-0.0317180113 19.7515782,0.190566851 19.71,0.50370853 C19.7466813,0.823419155 20.0290549,1.05725979 20.35,1.03370853 L22,1.03370853 L22.78,2.03370853 C22.8418392,2.24276478 22.7449288,2.46607989 22.55,2.56370853 L22.55,2.56370853 Z" id="Shape"></path>
        </g>
    </g>
</svg>