<?xml version="1.0" encoding="UTF-8" standalone="no"?>
<svg width="79px" height="30px" viewBox="0 0 79 30" version="1.1" xmlns="http://www.w3.org/2000/svg" xmlns:xlink="http://www.w3.org/1999/xlink">
    <!-- Generator: Sketch 43.1 (39012) - http://www.bohemiancoding.com/sketch -->
    <title>Car_1_bl</title>
    <desc>Created with Sketch.</desc>
    <defs></defs>
    <g id="Page-1" stroke="none" stroke-width="1" fill="none" fill-rule="evenodd">
        <g id="Car_1_bl" fill-rule="nonzero" fill="#3265B1">
            <path d="M77.9789189,21.3236154 L77.9789189,21.3236154 C78.4962252,21.451625 78.8473696,21.9376469 78.8108108,22.4750441 L78.8108108,22.9843298 C78.8108108,23.608017 78.3109427,24.1136155 77.6943243,24.1136155 L72.4183784,24.1136155 C71.555796,27.2447619 68.7360205,29.4107974 65.5224324,29.4107974 C62.3088443,29.4107974 59.4890688,27.2447619 58.6264865,24.1136155 L19.7464865,24.1136155 C18.8688864,27.2362207 16.0491229,29.3905471 12.8395946,29.3905471 C9.63006633,29.3905471 6.81030276,27.2362207 5.9327027,24.1136155 L1.11648649,24.1136155 C0.499868028,24.1136155 2.26618282e-15,23.608017 0,22.9843298 L0,22.4750441 C7.55139823e-17,21.8513567 0.499868028,21.3457583 1.11648649,21.3457583 L1.11648649,14.7029012 C1.1155063,14.3953673 1.15977485,14.0893978 1.24783784,13.795044 L2.01405405,11.3593297 C2.25341429,10.4043979 2.98022302,9.65235736 3.91864865,9.38861545 L7.77162162,8.39218688 C8.92480363,8.1044749 10.0059492,7.57655923 10.9459459,6.84218688 L16.7910811,2.30290116 C18.0653184,1.32650356 19.5794973,0.72154637 21.1694595,0.553615457 C24.8064678,0.181483723 28.4598371,-0.0032788194 32.1154054,4.40283027e-05 C36.4320578,0.00376013063 40.7448098,0.262534268 45.0316216,0.775044029 L47.9432432,1.12932974 C49.2485208,1.28914205 50.5036329,1.73497856 51.6210811,2.43575831 L58.9767568,7.08575831 C60.0733319,7.76343053 61.2949468,8.20795211 62.567027,8.39218688 L71.9148649,9.61004402 C74.4946509,10.0586899 76.4685062,12.1816472 76.752973,14.8136154 L77.4754054,15.7657583 C77.8949688,16.3260148 78.1183199,17.0115399 78.1102703,17.7143297 L78.1102703,20.4157583 C78.1129374,20.7234112 78.0686317,21.0296366 77.9789189,21.3236154 Z M5.69189189,13.5293297 L5.69189189,13.5293297 C5.73406956,13.4011493 5.71282577,13.2602797 5.63478477,13.1506468 C5.55674376,13.0410139 5.43139988,12.9759556 5.29783784,12.9757583 L3.76540541,12.9757583 L3.41513514,13.1529012 L3.21810811,13.4407583 C2.81897612,14.051736 2.60584903,14.7677374 2.60513514,15.500044 L2.60513514,15.8764726 C2.60513514,15.988053 2.64895789,16.0950633 2.72696288,16.1739625 C2.80496787,16.2528617 2.91076536,16.2971869 3.02108108,16.2971869 L4.37837838,16.2971869 L4.75054054,16.0314726 L5.69189189,13.5293297 Z M38.7048649,14.3264726 L38.7048649,14.3264726 C38.759768,14.8125659 39.1625703,15.1820864 39.6462162,15.190044 L42.4264865,15.190044 C42.9415086,15.1783334 43.3562599,14.7588274 43.3678378,14.2379012 C43.3678378,13.7120472 42.9463804,13.2857583 42.4264865,13.2857583 L39.6462162,13.2857583 C39.3806144,13.2845932 39.126886,13.3969722 38.9475995,13.595183 C38.768313,13.7933937 38.680155,14.0589886 38.7048649,14.3264726 Z M17.9732432,14.3264726 L17.9732432,14.3264726 C18.0185909,14.8174605 18.4270625,15.1921818 18.9145946,15.190044 L21.6948649,15.190044 C22.2098869,15.1783334 22.6246383,14.7588274 22.6362162,14.2379012 C22.6362162,13.7120472 22.2147588,13.2857583 21.6948649,13.2857583 L18.9145946,13.2857583 C18.6489928,13.2845932 18.3952643,13.3969722 18.2159779,13.595183 C18.0366914,13.7933937 17.9485334,14.0589886 17.9732432,14.3264726 Z M16.4627027,22.1429012 C16.3072974,21.6544075 16.51915,21.1233625 16.9662162,20.8807583 C16.8525332,20.4050617 16.6679912,19.9496172 16.4189189,19.530044 C16.0531616,19.6821756 15.6347151,19.6229215 15.3243243,19.375044 C15.0699838,19.0651698 15.0106514,18.6365089 15.1710811,18.2679012 C14.7562633,18.0159736 14.3059808,17.829316 13.8356757,17.7143297 C13.6578554,18.1090915 13.268482,18.362442 12.8395946,18.362442 C12.4107072,18.362442 12.0213338,18.1090915 11.8435135,17.7143297 C11.3744411,17.822381 10.9242173,18.0015489 10.5081081,18.2457583 C10.6835622,18.6521304 10.5968769,19.125597 10.2891892,19.4414726 C9.9783208,19.7380315 9.5252517,19.8244962 9.12891892,19.6629012 C8.86395706,20.0767629 8.67141535,20.5336739 8.55972973,21.0136154 C8.96041814,21.1775322 9.22100451,21.5728928 9.21648649,22.010044 C9.22391863,22.4534127 8.96386285,22.856736 8.55972973,23.0286155 C8.64622477,23.3464268 8.75598745,23.6572857 8.88810811,23.9586155 L9.12891892,24.3571869 C9.52944163,24.201299 9.98307999,24.2965297 10.2891892,24.6007583 C10.5930948,24.9095786 10.6798651,25.3747329 10.5081081,25.7743298 C10.9172791,26.042329 11.3690116,26.2370781 11.8435135,26.3500441 C12.0213338,25.9552823 12.4107072,25.7019317 12.8395946,25.7019317 C13.268482,25.7019317 13.6578554,25.9552823 13.8356757,26.3500441 C14.3101776,26.2370781 14.76191,26.042329 15.1710811,25.7743298 C14.9993241,25.3747329 15.0860944,24.9095786 15.39,24.6007583 C15.6961092,24.2965297 16.1497476,24.201299 16.5502703,24.3571869 L16.7910811,24.0914726 C16.9328671,23.794141 17.0429472,23.4823835 17.1194595,23.1614726 C16.7153263,22.9895931 16.4552706,22.5862698 16.4627027,22.1429012 Z M33.9762162,11.1821869 L33.9762162,11.0714726 C34.3403808,11.0508682 34.6789575,10.8754917 34.9083274,10.588656 C35.1376975,10.3018203 35.236477,9.9302668 35.1802703,9.56575831 L33.9543243,3.83075831 C33.8473529,3.29847697 33.3744177,2.92329522 32.8378378,2.94504402 L22.3735135,3.34361545 C22.0250839,3.34879429 21.6999113,3.52146694 21.4978378,3.80861545 L17.7543243,9.12290116 C17.4768146,9.52096567 17.4412833,10.0421259 17.6621453,10.4749514 C17.8830072,10.907777 18.3235831,11.1803874 18.8051351,11.1821869 L33.9762162,11.1821869 Z M57.6632432,9.54361545 L57.5318919,9.25575831 L50.1762162,4.65004402 C49.39424,4.17034293 48.5218304,3.8611221 47.6148649,3.74218688 L44.7032432,3.38790116 C42.1637838,3.10004402 39.5805405,2.87861545 37.0191892,2.76790116 C36.8449634,2.75263758 36.6746487,2.82605393 36.5648685,2.96374187 C36.4550883,3.10142981 36.4202334,3.28534032 36.4718919,3.45432973 L37.9386486,8.85718688 C38.2490711,10.1466001 39.3850398,11.0584981 40.697027,11.0714726 L55.0581081,11.0714726 C56.0001845,11.0971052 56.8937135,10.6493647 57.4443243,9.87575831 L57.6632432,9.54361545 Z M65.807027,23.8700441 C65.342499,23.9466891 64.8669021,23.8333936 64.4850168,23.5551182 C64.1031316,23.2768425 63.8462911,22.8564189 63.7710811,22.3864726 C63.6694053,21.7536021 63.9092585,21.1139404 64.4002906,20.7084419 C64.8913227,20.3029433 65.5589341,20.1932128 66.151642,20.4205847 C66.7443498,20.6479567 67.172108,21.1778878 67.2737838,21.8107583 C67.3495604,22.2806116 67.237549,22.7616605 66.9624272,23.1479239 C66.6873055,23.534187 66.2716472,23.7939718 65.807027,23.8700441 Z M69.1345946,22.1429012 L69.1345946,22.1429012 C68.9832371,21.6819923 69.1531386,21.1754894 69.5505405,20.9029012 L69.4410811,20.5486154 C69.369006,20.310808 69.2736696,20.0808612 69.1564865,19.8621869 L68.9813514,19.5521869 C68.622367,19.7004118 68.212241,19.6411507 67.9086486,19.3971869 C67.6561749,19.0875319 67.5891649,18.6639185 67.7335135,18.290044 L67.5145946,18.1571869 L67.2737838,18.1571869 L67.0110811,18.0464726 L66.7702703,18.0464726 L66.4856757,18.0464726 C66.3287629,18.4559629 65.9345985,18.7217515 65.5005405,18.7107583 C65.068344,18.7153281 64.6774643,18.4517545 64.5154054,18.0464726 L64.2527027,18.0464726 L63.99,18.0464726 L63.7491892,18.1571869 L63.4864865,18.1571869 L63.5740541,18.3786154 C63.7396408,18.7838918 63.6477542,19.2501418 63.3411878,19.5602226 C63.0346216,19.8703033 62.5736559,19.9632433 62.172973,19.7957583 L61.9978378,20.1057583 C61.8898405,20.3287681 61.794814,20.5579679 61.7132432,20.7921869 L61.7132432,21.1464726 C62.1139316,21.3103894 62.374518,21.7057499 62.37,22.1429012 C62.3774321,22.5862699 62.1173763,22.9895931 61.7132432,23.1614726 L61.7132432,23.4050441 L61.7132432,23.6264726 L61.7132432,23.7593298 L61.7132432,23.9807584 L61.9321622,24.3793298 C62.3326848,24.2234419 62.7863231,24.3186725 63.0924324,24.6229012 C63.3984248,24.929681 63.4932625,25.3918646 63.3332432,25.7964726 C63.7424143,26.0644718 64.1941467,26.2592209 64.6686486,26.3721869 C64.8307075,25.9669051 65.2215873,25.7033314 65.6537838,25.7079012 C66.0878418,25.6969079 66.4820062,25.9626966 66.6389189,26.3721869 C67.1147013,26.2631967 67.5671021,26.0681595 67.9743243,25.7964726 C67.8087376,25.3911964 67.9006242,24.9249462 68.2071906,24.6148656 C68.5137567,24.3047847 68.9747225,24.2118448 69.3754054,24.3793298 L69.6162162,23.9807584 L69.6162162,23.7593298 C69.7037838,23.5600441 69.8132432,23.3607584 69.8132432,23.1614726 C69.4044936,22.9916329 69.1368004,22.5898568 69.1345946,22.1429012 Z M73.6224324,15.0571869 L73.6224324,15.0129012 C73.9029814,15.1148158 74.2165666,15.025994 74.403985,14.7915296 C74.5914035,14.5570651 74.6116014,14.2283173 74.4543243,13.9721869 C74.1542169,13.1114759 73.6328243,12.3471718 72.9437838,11.7579012 L72.5716216,11.7579012 L71.0172973,11.7579012 C70.7863761,11.7589737 70.5718409,11.8787412 70.4478638,12.0757958 C70.3238865,12.2728505 70.3074829,12.5201472 70.4043243,12.7321869 L71.0172973,14.0164726 L71.4332432,14.3707583 L73.6224324,15.0571869 Z M14.6018919,22.1429012 L14.6018919,22.1429012 C14.6019659,23.12488 13.8213158,23.9243494 12.8505405,23.9364726 C12.131405,23.9454533 11.4781277,23.5142037 11.1967523,22.8447532 C10.9153769,22.1753026 11.0616367,21.4002521 11.5670126,20.8826929 C12.0723886,20.3651338 12.8367788,20.2075812 13.502086,20.4838444 C14.1673932,20.7601076 14.6018371,21.4154661 14.6018919,22.1429012 Z" id="Combined-Shape"></path>
        </g>
    </g>
</svg>