<?xml version="1.0" encoding="UTF-8" standalone="no"?>
<svg width="70px" height="39px" viewBox="0 0 70 39" version="1.1" xmlns="http://www.w3.org/2000/svg" xmlns:xlink="http://www.w3.org/1999/xlink">
    <!-- Generator: Sketch 43.1 (39012) - http://www.bohemiancoding.com/sketch -->
    <title>Car_12_bl</title>
    <desc>Created with Sketch.</desc>
    <defs></defs>
    <g id="Page-1" stroke="none" stroke-width="1" fill="none" fill-rule="evenodd">
        <g id="Car_12_bl" fill-rule="nonzero" fill="#3265B1">
            <path d="M35,39 L70,21.0699153 L70,13.7161017 L70,13.7161017 L35,0 L35,0 L35,0 L0,13.7161017 L0,13.7161017 L0,13.7161017 L0,13.7161017 L0,13.7161017 L0,21.0699153 L3.81111111,23.0529661 L3.81111111,21.9788136 C3.81111111,20.8220339 4.35555555,20.161017 5.13333334,20.4915254 L9.1,22.4745764 C9.8,22.8050847 10.4222222,24.1271186 10.4222222,25.2838982 L10.4222222,26.3580508 L21.5444444,32.0593221 L21.5444444,30.9025424 C21.5444444,29.6631357 22.1666666,29.0021186 23.0222221,29.3326271 L27.4555555,31.5635593 C28.3111111,31.976695 28.9333334,33.381356 28.9333334,34.6207628 L28.9333334,35.7775424 L35,39 L35,39 Z M31.1888889,27.4322033 L29.9444445,26.8538136 L46.2,19.2521186 L47.4444445,19.7478814 L31.1888889,27.4322033 Z M48.7666666,19.0868644 L47.5222221,18.5911017 L62.2222221,11.7330509 L63.3888889,12.2288136 L48.7666666,19.0868644 Z M17.5,20.8220339 L33.7555555,13.7987288 L34.8444445,14.2944915 L18.5888889,21.4004237 L17.5,20.8220339 Z M35.1555555,13.220339 L49.7777779,6.85805085 L50.8666666,7.27118643 L36.2444445,13.7161017 L35.1555555,13.220339 Z M30.3333334,11.0720339 L29.2444445,10.5762712 L43.8666666,4.4618644 L44.9555555,4.875 L30.3333334,11.0720339 Z M28.9333334,11.7330509 L12.7555556,18.5911017 L11.6666667,18.0127119 L27.8444445,11.2372881 L28.9333334,11.7330509 Z M23.6444445,23.7966101 L39.9,16.5254237 L41.0666666,17.0211864 L24.8111111,24.375 L23.6444445,23.7966101 Z M41.2222221,15.8644068 L55.8444445,9.25423729 L57.0111111,9.75 L42.3888889,16.3601695 L41.2222221,15.8644068 Z M24.5777779,8.59322033 L23.5666666,8.18008475 L38.1888889,2.23093221 L39.2,2.64406779 L24.5777779,8.59322033 Z M23.1777779,9.17161017 L7,15.7817797 L5.98888889,15.286017 L22.1666666,8.75847457 L23.1777779,9.17161017 Z M68.7555555,20.904661 L68.7555555,20.904661 L64.4777779,19.1694915 L54.2111111,24.2097457 L54.2111111,22.1440678 L68.7555555,15.0381356 L68.7555555,20.904661 Z M36.5555555,32.9682203 L36.5555555,30.8199153 L52.8111111,22.8877118 L52.8111111,29.0847457 L48.4555555,27.101695 L37.1,32.7203389 L36.5555555,36.0254236 L36.5555555,32.9682203 Z" id="Shape"></path>
        </g>
    </g>
</svg>