<svg width="20" height="13" viewBox="0 0 20 13" fill="none" xmlns="http://www.w3.org/2000/svg">
<path d="M9.93164 12.4512C15.7983 12.4512 19.856 7.70508 19.856 6.22559C19.856 4.73877 15.791 0 9.93164 0C4.10889 0 0 4.73877 0 6.22559C0 7.70508 4.13818 12.4512 9.93164 12.4512ZM9.93164 10.3052C7.64648 10.3052 5.84473 8.45215 5.83008 6.22559C5.82275 3.94043 7.64648 2.146 9.93164 2.146C12.2021 2.146 14.0259 3.94043 14.0259 6.22559C14.0259 8.45215 12.2021 10.3052 9.93164 10.3052ZM9.93164 7.69775C10.7446 7.69775 11.4185 7.03125 11.4185 6.22559C11.4185 5.4126 10.7446 4.74609 9.93164 4.74609C9.11133 4.74609 8.4375 5.4126 8.4375 6.22559C8.4375 7.03125 9.11133 7.69775 9.93164 7.69775Z" fill="#999999"/>
</svg>
