<?xml version="1.0" encoding="UTF-8" standalone="no"?>
<svg width="82px" height="54px" viewBox="0 0 82 54" version="1.1" xmlns="http://www.w3.org/2000/svg" xmlns:xlink="http://www.w3.org/1999/xlink">
    <!-- Generator: Sketch 43.1 (39012) - http://www.bohemiancoding.com/sketch -->
    <title>i001</title>
    <desc>Created with Sketch.</desc>
    <defs></defs>
    <g id="Page-1" stroke="none" stroke-width="1" fill="none" fill-rule="evenodd">
        <g id="i001" transform="translate(-1.000000, 0.000000)" fill-rule="nonzero">
            <path d="M38.8568,50.4103 C39.3625,50.4103 39.7725,49.9993 39.7725,49.4923 C39.7725,48.9852 39.3625,48.5742 38.8568,48.5742 C38.3511,48.5742 37.9412,48.9852 37.9412,49.4923 C37.9412,49.9993 38.3511,50.4103 38.8568,50.4103 Z" id="Shape" fill="#A6C3EE"></path>
            <path d="M38.8567,44.9707 C37.9647,44.9707 37.0927,45.2359 36.3511,45.7327 C35.6094,46.2296 35.0313,46.9358 34.69,47.762 C34.3486,48.5882 34.2593,49.4974 34.4333,50.3745 C34.6074,51.2517 35.0369,52.0573 35.6676,52.6897 C36.2984,53.3221 37.102,53.7527 37.9768,53.9272 C38.8517,54.1017 39.7585,54.0121 40.5826,53.6699 C41.4067,53.3277 42.111,52.7481 42.6066,52.0045 C43.1022,51.2609 43.3667,50.3867 43.3667,49.4924 C43.3667,48.2932 42.8915,47.1431 42.0457,46.2951 C41.1999,45.4471 40.0528,44.9707 38.8567,44.9707 Z M38.8567,52.4246 C38.2744,52.4274 37.7044,52.2565 37.2191,51.9339 C36.7338,51.6112 36.3551,51.1513 36.131,50.6124 C35.9069,50.0735 35.8476,49.4801 35.9605,48.9073 C36.0734,48.3346 36.3536,47.8084 36.7653,47.3956 C37.1771,46.9828 37.7019,46.7019 38.2732,46.5887 C38.8444,46.4755 39.4363,46.535 39.9738,46.7596 C40.5113,46.9843 40.97,47.364 41.2918,47.8506 C41.6137,48.3371 41.7841,48.9086 41.7814,49.4924 C41.7814,50.2701 41.4732,51.0159 40.9247,51.5658 C40.3763,52.1157 39.6324,52.4246 38.8567,52.4246 Z" id="Shape" fill="#A6C3EE"></path>
            <path d="M72.6408,48.5742 C72.8219,48.5742 72.9989,48.6281 73.1495,48.7289 C73.3001,48.8298 73.4174,48.9732 73.4867,49.1409 C73.556,49.3087 73.5742,49.4933 73.5388,49.6714 C73.5035,49.8494 73.4163,50.013 73.2882,50.1414 C73.1602,50.2698 72.997,50.3572 72.8194,50.3927 C72.6418,50.4281 72.4577,50.4099 72.2904,50.3404 C72.123,50.2709 71.98,50.1533 71.8794,50.0023 C71.7788,49.8513 71.7251,49.6738 71.7251,49.4923 C71.7251,49.2488 71.8216,49.0153 71.9933,48.8431 C72.165,48.6709 72.3979,48.5742 72.6408,48.5742 Z" id="Shape" fill="#A6C3EE"></path>
            <path d="M72.6409,44.9707 C71.7483,44.968 70.875,45.2309 70.1315,45.7261 C69.3881,46.2213 68.8079,46.9265 68.4644,47.7525 C68.121,48.5785 68.0297,49.4881 68.2022,50.3661 C68.3747,51.2441 68.8031,52.0511 69.4333,52.6849 C70.0635,53.3186 70.8671,53.7506 71.7423,53.9262 C72.6175,54.1018 73.525,54.013 74.3499,53.6712 C75.1748,53.3294 75.88,52.7498 76.376,52.006 C76.872,51.2621 77.137,50.3873 77.137,49.4924 C77.137,48.2956 76.664,47.1475 75.8211,46.2999 C74.9782,45.4523 73.8346,44.9744 72.6409,44.9707 Z M72.6409,52.4247 C72.0585,52.4274 71.4886,52.2566 71.0033,51.9339 C70.518,51.6112 70.1393,51.1513 69.9152,50.6124 C69.6911,50.0736 69.6317,49.4801 69.7447,48.9074 C69.8576,48.3346 70.1377,47.8085 70.5495,47.3956 C70.9613,46.9828 71.4861,46.702 72.0573,46.5887 C72.6286,46.4755 73.2205,46.535 73.758,46.7597 C74.2954,46.9843 74.7542,47.364 75.076,47.8506 C75.3978,48.3372 75.5682,48.9086 75.5655,49.4924 C75.5655,50.2701 75.2574,51.0159 74.7089,51.5658 C74.1604,52.1157 73.4165,52.4247 72.6409,52.4247 Z" id="Shape" fill="#A6C3EE"></path>
            <path d="M66.4086,40.3251 C63.484,39.0645 58.769,34.5977 56.7326,34.5977 L44.7333,34.9128 C39.7586,34.9128 29.0303,40.3936 28.593,41.8324 C28.1556,43.2711 27.937,49.4918 32.9116,49.4918 L33.39,49.4918 C33.3526,48.7353 33.4689,47.9791 33.7319,47.269 C33.9949,46.5589 34.3991,45.9099 34.9199,45.3612 C35.4407,44.8125 36.0673,44.3756 36.7617,44.0771 C37.456,43.7786 38.2036,43.6247 38.9591,43.6247 C39.7146,43.6247 40.4622,43.7786 41.1566,44.0771 C41.8509,44.3756 42.4775,44.8125 42.9983,45.3612 C43.5192,45.9099 43.9234,46.5589 44.1864,47.269 C44.4494,47.9791 44.5657,48.7353 44.5283,49.4918 L67.133,49.4918 C67.133,48.0128 67.719,46.5943 68.7621,45.5485 C69.8053,44.5026 71.2201,43.9151 72.6953,43.9151 C74.1705,43.9151 75.5853,44.5026 76.628,45.5485 C77.672,46.5943 78.258,48.0128 78.258,49.4918 C81.401,49.3548 83,48.8616 83,47.2584 L83,43.6273 C83,40.6677 69.88,41.8324 66.4086,40.3251 Z M46.1,40.9006 C46.1,40.9006 44.9793,36.79 45.2936,36.5022 C45.608,36.2145 51.5393,35.8857 56.4866,35.9816 C58.195,35.9816 64.0306,40.9006 64.0306,40.9006 L46.1,40.9006 Z" id="Shape" fill="#A6C3EE"></path>
            <path d="M24.0148,48.6025 L23.8508,48.6025 C23.1155,48.6813 22.3763,48.7179 21.6368,48.7122 C18.6915,48.7934 15.7759,48.1039 13.1772,46.7117 C11.709,45.8627 10.4922,44.638 9.6512,43.1628 C8.616,41.1837 8.1076,38.9702 8.1752,36.7365 L8.1752,33.9961 L6.8085,33.9961 L6.8085,36.7365 C6.7368,39.2105 7.3066,41.6608 8.4622,43.8479 C9.8961,46.3182 12.1878,48.1719 14.8992,49.0547 C17.0694,49.7872 19.3471,50.1485 21.6368,50.1235 C22.5053,50.1329 23.3732,50.0779 24.2335,49.959 L24.0422,48.5888 L24.0148,48.6025 Z" id="Shape" fill="#A6C3EE"></path>
            <path d="M7.4917,25.6504 C9.016,29.8816 11.2128,33.8378 13.997,37.3657 L7.4917,35.0089 L1,37.3657 C3.7848,33.8405 5.9775,29.8834 7.4917,25.6504 Z" id="Shape" fill="#A6C3EE"></path>
            <path d="M51.5668,17.1133 C51.3667,17.1133 51.1712,17.1727 51.0049,17.2842 C50.8386,17.3956 50.7089,17.5539 50.6324,17.7392 C50.5559,17.9245 50.5358,18.1284 50.5749,18.3251 C50.6139,18.5217 50.7102,18.7024 50.8516,18.8442 C50.9931,18.986 51.1733,19.0826 51.3695,19.1217 C51.5656,19.1608 51.769,19.1408 51.9538,19.064 C52.1386,18.9873 52.2965,18.8573 52.4076,18.6906 C52.5188,18.5238 52.5781,18.3278 52.5781,18.1272 C52.5781,17.8583 52.4715,17.6004 52.2819,17.4103 C52.0922,17.2201 51.835,17.1133 51.5668,17.1133 Z" id="Shape" fill="#3265B1"></path>
            <path d="M51.5667,13.1133 C50.5774,13.1133 49.6103,13.4074 48.7877,13.9585 C47.9652,14.5095 47.324,15.2927 46.9455,16.2091 C46.5669,17.1255 46.4678,18.1338 46.6608,19.1066 C46.8538,20.0794 47.3302,20.973 48.0297,21.6744 C48.7293,22.3757 49.6206,22.8534 50.5909,23.0469 C51.5612,23.2404 52.5669,23.1411 53.4809,22.7615 C54.3949,22.3819 55.1761,21.7391 55.7257,20.9144 C56.2753,20.0897 56.5687,19.1201 56.5687,18.1283 C56.5687,16.7982 56.0417,15.5226 55.1037,14.5821 C54.1656,13.6416 52.8933,13.1133 51.5667,13.1133 Z M51.5667,21.3345 C50.9234,21.3345 50.2945,21.1433 49.7596,20.785 C49.2247,20.4266 48.8078,19.9173 48.5616,19.3214 C48.3154,18.7255 48.251,18.0698 48.3765,17.4372 C48.502,16.8046 48.8118,16.2236 49.2667,15.7675 C49.7216,15.3114 50.3012,15.0008 50.9321,14.875 C51.5631,14.7492 52.2171,14.8138 52.8114,15.0606 C53.4058,15.3074 53.9138,15.7254 54.2712,16.2617 C54.6286,16.798 54.8194,17.4285 54.8194,18.0734 C54.8248,18.5058 54.7447,18.9349 54.5839,19.3361 C54.423,19.7373 54.1845,20.1026 53.8821,20.4108 C53.5797,20.7191 53.2194,20.9643 52.822,21.1322 C52.4246,21.3002 51.998,21.3876 51.5667,21.3894 L51.5667,21.3345 Z" id="Shape" fill="#3265B1"></path>
            <path d="M10.4847,17.1133 C10.2165,17.1133 9.9593,17.2201 9.7696,17.4103 C9.5799,17.6004 9.4734,17.8583 9.4734,18.1272 C9.4734,18.3962 9.5799,18.6541 9.7696,18.8442 C9.9593,19.0344 10.2165,19.1412 10.4847,19.1412 C10.7529,19.1412 11.0102,19.0344 11.1998,18.8442 C11.3895,18.6541 11.4961,18.3962 11.4961,18.1272 C11.4961,17.8583 11.3895,17.6004 11.1998,17.4103 C11.0102,17.2201 10.7529,17.1133 10.4847,17.1133 Z" id="Shape" fill="#3265B1"></path>
            <path d="M10.4847,13.1133 C9.4954,13.1133 8.5283,13.4074 7.7057,13.9585 C6.8831,14.5095 6.242,15.2927 5.8634,16.2091 C5.4848,17.1255 5.3858,18.1338 5.5788,19.1066 C5.7718,20.0794 6.2482,20.973 6.9477,21.6744 C7.6473,22.3757 8.5385,22.8534 9.5088,23.0469 C10.4791,23.2404 11.4849,23.1411 12.3988,22.7615 C13.3128,22.3819 14.0941,21.7391 14.6437,20.9144 C15.1933,20.0897 15.4867,19.1201 15.4867,18.1283 C15.4867,17.4697 15.3573,16.8176 15.1059,16.2091 C14.8545,15.6007 14.4861,15.0478 14.0216,14.5821 C13.5571,14.1164 13.0057,13.7471 12.3988,13.495 C11.792,13.243 11.1415,13.1133 10.4847,13.1133 Z M10.4847,21.3345 C9.8414,21.3345 9.2125,21.1433 8.6776,20.785 C8.1427,20.4266 7.7258,19.9173 7.4796,19.3214 C7.2334,18.7255 7.169,18.0698 7.2945,17.4372 C7.42,16.8046 7.7298,16.2236 8.1847,15.7675 C8.6396,15.3114 9.2191,15.0008 9.8501,14.875 C10.4811,14.7492 11.1351,14.8138 11.7294,15.0606 C12.3238,15.3074 12.8318,15.7254 13.1892,16.2617 C13.5466,16.798 13.7373,17.4285 13.7373,18.0734 C13.7428,18.5058 13.6627,18.9349 13.5019,19.3361 C13.341,19.7373 13.1025,20.1026 12.8001,20.4108 C12.4977,20.7191 12.1374,20.9643 11.74,21.1322 C11.3426,21.3002 10.9159,21.3876 10.4847,21.3894 L10.4847,21.3345 Z" id="Shape" fill="#3265B1"></path>
            <path d="M15.0911,0.0003 C12.5901,0.151 9.2007,0.3702 8.9547,0.4387 C8.7087,0.5073 9.8977,1.3705 9.7474,1.2335 C7.3416,2.4097 5.1033,3.9027 3.0917,5.673 C2.2546,6.702 1.8263,8.005 1.8891,9.3314 L1.8891,11.51 C1.8891,11.5238 1.0691,11.9074 1.0007,13.442 L1.0007,14.593 C0.9873,14.7822 1.0293,14.9711 1.1216,15.1367 C1.2138,15.3022 1.3524,15.4371 1.5201,15.5248 C1.5201,15.8125 1.4244,17.7719 2.8867,18.1556 C3.2539,18.267 3.6404,18.2997 4.0211,18.2515 C4.0707,17.6403 4.1759,17.0348 4.3354,16.4428 C4.4959,15.8168 4.7542,15.2202 5.1007,14.6752 C6.9867,11.7293 11.2097,10.4276 15.1457,13.442 C15.8261,14.2604 16.3204,15.2176 16.5942,16.2469 C16.868,17.2763 16.9147,18.3531 16.7311,19.4025 L45.4311,19.4025 C44.2967,13.7298 50.6381,9.0163 56.3644,13.3872 C57.5523,14.8315 58.157,16.6698 58.0591,18.5392 C59.3821,18.5523 60.705,18.4974 62.0224,18.3748 C62.3641,18.2515 63.8947,18.1145 63.8537,15.47 C63.9142,15.1493 63.9417,14.8233 63.9357,14.4971 L63.9357,13.2502 C63.9357,13.2502 63.9357,12.6747 63.6214,12.5377 C63.3648,11.664 62.8951,10.8681 62.2547,10.2221 C61.8721,10.0987 61.8721,8.8518 56.3917,8.0708 L47.9867,6.8513 C47.1854,6.7428 46.4005,6.5358 45.6497,6.2347 C44.8024,5.7415 39.8004,2.5078 36.8484,0.8772 C36.8484,0.8772 36.3154,0.3154 33.4317,0.151 C30.5481,-0.0134 15.0911,0.0003 15.0911,0.0003 Z M8.2577,6.9472 C7.7111,6.9472 7.1507,6.084 8.0254,5.2482 C9.1574,4.1325 10.393,3.1277 11.7154,2.2474 C12.8378,1.4799 14.1351,1.0086 15.4874,0.8772 C15.4874,0.8772 13.1504,4.2205 11.3874,6.9884 C11.3054,7.0295 8.6131,6.9747 8.2987,6.9472 L8.2577,6.9472 Z M12.5491,7.0569 C13.6571,4.9806 14.9084,2.9843 16.2937,1.0827 C16.3639,0.9692 16.4628,0.8764 16.5805,0.8138 C16.6982,0.7512 16.8303,0.7211 16.9634,0.7265 L25.1634,0.7265 C25.1634,0.7265 25.8604,0.7265 25.8604,1.2472 L26.0791,7.4679 C26.0791,7.4679 12.5901,7.1939 12.5901,7.0569 L12.5491,7.0569 Z M42.9574,8.2215 C42.9574,8.2215 28.7577,7.8927 28.5117,7.6187 C28.2657,7.3446 27.4047,0.9457 27.4047,0.9457 C27.4047,0.9457 30.3977,1.0279 33.0764,1.2609 C34.3878,1.2743 35.6733,1.6284 36.8074,2.2885 C39.0402,3.7697 41.1849,5.3802 43.2307,7.1117 C44.1054,8.1119 43.1351,8.2215 42.9574,8.2215 Z" id="Shape" fill="#3265B1"></path>
        </g>
    </g>
</svg>