<?xml version="1.0" encoding="UTF-8" standalone="no"?>
<svg width="80px" height="64px" viewBox="0 0 80 64" version="1.1" xmlns="http://www.w3.org/2000/svg" xmlns:xlink="http://www.w3.org/1999/xlink">
    <!-- Generator: Sketch 43.1 (39012) - http://www.bohemiancoding.com/sketch -->
    <title>i002</title>
    <desc>Created with Sketch.</desc>
    <defs></defs>
    <g id="Page-1" stroke="none" stroke-width="1" fill="none" fill-rule="evenodd">
        <g id="i002" fill-rule="nonzero">
            <path d="M10.2462,58.8435 C10.8221,58.8435 11.289,58.3766 11.289,57.8006 C11.289,57.2247 10.8221,56.7578 10.2462,56.7578 C9.6703,56.7578 9.2034,57.2247 9.2034,57.8006 C9.2034,58.3766 9.6703,58.8435 10.2462,58.8435 Z" id="Shape" fill="#55575D"></path>
            <path d="M10.2463,52.6427 C9.225,52.6371 8.225,52.9348 7.3731,53.4982 C6.5212,54.0615 5.8558,54.8651 5.4611,55.807 C5.0663,56.749 4.9602,57.7869 5.156,58.7893 C5.3518,59.7916 5.8408,60.7133 6.561,61.4375 C7.2812,62.1616 8.2002,62.6556 9.2014,62.857 C10.2027,63.0583 11.2412,62.9578 12.1853,62.5683 C13.1294,62.1787 13.9366,61.5177 14.5046,60.6689 C15.0726,59.8201 15.3759,58.8218 15.3759,57.8004 C15.3759,56.4374 14.8364,55.1297 13.8752,54.1633 C12.914,53.1968 11.6093,52.6501 10.2463,52.6427 Z M10.2463,61.098 C9.5829,61.098 8.9345,60.9013 8.3829,60.5328 C7.8314,60.1643 7.4015,59.6404 7.1476,59.0276 C6.8938,58.4147 6.8273,57.7403 6.9568,57.0897 C7.0862,56.4391 7.4056,55.8415 7.8747,55.3725 C8.3437,54.9034 8.9413,54.584 9.5919,54.4545 C10.2426,54.3251 10.9169,54.3916 11.5298,54.6454 C12.1426,54.8993 12.6665,55.3291 13.035,55.8807 C13.4035,56.4323 13.6002,57.0807 13.6002,57.7441 C13.6077,58.1892 13.5265,58.6314 13.3613,59.0449 C13.1961,59.4583 12.9502,59.8348 12.638,60.1522 C12.3259,60.4696 11.9536,60.7218 11.5429,60.8938 C11.1323,61.0659 10.6915,61.1545 10.2463,61.1544 L10.2463,61.098 Z" id="Shape" fill="#55575D"></path>
            <path d="M14.9954,39.1562 C12.4165,39.3113 8.9498,39.5367 8.6679,39.6072 C8.3861,39.6777 9.6403,40.5091 9.4853,40.4246 C7.0293,41.6397 4.7452,43.175 2.6928,44.9905 C1.8296,46.0489 1.3879,47.3889 1.4527,48.7531 L1.4527,50.9938 C1.4527,51.0079 0.5648,51.4025 0.5085,52.9808 L0.5085,54.1646 C0.4918,54.3614 0.5337,54.5588 0.629,54.7318 C0.7243,54.9049 0.8687,55.0458 1.044,55.1369 C1.044,55.4188 0.9453,57.434 2.5237,57.8427 C2.9043,57.9467 3.3017,57.9755 3.6933,57.9272 L3.7638,57.9272 C3.7657,57.3127 3.8223,56.6996 3.9329,56.0952 C4.1042,55.4554 4.3752,54.8467 4.7362,54.2914 C6.6809,51.2615 11.0354,49.9228 15.094,53.0231 C15.7956,53.8647 16.3052,54.8492 16.5876,55.9078 C16.8699,56.9665 16.918,58.074 16.7287,59.1532 L46.3226,59.1532 C45.1388,53.319 51.6917,48.4713 57.5964,52.9667 C58.8177,54.4541 59.4407,56.3433 59.3439,58.2654 C60.66,58.2976 61.9769,58.2646 63.2897,58.1668 C63.642,58.0399 65.2204,57.899 65.1781,55.1792 C65.2404,54.8495 65.2688,54.5142 65.2626,54.1787 L65.2626,52.8963 C65.2626,52.8963 65.2626,52.3044 64.9385,52.1635 C64.674,51.2648 64.1896,50.4463 63.5293,49.7819 C63.1347,49.655 63.1347,48.3726 57.4837,47.5694 L48.8592,46.3151 C48.0301,46.202 47.2169,45.9939 46.4353,45.6951 C45.5757,45.1737 40.4179,41.8479 37.374,40.185 C37.374,40.185 36.8244,39.6072 33.8509,39.424 C30.8774,39.2408 14.9954,39.1562 14.9954,39.1562 Z M7.9492,46.3011 C7.3714,46.3011 6.8077,45.4132 7.6955,44.5677 C8.8616,43.4189 10.1358,42.3854 11.5005,41.4815 C12.6619,40.6899 14.0048,40.2051 15.404,40.0722 C15.404,40.0722 12.9802,43.5249 11.1763,46.3574 C10.1144,46.391 9.0515,46.3722 7.9915,46.3011 L7.9492,46.3011 Z M12.3742,46.4138 C13.4977,44.2765 14.774,42.2231 16.1932,40.2695 C16.2613,40.1356 16.3667,40.0244 16.4968,39.9494 C16.6269,39.8743 16.776,39.8387 16.926,39.8468 L25.3814,39.8468 C25.3814,39.8468 26.1001,39.8468 26.1001,40.3964 L26.2833,46.8929 C26.2833,46.8929 12.4165,46.5547 12.4165,46.4138 L12.3742,46.4138 Z M43.6873,47.5975 C43.6873,47.5975 29.0454,47.2452 28.7917,46.9634 C28.5381,46.6815 27.6362,40.1286 27.6362,40.1286 C27.6362,40.1286 30.7365,40.2132 33.4986,40.4527 C34.8508,40.4665 36.1763,40.8307 37.3458,41.5097 C39.6481,43.0331 41.8596,44.6894 43.9692,46.4702 C44.9697,47.4989 43.8987,47.6116 43.7296,47.5975 L43.6873,47.5975 Z" id="Shape" fill="#3265B1"></path>
            <path d="M79.6649,37.2257 L79.6649,32.998 L75.4373,32.998 L75.4373,34.4073 L33.1603,34.4073 L33.1603,32.998 L28.9326,32.998 L28.9326,37.2257 L30.3418,37.2257 L30.3418,59.7734 L28.9326,59.7734 L28.9326,64.0011 L33.1603,64.0011 L33.1603,62.5919 L75.4373,62.5919 L75.4373,64.0011 L79.6649,64.0011 L79.6649,59.7734 L78.2557,59.7734 L78.2557,37.2257 L79.6649,37.2257 Z M30.3418,34.4073 L31.7511,34.4073 L31.7511,35.8165 L30.3418,35.8165 L30.3418,34.4073 Z M30.3418,62.5919 L30.3418,61.1827 L31.7511,61.1827 L31.7511,62.5919 L30.3418,62.5919 Z M37.388,58.3642 L35.9788,58.3642 L35.9788,38.635 L37.388,38.635 L37.388,58.3642 Z M44.4342,58.3642 L43.0249,58.3642 L43.0249,38.635 L44.4342,38.635 L44.4342,58.3642 Z M51.4803,58.3642 L50.0711,58.3642 L50.0711,38.635 L51.4803,38.635 L51.4803,58.3642 Z M58.5265,58.3642 L57.1172,58.3642 L57.1172,38.635 L58.5265,38.635 L58.5265,58.3642 Z M65.5726,58.3642 L64.1634,58.3642 L64.1634,38.635 L65.5726,38.635 L65.5726,58.3642 Z M72.6188,58.3642 L71.2096,58.3642 L71.2096,38.635 L72.6188,38.635 L72.6188,58.3642 Z M78.2557,34.4073 L78.2557,35.8165 L76.8465,35.8165 L76.8465,34.4073 L78.2557,34.4073 Z M76.8465,62.5919 L76.8465,61.1827 L78.2557,61.1827 L78.2557,62.5919 L76.8465,62.5919 Z" id="Shape" fill="#A6C3EE"></path>
            <polygon id="Shape" fill="#A6C3EE" points="44.5751 35.4091 52.8332 27.1651 53.6505 27.1651 61.9086 35.4091 62.9092 34.4226 54.2424 25.7559 52.5372 25.7559 52.2413 25.7559 43.5886 34.4226 44.5892 35.4091"></polygon>
            <path d="M53.2559,20.8225 L53.2559,1.0933 C53.2559,0.9064 53.1817,0.7272 53.0495,0.595 C52.9174,0.4629 52.7382,0.3887 52.5513,0.3887 C52.3644,0.3887 52.1852,0.4629 52.0531,0.595 C51.9209,0.7272 51.8467,0.9064 51.8467,1.0933 L51.8467,20.8225 C51.8467,21.0094 51.9209,21.1886 52.0531,21.3208 C52.1852,21.4529 52.3644,21.5271 52.5513,21.5271 C52.7382,21.5271 52.9174,21.4529 53.0495,21.3208 C53.1817,21.1886 53.2559,21.0094 53.2559,20.8225 Z" id="Shape" fill="#A6C3EE"></path>
            <path d="M57.653,25.9664 L52.5234,31.096 L47.8729,26.4597 L53.0166,21.316 C53.1457,21.1843 53.218,21.0072 53.218,20.8227 C53.218,20.6383 53.1457,20.4612 53.0166,20.3295 C52.9511,20.2635 52.8732,20.2111 52.7873,20.1753 C52.7014,20.1395 52.6093,20.1211 52.5163,20.1211 C52.4233,20.1211 52.3312,20.1395 52.2453,20.1753 C52.1595,20.2111 52.0815,20.2635 52.016,20.3295 L45.9141,26.4597 L52.5515,33.0972 L58.6817,26.9529 C58.8108,26.8212 58.8831,26.6441 58.8831,26.4597 C58.8831,26.2752 58.8108,26.0982 58.6817,25.9664 C58.6162,25.9004 58.5383,25.848 58.4524,25.8122 C58.3665,25.7764 58.2744,25.758 58.1814,25.758 C58.0884,25.758 57.9963,25.7764 57.9104,25.8122 C57.8246,25.848 57.7466,25.9004 57.6811,25.9664 L57.653,25.9664 Z" id="Shape" fill="#A6C3EE"></path>
        </g>
    </g>
</svg>