<?xml version="1.0" encoding="UTF-8" standalone="no"?>
<svg width="74px" height="48px" viewBox="0 0 74 48" version="1.1" xmlns="http://www.w3.org/2000/svg" xmlns:xlink="http://www.w3.org/1999/xlink">
    <!-- Generator: Sketch 43.1 (39012) - http://www.bohemiancoding.com/sketch -->
    <title>i003</title>
    <desc>Created with Sketch.</desc>
    <defs></defs>
    <g id="Page-1" stroke="none" stroke-width="1" fill="none" fill-rule="evenodd">
        <g id="i003" fill-rule="nonzero">
            <path d="M73.9999,12.6346 C73.9999,12.6346 73.9999,12.0881 73.7001,11.958 C73.4554,11.1283 73.0074,10.3725 72.3965,9.759 C72.0315,9.6419 72.0185,8.4578 66.8042,7.7162 L58.8394,6.5061 C58.0754,6.4015 57.3269,6.2049 56.6103,5.9206 C55.8151,5.4521 51.044,2.3814 48.2283,0.833 C48.2283,0.833 47.7199,0.2995 44.9564,0.1434 C42.1928,-0.0127 27.4624,0.0003 27.4624,0.0003 C25.0899,0.1434 21.8571,0.3516 21.6224,0.4166 L22.3915,1.1713 C20.0968,2.2883 17.9618,3.706 16.0431,5.3871 C15.2476,6.3666 14.8353,7.6011 14.883,8.8612 L14.883,10.9301 C14.6401,11.0803 14.4365,11.2861 14.2892,11.5305 C14.1418,11.7749 14.0549,12.0507 14.0356,12.3353 L14.7396,12.1662 C16.6375,11.9115 18.5479,11.7595 20.4623,11.7108 C21.2761,11.3208 22.1666,11.1163 23.0694,11.1122 C24.0005,11.125 24.9189,11.3287 25.7678,11.7108 C30.3433,11.7108 36.7699,11.7888 38.5298,11.8929 C39.8884,11.8721 41.2314,12.1848 42.4405,12.8037 C44.6174,13.9878 47.8633,16.0306 49.6231,17.1366 L50.7573,17.8523 C51.3328,18.0497 51.9267,18.1892 52.5301,18.2686 L53.8337,18.4638 L56.3626,18.4638 C56.1798,17.5837 56.1944,16.6741 56.4054,15.8003 C56.6164,14.9265 57.0186,14.1102 57.5831,13.4099 C58.1476,12.7096 58.8604,12.1428 59.6704,11.75 C60.4803,11.3572 61.3674,11.1483 62.2678,11.1382 C63.8937,11.1705 65.4624,11.7428 66.726,12.7647 C67.8502,14.1411 68.4258,15.8832 68.3424,17.6571 C69.6044,17.6688 70.8661,17.6167 72.1228,17.5009 C72.4487,17.3838 73.9087,17.2537 73.8696,14.7425 C73.9272,14.438 73.9535,14.1284 73.9478,13.8186 C73.9999,13.1811 73.9999,12.6346 73.9999,12.6346 Z M20.9837,7.8983 C20.4623,7.8983 19.9408,7.0786 20.7621,6.2849 C21.8447,5.2287 23.0229,4.2748 24.2817,3.4353 C25.3531,2.708 26.5901,2.2606 27.8796,2.1342 C27.8796,2.1342 25.6505,5.309 24.034,7.9374 C23.8515,7.9764 21.2835,7.9244 20.9837,7.8983 Z M25.0899,8.0024 C26.1292,6.029 27.3098,4.1331 28.6226,2.3294 C28.6895,2.2215 28.7839,2.1334 28.8961,2.0739 C29.0084,2.0145 29.1344,1.9859 29.2614,1.991 L37.0828,1.991 C37.0828,1.991 37.7476,1.991 37.7476,2.4855 L37.9562,8.3928 C37.9562,8.3928 25.0899,8.1326 25.0899,8.0024 Z M54.0423,9.1084 C54.0423,9.1084 40.5112,8.7961 40.2765,8.5359 C40.0419,8.2757 39.2076,2.2253 39.2076,2.2253 C39.2076,2.2253 42.0755,2.3033 44.6305,2.5245 C45.8778,2.5329 47.1008,2.8695 48.1762,3.5004 C50.3119,4.8949 52.3622,6.4157 54.316,8.0545 C55.1503,9.0043 54.2117,9.1084 54.0423,9.1084 Z" id="Shape" fill="#A6C3EE"></path>
            <path d="M61.3421,17.2149 C61.3395,17.4084 61.3947,17.5984 61.5005,17.7606 C61.6064,17.9228 61.7581,18.0499 61.9365,18.1257 C62.1149,18.2016 62.3119,18.2228 62.5024,18.1866 C62.6929,18.1504 62.8683,18.0585 63.0064,17.9226 C63.1444,17.7866 63.2388,17.6128 63.2776,17.4231 C63.3164,17.2335 63.2978,17.0366 63.2242,16.8575 C63.1506,16.6785 63.0254,16.5253 62.8643,16.4175 C62.7033,16.3096 62.5137,16.2521 62.3198,16.252 C62.192,16.2503 62.0652,16.274 61.9466,16.3216 C61.8281,16.3692 61.7202,16.4398 61.6293,16.5294 C61.5383,16.619 61.4661,16.7257 61.4168,16.8434 C61.3675,16.9611 61.3421,17.0874 61.3421,17.2149 Z" id="Shape" fill="#A6C3EE"></path>
            <path d="M63.5714,20.0633 C64.2285,20.2425 64.8661,20.4866 65.4747,20.792 C65.9885,20.3577 66.4024,19.8179 66.6881,19.2093 C66.9738,18.6008 67.1246,17.9379 67.1302,17.2658 L67.1302,17.1227 C67.1263,16.8342 67.0958,16.5468 67.0389,16.2639 C66.8957,15.576 66.6017,14.9282 66.1781,14.3671 C65.7545,13.8059 65.2117,13.3453 64.5888,13.0182 C63.9658,12.6911 63.278,12.5057 62.5747,12.4752 C61.8715,12.4447 61.1701,12.5699 60.5211,12.8419 C60.2857,12.9449 60.059,13.0667 59.8432,13.2062 L59.6607,13.3103 C59.4737,13.4467 59.2952,13.5945 59.1263,13.7527 L58.9177,13.9609 C58.7685,14.1214 58.6292,14.2909 58.5005,14.4683 L58.3311,14.7155 C58.2097,14.9124 58.1008,15.1166 58.0052,15.3271 L58.0052,15.5093 C57.9074,15.7543 57.8289,16.0067 57.7705,16.2639 C57.703,16.5761 57.668,16.8944 57.6663,17.2138 C57.668,17.8486 57.7965,18.4768 58.0443,19.0614 L60.2343,19.3867 C59.764,18.9141 59.4583,18.3032 59.362,17.644 C59.2657,16.9849 59.3841,16.3123 59.6995,15.7253 C60.015,15.1383 60.511,14.668 61.1145,14.3835 C61.7179,14.099 62.3969,14.0155 63.0515,14.1451 C63.7061,14.2748 64.3016,14.6109 64.7505,15.1038 C65.1994,15.5968 65.4778,16.2205 65.5448,16.8833 C65.6118,17.546 65.4638,18.2128 65.1226,18.7852 C64.7814,19.3577 64.2651,19.8058 63.6497,20.0633 L63.5714,20.0633 Z" id="Shape" fill="#A6C3EE"></path>
            <path d="M67.1562,24.9701 C66.9115,24.1403 66.4635,23.3846 65.8526,22.7711 C65.6571,22.7711 65.5659,22.3807 64.8098,21.9644 L64.4578,21.7822 L64.0667,21.6261 C62.8345,21.1892 61.5581,20.8881 60.2603,20.7283 L58.8394,20.5201 L58.3701,20.5201 L57.8878,20.455 L53.6773,19.8435 L52.3216,19.5182 C51.6589,19.4175 51.0051,19.2652 50.3662,19.0628 L50.0925,18.9327 L49.2451,18.4122 C47.5505,17.3452 44.0309,15.0942 41.7105,13.8451 C41.7105,13.8451 41.2021,13.3116 38.4385,13.1555 C36.9525,13.0644 31.9989,13.0124 27.7362,12.9863 L20.7751,12.9863 L20.1494,12.9863 L19.6019,12.9863 L18.6112,12.9863 C16.8905,13.1034 15.3393,13.2075 15.1567,13.2596 L15.9259,14.0143 C15.9259,14.0143 15.4044,14.2485 14.6223,14.6909 L13.9966,15.0552 L13.3057,15.6147 C11.9576,16.4334 10.6877,17.3742 9.5123,18.4252 C8.7167,19.4047 8.3044,20.6392 8.3521,21.8993 L8.3521,23.9682 C8.115,24.1173 7.9161,24.3197 7.7713,24.5591 C7.6264,24.7986 7.5396,25.0685 7.5178,25.3474 L8.2218,25.1782 C10.1197,24.9236 12.03,24.7716 13.9444,24.7228 C14.7583,24.3328 15.6488,24.1284 16.5516,24.1243 C17.4826,24.1371 18.4011,24.3408 19.25,24.7228 C23.8255,24.7228 30.2521,24.8009 32.0119,24.905 C33.3706,24.8841 34.7135,25.1969 35.9226,25.8158 C38.0996,26.9999 41.3455,29.0427 43.1053,30.1487 L44.2394,30.8643 C44.815,31.0618 45.4089,31.2013 46.0123,31.2807 L47.3159,31.4759 L49.8448,31.4759 C49.6619,30.5958 49.6765,29.6862 49.8876,28.8124 C50.0986,27.9386 50.5008,27.1223 51.0653,26.422 C51.6298,25.7217 52.3426,25.1549 53.1525,24.7621 C53.9625,24.3693 54.8495,24.1604 55.75,24.1503 C57.3759,24.1826 58.9446,24.7549 60.2082,25.7768 C61.3323,27.1532 61.9079,28.8953 61.8246,30.6692 C63.0866,30.6809 64.3483,30.6288 65.605,30.513 C65.9309,30.3959 67.3909,30.2658 67.3517,27.7546 C67.4094,27.4501 67.4356,27.1405 67.43,26.8307 L67.43,25.6467 C67.43,25.6467 67.4821,25.1002 67.1562,24.9701 Z M17.5162,20.9234 C17.3337,20.9885 14.7657,20.9234 14.4659,20.9234 C13.9444,20.9234 13.423,20.1037 14.2443,19.31 C14.6223,18.9847 14.9221,18.6984 15.235,18.4122 L15.8216,17.9047 L16.4994,17.3582 L17.073,16.9419 L17.7248,16.4865 L18.0376,16.3043 L18.4157,16.0701 C19.1275,15.6846 19.8915,15.4041 20.6839,15.2373 C20.9446,15.2373 21.1271,15.2373 21.2314,15.1593 L21.3096,15.1593 L20.345,16.5515 L19.9278,17.1761 C19.5368,17.7616 19.0805,18.4772 18.6243,19.1278 L18.4287,19.4271 L18.2201,19.7394 L17.5162,20.9234 Z M26.6412,21.3138 L25.5853,21.3138 L20.371,21.1576 L19.8496,21.1576 L19.3021,21.1576 C19.0619,21.1531 18.8223,21.1314 18.5851,21.0926 C18.5851,20.9364 18.7416,20.7673 18.8198,20.5981 L18.9893,20.2859 L19.1587,19.9866 C19.4585,19.4401 19.8105,18.8546 20.1755,18.2951 C20.2407,18.178 20.3189,18.0609 20.3971,17.9438 L20.6578,17.5404 L20.8142,17.3062 C21.5312,16.2392 22.1178,15.4195 22.1178,15.4195 C22.1847,15.3117 22.2791,15.2235 22.3913,15.1641 C22.5036,15.1046 22.6296,15.076 22.7566,15.0812 L30.578,15.0812 C30.578,15.0812 31.2428,15.0812 31.2428,15.5756 L31.3471,18.4772 L31.3471,19.1278 L31.3471,19.7784 L31.3471,21.4829 C31.3471,21.4829 29.1701,21.3919 26.576,21.3138 L26.6412,21.3138 Z M47.5896,22.0945 C47.5896,22.0945 34.0585,21.7822 33.8239,21.522 C33.6287,20.9438 33.4976,20.346 33.4328,19.7394 C33.4328,19.5312 33.4328,19.31 33.3285,19.0888 C33.2242,18.8676 33.2634,18.6464 33.2242,18.4382 C32.9766,16.8378 32.755,15.2113 32.755,15.2113 C32.755,15.2113 35.6228,15.2894 38.1778,15.5106 C39.4251,15.519 40.6482,15.8556 41.7235,16.4865 C41.8409,16.4865 43.1575,17.4493 44.5523,18.4512 L45.4387,19.1018 L46.2991,19.7654 C46.8517,20.1603 47.3745,20.5952 47.8634,21.0666 C48.6325,22.0164 47.6939,22.1205 47.5244,22.1205 L47.5896,22.0945 Z" id="Shape" fill="#A6C3EE"></path>
            <path d="M55.7498,29.2637 C55.559,29.2637 55.3725,29.3201 55.2139,29.4259 C55.0552,29.5317 54.9316,29.6821 54.8586,29.8581 C54.7856,30.034 54.7665,30.2276 54.8037,30.4144 C54.8409,30.6012 54.9328,30.7727 55.0677,30.9074 C55.2026,31.042 55.3745,31.1337 55.5616,31.1709 C55.7487,31.208 55.9427,31.189 56.1189,31.1161 C56.2952,31.0432 56.4459,30.9198 56.5519,30.7615 C56.6579,30.6031 56.7144,30.417 56.7144,30.2265 C56.7144,29.9712 56.6128,29.7263 56.4319,29.5457 C56.251,29.3651 56.0056,29.2637 55.7498,29.2637 Z" id="Shape" fill="#A6C3EE"></path>
            <path d="M60.4689,29.2757 C60.3256,28.5877 60.0317,27.94 59.6081,27.3788 C59.1844,26.8177 58.6417,26.357 58.0187,26.0299 C57.3957,25.7028 56.7079,25.5174 56.0046,25.4869 C55.3014,25.4564 54.6001,25.5816 53.951,25.8536 C53.7156,25.9566 53.4889,26.0784 53.2732,26.2179 L53.0907,26.322 C52.9036,26.4584 52.7251,26.6062 52.5562,26.7644 L52.3476,26.9726 C52.1984,27.1332 52.0591,27.3026 51.9305,27.48 L51.761,27.7273 C51.6396,27.9241 51.5308,28.1283 51.4351,28.3388 L51.4351,28.521 C51.3373,28.766 51.2589,29.0184 51.2005,29.2757 C51.1329,29.5878 51.098,29.9061 51.0962,30.2255 C51.0979,30.8603 51.2264,31.4885 51.4742,32.0732 L53.6642,32.3984 C53.194,31.9258 52.8882,31.3149 52.7919,30.6558 C52.6957,29.9966 52.814,29.324 53.1295,28.737 C53.445,28.15 53.9409,27.6797 54.5444,27.3952 C55.1478,27.1107 55.8268,27.0272 56.4814,27.1569 C57.136,27.2865 57.7316,27.6226 58.1804,28.1155 C58.6293,28.6085 58.9077,29.2322 58.9747,29.895 C59.0417,30.5578 58.8937,31.2245 58.5525,31.797 C58.2114,32.3695 57.695,32.8175 57.0796,33.0751 C57.7367,33.2543 58.3742,33.4984 58.9828,33.8037 C59.4966,33.3694 59.9105,32.8296 60.1962,32.221 C60.482,31.6125 60.6328,30.9496 60.6383,30.2775 L60.6383,30.1344 C60.6088,29.8435 60.5521,29.556 60.4689,29.2757 Z" id="Shape" fill="#A6C3EE"></path>
            <path d="M60.9642,38.6584 C60.9642,38.6584 60.9642,38.1119 60.6644,37.9818 C60.4196,37.1521 59.9716,36.3963 59.3608,35.7828 C59.1652,35.7828 59.074,35.3925 58.3179,34.9761 L57.966,34.7939 L57.5749,34.6378 C56.3427,34.2009 55.0663,33.8999 53.7685,33.74 L52.3476,33.5318 L51.8783,33.4667 L51.396,33.4667 L47.1854,32.8552 L45.8036,32.5299 C45.141,32.4292 44.4872,32.277 43.8483,32.0745 L43.5745,31.9444 L42.7272,31.4239 C41.0326,30.357 37.5129,28.1059 35.1926,26.8568 C35.1926,26.8568 34.6842,26.3233 31.9206,26.1672 C30.4345,26.0761 25.481,26.0241 21.2183,25.998 L14.2572,25.998 L13.6315,25.998 L13.084,25.998 L12.0933,25.998 C10.3726,26.1152 8.8213,26.2192 8.6388,26.2713 L9.4079,27.026 C9.4079,27.026 8.8865,27.2602 8.1044,27.7026 L7.4786,28.0669 L6.7877,28.6264 C5.4396,29.4452 4.1698,30.386 2.9944,31.4369 C2.1988,32.4164 1.7865,33.6509 1.8342,34.911 L1.8342,36.9799 C1.8342,36.9929 1.0129,37.3572 0.9477,38.8145 L0.9477,39.9075 C0.9314,40.0876 0.97,40.2685 1.0584,40.4264 C1.1468,40.5842 1.2809,40.7118 1.4431,40.7923 C1.4431,41.0655 1.3388,42.9262 2.7467,43.2905 C3.0057,43.3631 3.2729,43.4025 3.5419,43.4076 L3.8156,43.4076 L3.8938,43.4076 C3.9383,42.8115 4.0298,42.2198 4.1676,41.6381 C4.3304,41.0448 4.5808,40.4791 4.9106,39.9596 C5.4642,39.1019 6.2243,38.3964 7.1216,37.9077 C8.0188,37.419 9.0245,37.1626 10.0467,37.162 C11.6726,37.1943 13.2413,37.7667 14.5049,38.7885 C15.1516,39.5667 15.6207,40.4761 15.8796,41.4536 C16.1384,42.431 16.1809,43.4531 16.004,44.4486 L43.379,44.4486 C43.2034,43.5755 43.2218,42.6746 43.4329,41.8094 C43.644,40.9442 44.0426,40.1357 44.6007,39.4409 C45.1588,38.7462 45.8627,38.182 46.6629,37.7883 C47.4631,37.3946 48.3401,37.1808 49.232,37.162 C50.8579,37.1943 52.4267,37.7667 53.6902,38.7885 C54.8144,40.1649 55.39,41.907 55.3067,43.6809 C56.5686,43.6926 57.8304,43.6405 59.087,43.5247 C59.4129,43.4076 60.8729,43.2775 60.8338,40.7663 C60.8915,40.4618 60.9177,40.1523 60.912,39.8425 C60.9642,39.2049 60.9642,38.6584 60.9642,38.6584 Z M10.9983,33.9352 C10.8158,34.0002 8.2477,33.9352 7.9479,33.9352 C7.4265,33.9352 6.9051,33.1154 7.7263,32.3217 C8.1044,31.9964 8.4042,31.7102 8.717,31.4239 L9.3036,30.9165 L9.9815,30.37 L10.5551,29.9276 L11.2069,29.4722 L11.5197,29.29 L11.8977,29.0558 C12.6095,28.6703 13.3736,28.3898 14.166,28.223 C14.4267,28.223 14.6092,28.158 14.7135,28.145 L14.7917,28.145 L13.827,29.5372 L13.4099,30.1618 C13.0188,30.7473 12.5626,31.4629 12.1063,32.1135 L11.9108,32.4128 L11.7022,32.7251 L10.9983,33.9352 Z M20.1233,34.3255 L19.0674,34.3255 L13.8531,34.1694 L13.3317,34.1694 L12.732,34.0913 C12.4918,34.0868 12.2522,34.065 12.0151,34.0262 C12.0151,33.8701 12.1715,33.7009 12.2497,33.5318 L12.4192,33.2195 L12.5886,32.9202 C12.8885,32.3738 13.2404,31.7882 13.6054,31.2287 C13.6706,31.1116 13.7488,30.9945 13.827,30.8774 L14.0877,30.4741 L14.2442,30.2398 C14.9611,29.1729 15.5477,28.3532 15.5477,28.3532 C15.6146,28.2453 15.709,28.1572 15.8213,28.0977 C15.9335,28.0383 16.0595,28.0097 16.1865,28.0149 L24.0079,28.0149 C24.0079,28.0149 24.6728,28.0149 24.6728,28.5093 L24.777,31.4109 L24.777,32.0615 L24.777,32.7121 L24.777,34.4166 C24.777,34.4166 22.6522,34.4036 20.0581,34.3255 L20.1233,34.3255 Z M41.0717,35.1062 C41.0717,35.1062 27.5406,34.7939 27.306,34.5337 C27.1108,33.9555 26.9796,33.3578 26.9149,32.7511 C26.9149,32.5429 26.9149,32.3217 26.8106,32.1005 C26.7063,31.8793 26.7454,31.6581 26.7063,31.4499 C26.4586,29.8495 26.237,28.223 26.237,28.223 C26.237,28.223 29.1049,28.3011 31.6599,28.5223 C32.9072,28.5307 34.1303,28.8673 35.2056,29.4982 C35.3229,29.4982 36.6395,30.461 38.0344,31.4629 L38.9208,32.1135 L39.7811,32.7771 C40.3338,33.172 40.8566,33.6069 41.3454,34.0783 C42.1145,35.0281 41.176,35.1322 41.0065,35.1322 L41.0717,35.1062 Z" id="Shape" fill="#3265B1"></path>
            <path d="M49.232,42.2754 C49.0412,42.2754 48.8547,42.3319 48.6961,42.4377 C48.5374,42.5435 48.4138,42.6938 48.3408,42.8698 C48.2678,43.0457 48.2486,43.2393 48.2859,43.4261 C48.3231,43.6129 48.415,43.7844 48.5499,43.9191 C48.6848,44.0537 48.8567,44.1455 49.0438,44.1826 C49.2309,44.2198 49.4249,44.2007 49.6011,44.1278 C49.7774,44.0549 49.9281,43.9315 50.034,43.7732 C50.14,43.6148 50.1966,43.4287 50.1966,43.2382 C50.1966,43.1118 50.1717,42.9866 50.1232,42.8698 C50.0747,42.753 50.0037,42.6468 49.9141,42.5574 C49.8245,42.468 49.7182,42.3971 49.6011,42.3487 C49.4841,42.3003 49.3587,42.2754 49.232,42.2754 Z" id="Shape" fill="#3265B1"></path>
            <path d="M53.951,42.2874 C53.8078,41.5994 53.5138,40.9517 53.0902,40.3905 C52.6666,39.8294 52.1239,39.3687 51.5009,39.0416 C50.8779,38.7146 50.1901,38.5291 49.4868,38.4986 C48.7836,38.4681 48.0822,38.5934 47.4332,38.8653 C47.1978,38.9683 46.9711,39.0902 46.7553,39.2296 L46.5728,39.3337 C46.3858,39.4702 46.2073,39.6179 46.0384,39.7761 L45.8298,39.9843 C45.6806,40.1449 45.5413,40.3143 45.4127,40.4918 L45.2432,40.739 C45.1218,40.9358 45.013,41.1401 44.9173,41.3505 L44.9173,41.5327 C44.8195,41.7778 44.741,42.0301 44.6827,42.2874 C44.6151,42.5995 44.5801,42.9179 44.5784,43.2372 C44.5784,44.5003 45.081,45.7116 45.9758,46.6047 C46.8705,47.4978 48.0841,47.9995 49.3494,47.9995 C50.6148,47.9995 51.8283,47.4978 52.7231,46.6047 C53.6178,45.7116 54.1205,44.5003 54.1205,43.2372 L54.1205,43.0941 C54.0879,42.8207 54.0312,42.5508 53.951,42.2874 Z M49.2321,46.334 C48.6185,46.334 48.0187,46.1524 47.5085,45.8121 C46.9983,45.4718 46.6006,44.9882 46.3658,44.4223 C46.131,43.8564 46.0695,43.2338 46.1892,42.6331 C46.3089,42.0324 46.6044,41.4806 47.0383,41.0475 C47.4722,40.6144 48.025,40.3194 48.6269,40.1999 C49.2287,40.0805 49.8525,40.1418 50.4194,40.3762 C50.9863,40.6106 51.4708,41.0075 51.8118,41.5167 C52.1527,42.026 52.3346,42.6247 52.3346,43.2372 C52.3312,44.0575 52.0032,44.8432 51.4221,45.4232 C50.841,46.0032 50.0539,46.3306 49.2321,46.334 Z" id="Shape" fill="#3265B1"></path>
            <path d="M10.0467,42.2754 C9.7908,42.2754 9.5455,42.3768 9.3646,42.5574 C9.1837,42.738 9.082,42.9829 9.082,43.2383 C9.082,43.4936 9.1837,43.7385 9.3646,43.9191 C9.5455,44.0997 9.7908,44.2011 10.0467,44.2011 C10.3025,44.2011 10.5479,44.0997 10.7288,43.9191 C10.9097,43.7385 11.0113,43.4936 11.0113,43.2383 C11.0113,42.9829 10.9097,42.738 10.7288,42.5574 C10.5479,42.3768 10.3025,42.2754 10.0467,42.2754 Z" id="Shape" fill="#3265B1"></path>
            <path d="M10.0467,38.4766 C8.9774,38.4765 7.9392,38.8359 7.0997,39.4969 C6.2601,40.1579 5.668,41.0819 5.419,42.1198 C5.3248,42.4854 5.2766,42.8613 5.2756,43.2388 L5.2756,43.6032 C5.3467,44.5273 5.6864,45.4107 6.253,46.145 C6.8197,46.8793 7.5887,47.4325 8.4658,47.7369 C9.3429,48.0413 10.2899,48.0837 11.1907,47.8587 C12.0916,47.6337 12.907,47.1513 13.5372,46.4704 C14.1673,45.7896 14.5847,44.9401 14.7382,44.026 C14.8917,43.1118 14.7746,42.1729 14.4012,41.3242 C14.0279,40.4755 13.4146,39.7541 12.6364,39.2482 C11.8583,38.7424 10.9492,38.4742 10.0206,38.4766 L10.0467,38.4766 Z M10.0467,46.2836 C9.4331,46.2836 8.8333,46.1019 8.323,45.7617 C7.8128,45.4214 7.4152,44.9377 7.1804,44.3719 C6.9455,43.806 6.8841,43.1834 7.0038,42.5826 C7.1235,41.9819 7.419,41.4301 7.8529,40.997 C8.2868,40.564 8.8396,40.269 9.4414,40.1495 C10.0433,40.03 10.6671,40.0914 11.234,40.3258 C11.8009,40.5601 12.2854,40.9571 12.6263,41.4663 C12.9672,41.9756 13.1492,42.5743 13.1492,43.1868 C13.1561,43.5978 13.081,44.0061 12.9282,44.3879 C12.7754,44.7696 12.5479,45.1172 12.2591,45.4103 C11.9704,45.7034 11.626,45.9361 11.2461,46.095 C10.8663,46.2539 10.4586,46.3357 10.0467,46.3356 L10.0467,46.2836 Z" id="Shape" fill="#3265B1"></path>
        </g>
    </g>
</svg>