<?xml version="1.0" encoding="UTF-8" standalone="no"?>
<svg width="78px" height="39px" viewBox="0 0 78 39" version="1.1" xmlns="http://www.w3.org/2000/svg" xmlns:xlink="http://www.w3.org/1999/xlink">
    <!-- Generator: Sketch 43.1 (39012) - http://www.bohemiancoding.com/sketch -->
    <title>i004</title>
    <desc>Created with Sketch.</desc>
    <defs></defs>
    <g id="Page-1" stroke="none" stroke-width="1" fill="none" fill-rule="evenodd">
        <g id="i004" fill-rule="nonzero">
            <path d="M0,7.995 L0.78,21.1639 C0.7784,21.5326 0.9084,21.8897 1.1468,22.1709 C1.3851,22.4522 1.7161,22.6391 2.08,22.6979 L2.08,36.9979 C2.08,37.3818 2.2316,37.7502 2.5018,38.0229 C2.7721,38.2955 3.1391,38.4504 3.523,38.4539 L6.76,38.4539 C7.553,38.4539 8.203,38.5839 8.203,37.7779 C8.1862,37.4065 8.0268,37.056 7.758,36.7993 C7.4892,36.5426 7.1317,36.3995 6.76,36.3999 L4.927,35.9709 L4.927,22.6589 C5.2567,22.5723 5.5481,22.3783 5.7553,22.1076 C5.9624,21.8368 6.0735,21.5048 6.071,21.1639 L5.98,15.041 L9.607,19.2269 C9.8414,19.5045 10.1765,19.6775 10.5386,19.708 C10.9006,19.7385 11.2599,19.6239 11.5375,19.3894 C11.815,19.155 11.988,18.8199 12.0185,18.4579 C12.049,18.0958 11.9344,17.7365 11.7,17.459 L5.915,10.855 L5.915,8.996 L1.547,6.5 C1.1456,6.4998 0.7598,6.6556 0.4711,6.9346 C0.1824,7.2135 0.0135,7.5938 0,7.995 L0,7.995 Z" id="Shape" fill="#A6C3EE"></path>
            <path d="M3.4839,5.98 C5.1352,5.98 6.4739,4.6413 6.4739,2.99 C6.4739,1.3387 5.1352,0 3.4839,0 C1.8326,0 0.4939,1.3387 0.4939,2.99 C0.4939,4.6413 1.8326,5.98 3.4839,5.98 Z" id="Shape" fill="#A6C3EE"></path>
            <path d="M76.4528,6.5 L72.1108,9.1 L72.1108,10.959 L66.2999,17.459 C66.1838,17.593 66.0952,17.7485 66.0392,17.9168 C65.9833,18.085 65.961,18.2626 65.9737,18.4395 C65.9863,18.6163 66.0337,18.7889 66.1131,18.9475 C66.1925,19.106 66.3023,19.2474 66.4364,19.3634 C66.5704,19.4795 66.7259,19.5681 66.8942,19.6241 C67.0624,19.68 67.24,19.7023 67.4169,19.6896 C67.5937,19.677 67.7663,19.6296 67.9249,19.5502 C68.0834,19.4708 68.2248,19.361 68.3408,19.2269 L71.9678,15.041 L71.8768,21.1639 C71.8766,21.5076 71.9899,21.8418 72.1991,22.1145 C72.4084,22.3872 72.7018,22.5831 73.0338,22.6719 L73.0338,35.9319 L71.2398,36.3999 C71.0492,36.3999 70.8605,36.4376 70.6846,36.511 C70.5087,36.5843 70.349,36.6917 70.2149,36.8271 C70.0807,36.9625 69.9747,37.1231 69.9029,37.2997 C69.8312,37.4762 69.7951,37.6653 69.7968,37.8559 C69.7968,38.6489 70.4338,38.5189 71.2398,38.5189 L74.5158,38.5189 C74.8997,38.5154 75.2667,38.3605 75.537,38.0879 C75.8072,37.8152 75.9588,37.4468 75.9588,37.0629 L75.9588,22.7629 C76.3227,22.7041 76.6537,22.5172 76.892,22.236 C77.1304,21.9547 77.2604,21.5976 77.2588,21.2289 L77.9998,7.995 C77.9863,7.5938 77.8174,7.2135 77.5287,6.9346 C77.2401,6.6556 76.8542,6.4998 76.4528,6.5 Z" id="Shape" fill="#A6C3EE"></path>
            <path d="M74.5159,5.98 C76.1672,5.98 77.5059,4.6413 77.5059,2.99 C77.5059,1.3387 76.1672,0 74.5159,0 C72.8645,0 71.5259,1.3387 71.5259,2.99 C71.5259,4.6413 72.8645,5.98 74.5159,5.98 Z" id="Shape" fill="#A6C3EE"></path>
            <path d="M67.3137,11.2438 L67.5997,10.1518 C67.4567,9.7488 67.1577,9.9308 66.7547,10.0738 L64.5837,10.8018 C64.1807,10.9448 63.8297,10.9708 63.9727,11.3868 L64.9087,12.0368 L67.3137,11.2438 Z" id="Shape" fill="#A6C3EE"></path>
            <path d="M67.3007,11.3496 L67.1837,11.3496 L65.1427,12.0386 L65.0257,12.0386 C64.5273,12.7329 64.1964,13.5331 64.0588,14.3766 C63.9212,15.2201 63.9807,16.0839 64.2327,16.9006 C64.8567,18.7336 66.3517,18.2006 68.1327,17.6156 C69.9136,17.0306 71.4346,16.4716 70.8106,14.6386 C70.513,13.8603 70.0424,13.1597 69.4343,12.59 C68.8263,12.0202 68.0967,11.5961 67.3007,11.3496 Z M67.8467,15.9386 L68.0157,16.4456 L67.5347,16.6016 L67.3787,16.1466 C67.0872,16.2291 66.782,16.2513 66.4817,16.2116 L66.4817,15.6006 C66.7774,15.648 67.0801,15.6258 67.3657,15.5356 C67.6387,15.4446 67.7947,15.2626 67.7297,15.0806 C67.6647,14.8986 67.4697,14.8336 67.0667,14.8336 C66.6637,14.8336 66.0527,14.7166 65.8967,14.2356 C65.8266,14.0162 65.8411,13.7785 65.9373,13.5692 C66.0335,13.36 66.2045,13.1943 66.4167,13.1046 L66.2607,12.6366 L66.7417,12.4806 L66.8847,12.8966 C67.1168,12.8298 67.3586,12.8034 67.5997,12.8186 L67.5997,13.4166 C67.3415,13.3791 67.078,13.4059 66.8327,13.4946 C66.5207,13.5986 66.4687,13.7676 66.5207,13.9106 C66.5727,14.0536 66.7677,14.1056 67.2357,14.1186 C67.7037,14.1316 68.2107,14.3136 68.3537,14.7556 C68.4302,14.9806 68.4207,15.2259 68.3271,15.4444 C68.2335,15.6628 68.0624,15.8389 67.8467,15.9386 Z" id="Shape" fill="#A6C3EE"></path>
            <path d="M60.2547,20.1896 C59.4924,18.823 58.623,17.5189 57.6547,16.2896 C57.5377,16.1596 57.1737,15.8606 57.2647,15.7046 C57.3557,15.5486 57.9797,15.7956 58.3567,15.8996 C59.6567,16.2636 61.9837,14.5996 61.8537,13.2217 C61.6457,11.1287 56.9397,12.4547 56.8097,14.4306 C56.1857,12.8187 55.6267,11.3237 54.8987,9.8417 C54.2954,8.3651 53.4713,6.9888 52.4548,5.7597 C50.8948,4.1867 48.0998,3.9007 45.4998,3.6927 C41.2402,3.2808 36.9564,3.1765 32.6818,3.3807 C31.3818,3.3807 30.0818,3.5887 28.7818,3.7317 C26.1819,4.0047 23.7509,4.2647 22.2819,5.7467 C21.7784,6.3471 21.3425,7.001 20.9819,7.6967 C19.947,9.4635 19.0767,11.3216 18.3819,13.2477 C18.2978,13.6627 18.1392,14.0591 17.9139,14.4176 C17.7059,12.3507 12.9999,11.2457 12.8699,13.1307 C12.7269,14.5476 14.8459,16.2246 16.2109,15.9256 C16.7309,15.8086 17.1079,15.3796 17.5109,15.6916 C16.8767,16.8187 16.1778,17.9082 15.4179,18.9546 C14.6716,19.7007 14.0758,20.5834 13.6629,21.5546 C13.5422,22.2193 13.5159,22.8976 13.5849,23.5696 C13.6889,25.6106 13.9359,26.4816 14.0529,28.3276 C14.0751,28.855 14.1316,29.3805 14.2219,29.9006 C14.2219,30.6286 14.2999,31.3436 14.3389,32.0846 C14.3779,32.8256 14.4039,33.4496 14.4559,34.2166 C14.5209,35.2176 14.3779,38.1166 15.1189,38.4545 C15.8518,38.5594 16.596,38.5594 17.3289,38.4545 C18.0797,38.553 18.8401,38.553 19.5909,38.4545 C20.1109,38.2336 20.0719,36.9596 20.1239,36.3096 L20.1239,35.6596 C21.1372,35.7974 22.1568,35.8842 23.1789,35.9196 C25.4409,36.0886 27.8719,36.2316 30.3808,36.2966 L30.3808,36.8166 C30.3808,37.0385 30.4246,37.2582 30.5095,37.4633 C30.5944,37.6683 30.7189,37.8546 30.8758,38.0116 C31.0328,38.1685 31.2191,38.293 31.4241,38.3779 C31.6291,38.4628 31.8489,38.5065 32.0708,38.5065 L42.4708,38.5065 C42.919,38.5065 43.3489,38.3285 43.6658,38.0116 C43.9827,37.6946 44.1608,37.2648 44.1608,36.8166 L44.1608,36.2966 C46.6698,36.2186 49.1398,36.1016 51.4798,35.9196 C52.5718,35.8416 53.5858,35.8156 54.5088,35.6596 C54.5088,36.8166 54.5088,38.0516 55.2107,38.4545 L57.3817,38.4545 C58.1059,38.5607 58.8416,38.5607 59.5657,38.4545 C60.0597,38.2596 60.1117,37.0376 60.1507,36.3486 C60.2547,34.1646 60.3847,31.8636 60.4887,29.8486 L61.0997,25.4806 C61.3179,24.1898 61.3179,22.8715 61.0997,21.5806 C60.8895,21.0772 60.6046,20.6082 60.2547,20.1896 Z M24.1149,6.2147 C32.9565,5.3597 41.8607,5.3728 50.6998,6.2537 C52.6722,9.0466 54.2268,12.1122 55.3147,15.3536 C43.4588,15.4706 31.3558,15.4706 19.4999,15.3536 C20.6155,12.1116 22.1681,9.037 24.1149,6.2147 Z M34.0988,26.9106 L34.0988,26.7546 C34.0988,26.7227 34.1052,26.6912 34.1178,26.6619 C34.1304,26.6327 34.1488,26.6063 34.1719,26.5844 C34.195,26.5625 34.2224,26.5455 34.2523,26.5345 C34.2822,26.5236 34.314,26.5188 34.3458,26.5206 L40.0268,26.5206 C40.0889,26.5206 40.1484,26.5453 40.1923,26.5891 C40.2361,26.633 40.2608,26.6925 40.2608,26.7546 L40.2608,26.9106 C40.2608,26.9727 40.2361,27.0322 40.1923,27.0761 C40.1484,27.1199 40.0889,27.1446 40.0268,27.1446 L34.3458,27.1446 C34.314,27.1464 34.2822,27.1416 34.2523,27.1307 C34.2224,27.1197 34.195,27.1027 34.1719,27.0808 C34.1488,27.0589 34.1304,27.0325 34.1178,27.0033 C34.1052,26.974 34.0988,26.9425 34.0988,26.9106 Z M22.9319,27.0016 C20.9819,27.0016 17.0819,24.9606 17.0819,23.0106 C17.0819,21.0606 20.9819,21.1256 22.9319,21.1256 C24.8819,21.1256 27.6119,22.2306 27.6119,24.1806 C27.6119,26.1306 24.8689,27.0016 22.9319,27.0016 Z M42.8998,36.7516 C42.8998,36.855 42.8587,36.9542 42.7856,37.0273 C42.7124,37.1005 42.6132,37.1416 42.5098,37.1416 L32.1098,37.1416 C32.0581,37.1434 32.0066,37.1345 31.9585,37.1156 C31.9103,37.0966 31.8666,37.0679 31.83,37.0314 C31.7934,36.9948 31.7648,36.9511 31.7458,36.9029 C31.7269,36.8548 31.718,36.8033 31.7198,36.7516 L31.7198,34.7366 C31.718,34.6849 31.7269,34.6333 31.7458,34.5852 C31.7648,34.5371 31.7934,34.4933 31.83,34.4568 C31.8666,34.4202 31.9103,34.3915 31.9585,34.3726 C32.0066,34.3536 32.0581,34.3448 32.1098,34.3466 L42.5098,34.3466 C42.6132,34.3466 42.7124,34.3877 42.7856,34.4608 C42.8587,34.5339 42.8998,34.6331 42.8998,34.7366 L42.8998,36.7516 Z M51.5968,26.9626 C49.6468,26.9626 46.9038,26.0786 46.9038,24.1416 C46.9038,22.2046 49.6468,21.0866 51.5968,21.0866 C53.5467,21.0866 57.4467,21.0866 57.4467,22.9716 C57.4467,24.8566 53.4948,26.9626 51.5578,26.9626 L51.5968,26.9626 Z" id="Shape" fill="#3265B1"></path>
        </g>
    </g>
</svg>