<?xml version="1.0" encoding="UTF-8" standalone="no"?>
<svg width="87px" height="41px" viewBox="0 0 87 41" version="1.1" xmlns="http://www.w3.org/2000/svg" xmlns:xlink="http://www.w3.org/1999/xlink">
    <!-- Generator: Sketch 43.1 (39012) - http://www.bohemiancoding.com/sketch -->
    <title>i005</title>
    <desc>Created with Sketch.</desc>
    <defs></defs>
    <g id="Page-1" stroke="none" stroke-width="1" fill="none" fill-rule="evenodd">
        <g id="i005" transform="translate(-1.000000, 0.000000)" fill-rule="nonzero">
            <path d="M35.2706,36.1683 C35.3891,36.1721 35.5017,36.2212 35.5855,36.3056 C35.6693,36.3899 35.7181,36.5033 35.7219,36.6225 L35.7219,38.9844 C35.7219,39.1049 35.6743,39.2204 35.5897,39.3056 C35.505,39.3908 35.3902,39.4386 35.2706,39.4386 L23.2353,39.4386 C23.1754,39.4408 23.1158,39.4305 23.0601,39.4084 C23.0044,39.3863 22.9538,39.3529 22.9115,39.3103 C22.8691,39.2677 22.836,39.2168 22.814,39.1607 C22.7921,39.1047 22.7818,39.0447 22.784,38.9844 L22.784,36.6225 C22.784,36.5021 22.8315,36.3865 22.9161,36.3014 C23.0008,36.2162 23.1156,36.1683 23.2353,36.1683 L35.2706,36.1683 Z M35.2706,34.6543 L23.2353,34.6543 C22.9784,34.6543 22.7241,34.7052 22.4868,34.8041 C22.2496,34.903 22.034,35.048 21.8524,35.2308 C21.6708,35.4136 21.5267,35.6305 21.4284,35.8693 C21.3301,36.1081 21.2795,36.3641 21.2795,36.6225 L21.2795,38.9844 C21.2795,39.2429 21.3301,39.4988 21.4284,39.7376 C21.5267,39.9764 21.6708,40.1934 21.8524,40.3762 C22.034,40.559 22.2496,40.7039 22.4868,40.8029 C22.7241,40.9018 22.9784,40.9527 23.2353,40.9527 L35.2706,40.9527 C35.7892,40.9527 36.2867,40.7453 36.6535,40.3762 C37.0202,40.0071 37.2263,39.5064 37.2263,38.9844 L37.2263,36.6225 C37.2185,36.103 37.01,35.6069 36.6449,35.2394 C36.2798,34.872 35.7868,34.6621 35.2706,34.6543 Z" id="Shape" fill="#3265B1"></path>
            <path d="M56.7534,25.8433 C57.0059,24.3399 57.0059,22.8046 56.7534,21.3012 C56.5081,20.7551 56.1892,20.2457 55.8057,19.7872 C54.927,18.1934 53.9208,16.6743 52.7968,15.2451 C52.6614,15.0937 52.2402,14.7303 52.3455,14.5638 C52.4508,14.3972 53.1729,14.6698 53.6092,14.7909 C55.1136,15.1997 57.8065,13.2768 57.6561,11.672 C57.4154,9.2344 51.9694,10.7787 51.8039,13.0649 C51.0969,11.1875 50.45,9.4615 49.6075,7.7355 C48.9327,5.9815 47.994,4.3423 46.8243,2.8754 C45.019,1.0586 41.8447,0.7861 38.7757,0.4681 C33.8455,0.0012 28.8887,-0.1152 23.9423,0.1199 C22.4378,0.1199 20.9334,0.3622 19.429,0.5287 C16.4202,0.8315 13.607,1.1494 11.907,2.8754 C11.3211,3.5667 10.8163,4.3237 10.4026,5.1314 C9.2077,7.1957 8.2007,9.3646 7.3938,11.6114 C7.2989,12.0908 7.1152,12.548 6.8522,12.9589 C6.6115,10.597 1.2257,9.2798 1,11.4751 C0.8496,13.1254 3.3018,15.1391 4.8814,14.7303 C5.4832,14.5941 5.9194,14.0944 6.3858,14.4578 C5.6609,15.7611 4.8675,17.0246 4.0088,18.2429 C3.1452,19.1118 2.4557,20.1399 1.9779,21.2709 C1.8384,22.0501 1.808,22.8452 1.8876,23.6328 C2.008,26.0099 2.2938,27.0243 2.4292,29.159 C2.4699,29.7384 2.5452,30.3148 2.6549,30.885 C2.6549,31.7329 2.7301,32.5505 2.7903,33.4135 C2.8504,34.2765 2.8655,34.9275 2.9257,35.9116 C3.0009,37.0774 2.8354,40.4537 3.6929,40.8322 C4.5406,40.9614 5.4027,40.9614 6.2504,40.8322 C7.1187,40.9545 7.9997,40.9545 8.8681,40.8322 C9.4548,40.59 9.4247,39.0911 9.4849,38.3492 L9.4849,37.5922 C10.5681,37.7739 11.7716,37.8042 13.0202,37.895 C15.8937,38.107 19.0379,38.2887 22.2272,38.3492 C22.3777,37.7588 21.9414,36.1539 22.4529,35.8208 C23.0005,35.6963 23.565,35.6656 24.1228,35.7299 L32.8785,35.7299 C33.7961,35.7299 35.8873,35.5028 36.3085,35.8662 C36.7297,36.2296 36.3085,37.7133 36.489,38.3492 C39.6483,38.2735 42.7474,38.1221 45.696,37.895 C46.9597,37.8042 48.1332,37.7739 49.2013,37.5922 C49.2013,38.9397 49.2013,40.378 50.0137,40.8322 C50.8505,40.8788 51.6892,40.8788 52.526,40.8322 C53.364,40.9559 54.2155,40.9559 55.0534,40.8322 C55.6251,40.6203 55.6853,39.1819 55.7154,38.3946 C55.8508,35.8359 56.0012,33.1561 56.1216,30.8245 L56.7534,25.8433 Z M12.6592,27.6299 C10.4026,27.6299 5.8893,25.2377 5.8893,22.9818 C5.8893,20.7259 10.4026,20.7864 12.6592,20.7864 C14.9158,20.7864 18.0751,22.0734 18.0751,24.3444 C18.0751,26.6155 14.9008,27.6299 12.6592,27.6299 Z M32.713,27.5088 C32.715,27.5458 32.7095,27.5829 32.6968,27.6177 C32.6841,27.6525 32.6645,27.6844 32.6392,27.7113 C32.6138,27.7383 32.5833,27.7597 32.5494,27.7743 C32.5155,27.789 32.479,27.7965 32.4422,27.7964 L25.8679,27.7964 C25.8298,27.7986 25.7917,27.7927 25.756,27.779 C25.7203,27.7653 25.6879,27.7442 25.6609,27.717 C25.6339,27.6899 25.613,27.6573 25.5994,27.6214 C25.5858,27.5855 25.5799,27.5471 25.5821,27.5088 L25.5821,27.3422 C25.582,27.3051 25.5895,27.2684 25.604,27.2343 C25.6186,27.2002 25.6399,27.1695 25.6666,27.1439 C25.6934,27.1184 25.725,27.0987 25.7596,27.0859 C25.7943,27.0731 25.8311,27.0676 25.8679,27.0697 L32.4422,27.0697 C32.514,27.0697 32.5829,27.0984 32.6336,27.1495 C32.6844,27.2006 32.713,27.2699 32.713,27.3422 L32.713,27.5088 Z M8.6424,14.0944 C9.9502,10.3287 11.7676,6.7624 14.0432,3.4962 C24.2534,2.4817 34.5381,2.4817 44.7482,3.4962 C47.0308,6.749 48.8299,10.3192 50.0889,14.0944 C36.3536,14.2155 22.3476,14.2155 8.6274,14.0944 L8.6424,14.0944 Z M40.3704,24.299 C40.3704,22.028 43.5447,20.741 45.8013,20.741 C48.0579,20.741 52.5712,20.741 52.5712,22.9364 C52.5712,25.1317 48.0579,27.5845 45.8013,27.5845 C43.5447,27.5845 40.3554,26.5549 40.3554,24.299 L40.3704,24.299 Z" id="Shape" fill="#3265B1"></path>
            <path d="M88,25.2229 C88.003,25.0549 87.973,24.8879 87.911,24.7319 C87.849,24.5758 87.756,24.4339 87.639,24.3145 L75.4832,11.6269 C75.3374,11.4753 75.1571,11.3616 74.958,11.2957 C74.7588,11.2297 74.5467,11.2135 74.3399,11.2484 L65.509,12.8684 C65.2563,12.913 65.0231,13.0339 64.8404,13.2151 C64.6577,13.3963 64.5341,13.6292 64.486,13.8828 L64.1851,15.7753 L55.7604,12.9441 L55.6702,14.3824 L63.9143,17.1531 L62.786,22.7096 C62.7481,22.9117 62.7584,23.12 62.8159,23.3174 C62.8735,23.5148 62.9766,23.6956 63.117,23.8451 L75.1523,36.3056 C75.3913,36.5414 75.7127,36.6735 76.0474,36.6735 C76.3821,36.6735 76.7035,36.5414 76.9425,36.3056 L87.594,26.0405 C87.738,25.8934 87.85,25.7182 87.925,25.5257 L88,25.2229 Z M76.1151,33.656 L65.3887,22.5885 L66.2763,17.9555 L68.1718,18.5914 C68.1739,18.9647 68.2783,19.3301 68.4734,19.6476 C68.6686,19.965 68.947,20.2221 69.278,20.3905 C69.6089,20.559 69.9797,20.6322 70.3494,20.6023 C70.7191,20.5724 71.0734,20.4403 71.3734,20.2208 C71.6733,20.0012 71.9073,19.7027 72.0495,19.3579 C72.1917,19.0132 72.2367,18.6356 72.1794,18.2668 C72.1222,17.898 71.9649,17.5523 71.725,17.2676 C71.4851,16.983 71.1718,16.7705 70.8196,16.6535 C70.4385,16.524 70.0273,16.514 69.6405,16.6248 C69.2536,16.7357 68.9094,16.9621 68.6532,17.2742 L66.547,16.6535 L66.8178,15.2908 L74.1293,13.9585 L84.931,25.238 L76.1151,33.656 Z" id="Shape" fill="#A6C3EE"></path>
        </g>
    </g>
</svg>