<?xml version="1.0" encoding="UTF-8" standalone="no"?>
<svg width="60px" height="63px" viewBox="0 0 60 63" version="1.1" xmlns="http://www.w3.org/2000/svg" xmlns:xlink="http://www.w3.org/1999/xlink">
    <!-- Generator: Sketch 43.1 (39012) - http://www.bohemiancoding.com/sketch -->
    <title>i006</title>
    <desc>Created with Sketch.</desc>
    <defs></defs>
    <g id="Page-1" stroke="none" stroke-width="1" fill="none" fill-rule="evenodd">
        <g id="i006" transform="translate(-1.000000, 0.000000)" fill-rule="nonzero">
            <path d="M47.305,35.4016 C46.771,34.4393 46.1609,33.5215 45.4807,32.6569 C45.3949,32.56 45.1373,32.3448 45.2124,32.2479 C45.2876,32.151 45.7061,32.3125 45.9744,32.377 C46.908,32.6246 48.5176,31.4406 48.4211,30.4934 C48.2816,29.0188 44.9764,29.9552 44.8798,31.3437 C44.4902,30.2458 44.0461,29.168 43.5491,28.1146 C43.127,27.0773 42.5478,26.1116 41.8321,25.2515 C40.759,24.1751 38.8167,23.9814 36.9602,23.7984 C33.9713,23.515 30.9663,23.443 27.9674,23.5831 C27.0446,23.5831 26.1217,23.7338 25.2203,23.8307 C23.3852,24.0136 21.6897,24.2074 20.6702,25.2515 C20.3105,25.6694 20.0007,26.1282 19.7474,26.6185 C19.0153,27.8589 18.4043,29.1674 17.9231,30.5257 C17.86,30.8156 17.7475,31.0923 17.5904,31.3437 C17.4724,29.8906 14.2101,29.1156 14.0813,30.4396 C14.1511,31.0036 14.4311,31.5202 14.865,31.8856 C15.299,32.251 15.8548,32.4381 16.4207,32.4093 C16.7856,32.3232 17.0538,32.0218 17.3221,32.2479 C16.9358,32.7968 16.3456,33.9808 15.8519,34.5298 C15.3251,35.063 14.9093,35.696 14.6286,36.3919 C14.5341,36.8593 14.5124,37.3386 14.5642,37.8127 C14.6393,39.2443 14.811,39.8578 14.8969,41.1495 C14.9186,41.5111 14.9653,41.8707 15.0364,42.2258 C15.0364,42.7317 15.0364,43.2269 15.1115,43.7543 C15.1866,44.2817 15.1115,44.7123 15.1973,45.2504 C15.1973,45.9609 15.1437,48.0167 15.6588,48.232 C16.1747,48.3078 16.6989,48.3078 17.2148,48.232 C17.7383,48.3025 18.2688,48.3025 18.7923,48.232 C19.1571,48.0813 19.1357,47.1556 19.1679,46.7251 L19.1679,46.273 C19.8225,46.3806 20.5522,46.4022 21.3141,46.456 C22.8594,46.5744 24.5335,46.6605 26.2075,46.7035 L26.2075,47.091 C26.2089,47.271 26.246,47.4489 26.3166,47.6143 C26.3871,47.7797 26.4898,47.9294 26.6187,48.0546 C26.7475,48.1799 26.8999,48.2781 27.067,48.3437 C27.2341,48.4092 27.4125,48.4408 27.5918,48.4365 L34.8354,48.4365 C35.1912,48.4365 35.5323,48.2948 35.7839,48.0424 C36.0355,47.7901 36.1768,47.4479 36.1768,47.091 L36.1768,46.7035 C37.883,46.7035 39.5571,46.5744 41.1561,46.456 C41.918,46.4022 42.6262,46.3806 43.3023,46.273 C43.3023,47.0803 43.3023,47.9521 43.7959,48.232 C44.3035,48.2596 44.8122,48.2596 45.3197,48.232 C45.8284,48.309 46.3457,48.309 46.8543,48.232 C47.1977,48.1028 47.2299,47.231 47.2621,46.7574 C47.3372,45.2182 47.4231,43.5928 47.4982,42.172 L47.8845,39.1474 C48.0398,38.2355 48.0398,37.3038 47.8845,36.3919 C47.7381,36.0365 47.5431,35.7032 47.305,35.4016 Z M21.958,25.5744 C28.1458,24.9662 34.378,24.9662 40.5658,25.5744 C41.9518,27.5554 43.0367,29.7319 43.7852,32.0326 C35.4793,32.108 26.9802,32.108 18.6742,32.0326 C19.4663,29.7381 20.5714,27.5647 21.958,25.5744 Z M28.9654,40.1269 L28.9654,40.0193 L29.1371,39.8578 L33.1184,39.8578 L33.2901,40.0193 L33.2901,40.1269 L33.1184,40.2991 L29.1371,40.2991 L28.9654,40.1269 Z M21.1317,40.1915 C19.7688,40.1915 17.0324,38.7599 17.0324,37.3929 C17.0324,36.0259 19.7688,36.0582 21.1317,36.0582 C22.4945,36.0582 24.4154,36.844 24.4154,38.211 C24.4154,39.578 22.4623,40.1915 21.1317,40.1915 Z M35.0822,47.0588 C35.0822,47.1301 35.0539,47.1986 35.0036,47.249 C34.9533,47.2995 34.8851,47.3278 34.8139,47.3278 L27.5918,47.3278 C27.5197,47.3279 27.4503,47.2999 27.3983,47.2497 C27.3462,47.1995 27.3156,47.1311 27.3128,47.0588 L27.3128,45.6272 C27.3156,45.5548 27.3462,45.4864 27.3983,45.4362 C27.4503,45.386 27.5197,45.358 27.5918,45.3581 L34.8354,45.3581 C34.9065,45.3581 34.9748,45.3864 35.0251,45.4369 C35.0754,45.4874 35.1037,45.5558 35.1037,45.6272 L35.0822,47.0588 Z M41.1882,40.17 C39.8147,40.17 37.8938,39.5457 37.8938,38.1787 C37.8938,36.8117 39.8147,36.0259 41.1882,36.0259 C42.5618,36.0259 45.2876,36.0259 45.2876,37.3499 C45.2876,38.6738 42.5726,40.17 41.2097,40.17 L41.1882,40.17 Z" id="Shape" fill="#3265B1"></path>
            <path d="M48.3569,62.8708 C53.6695,56.9555 57.2917,49.7115 58.8413,41.9031 C59.6277,38.184 60.0233,34.3924 60.0217,30.5905 C60.0469,27.6684 59.8062,24.7501 59.3027,21.8719 L58.1116,16.1456 L52.1021,16.2855 L52.1021,17.3619 L52.1021,16.2855 C49.6995,16.2569 47.3123,15.8947 45.0088,15.2091 C43.3146,14.7275 41.6989,14.0024 40.212,13.0564 C38.6353,12.0493 37.3012,10.7038 36.3058,9.1169 L30.4895,0 L24.6088,9.1599 C23.6103,10.732 22.2807,12.0656 20.7134,13.0671 C18.544,14.4107 16.141,15.331 13.6308,15.7796 C12.0855,16.0817 10.5157,16.2402 8.9413,16.2532 L8.9413,17.3296 L8.9413,16.2532 L2.7923,16.0379 L1.6978,21.8719 C1.2095,24.7554 0.9761,27.6765 1.0002,30.6012 C0.9912,34.4226 1.3723,38.235 2.1377,41.9785 C3.7321,49.8245 7.4186,57.0896 12.8045,63 L14.382,61.5361 C9.2498,55.9086 5.7374,48.9889 4.2196,41.5156 C3.4962,37.923 3.1367,34.2663 3.1465,30.6012 C3.1219,27.8175 3.341,25.037 3.8011,22.2916 L4.6166,18.2983 L8.9628,18.449 C11.5536,18.3924 14.1244,17.9795 16.6034,17.2219 C18.4959,16.68 20.3024,15.8719 21.969,14.8216 C23.7974,13.6481 25.3469,12.0865 26.5082,10.2471 L25.5639,9.6873 L26.4653,10.2686 L30.4895,3.9826 L34.5137,10.2363 L35.4151,9.6873 L34.503,10.2578 C35.6684,12.11 37.2254,13.6827 39.0637,14.8647 C41.4749,16.3758 44.1522,17.4098 46.9511,17.9108 C48.656,18.2403 50.3873,18.4132 52.1236,18.4275 L56.3624,18.2983 L57.1779,22.2916 C57.6677,25.0301 57.9012,27.8084 57.8755,30.5905 C57.8938,34.2382 57.5341,37.8779 56.8023,41.451 C55.3331,48.8827 51.8885,55.7778 46.8331,61.407 L48.4213,62.8601 L48.3569,62.8708 Z" id="Shape" fill="#A6C3EE"></path>
        </g>
    </g>
</svg>