<?xml version="1.0" encoding="UTF-8" standalone="no"?>
<svg width="66px" height="59px" viewBox="0 0 66 59" version="1.1" xmlns="http://www.w3.org/2000/svg" xmlns:xlink="http://www.w3.org/1999/xlink">
    <!-- Generator: Sketch 43.1 (39012) - http://www.bohemiancoding.com/sketch -->
    <title>i007</title>
    <desc>Created with Sketch.</desc>
    <defs></defs>
    <g id="Page-1" stroke="none" stroke-width="1" fill="none" fill-rule="evenodd">
        <g id="i007" fill-rule="nonzero">
            <path d="M34.2771,54.1664 C34.3956,54.1702 34.5083,54.2192 34.5921,54.3036 C34.6759,54.388 34.7247,54.5013 34.7285,54.6206 L34.7285,56.9825 C34.7285,57.1029 34.6809,57.2185 34.5963,57.3037 C34.5116,57.3888 34.3968,57.4367 34.2771,57.4367 L22.2419,57.4367 C22.182,57.4388 22.1224,57.4285 22.0667,57.4064 C22.011,57.3843 21.9604,57.351 21.9181,57.3084 C21.8757,57.2658 21.8426,57.2148 21.8206,57.1588 C21.7987,57.1027 21.7884,57.0427 21.7905,56.9825 L21.7905,54.6206 C21.7905,54.5001 21.8381,54.3846 21.9227,54.2994 C22.0074,54.2142 22.1222,54.1664 22.2419,54.1664 L34.2771,54.1664 Z M34.2771,52.6523 L22.2419,52.6523 C21.985,52.6523 21.7307,52.7033 21.4934,52.8022 C21.2562,52.9011 21.0406,53.0461 20.859,53.2288 C20.6773,53.4116 20.5333,53.6286 20.435,53.8674 C20.3367,54.1062 20.2861,54.3621 20.2861,54.6206 L20.2861,56.9825 C20.2861,57.241 20.3367,57.4969 20.435,57.7357 C20.5333,57.9745 20.6773,58.1915 20.859,58.3742 C21.0406,58.557 21.2562,58.702 21.4934,58.8009 C21.7307,58.8998 21.985,58.9507 22.2419,58.9507 L34.2771,58.9507 C34.7958,58.9507 35.2933,58.7434 35.6601,58.3742 C36.0268,58.0051 36.2329,57.5045 36.2329,56.9825 L36.2329,54.6206 C36.2251,54.101 36.0166,53.6049 35.6515,53.2375 C35.2864,52.87 34.7934,52.6602 34.2771,52.6523 Z" id="Shape" fill="#3265B1"></path>
            <path d="M55.76,43.8414 C56.0125,42.338 56.0125,40.8026 55.76,39.2993 C55.5147,38.7532 55.1958,38.2437 54.8122,37.7852 C53.9336,36.1914 52.9273,34.6724 51.8034,33.2431 C51.668,33.0917 51.2468,32.7284 51.3521,32.5618 C51.4574,32.3953 52.1795,32.6678 52.6158,32.7889 C54.1202,33.1977 56.8131,31.2749 56.6627,29.67 C56.422,27.2324 50.976,28.7767 50.8105,31.0629 C50.1034,29.1855 49.4565,27.4595 48.6141,25.7335 C47.9393,23.9795 47.0006,22.3404 45.8309,20.8735 C44.0256,19.0567 40.8513,18.7841 37.7823,18.4662 C32.8521,17.9993 27.8953,17.8829 22.9489,18.118 C21.4444,18.118 19.94,18.3602 18.4356,18.5267 C15.4268,18.8295 12.6136,19.1475 10.9136,20.8735 C10.3276,21.5648 9.8228,22.3218 9.4092,23.1294 C8.2143,25.1938 7.2073,27.3626 6.4003,29.6095 C6.3055,30.0889 6.1218,30.546 5.8588,30.9569 C5.6181,28.5951 0.2323,27.2778 0.0066,29.4732 C-0.1438,31.1235 2.3084,33.1372 3.888,32.7284 C4.4897,32.5921 4.926,32.0925 5.3924,32.4558 C4.6675,33.7592 3.8741,35.0227 3.0154,36.2409 C2.1518,37.1099 1.4623,38.1379 0.9845,39.269 C0.845,40.0482 0.8146,40.8432 0.8942,41.6309 C1.0146,44.0079 1.3004,45.0223 1.4358,47.1571 C1.4765,47.7365 1.5518,48.3128 1.6615,48.8831 C1.6615,49.7309 1.7367,50.5485 1.7969,51.4115 C1.857,52.2745 1.8721,52.9256 1.9323,53.9097 C2.0075,55.0755 1.842,58.4518 2.6995,58.8303 C3.5472,58.9594 4.4093,58.9594 5.257,58.8303 C6.1253,58.9525 7.0063,58.9525 7.8747,58.8303 C8.4614,58.588 8.4313,57.0891 8.4915,56.3473 L8.4915,55.5903 C9.5747,55.7719 10.7782,55.8022 12.0268,55.8931 C14.9003,56.105 18.0445,56.2867 21.2338,56.3473 C21.3843,55.7568 20.948,54.1519 21.4595,53.8188 C22.0071,53.6943 22.5716,53.6636 23.1294,53.728 L31.885,53.728 C32.8027,53.728 34.8939,53.5009 35.3151,53.8643 C35.7363,54.2276 35.3151,55.7114 35.4956,56.3473 C38.6549,56.2716 41.754,56.1202 44.7026,55.8931 C45.9663,55.8022 47.1398,55.7719 48.2079,55.5903 C48.2079,56.9377 48.2079,58.3761 49.0203,58.8303 C49.8571,58.8768 50.6958,58.8768 51.5326,58.8303 C52.3706,58.9539 53.222,58.9539 54.06,58.8303 C54.6317,58.6183 54.6919,57.18 54.722,56.3927 C54.8574,53.834 55.0078,51.1541 55.1282,48.8225 L55.76,43.8414 Z M11.6658,45.6279 C9.4092,45.6279 4.8959,43.2358 4.8959,40.9798 C4.8959,38.7239 9.4092,38.7845 11.6658,38.7845 C13.9224,38.7845 17.0817,40.0714 17.0817,42.3425 C17.0817,44.6135 13.9074,45.6279 11.6658,45.6279 Z M31.7196,45.5068 C31.7216,45.5438 31.7161,45.5809 31.7034,45.6157 C31.6907,45.6506 31.6711,45.6824 31.6458,45.7094 C31.6204,45.7363 31.5899,45.7577 31.556,45.7724 C31.5221,45.787 31.4856,45.7945 31.4488,45.7945 L24.8745,45.7945 C24.8364,45.7967 24.7982,45.7907 24.7626,45.777 C24.7269,45.7634 24.6945,45.7423 24.6675,45.7151 C24.6405,45.6879 24.6196,45.6553 24.606,45.6194 C24.5924,45.5835 24.5865,45.5451 24.5887,45.5068 L24.5887,45.3403 C24.5886,45.3032 24.5961,45.2664 24.6106,45.2323 C24.6252,45.1982 24.6465,45.1675 24.6732,45.142 C24.7,45.1165 24.7316,45.0967 24.7662,45.084 C24.8009,45.0712 24.8377,45.0657 24.8745,45.0677 L31.4488,45.0677 C31.5206,45.0677 31.5895,45.0964 31.6402,45.1475 C31.691,45.1987 31.7196,45.268 31.7196,45.3403 L31.7196,45.5068 Z M7.649,32.0925 C8.9568,28.3268 10.7742,24.7605 13.0498,21.4942 C23.26,20.4798 33.5447,20.4798 43.7548,21.4942 C46.0374,24.747 47.8365,28.3173 49.0955,32.0925 C35.3602,32.2136 21.3542,32.2136 7.634,32.0925 L7.649,32.0925 Z M39.377,42.297 C39.377,40.026 42.5513,38.7391 44.8079,38.7391 C47.0645,38.7391 51.5778,38.7391 51.5778,40.9344 C51.5778,43.1298 47.0645,45.5825 44.8079,45.5825 C42.5513,45.5825 39.362,44.553 39.362,42.297 L39.377,42.297 Z" id="Shape" fill="#3265B1"></path>
            <path d="M52.1127,12.2855 L57.2752,3.1793 L62.4227,12.2591 L62.4226,12.2592 L62.4281,12.2683 C62.9903,13.2127 63.2814,14.2753 63.2814,15.3576 C63.2814,16.1696 63.1226,16.9564 62.8099,17.6958 L62.8097,17.6961 C62.5078,18.4115 62.0748,19.0541 61.5225,19.6054 L61.5219,19.606 C60.9694,20.1595 60.3277,20.5925 59.6127,20.8954 C58.8742,21.2082 58.0884,21.3662 57.2751,21.3662 C56.4618,21.3662 55.6761,21.2082 54.9379,20.8954 L54.9378,20.8954 C54.2226,20.5925 53.5808,20.1595 53.0283,19.606 L53.0279,19.6056 C52.4754,19.0534 52.0425,18.4114 51.7406,17.6956 L51.7404,17.695 C51.4277,16.9564 51.2688,16.1696 51.2688,15.3576 C51.2688,14.2769 51.5592,13.2176 52.1076,12.2943 L52.1077,12.2943 L52.1127,12.2855 Z M63.9617,11.3858 L58.0544,0.9667 C57.8988,0.6805 57.6032,0.5 57.2752,0.5 C56.9512,0.5 56.6536,0.6768 56.4987,0.9612 L50.5863,11.3905 C49.8748,12.5908 49.5,13.9603 49.5,15.3576 C49.5,19.6468 52.9871,23.1368 57.2752,23.1368 C61.5633,23.1368 65.0504,19.6468 65.0504,15.3576 C65.0504,13.9576 64.6739,12.5854 63.9617,11.3858 Z" id="Shape" stroke="#A6C3EE" fill="#A6C3EE"></path>
            <path d="M57.6967,18.9593 L57.6735,18.9593 C56.6042,18.9586 55.5995,18.5427 54.8448,17.7866 C54.0891,17.0319 53.6728,16.0262 53.6728,14.9572 C53.6728,14.7446 53.5004,14.5723 53.2885,14.5723 C53.0762,14.5723 52.9038,14.7446 52.9038,14.9572 C52.9038,17.5878 55.0435,19.7292 57.6735,19.7292 L57.6759,19.7292 C57.8881,19.7292 58.0605,19.5562 58.0605,19.3436 C58.0605,19.1389 57.899,18.9699 57.6967,18.9593 Z" id="Shape" stroke="#A6C3EE" fill="#A6C3EE"></path>
        </g>
    </g>
</svg>