<?xml version="1.0" encoding="UTF-8" standalone="no"?>
<svg width="94px" height="69px" viewBox="0 0 94 69" version="1.1" xmlns="http://www.w3.org/2000/svg" xmlns:xlink="http://www.w3.org/1999/xlink">
    <!-- Generator: Sketch 43.1 (39012) - http://www.bohemiancoding.com/sketch -->
    <title>i008</title>
    <desc>Created with Sketch.</desc>
    <defs></defs>
    <g id="Page-1" stroke="none" stroke-width="1" fill="none" fill-rule="evenodd">
        <g id="i008">
            <path d="M39.4937,32.6519 C31.7457,32.9195 19.6172,33.4928 19.6172,33.4928 C16.1456,33.8641 11.4418,34.3881 11.1037,34.4994 C10.8129,34.5951 12.039,35.4413 12.2479,35.5603 C8.9791,37.3519 5.9633,39.5727 3.2804,42.164 C2.18155,43.6505 1.66946,45.4918 1.84245,47.3342 L1.98311,50.3669 C1.98311,50.3669 1.97471,50.3746 1.95918,50.3856 C1.79719,50.5005 0.86766,51.1602 0.87128,53.1136 L0.94559,54.7157 C0.93911,54.9799 1.00978,55.2402 1.1489,55.4647 C1.28802,55.6892 1.48954,55.868 1.72866,55.9792 C1.72953,55.9979 1.73034,56.0216 1.73131,56.05 C1.75112,56.6297 1.83667,59.1339 3.8009,59.5531 C4.3193,59.6845 4.8594,59.705 5.3861,59.6133 C5.4157,58.7593 5.5231,57.9098 5.7069,57.0754 C5.8899,56.1936 6.2109,55.3465 6.6581,54.5655 C9.0932,50.3429 14.8876,48.2583 20.5612,52.2003 C21.5611,53.2955 22.3109,54.596 22.7585,56.0112 C23.2061,57.4264 23.3407,58.9224 23.1528,60.3949 L40.7427,59.5791 L39.9895,43.3402 C39.2776,43.3178 38.8415,43.2827 38.7908,43.2312 C38.4306,42.8656 36.819,34.0139 36.819,34.0139 C36.819,34.0139 37.9468,33.9926 39.5559,33.9934 L39.4937,32.6519 Z M10.1206,41.2541 C8.9571,42.4741 9.7928,43.6395 10.5537,43.6043 L10.6108,43.6016 C11.0501,43.6195 14.8014,43.5219 14.9129,43.4594 C17.1883,39.4928 20.2256,34.688 20.2256,34.688 C18.3517,34.9582 16.5762,35.698 15.0634,36.8388 C13.2794,38.1496 11.6244,39.6281 10.1206,41.2541 Z M21.3613,34.922 C19.5556,37.6585 17.9427,40.518 16.5344,43.4798 L16.5914,43.4771 C16.6003,43.6679 35.3947,43.1784 35.3947,43.1784 L34.6887,34.5332 C34.6551,33.8084 33.6849,33.8534 33.6849,33.8534 L22.2704,34.3829 C22.0848,34.3839 21.9028,34.4343 21.7431,34.5291 C21.5833,34.6238 21.4515,34.7594 21.3613,34.922 Z" id="Shape" fill="#3265B1"></path>
            <path d="M13.3339,58.0721 C13.5856,57.7952 13.9368,57.6298 14.3101,57.6125 C14.6835,57.5952 15.0485,57.7273 15.3248,57.9797 C15.601,58.2322 15.766,58.5843 15.7834,58.9587 C15.8007,59.333 15.6691,59.6989 15.4173,59.9758 C15.1656,60.2528 14.8144,60.4181 14.4411,60.4354 C14.0677,60.4527 13.7027,60.3206 13.4264,60.0682 C13.1502,59.8157 12.9852,59.4636 12.9678,59.0892 C12.9505,58.7149 13.0821,58.349 13.3339,58.0721 Z" id="Shape" fill="#3265B1" fill-rule="nonzero"></path>
            <path d="M10.2381,53.3999 C11.3475,52.5798 12.6747,52.1079 14.0518,52.044 C14.9662,52.0016 15.88,52.1402 16.741,52.4518 C17.6021,52.7635 18.3935,53.2421 19.0701,53.8603 C19.7467,54.4786 20.2953,55.2243 20.6845,56.0551 C21.0737,56.8858 21.2959,57.7852 21.3384,58.7019 C21.4025,60.0826 21.0567,61.4512 20.3449,62.6347 C19.633,63.8182 18.5871,64.7634 17.3393,65.3508 C16.0915,65.9382 14.698,66.1413 13.3348,65.9346 C11.9717,65.7279 10.7002,65.1206 9.6811,64.1895 C8.6621,63.2583 7.9412,62.0452 7.6098,60.7035 C7.2783,59.3618 7.3511,57.9518 7.8189,56.6518 C8.2868,55.3518 9.1286,54.2201 10.2381,53.3999 Z M12.0317,62.8397 C12.7994,63.304 13.6871,63.5296 14.5826,63.4881 L14.5862,63.5644 C15.1864,63.534 15.7746,63.3849 16.317,63.1254 C16.8593,62.866 17.345,62.5014 17.746,62.0528 C18.1471,61.6041 18.4555,61.0803 18.6535,60.5114 C18.8516,59.9426 18.9353,59.3401 18.8998,58.7386 C18.8582,57.8408 18.5519,56.9754 18.0198,56.252 C17.4876,55.5286 16.7535,54.9795 15.9102,54.6743 C15.067,54.3691 14.1524,54.3214 13.2823,54.5373 C12.4121,54.7532 11.6254,55.223 11.0216,55.8872 C10.4178,56.5514 10.0241,57.3803 9.8903,58.269 C9.7564,59.1576 9.8884,60.0662 10.2696,60.8798 C10.6507,61.6934 11.264,62.3754 12.0317,62.8397 Z" id="Shape" fill="#3265B1"></path>
            <path d="M44.5905,59.7826 L66.8312,62.3183 C66.1561,54.2853 75.6799,48.7602 82.9182,55.7159 C84.3349,57.9031 84.882,60.5437 84.4513,63.1165 C86.281,63.3434 88.1212,63.4763 89.9646,63.5145 C90.0118,63.5033 90.0742,63.4937 90.1487,63.4821 C90.8513,63.3735 92.6326,63.0979 92.9587,59.7817 C93.093,59.3474 93.183,58.9004 93.226,58.4477 L93.423,56.7214 C93.423,56.7214 93.513,55.9246 93.1,55.6853 C92.8826,54.435 92.3579,53.259 91.5732,52.2634 C91.4751,52.219 91.4031,52.1192 91.2977,51.9732 C90.8552,51.3601 89.8242,49.9316 83.7953,48.3595 L72.3508,45.3443 C71.2585,45.0676 70.2044,44.657 69.2125,44.1217 C68.8902,43.8814 68.1074,43.2558 67.0653,42.4231 C64.5659,40.4258 60.5753,37.2369 57.8725,35.3147 C57.8725,35.3147 57.2232,34.4528 53.2566,33.7699 C52.2682,33.5998 50.197,33.3217 47.644,33 L47.4919,34.3343 C48.9584,34.5716 50.8268,34.8927 52.5894,35.2505 C54.4029,35.4761 56.1269,36.1692 57.5929,37.2623 C60.4504,39.6655 63.1657,42.2338 65.7249,44.954 C66.778,46.477 65.4172,46.4756 65.1712,46.4475 C65.1712,46.4475 50.6976,44.4569 46.432,43.6309 L44.5905,59.7826 Z" id="Shape" fill="#3265B1" fill-rule="nonzero"></path>
            <path d="M75.6875,60.1183 C75.4106,60.0867 75.1305,60.1382 74.8826,60.2662 C74.6348,60.3942 74.4303,60.593 74.2951,60.8374 C74.1599,61.0819 74.1,61.361 74.1229,61.6395 C74.1459,61.9179 74.2508,62.1833 74.4242,62.4019 C74.5976,62.6206 74.8319,62.7828 75.0973,62.8679 C75.3628,62.953 75.6475,62.9573 75.9155,62.8802 C76.1834,62.8032 76.4226,62.6482 76.6028,62.4348 C76.783,62.2215 76.8961,61.9595 76.9277,61.6818 C76.9702,61.3095 76.8633,60.9356 76.6308,60.6424 C76.3982,60.3492 76.0589,60.1606 75.6875,60.1183 Z" id="Shape" fill="#3265B1" fill-rule="nonzero"></path>
            <path d="M72.3378,55.3112 C73.5636,54.6781 74.949,54.4235 76.3187,54.5797 C78.1555,54.7891 79.8336,55.7214 80.9839,57.1717 C82.1342,58.6219 82.6625,60.4711 82.4525,62.3126 C82.296,63.6859 81.7367,64.982 80.8456,66.0371 C79.9544,67.0922 78.7714,67.8588 77.446,68.2401 C76.1206,68.6213 74.7125,68.6001 73.3996,68.179 C72.0867,67.7579 70.9282,66.9559 70.0703,65.8745 C69.2125,64.793 68.694,63.4806 68.5803,62.1032 C68.4667,60.7259 68.763,59.3454 69.4318,58.1365 C70.1006,56.9275 71.1119,55.9443 72.3378,55.3112 Z M72.6058,64.9161 C73.2898,65.4966 74.1303,65.8607 75.021,65.9623 L75.0123,66.0382 C75.6097,66.1038 76.2142,66.0501 76.7909,65.8803 C77.3677,65.7105 77.9052,65.428 78.3725,65.0489 C78.8399,64.6698 79.2278,64.2017 79.5138,63.6717 C79.7999,63.1416 79.9784,62.5601 80.0392,61.9606 C80.141,61.0676 79.9764,60.1646 79.5662,59.3656 C79.156,58.5667 78.5187,57.9078 77.7347,57.4723 C76.9508,57.0367 76.0555,56.844 75.1621,56.9187 C74.2686,56.9933 73.4172,57.3318 72.7154,57.8915 C72.0136,58.4511 71.4929,59.2067 71.2193,60.0627 C70.9457,60.9188 70.9314,61.8368 71.1782,62.7007 C71.4249,63.5646 71.9218,64.3355 72.6058,64.9161 Z" id="Shape" fill="#3265B1"></path>
            <path d="M55.2732,13.5904 C55.2557,13.4328 55.2382,13.2753 55.209,13.1178 C55.7107,13.077 56.5391,13.1003 56.9999,13.6195 C56.9591,13.497 56.2357,11.5545 54.7773,11.2219 C54.7307,11.0703 54.684,10.9186 54.6257,10.7728 C55.1157,10.6327 55.9324,10.4928 56.4807,10.9186 C56.4807,10.9186 55.3665,9.0344 53.8323,8.9935 C53.7507,8.8535 53.6748,8.7194 53.5931,8.5852 C54.0423,8.3519 54.8182,8.0543 55.4365,8.3577 C55.3549,8.2702 53.9315,6.736 52.4614,6.9985 C52.3623,6.876 52.2573,6.7535 52.1523,6.6426 C52.5489,6.3218 53.249,5.8784 53.9198,6.0651 C53.9198,6.0651 52.1698,4.7467 50.7347,5.3068 C50.6122,5.2018 50.4839,5.1084 50.3614,5.0092 C50.6822,4.6301 51.2889,4.0525 51.9831,4.105 C51.9831,4.105 50.0114,3.1542 48.7105,3.9767 C48.5705,3.9067 48.4246,3.8367 48.2846,3.7667 C48.5296,3.3234 49.008,2.6408 49.7022,2.5592 C49.7022,2.5592 47.5788,2.0166 46.4646,3.0784 C46.3129,3.0317 46.1612,2.9908 46.0037,2.95 C46.1612,2.4658 46.4996,1.7075 47.1588,1.4858 C47.1588,1.4858 44.9712,1.3691 44.0845,2.6292 C43.927,2.6175 43.7695,2.6058 43.612,2.5942 C43.6703,2.0983 43.8512,1.2816 44.4579,0.9374 C44.4579,0.9374 42.2878,1.2466 41.6636,2.6525 C41.5119,2.67 41.3544,2.6933 41.1969,2.7108 C41.1561,2.215 41.1736,1.3866 41.6928,0.9258 C41.5703,0.9666 39.6277,1.69 39.2952,3.1484 C39.1493,3.195 38.9977,3.2475 38.846,3.3 C38.706,2.8158 38.566,1.9933 38.9918,1.445 C38.9918,1.445 37.1076,2.5592 37.0726,4.0934 C36.9326,4.1692 36.7984,4.2509 36.6584,4.3326 C36.4251,3.8834 36.1276,3.1075 36.4368,2.4892 C36.3493,2.5708 34.815,3.9942 35.0717,5.4643 C34.955,5.5693 34.8325,5.6684 34.7159,5.7734 C34.4009,5.3768 33.9575,4.6709 34.1442,4.0059 C34.1442,4.0059 32.8258,5.7559 33.3799,7.191 C33.2808,7.3135 33.1816,7.4418 33.0883,7.5643 C32.7033,7.2435 32.1316,6.631 32.1841,5.9426 C32.1841,5.9426 31.2332,7.9143 32.0557,9.2152 C31.9799,9.3552 31.9157,9.4952 31.8457,9.6411 C31.4024,9.3961 30.7198,8.9176 30.6382,8.2235 C30.6382,8.2235 30.0898,10.3469 31.1515,11.4611 C31.1049,11.6127 31.064,11.7644 31.029,11.9161 C30.5449,11.7645 29.7865,11.4261 29.5649,10.7669 C29.5649,10.7669 29.4482,12.9545 30.7082,13.8412 C30.6907,13.9987 30.6791,14.1562 30.6732,14.3137 C30.1716,14.2554 29.3549,14.0687 29.0165,13.4678 C29.0165,13.4678 29.3199,15.6321 30.7316,16.2563 C30.7491,16.4138 30.7666,16.5713 30.7899,16.7288 C30.2882,16.7696 29.4599,16.7521 28.999,16.2329 C29.0399,16.3496 29.769,18.298 31.2216,18.6247 C31.2683,18.7764 31.3208,18.928 31.3733,19.0739 C30.8891,19.2139 30.0666,19.3539 29.5182,18.928 C29.5182,18.928 30.6382,20.8123 32.1725,20.8531 C32.2483,20.9931 32.33,21.1273 32.4058,21.2614 C31.9625,21.4948 31.1866,21.7923 30.5682,21.4889 C30.6441,21.5764 32.0674,23.1107 33.5433,22.8482 C33.6425,22.9707 33.7417,23.0932 33.8467,23.204 C33.4558,23.5248 32.75,23.9682 32.0791,23.7815 C32.0791,23.7815 33.8292,25.0999 35.2701,24.5457 C35.3926,24.639 35.5151,24.744 35.6434,24.8315 C35.3167,25.2224 34.71,25.7941 34.0217,25.7416 C34.0217,25.7416 35.9934,26.6924 37.2943,25.8699 C37.4343,25.9399 37.5743,26.0099 37.7201,26.0799 C37.4751,26.5233 36.9909,27.2058 36.3026,27.2875 C36.3026,27.2875 38.4202,27.83 39.5402,26.7741 C39.686,26.8149 39.8435,26.8616 39.9952,26.8966 C39.8435,27.3808 39.5052,28.1392 38.846,28.3608 C38.846,28.3608 41.0336,28.4775 41.9203,27.2175 C42.0719,27.235 42.2294,27.2408 42.387,27.2525 C42.3345,27.7542 42.1478,28.5708 41.5469,28.9092 C41.5469,28.9092 43.7112,28.6059 44.3353,27.1942 C44.4929,27.1767 44.6504,27.1592 44.8079,27.1358 C44.8487,27.6317 44.8254,28.4659 44.3062,28.9267 C44.4229,28.8801 46.3712,28.1567 46.7038,26.7042 C46.8554,26.6517 47.0013,26.605 47.1529,26.5467 C47.2929,27.0308 47.4329,27.8592 47.0071,28.4017 C47.0071,28.4017 48.8913,27.2875 48.9263,25.7533 C49.0663,25.6775 49.2063,25.5958 49.3405,25.5141 C49.5738,25.9633 49.8714,26.7392 49.5622,27.3575 C49.6555,27.2758 51.1839,25.8525 50.9272,24.3824 C51.0497,24.2833 51.1664,24.1782 51.2831,24.0732 C51.6039,24.4699 52.0414,25.1758 51.8606,25.8466 C51.8606,25.8466 53.179,24.0907 52.619,22.6557 C52.7182,22.5332 52.8173,22.4107 52.9107,22.2824 C53.2957,22.609 53.8732,23.2157 53.8207,23.9041 C53.8207,23.9041 54.7657,21.9323 53.9432,20.6315 C54.0191,20.4915 54.0891,20.3515 54.1591,20.2056 C54.6024,20.4506 55.2791,20.9348 55.3666,21.6232 C55.3666,21.6232 55.9092,19.4998 54.8474,18.3856 C54.8882,18.2339 54.9349,18.0822 54.9757,17.9305 C55.4541,18.0822 56.2183,18.4206 56.4341,19.0798 C56.4341,19.0798 56.5566,16.8922 55.2966,16.0055 C55.3083,15.848 55.3199,15.6905 55.3316,15.5388 C55.8274,15.5913 56.6441,15.778 56.9883,16.3788 C56.9883,16.3788 56.6791,14.2145 55.2732,13.5904 Z M42.9995,25.6774 C37.0609,25.6774 32.2425,20.8648 32.2425,14.9262 C32.2425,8.9819 37.0609,4.1692 42.9995,4.1692 C48.938,4.1692 53.7565,8.9819 53.7565,14.9262 C53.7565,20.8648 48.938,25.6774 42.9995,25.6774 Z" id="Shape" fill="#A6C3EE" fill-rule="nonzero"></path>
            <path d="M42.9999,5.9199 C38.0355,5.9199 33.9929,9.9567 33.9929,14.9269 C33.9929,19.8911 38.0355,23.928 42.9999,23.928 C47.9641,23.928 52.0068,19.8912 52.0068,14.9269 C52.0068,9.9567 47.9641,5.9199 42.9999,5.9199 Z M42.9999,18.5028 C41.0281,18.5028 39.4239,16.8986 39.4239,14.9269 C39.4239,12.9551 41.0281,11.3451 42.9999,11.3451 C44.9716,11.3451 46.5758,12.9551 46.5758,14.9269 C46.5758,16.8986 44.9716,18.5028 42.9999,18.5028 Z" id="Shape" fill="#A6C3EE" fill-rule="nonzero"></path>
        </g>
    </g>
</svg>