<svg xmlns="http://www.w3.org/2000/svg" xmlns:xlink="http://www.w3.org/1999/xlink" viewBox="0 0 32 32"><defs><style>.cls-1{fill:#1b2029;opacity:0;}.cls-2{fill:#a1afb2;}.cls-3{fill:none;stroke:#a1afb2;stroke-miterlimit:10;}.cls-4{fill:#f2f3f3;}</style><symbol id="Новый_символ_2" data-name="Новый символ 2" viewBox="0 0 24 24"><g id="_Group_" data-name="&lt;Group&gt;"><rect class="cls-1" width="24" height="24"/></g><path class="cls-2" d="M16,6a1,1,0,1,1-1,1,1,1,0,0,1,1-1m0-1a2,2,0,1,0,2,2,2,2,0,0,0-2-2Z"/><path class="cls-2" d="M16,16a1,1,0,1,1-1,1,1,1,0,0,1,1-1m0-1a2,2,0,1,0,2,2,2,2,0,0,0-2-2Z"/><path class="cls-2" d="M7,11a1,1,0,1,1-1,1,1,1,0,0,1,1-1m0-1a2,2,0,1,0,2,2,2,2,0,0,0-2-2Z"/><line class="cls-3" x1="13" y1="8" x2="9" y2="10"/><line class="cls-3" x1="13" y1="16" x2="9" y2="14"/></symbol></defs><title>share-icon</title><g id="Layer_2" data-name="Layer 2"><g id="Site"><path class="cls-4" d="M31,1V31H1V1H31m1-1H0V32H32V0Z"/><use id="Новый_символ_2-3" data-name="Новый символ 2" width="24" height="24" transform="translate(4 4)" xlink:href="#Новый_символ_2"/></g></g></svg>