<?xml version="1.0" encoding="UTF-8" standalone="no"?>
<svg width="1284px" height="386px" viewBox="0 0 1284 386" version="1.1" xmlns="http://www.w3.org/2000/svg" xmlns:xlink="http://www.w3.org/1999/xlink">
    <!-- Generator: Sketch 43.1 (39012) - http://www.bohemiancoding.com/sketch -->
    <title>Combined Shape</title>
    <desc>Created with Sketch.</desc>
    <defs></defs>
    <g id="Page-1" stroke="none" stroke-width="1" fill="none" fill-rule="evenodd">
        <path d="M989.923,354.375 L1018.744,354.375 L1018.744,307.873 L989.923,307.873 L989.923,354.375 Z M748.36,354.375 L777.2,354.375 L777.2,307.873 L748.36,307.873 L748.36,354.375 Z M627.587,354.375 L656.43,354.375 L656.43,307.873 L627.587,307.873 L627.587,354.375 Z M506.805,354.375 L535.638,354.375 L535.638,307.873 L506.805,307.873 L506.805,354.375 Z M265.264,354.375 L294.104,354.375 L294.104,307.873 L265.264,307.873 L265.264,354.375 Z M1159.222,290.461 L1066.616,385.816 L217.387,385.824 L124.774,290.472 L143.046,290.471 L223.744,373.556 L223.744,297.654 L223.744,290.471 L1060.271,290.462 L1060.271,297.654 L1060.271,373.536 L1140.957,290.462 L1159.222,290.461 Z M0,229.8828 L1284,229.8708 L1284,285.4108 L0,285.4228 L0,242.5948 L0,229.8828 Z M766.899,-0.0025 L775.391,-0.0025 L775.391,21.8905 L787.969,21.8905 L787.969,29.8085 L775.391,29.8085 L775.391,46.0505 L804.28,46.0505 L804.28,53.9595 L775.391,53.9595 L775.391,132.7985 L809.249,154.3345 L856.452,154.3345 L856.452,161.6145 L815.033,175.6645 L815.033,186.7005 L815.033,224.8265 L468.972,224.8295 L468.972,186.7005 L468.972,175.6645 L427.563,161.6145 L427.563,154.3345 L474.751,154.3345 L588.864,81.7575 L588.864,73.2895 L588.864,61.4815 L596.291,61.4815 L596.291,73.2895 L611.998,73.2895 L611.998,61.4815 L619.427,61.4815 L619.427,73.2895 L633.502,73.2895 L633.502,29.8085 L650.508,29.8085 L650.508,73.2895 L666.868,73.2895 L666.868,61.4815 L674.293,61.4815 L674.293,73.2895 L687.726,73.2895 L687.726,61.4815 L695.137,61.4815 L695.137,73.2895 L695.137,81.7525 L766.899,127.3995 L766.899,53.9595 L736.584,53.9595 L736.584,46.0505 L766.899,46.0505 L766.899,29.8085 L752.896,29.8085 L752.896,21.8905 L766.899,21.8905 L766.899,-0.0025 Z M679.027,84.8265 L679.027,154.3345 L766.899,154.3345 L766.899,133.3825 L690.551,84.8265 L687.726,84.8265 L679.027,84.8265 Z M593.467,84.8265 L484.176,154.3345 L604.987,154.3345 L604.987,84.8265 L596.291,84.8265 L593.467,84.8265 Z M775.391,138.7825 L775.391,154.3345 L799.842,154.3345 L775.391,138.7825 Z M735.8,216.4245 L780.951,216.4245 L780.951,186.7015 L735.8,186.7015 L735.8,216.4245 Z M677.623,216.4245 L722.759,216.4245 L722.759,186.7015 L677.623,186.7015 L677.623,216.4245 Z M619.427,216.4245 L664.591,216.4245 L664.591,186.7015 L619.427,186.7015 L619.427,216.4245 Z M561.248,216.4245 L606.393,216.4245 L606.393,186.7015 L561.248,186.7015 L561.248,216.4245 Z M503.063,216.4245 L548.216,216.4245 L548.216,186.7015 L503.063,186.7015 L503.063,216.4245 Z" id="Combined-Shape" fill="#F2F3F3"></path>
    </g>
</svg>