<svg width="164" height="164" viewBox="0 0 164 164" fill="none" xmlns="http://www.w3.org/2000/svg">
<circle opacity="0.1" cx="82" cy="82" r="81.5" fill="white" stroke="white"/>
<path d="M82 48C63.2522 48 48 63.2522 48 82C48 100.748 63.2522 116 82 116C100.748 116 116 100.748 116 82C116 63.2522 100.748 48 82 48ZM80.0078 64.6887C76.977 64.5585 73.9768 64.1326 71.112 63.44C71.5695 62.3557 72.066 61.3145 72.6014 60.3277C74.798 56.28 77.4948 53.4396 80.0078 52.4108V64.6887ZM80.0078 68.6762V80.0078H67.5644C67.7398 75.5851 68.4936 71.1945 69.7403 67.2007C73.044 68.0329 76.5121 68.5367 80.0078 68.6762ZM80.0078 83.9922V95.3238C76.5121 95.4633 73.044 95.9671 69.7403 96.7993C68.4936 92.8055 67.7398 88.4149 67.5644 83.9922H80.0078ZM80.0078 99.3113V111.589C77.4948 110.56 74.798 107.72 72.6014 103.672C72.066 102.686 71.5695 101.644 71.112 100.56C73.9768 99.8674 76.9765 99.4415 80.0078 99.3113ZM83.9922 99.3113C87.023 99.4415 90.0232 99.8674 92.888 100.56C92.4305 101.644 91.934 102.686 91.3986 103.672C89.202 107.72 86.5052 110.56 83.9922 111.589V99.3113ZM83.9922 95.3238V83.9922H96.4356C96.2602 88.4149 95.5064 92.8055 94.2597 96.7993C90.956 95.9671 87.4879 95.4633 83.9922 95.3238ZM83.9922 80.0078V68.6762C87.4879 68.5367 90.956 68.0329 94.2597 67.2007C95.5064 71.1945 96.2602 75.5851 96.4356 80.0078H83.9922ZM83.9922 64.6887V52.4108C86.5052 53.4396 89.202 56.28 91.3986 60.3277C91.934 61.3145 92.4305 62.3557 92.888 63.44C90.0232 64.1326 87.023 64.5585 83.9922 64.6887ZM94.9005 58.4273C93.9028 56.5887 92.819 54.968 91.6766 53.5854C95.66 54.9457 99.2682 57.122 102.303 59.9132C100.572 60.8403 98.7069 61.6454 96.7448 62.3183C96.1881 60.9663 95.5728 59.6657 94.9005 58.4273V58.4273ZM69.0995 58.4273C68.4272 59.6657 67.8119 60.9663 67.2552 62.3183C65.2931 61.6454 63.428 60.8398 61.6973 59.9132C64.7318 57.122 68.34 54.9457 72.3234 53.5854C71.181 54.968 70.0977 56.5882 69.0995 58.4273ZM65.9074 66.063C64.5476 70.4131 63.7481 75.1555 63.5759 80.0078H52.0523C52.4788 73.5327 54.9654 67.6111 58.8647 62.8973C61.0286 64.1383 63.3985 65.1997 65.9074 66.063ZM63.5759 83.9922C63.7481 88.845 64.5476 93.5869 65.9074 97.937C63.3985 98.8003 61.0286 99.8617 58.8647 101.103C54.9654 96.3889 52.4788 90.4673 52.0523 83.9922H63.5759ZM67.2552 101.682C67.8119 103.034 68.4272 104.334 69.0995 105.573C70.0977 107.411 71.181 109.032 72.3234 110.415C68.34 109.054 64.7318 106.878 61.6978 104.087C63.4275 103.16 65.2931 102.355 67.2552 101.682ZM94.9005 105.573C95.5728 104.334 96.1881 103.034 96.7448 101.682C98.7069 102.355 100.572 103.16 102.303 104.087C99.2682 106.878 95.66 109.054 91.6766 110.415C92.819 109.032 93.9023 107.412 94.9005 105.573V105.573ZM98.0926 97.937C99.4524 93.5869 100.252 88.8445 100.424 83.9922H111.948C111.521 90.4673 109.035 96.3889 105.135 101.103C102.971 99.8617 100.602 98.8003 98.0926 97.937V97.937ZM100.424 80.0078C100.252 75.155 99.4524 70.4131 98.0926 66.063C100.602 65.1997 102.971 64.1383 105.135 62.8973C109.035 67.6111 111.521 73.5327 111.948 80.0078H100.424Z" fill="white"/>
</svg>
