<svg width="164" height="164" viewBox="0 0 164 164" fill="none" xmlns="http://www.w3.org/2000/svg">
<circle opacity="0.1" cx="82" cy="82" r="81.5" fill="white" stroke="white"/>
<path d="M110.759 66.4501L110.757 66.3972C110.727 65.7441 110.707 65.053 110.696 64.2842C110.64 60.5348 107.673 57.4334 103.939 57.2238C96.1553 56.7875 90.1337 54.2382 84.9885 49.2011L84.9446 49.1591C83.2664 47.6136 80.7349 47.6136 79.0562 49.1591L79.0123 49.2011C73.8672 54.2382 67.8455 56.7875 60.0614 57.2244C56.3285 57.4334 53.3605 60.5348 53.3053 64.2847C53.2939 65.0483 53.2738 65.7394 53.2443 66.3972L53.2412 66.5202C53.0899 74.4925 52.9019 84.4146 56.2066 93.4204C58.0237 98.3728 60.7758 102.678 64.3858 106.217C68.4974 110.247 73.8827 113.446 80.392 115.726C80.6037 115.8 80.8238 115.86 81.0479 115.905C81.3641 115.968 81.6822 116 82.0004 116C82.3186 116 82.6373 115.968 82.9529 115.905C83.1771 115.86 83.3987 115.799 83.6115 115.725C90.113 113.441 95.4926 110.24 99.6006 106.21C103.209 102.671 105.961 98.3645 107.78 93.411C111.097 84.3782 110.909 74.4375 110.759 66.4501ZM104.053 92.0305C100.567 101.522 93.4518 108.041 82.3005 111.958C82.2607 111.972 82.2184 111.983 82.1745 111.992C82.0593 112.015 81.942 112.015 81.8253 111.992C81.7819 111.983 81.7396 111.972 81.7003 111.958C70.5371 108.048 63.4173 101.533 59.9344 92.0409C56.8884 83.7396 57.0609 74.6316 57.2133 66.5964L57.2144 66.5518C57.2453 65.8613 57.266 65.1381 57.2774 64.3433C57.3022 62.6785 58.6224 61.3011 60.283 61.2082C64.688 60.9613 68.5578 60.1063 72.1136 58.5945C75.6647 57.0848 78.8186 54.9567 81.7546 52.0888C81.9038 51.9622 82.0975 51.9617 82.2463 52.0888C85.1827 54.9567 88.3367 57.0848 91.8873 58.5945C95.443 60.1063 99.3129 60.9613 103.718 61.2082C105.379 61.3011 106.699 62.6785 106.723 64.3438C106.735 65.1428 106.756 65.866 106.787 66.5518C106.939 74.5963 107.107 83.7116 104.053 92.0305Z" fill="white"/>
<path d="M82 65C72.6259 65 65 72.6263 65 81.9997C65 91.3737 72.6259 99 82 99C91.3735 99 99 91.3737 99 81.9997C99 72.6263 91.3735 65 82 65ZM82 94.9969C74.8331 94.9969 69.0027 89.1665 69.0027 81.9997C69.0027 74.8329 74.8331 69.0026 82 69.0026C89.1664 69.0026 94.9968 74.8329 94.9968 81.9997C94.9968 89.1665 89.1664 94.9969 82 94.9969Z" fill="white"/>
<path d="M86.6872 76.6722L78.7314 84.5622L76.572 82.4207C75.7844 81.6396 74.5076 81.6396 73.72 82.4207C72.9329 83.2018 72.9329 84.4681 73.72 85.2487L77.3056 88.8047C77.6994 89.1953 78.2154 89.3903 78.7314 89.3903C79.2474 89.3903 79.7634 89.1953 80.1572 88.8047L89.5393 79.5001C90.3264 78.719 90.3264 77.4527 89.5393 76.6722C88.7517 75.8905 87.4749 75.8905 86.6872 76.6722Z" fill="white"/>
</svg>
