<svg width="164" height="164" viewBox="0 0 164 164" fill="none" xmlns="http://www.w3.org/2000/svg">
<circle opacity="0.1" cx="82" cy="82" r="81.5" fill="white" stroke="white"/>
<path d="M117.709 79.1197C114.354 75.7516 109.822 74.2693 105.43 74.6716V59.2144C105.43 55.7878 102.653 53 99.2404 53H57.8841C54.6577 53 51.7854 55.7231 51.7854 59.2144V100.643C51.7854 104.07 54.5621 106.858 57.9752 106.858C100.771 106.715 99.4854 107.199 101.448 106.447L105.38 110.394C106.186 111.203 107.492 111.203 108.298 110.394L117.709 100.946C123.716 94.9142 123.717 85.1519 117.709 79.1197ZM74.6188 57.1429H82.8719V67.5002H74.6188V57.1429ZM57.9752 102.715C56.8375 102.715 55.912 101.786 55.912 100.643V59.2144C55.912 58.0722 56.8376 57.1429 57.9752 57.1429H70.4924V69.5716C70.4924 70.7156 71.4161 71.6431 72.5556 71.6431H84.9352C86.0747 71.6431 86.9984 70.7156 86.9984 69.5716V57.1429H99.2405C100.378 57.1429 101.304 58.0722 101.304 59.2144V75.636C99.3584 76.3867 97.5353 77.5473 95.9692 79.1197C89.9756 85.1371 89.9756 94.9283 95.9692 100.946L97.7312 102.715H57.9752ZM114.791 98.0163L106.839 106L98.8868 98.0163C94.492 93.6038 94.4915 86.4621 98.8868 82.0491C103.272 77.647 110.406 77.6468 114.791 82.0491C119.186 86.4614 119.186 93.6033 114.791 98.0163Z" fill="white"/>
<path d="M107.024 83.3809C103.217 83.3809 100.12 86.3235 100.12 89.9404C100.12 93.5573 103.217 96.5001 107.024 96.5001C110.832 96.5001 113.929 93.5575 113.929 89.9404C113.929 86.3236 110.832 83.3809 107.024 83.3809ZM107.024 92.3832C105.607 92.3832 104.453 91.2874 104.453 89.9404C104.453 88.5936 105.607 87.4977 107.024 87.4977C108.442 87.4977 109.596 88.5935 109.596 89.9404C109.596 91.2873 108.442 92.3832 107.024 92.3832Z" fill="white"/>
<path d="M74.5735 86.1426H62.1412C60.9981 86.1426 60.0715 87.07 60.0715 88.214C60.0715 89.358 60.9981 90.2855 62.1412 90.2855H74.5735C75.7166 90.2855 76.6432 89.358 76.6432 88.214C76.6432 87.07 75.7166 86.1426 74.5735 86.1426Z" fill="white"/>
<path d="M74.5717 94.4297H62.143C60.9989 94.4297 60.0715 95.3571 60.0715 96.5011C60.0715 97.6451 60.9989 98.5726 62.143 98.5726H74.5717C75.7158 98.5726 76.6432 97.6451 76.6432 96.5011C76.6432 95.3571 75.7158 94.4297 74.5717 94.4297Z" fill="white"/>
</svg>
