<?xml version="1.0" encoding="UTF-8" standalone="no"?>
<svg width="30px" height="35px" viewBox="0 0 30 35" version="1.1" xmlns="http://www.w3.org/2000/svg" xmlns:xlink="http://www.w3.org/1999/xlink">
    <!-- Generator: Sketch 43.1 (39012) - http://www.bohemiancoding.com/sketch -->
    <title>af</title>
    <desc>Created with Sketch.</desc>
    <defs></defs>
    <g id="Page-1" stroke="none" stroke-width="1" fill="none" fill-rule="evenodd">
        <path d="M13.0645306,3.20160432 C12.5678488,2.96549388 12.0827451,2.3264111 11.9827035,1.78330526 L12.0209216,1.99078329 C11.9201268,1.44358879 11.3951804,1 10.8285602,1 L7.19967355,1 C6.64194528,1 5.8807126,1.32914012 5.51133922,1.72245554 L1.67847796,5.80375513 C1.30376493,6.20275631 1,6.96639909 1,7.53442415 L1,12.5548782 C1,13.1116991 1.31917021,13.8781358 1.71660793,14.2704357 L3.74191376,16.2695595 C4.13768539,16.6602148 4.89593644,16.8567376 5.43233098,16.7093801 L8.41369978,15.8903432 C8.95151981,15.7425942 9.76712483,15.8545439 10.2412865,16.1439805 L10.6034364,16.365043 C11.0749647,16.6528721 11.5882354,17.3203866 11.7467262,17.8455978 L13.0739118,22.2436635 C13.2338051,22.7735222 13.2697099,23.634752 13.1530399,24.1721919 L12.7568611,25.9971886 C12.6406691,26.5324267 12.7183602,27.376311 12.9344051,27.8916362 L14.4453709,31.4956969 C14.6596178,32.0067333 15.1780893,32.7150837 15.6184841,33.0479174 C15.6184841,33.0479174 15.8062141,33.3160402 16.5069679,33.5223652 C17.2077217,33.7286903 17.9629497,34.3635818 18.6728922,33.716722 C19.9527566,32.5505814 20.8388165,31.7731544 21.6920595,30.3802642 C22.5453024,28.9873741 22.509787,27.9301499 23.0047409,27.2381632 C23.9897326,25.8610627 25.0513861,25.2819118 25.3019333,24.3228117 C25.5524805,23.3637116 25.0686062,20.4151156 25.4332014,19.723035 C26.2864444,18.1033953 26.8625359,17.2456598 27.5663087,16.0626492 C28.3872419,14.6826974 28.9252486,12.7754106 28.9979945,12.1375 C29.0707404,11.4995894 26.8142572,12.0456181 26.8142572,12.0456181 C26.2690133,12.1531377 25.5687311,11.8757594 25.2563338,11.4191593 C25.2563338,11.4191593 24.3174223,10.1671607 23.7923497,8.87144896 C23.2672771,7.5757372 22.3484002,5.63216955 21.5936084,4.43363617 C20.9162207,3.35801286 19.0873459,2.71820794 17.7152206,3.0625 C16.3430953,3.40679206 16.3184803,3.72190271 16.3184803,3.72190271 C15.9150974,4.0970922 15.182,4.20819762 14.6887689,3.9737276 L13.0645306,3.20160432 Z" id="af" stroke="#3265B1" stroke-width="1.2"></path>
    </g>
</svg>