<?xml version="1.0" encoding="UTF-8" standalone="no"?>
<svg width="39px" height="33px" viewBox="0 0 39 33" version="1.1" xmlns="http://www.w3.org/2000/svg" xmlns:xlink="http://www.w3.org/1999/xlink">
    <!-- Generator: Sketch 43.1 (39012) - http://www.bohemiancoding.com/sketch -->
    <title>am</title>
    <desc>Created with Sketch.</desc>
    <defs></defs>
    <g id="Page-1" stroke="none" stroke-width="1" fill="none" fill-rule="evenodd">
        <path d="M27.0369955,30.1058938 C26.453106,29.9743871 26.7450507,29.2693653 26.7054039,28.6483617 C26.6585486,28.023705 26.3269571,27.3588658 25.9088634,27.8045273 C25.4907697,28.2501887 24.0706929,29.4045249 23.8652504,28.8200509 C23.6562035,28.2465358 22.6506162,25.8538452 24.1571951,25.4045308 C25.6565655,24.9661752 26.9108465,25.2255356 27.2892934,25.6273615 C27.664136,26.0218815 27.9524764,27.1360351 28.4174254,27.0008755 C28.8787702,26.8657158 28.6264723,26.0182285 28.792268,25.3168597 C28.9580638,24.6118378 30.0501533,23.6766794 30.5439363,22.7049913 C31.0449279,21.7223443 31.1278258,21.1488292 31.751362,20.8821629 C32.385711,20.6191496 32.7173026,20.2648122 33.301192,19.8191507 C33.8886857,19.3734893 34.8005624,18.9789693 35.1429667,18.7524856 C35.4781625,18.5260019 36.9775329,17.7734916 37.4749202,17.9086512 C37.9759118,18.0438109 38.3075033,17.8648157 37.8930139,17.1123054 C37.4749202,16.359795 36.9342819,14.0949581 36.1413456,13.0794345 C35.3484093,12.0639109 35.2619072,11.7899387 34.8870646,10.8219035 C34.512222,9.83925657 34.090524,8.99907514 33.7985793,9.66391435 C33.5066346,10.3287536 32.8830983,11.2164235 32.5479026,10.3725891 C32.216311,9.52875473 32.2559578,9.56893732 31.8378642,9.17441735 C31.4233748,8.77624441 31.0845747,8.68492034 30.5042895,8.50592517 C29.9204001,8.32693 29.3365106,8.55341368 29.3761575,9.12692883 C29.4158043,9.70409694 28.8283106,10.7305795 29.2103617,11.4867428 C29.5852043,12.242906 29.9204001,13.0392519 29.4158043,13.3059182 C28.918417,13.5689315 29.4158043,15.1689292 28.918417,15.1214407 C28.4174254,15.0812581 28.1687318,15.1689292 28.1687318,14.5881081 C28.1687318,14.0182459 28.4174254,13.130576 27.4947359,13.130576 C26.579255,13.130576 26.0350123,12.6447319 25.368225,12.151582 C24.6978334,11.6657379 24.1571951,11.9287512 24.3229908,10.8255565 C24.4887866,9.71140287 24.2436972,9.31688289 24.9897782,8.69587923 C25.7430676,8.07852853 25.9124676,7.71688522 26.453106,7.98720446 C26.9973486,8.25387074 27.368587,8.25387074 27.7109913,7.94336891 C28.0425828,7.63286708 28.6661191,7.76072077 28.6661191,7.3662008 C28.6661191,6.96802786 27.9560807,6.96802786 28.0425828,6.30684161 C28.1218764,5.6310435 28.4606765,5.99268681 28.5832212,4.88218614 C28.7057659,3.77168547 27.7902849,2.08766965 26.8711997,2.31050038 C25.9485102,2.52967814 24.5356419,3.81917399 24.2436972,3.23835291 C23.9481482,2.66483776 23.3642588,2.92785108 22.2361267,3.32967698 C21.1079947,3.73150288 16.4332749,2.93515701 16.1016834,2.52967814 C16.1016834,2.52967814 15.3051429,1.95616299 14.8870492,2.26666483 C14.4725598,2.57716666 12.8001851,2.44200704 12.2991935,2.35798889 C11.7945977,2.26666483 11.3368572,2.93150404 10.7169252,2.71232628 C10.0825762,2.48949555 7.87316742,2.0438341 7.37578012,1.68949672 C6.86758006,1.33150637 6.1142906,1.33150637 5.78990758,1.15616416 C5.45471179,0.977168983 4.24007759,0.889497877 3.99498819,1.24383526 C3.74269029,1.59817265 2.82360506,2.21552335 2.36226032,2.6611848 C1.90451984,3.10684625 1.36748572,3.01917515 1.82162195,3.95068064 C2.27936244,4.88218614 0.653843077,5.45935425 1.06833249,6.47487789 C1.48282191,7.49040153 0.985434609,10.2410825 2.65420504,10.774415 C4.32657973,11.3077476 5.70340544,11.6182494 6.66213748,10.8255565 C7.62807803,10.0219047 9.08780162,10.0219047 9.54554211,10.9095746 C10.0032826,11.7972446 10.2555805,13.126923 11.7549509,13.8794333 C13.2543213,14.6355966 14.5518534,16.8091095 14.4689555,17.7771446 C14.3896619,18.7561386 14.5158108,21.9890106 16.0512238,23.8520216 C17.6010538,25.7150326 19.1869263,29.0903702 19.3058668,28.2867184 C19.4320157,27.4867195 19.4320157,26.6867207 19.7708158,27.2675417 C20.0988031,27.8447099 20.9782415,29.6200497 22.3983183,29.9305516 C23.8219993,30.2410534 24.5320377,30.3287245 25.0690718,30.86571 C25.6097102,31.3990426 26.0746592,31.7058915 26.6549443,31.9762107 C27.2388338,32.239224 27.6208849,30.2374004 27.0369955,30.1058938 Z" id="am" stroke="#3265B1" stroke-width="1.2"></path>
    </g>
</svg>