<?xml version="1.0" encoding="UTF-8" standalone="no"?>
<svg width="41px" height="29px" viewBox="0 0 41 29" version="1.1" xmlns="http://www.w3.org/2000/svg" xmlns:xlink="http://www.w3.org/1999/xlink">
    <!-- Generator: Sketch 43.1 (39012) - http://www.bohemiancoding.com/sketch -->
    <title>as</title>
    <desc>Created with Sketch.</desc>
    <defs></defs>
    <g id="Page-1" stroke="none" stroke-width="1" fill="none" fill-rule="evenodd">
        <path d="M1.45964376,19.964325 C3.08137151,21.5232925 2.89045528,23.601046 4.32464376,25.2190096 C5.46817779,26.5091732 6.28752334,26.3608131 7.78501025,24.9370779 C8.38186889,24.3696558 8.55825632,23.5568384 8.78074323,23.2693709 C9.06896313,22.8968099 8.48514114,22.5766019 9.65404166,22.4525203 C11.8994082,22.2142426 12.7657171,26.0235232 13.2977851,27.4970808 C15.1358741,25.646059 14.5180469,23.2801262 17.4424186,25.0174264 C18.9180731,25.894143 20.4753244,28.1649386 20.9778637,25.6554699 C21.1763977,24.6640826 20.0213192,24.9392922 20.6969474,23.9844414 C21.1251935,23.3791384 22.9507956,23.6730908 23.5909265,23.0273763 C24.6948008,21.9138055 23.0946699,18.6761384 24.6792511,18.8184882 C25.1396176,18.8598487 25.3522092,20.3905835 25.953937,20.2096411 C26.5974448,20.0161245 26.1057432,18.6633269 26.3252459,18.3137791 C26.6657694,17.7715845 27.7820521,17.192379 28.2658218,16.5751345 C28.2812144,16.5555218 29.1633087,15.4764313 29.1860835,15.2795932 C29.2461621,14.7604909 29.063649,14.2288935 28.8410835,14.0940566 C28.3692511,13.8083289 27.759827,13.5705257 28.9848794,12.4160688 C29.417916,12.0079203 31.1495914,11.6393135 31.69556,11.953432 C32.9200626,12.6580635 31.5422616,14.6858364 33.2725233,14.6648793 C34.4400888,14.6507234 34.602026,13.0954728 35.1707694,12.5894193 C35.8698794,11.9673506 36.7127851,11.7116746 37.5696699,11.1872738 C39.872916,9.77769444 40.7674972,8.32722909 37.5137537,7.6678332 C34.6085443,7.07897954 31.4009788,6.5979954 28.4485705,6.36122023 C27.12056,6.25469514 25.9174186,5.90965505 24.6263192,5.75117227 C22.6215809,5.50514437 23.0201411,6.09123012 22.4115809,4.86757545 C22.0441987,4.12878 22.6579422,3.76309919 21.6508218,2.91690873 C21.1543296,2.49974475 19.7447223,1.66826377 19.1277589,1.45703248 C18.4487537,1.2246069 17.7244343,0.639944651 17.0650626,1.31523627 C15.928361,2.47934128 17.5704291,2.7775641 17.7382563,3.55265874 C17.9253244,4.41672201 18.2928637,3.79354623 17.624382,4.69177345 C17.1984134,5.26425688 14.2684657,6.00170791 13.5779945,6.09850578 C11.8275495,6.34390101 10.8750888,6.90444288 9.22359664,7.38265911 C8.17838721,7.68531059 6.92207831,8.16653199 5.84223538,8.38148018 C4.86024585,8.57689482 2.54883224,7.43809645 1.93658093,7.72414046 C0.789277265,8.26024561 1.83739245,9.16171524 1.78391077,10.1485157 C1.73231391,11.1002822 0.808753705,11.9932899 1.03587412,12.9422095 C1.389827,14.4208285 3.52925109,14.9704569 3.92003643,16.2330205 C4.49498407,18.0907644 2.986738,18.9094339 1.45964376,19.964325 C1.89849193,20.386234 2.1661359,19.4763024 1.45964376,19.964325 Z" id="as" stroke="#3265B1" stroke-width="1.2"></path>
    </g>
</svg>