<?xml version="1.0" encoding="UTF-8" standalone="no"?>
<svg width="53px" height="30px" viewBox="0 0 53 30" version="1.1" xmlns="http://www.w3.org/2000/svg" xmlns:xlink="http://www.w3.org/1999/xlink">
    <!-- Generator: Sketch 43.1 (39012) - http://www.bohemiancoding.com/sketch -->
    <title>ea</title>
    <desc>Created with Sketch.</desc>
    <defs></defs>
    <g id="Page-1" stroke="none" stroke-width="1" fill="none" fill-rule="evenodd">
        <path d="M18.3808802,19.2625349 C18.4373695,19.3013276 19.8205501,19.5195364 20.1949933,19.8153305 C20.5678226,20.1111247 20.0271395,21.2700558 19.8770394,21.8567951 C19.7253253,22.4435343 19.2588852,22.8169138 19.0539097,22.9737009 C18.8489343,23.1304879 17.3124257,25.0151654 17.0719428,25.2899469 C16.8282318,25.5647283 16.0438377,26.1918766 15.8550021,26.4278654 C15.6693945,26.6622378 15.6306589,26.8400375 15.706516,27.1536117 C15.782373,27.4671858 15.782373,27.6239729 15.6306589,27.8987543 C15.4805588,28.1719194 15.4628051,28.5452989 15.5935374,28.8410931 C15.7258837,29.1336545 15.9486129,29.1562836 15.6693945,29.2322526 C15.390176,29.3130706 14.75104,29.1158745 14.3782107,28.4887263 C14.0053815,27.8599616 14.4718216,26.309871 14.4330861,25.8411261 C14.3959645,25.3691486 14.75104,23.269495 14.8252831,22.7797375 C14.8995262,22.2899799 14.5848001,21.9376131 14.2668462,21.7194043 C13.9472782,21.5044283 13.5550811,20.5426932 13.3662455,20.2097227 C13.1806379,19.8751359 13.330738,19.5227691 13.4598563,19.1687859 C13.5922027,18.8148027 13.648692,18.5012286 13.5163456,18.2652398 C13.3856133,18.0308674 12.7497053,17.6752679 12.4882406,17.5588899 C12.2283899,17.4392791 12.0201865,17.3035047 11.7780896,17.067516 C11.5376066,16.8299108 11.2196526,16.7911182 10.5821306,16.6537274 C9.94622267,16.5163367 9.55241164,15.730785 9.4055395,15.4753999 C9.25382541,15.2183984 9.25382541,15.5723816 9.19733612,15.9263648 C9.14407479,16.2819643 8.43392376,14.7884463 7.73991251,13.9641019 C7.05235719,13.1397575 6.9958679,11.7092776 7.03137545,11.2760927 C7.06849699,10.847757 6.48746432,9.88602186 5.81604879,9.55143504 C5.14463326,9.21846457 5.03165469,8.63010899 4.82667927,8.23733314 C4.62170386,7.8445573 3.96804211,7.8445573 3.53549557,8.20015683 C3.10617698,8.55090727 2.48963676,8.41351655 1.74075021,8.17752777 C0.993477643,7.94153899 1.21620683,6.72441879 1.03059917,6.27507029 C0.844991516,5.8257218 1.57289633,5.57033668 1.36792092,5.1581645 C1.16455948,4.74599232 1.40504245,4.784785 1.61001786,4.5875889 C1.81660726,4.39039279 2.22817206,4.1172277 2.34115064,3.96044064 C2.45090125,3.80365357 2.99481239,3.84244625 3.14491249,3.92164796 C3.29017066,3.99923331 3.62749241,3.99923331 3.85506353,4.15763674 C4.07779272,4.3144238 5.06716224,4.51161991 5.35122265,4.61021796 C5.62882715,4.70719965 5.83380257,4.41302185 6.05975971,4.45343089 C6.28410288,4.49060721 7.03298943,4.55041258 7.21859709,4.41302185 C7.40581873,4.27563113 7.76250823,4.52939988 7.76250823,4.52939988 C7.91099435,4.70881601 10.0043259,5.06118281 10.5095016,4.88338305 C11.0146772,4.70558328 11.2761419,4.58920526 11.4084882,4.84297401 C11.5392206,5.09997549 12.1719006,4.52939988 12.5850794,4.43241819 C12.9966442,4.33382014 13.406595,5.07896279 13.3517197,5.57033668 C13.2968444,6.06171058 13.1451303,5.90169079 13.1096228,6.20071766 C13.0708872,6.49327909 13.3888412,6.49327909 13.3888412,6.6694625 C13.3888412,6.84402954 13.1096228,6.78745689 12.9611366,6.92484761 C12.8078086,7.06223834 12.6415687,7.06223834 12.3978577,6.94424395 C12.1557608,6.8246332 12.0799037,6.98465299 11.742582,7.25781808 C11.4084882,7.53259953 11.5182388,7.70716657 11.4439958,8.20015683 C11.3697527,8.688298 11.6118497,8.57191997 11.9120499,8.78689605 C12.2106361,9.00510485 12.454347,9.22008093 12.8642979,9.22008093 C13.2774766,9.22008093 13.166112,9.61285677 13.166112,9.86500916 C13.166112,10.1220106 13.2774766,10.083218 13.5018198,10.1009979 C13.724549,10.1220106 13.5018198,9.41404431 13.724549,9.29766628 C13.9505061,9.17967189 13.800406,8.82730509 13.6325522,8.49271826 C13.4614703,8.15813143 13.724549,7.70393385 13.7067952,7.44854874 C13.6890414,7.19477998 13.9505061,7.09456557 14.2119708,7.17376728 C14.4718216,7.25296899 14.6235357,7.29337803 14.8091433,7.46956143 C14.9963649,7.64412848 14.9786112,7.6263485 15.1270973,7.999728 C15.2771974,8.37310751 15.5564159,7.98033167 15.6871482,7.68615387 C15.8178806,7.39197608 16.0067162,7.76373923 16.1745701,8.19854047 C16.342424,8.62687626 16.3811595,8.74810337 16.736235,9.19745187 C17.0913105,9.64680036 17.3334075,10.6489445 17.5206291,10.981915 C17.7062368,11.3148854 17.5577506,11.3940871 17.3334075,11.3342818 C17.1106783,11.2744764 16.4392627,11.6074469 16.2891626,11.7076613 C16.1358346,11.8078757 15.7274977,11.9824427 15.464419,12.1796388 C15.2029543,12.3768349 15.0544682,12.533622 14.7704078,12.65 C14.4911893,12.7679944 14.4540678,13.0217632 14.2297246,13.4565644 C14.0086094,13.8865166 13.5195736,14.3003051 13.4453305,14.6122629 C13.3710875,14.9226043 13.484066,15.2976001 13.2774766,15.3574055 C13.0692733,15.4172109 12.9401549,14.9242206 12.772301,14.7496536 C12.6028332,14.5718538 12.0411682,14.4570922 11.3697527,14.6510555 C10.6951092,14.849868 11.1454095,15.9085848 11.2390204,16.1623535 C11.3310172,16.4209714 11.9669252,15.9102011 12.1541468,15.713005 C12.3413684,15.5158089 12.4898546,15.8099867 12.5108363,16.0863845 C12.5285901,16.361166 12.3978577,16.6731238 12.6593224,16.7313128 C12.9207871,16.7895018 13.014398,16.8476908 13.2000056,17.2614793 C13.3888412,17.6720352 13.8762631,17.5168645 14.2297246,17.2614793 C14.5880281,17.0060942 16.0793453,17.4990845 16.3053024,17.6154625 C16.5296456,17.7334569 16.9589642,17.8110423 17.1816934,18.1068364 C17.4092645,18.3993978 18.3260049,19.2253586 18.3808802,19.2625349 Z M51.3676243,5.11574908 C51.5954898,5.27228069 52.1384883,5.7225108 52.1611132,5.92584052 C52.180506,6.12271534 51.8055785,6.47612177 51.6375075,6.66976912 C51.4678205,6.86503021 51.1494553,6.49387277 50.8133133,6.47612177 C50.4771714,6.45352957 50.7761438,6.789185 50.6452424,7.16034243 C50.5143409,7.52988614 49.1115948,8.07855365 48.7932296,8.236699 C48.4716322,8.39323061 48.4570876,8.49166802 48.4376948,8.78536651 C48.4166859,9.07745128 48.2308382,9.29530455 47.8930802,9.62611879 C47.5553222,9.95854675 47.3597781,10.4410514 47.1917071,10.8315736 C47.0252522,11.2237095 47.0252522,10.4394377 47.0042434,10.1263745 C46.9848505,9.81331124 47.3048318,8.40936789 46.1687367,8.50941903 C45.813202,8.53846613 45.3445425,8.90155492 45.0633469,9.29369082 C44.7837673,9.68259927 45.1376859,9.58738932 45.3445425,9.90045255 C45.5513991,10.211902 45.307373,10.5636947 45.1764715,10.9768091 C45.0455701,11.3883097 43.9434124,12.4243231 43.7931182,12.5808547 C43.6412079,12.7357726 43.717163,13.3231696 43.717163,13.5603876 C43.717163,13.7976056 43.3244587,13.7976056 42.9867007,13.913794 C42.6505588,14.0315962 42.9123616,13.2683028 42.8380226,13.0326986 C42.7620674,12.798708 42.4049166,13.1505007 42.1657387,13.5426366 C41.9168643,13.9347725 42.4420861,14.3462731 42.4049166,15.1095665 C42.367747,15.8744735 40.9633848,16.1278288 40.7581443,16.1488073 C40.5496716,16.1697858 40.3250383,16.5022137 40.6611803,17.0508812 C40.9973222,17.5995488 40.3799846,17.6995999 40.0228338,17.9513415 C39.6689151,18.2063105 39.6689151,17.8738825 39.5170048,17.657643 C39.3715588,17.4414034 39.2390413,17.9287493 39.0709703,18.1643535 C38.9028993,18.3999578 38.9966312,17.6366645 38.9400689,17.2832581 C38.8835065,16.9298516 38.0787052,16.3440684 37.8912414,16.1084641 C37.7070097,15.8728598 37.6876169,16.2440172 37.3708678,16.518351 C37.0508865,16.7942985 36.4901113,17.7915824 36.3592098,18.1062593 C36.2299245,18.4209363 36.074782,18.4209363 35.9454967,18.262791 C35.8129792,18.1078731 35.2909895,16.5006 34.9904011,16.2649957 C34.6930447,16.0293914 34.0757071,15.5000886 33.5327086,15.4613592 C32.988094,15.421016 32.8782015,15.1870254 32.5210506,15.0498585 C32.1638998,14.9143054 32.1089536,14.8352327 32.1089536,15.0498585 C32.1089536,15.2644844 32.4257027,15.4823376 32.7279072,15.4613592 C33.0284957,15.4403807 33.3080753,15.8712461 33.2902986,16.2424035 C33.2725218,16.6151747 32.4289348,16.8878947 31.829374,17.123499 C31.2298131,17.3623307 30.7094395,16.2424035 30.5575292,15.8712461 C30.4104671,15.5000886 30.1098786,15.4823376 30.1098786,15.6566203 C30.1098786,15.8325166 30.5979309,16.5764452 30.8031714,16.9637399 C31.011644,17.3558758 31.7421063,17.4123563 32.1719802,17.4123563 C32.601854,17.4123563 32.4531758,17.5301584 32.3400511,17.9997533 C32.2285425,18.4693481 31.1829471,19.6473696 30.9566978,19.8991111 C30.7320644,20.1573076 30.8613498,21.2723936 30.8257963,21.7436022 C30.7902429,22.2131971 30.3797618,22.2131971 30.0420038,22.5472387 C29.7058619,22.8796667 29.6654602,23.5235442 29.4020413,24.0931902 C29.1418545,24.6612224 28.4889634,24.8161403 27.8683937,24.9145777 C27.2510561,25.0114014 27.4207431,24.3868886 27.3237791,23.8963153 C27.2316633,23.4089695 26.6676559,20.4106629 26.4252458,19.9604328 C26.1828358,19.5118164 26.1052645,19.413379 26.2571748,19.0196294 C26.405853,18.6291072 25.6010516,18.5129188 24.2710285,18.7097936 C22.9426214,18.9066684 22.5321403,16.9443752 22.5321403,16.2214251 C22.5321403,15.4968612 23.6359141,14.2252435 23.8039851,14.0283687 C23.9720561,13.8331076 23.9898328,13.7927644 24.4019299,13.676576 C24.8156431,13.5587739 26.1278895,13.2650754 26.7048254,13.5006797 C27.2849935,13.736284 27.0587441,14.0687119 27.5484124,14.3027025 C28.0300004,14.5399205 28.4986598,14.1074414 28.9301497,14.3430457 C29.3600235,14.57865 29.660612,14.4576204 29.9224149,14.1461709 C30.1858338,13.8314939 29.9805933,13.5975034 29.8836293,13.5184307 C29.7931295,13.439358 29.1208456,13.3651265 28.8945962,13.2650754 C28.671579,13.166638 28.5972399,12.9310337 28.5212848,13.2424832 C28.4485617,13.5587739 28.0720181,13.3651265 28.0170718,13.2650754 C27.9637416,13.166638 27.7908225,12.9100552 27.659921,12.9697632 C27.5290196,13.0278574 27.3431719,13.184389 27.1185386,13.3231696 C26.8955213,13.4603365 27.081369,13.0472221 27.1363153,12.8729395 C27.1944937,12.6954294 26.2943444,12.2064698 25.9210329,12.1871051 C25.5477214,12.1677404 25.3780344,12.5566488 25.2277402,12.9100552 C25.079062,13.2650754 24.50051,13.4183795 24.1966894,13.5765249 C23.8993331,13.7346702 23.6553069,13.2828264 23.5809678,13.0472221 C23.5066288,12.8132316 23.6553069,12.6163567 23.6924765,12.2839288 C23.729646,11.9515008 24.2920373,12.009595 24.6281793,12.0289598 C24.9643212,12.0499382 24.6087865,11.4028333 24.3663764,11.1091348 C24.1239664,10.8154363 24.5538402,10.8961227 24.9077589,10.7976853 C25.2632936,10.6976342 25.7885154,10.0537567 25.9565864,9.91658983 C26.1278895,9.77942295 26.2183892,9.64225607 26.3670674,9.58416186 C26.5189777,9.52445393 27.0054139,9.79878768 27.4530644,9.81815242 C27.9023311,9.83913088 27.9944469,9.2920771 28.1253483,8.93705694 C28.2578658,8.58526424 28.2029195,8.40775416 27.9411167,8.33029522 C27.6793138,8.25122255 27.6453764,8.58365051 27.417511,9.05485908 C27.1912616,9.52445393 26.743611,9.17427495 26.6692719,9.07422382 C26.5949329,8.97578641 26.5399866,8.69983893 26.4818082,8.44648363 C26.4236298,8.19312834 26.1828358,8.25122255 25.7125603,7.80099244 C25.2455169,7.35237606 26.1828358,6.70688487 26.7048254,6.07914468 C27.2300472,5.4514045 28.5778471,4.0619847 28.8945962,3.92643155 C29.2113454,3.78926468 29.2873005,4.12169264 29.6040497,4.4541206 C29.9224149,4.78654857 29.9773611,4.67036015 30.2601729,5.02215285 C30.5397525,5.37394555 30.9890191,5.45301823 30.9890191,5.45301823 C31.1393133,5.41428875 31.2136524,5.27712188 31.4576785,5.4917477 C31.6984725,5.70798725 32.9735494,5.11897653 33.1416204,5.04151759 C33.3096914,4.96244492 33.4422089,4.8059133 33.7605741,4.7478191 C34.0773232,4.68649743 34.8061694,4.23788105 34.8821246,4.04100624 C34.9548476,3.84574515 35.5204711,3.72794301 35.6303636,3.84574515 C35.7402562,3.9635473 35.9325681,3.78926468 36.0440768,3.47458772 C36.1539693,3.15991076 36.3979954,3.5714114 36.6420216,3.74730775 C36.8844316,3.92481783 36.677575,3.02274388 36.677575,2.72904539 C36.677575,2.43373317 37.2771359,2.47407637 37.4823764,2.3950037 C37.6876169,2.31593103 37.85892,1.92702258 38.2306155,1.59298089 C38.605543,1.2589392 40.076164,1.05238202 40.2329225,1.02333491 C41.449821,0.807095363 41.9895874,2.15778568 42.6279338,2.43373317 C43.2646643,2.7064532 44.7918476,3.0469498 45.1554627,3.05985963 C45.885925,3.08567927 47.2692783,3.51008973 47.4373493,3.60852714 C47.6070364,3.70535082 48.6380871,4.15719466 49.215023,4.02002778 C49.7968072,3.8828609 51.142991,4.95921746 51.3676243,5.11574908 Z M45.3922581,11.6404013 C45.5053292,11.3864794 45.6599704,11.0495445 45.759739,11.3050942 C45.8511935,11.5606438 46.004172,11.9171112 45.8129489,12.094531 C45.6250514,12.2719508 45.5053292,12.3305482 45.4670846,12.7472406 C45.4288399,13.1623053 45.5435738,13.4585476 45.0996037,13.7157249 C44.6572963,13.9712745 43.3869099,14.7818715 43.6363313,14.4465643 C43.6363313,14.4465643 43.7128206,14.0135949 44.005475,13.7954824 C44.2948039,13.5757423 44.5808071,13.5383051 44.7537393,13.2013702 C44.9283343,12.866063 44.870136,13.0044179 45.0463938,12.4737862 C45.2193259,11.939899 45.2758615,11.8992064 45.3922581,11.6404013 Z M41.5431709,20.6644792 C41.4093093,20.7664724 40.9664091,20.5624861 40.6672861,20.3869242 C40.3599002,20.2046743 40.3218901,20.2431307 40.0921769,20.3869242 C39.8608111,20.5290458 39.6492766,20.2230665 39.4608788,19.9588876 C39.2691757,19.6963807 38.8659382,18.9657088 38.5998675,18.5393442 C38.3321442,18.1113075 39.097304,18.7416584 39.1518402,18.803523 C39.1518402,18.803523 39.8244536,19.3101445 40.0525142,19.5525872 C40.2805747,19.7950298 40.4359203,19.4121377 40.5681294,19.1864152 C40.701991,18.9623648 40.9118728,19.0041652 41.295279,18.8403074 C41.6770326,18.6797937 41.5646549,18.8620437 41.6390225,19.0643579 C41.7150427,19.2666721 41.5646549,19.5927156 41.5646549,19.7131009 C41.5646549,19.8368303 41.9067457,19.4923945 42.1562903,19.2666721 C42.4058348,19.0409496 42.7495783,19.1028143 42.8074197,19.3068005 C42.8636086,19.5091147 42.8272511,19.8334862 42.8636086,20.0759289 C42.9016187,20.3183715 42.6900842,20.2581788 42.4438449,20.4019724 C42.1909951,20.5440939 42.0009447,20.4186926 41.7894102,20.3785641 C41.5795284,20.3401077 41.6770326,20.5608141 41.5431709,20.6644792 Z M46.070506,20.066532 C46.4167364,20.2199758 46.3787933,20.180832 46.3598218,20.313921 C46.3424312,20.4454442 46.4135745,20.6004538 46.5242417,20.7116223 C46.6301661,20.8290538 46.3740505,20.9026442 46.1163538,20.8666318 C45.8634001,20.8290538 45.7527328,20.6552552 45.4412835,20.7335428 C45.1314151,20.8102647 44.9638333,20.56131 44.7266891,20.4297867 C44.491126,20.2982635 44.8025753,20.1260306 44.6745174,20.0493087 C44.5464596,19.9741526 44.0531998,19.9005622 43.9788946,19.6328184 C43.9061704,19.3666403 44.4531829,19.5560965 44.5638502,19.6328184 C44.6776793,19.7079745 45.0223288,19.6343841 45.4444454,19.7079745 C45.866562,19.7815649 45.7195326,19.9146539 46.070506,20.066532 Z M45.8228975,21.8238519 C45.954353,22.2157662 46.5385993,22.7834776 46.8193621,23.0560435 C47.100125,23.3318351 47.012488,23.6834291 46.9134907,23.9963155 C46.8193621,24.3092018 46.613253,24.9543284 46.4996495,25.23012 C46.3860461,25.5042988 45.918649,25.6607419 45.7855707,25.6607419 C45.6557382,25.6607419 45.4074335,25.6236472 45.0925896,25.5446192 C44.772877,25.4655912 44.7079608,25.1381894 44.4693935,24.9962616 C44.3476755,24.9269105 44.0750272,24.60596 43.906245,24.4688707 C43.7342169,24.3333941 42.4391375,24.7446623 42.1388998,24.9011054 C41.8337934,25.0559358 41.6471591,25.0414205 41.3842483,24.939813 C40.9282115,24.7607904 41.2706448,24.1753381 41.2901197,23.9205131 C41.3095946,23.6656881 41.1197145,23.1963586 41.1197145,22.8834722 C41.1197145,22.5673602 41.8727431,22.472204 42.09995,22.393176 C42.3222882,22.314148 42.4943163,21.9028799 42.6825735,21.6867625 C42.8675848,21.4706451 43.1710683,21.5496731 43.281426,21.5883807 C43.3982752,21.6254755 43.4875351,21.2142073 43.922474,21.0980845 C44.3509213,20.9803489 44.4499186,21.1351793 44.4499186,21.2916225 C44.4499186,21.4512913 44.3525442,21.6270883 44.5245723,21.6464421 C44.7160753,21.6657959 45.2224221,21.4125837 45.2986987,21.0609897 C45.3717295,20.7110086 45.6914421,21.4319375 45.8228975,21.8238519 Z" id="ea" stroke="#3265B1" stroke-width="1.2"></path>
    </g>
</svg>