<?xml version="1.0" encoding="UTF-8" standalone="no"?>
<svg width="42px" height="36px" viewBox="0 0 42 36" version="1.1" xmlns="http://www.w3.org/2000/svg" xmlns:xlink="http://www.w3.org/1999/xlink">
    <!-- Generator: Sketch 43.1 (39012) - http://www.bohemiancoding.com/sketch -->
    <title>eu</title>
    <desc>Created with Sketch.</desc>
    <defs></defs>
    <g id="Page-1" stroke="none" stroke-width="1" fill="none" fill-rule="evenodd">
        <path d="M38.7695935,12.2597974 C39.6600813,12.4162876 39.5410569,13.3474041 39.0560163,13.8284878 C38.8962602,13.9870371 38.5784553,14.1487161 38.3893496,14.2921929 C37.6546341,14.849545 36.959187,15.4709757 36.2471545,16.0578139 C36.7908943,16.7211675 37.7430894,17.5047714 38.0738211,18.2860692 C38.3505691,18.9397863 37.7647967,19.6881388 37.5503252,20.4059345 C37.0742276,21.9994163 37.9081301,23.2085912 39.4226016,23.6344091 C39.836748,23.7508708 40.5660163,23.732998 40.8526829,24.1117865 C41.2150407,24.5906465 40.8373171,24.9823661 40.3843902,25.1369619 C39.6376423,25.3917938 38.6349593,25.3268916 37.8529268,25.4117257 C37.057561,25.4980424 36.1552033,25.73286 35.3564228,25.6827008 C34.1574797,25.6073384 32.6789431,24.3919039 31.5526829,24.7515019 C30.4068293,25.1174418 30.1557724,25.8884442 28.8664228,25.0942154 C27.8325203,24.457218 27.6985366,25.1246898 27.3469919,26.0679137 C27.0577236,26.844352 26.4238211,27.8820466 26.7928455,28.7052673 C27.0561789,29.2928467 27.5086179,29.5155569 26.8442276,30.0808983 C26.2557724,30.5815021 25.229187,30.5759838 24.530813,30.8224146 C23.2029268,31.2909791 24.4271545,31.965946 24.7560976,32.7054032 C25.1026016,33.4843948 24.3863415,35.2332137 23.3694309,34.55034 C22.7581301,34.1398415 22.3098374,33.1103833 21.8919512,32.5145676 C21.7117886,32.2576766 21.3584553,31.9121628 21.2566667,31.6088189 C21.1460976,31.2792835 21.2796748,30.8565954 21.2131707,30.5133877 C21.044878,29.6442083 17.7265041,26.2047191 17.0485366,27.449063 C16.7817886,27.9388773 18.578374,31.917434 18.4104065,31.9720408 C18.1241463,32.0651113 16.3020325,30.1526367 16.0350407,29.9068647 C15.1344715,29.0780434 15.3638211,27.3818546 13.7894309,28.0982501 C13.1234146,28.4013469 12.8192683,28.6213391 12.0757724,28.4138661 C11.1173171,28.1463503 10.8404878,28.1174408 10.3392683,28.9164467 C9.90691057,29.6056623 9.70195122,29.4625974 8.96317073,29.8396563 C8.46422764,30.0942411 8.11528455,30.4965856 7.74276423,30.9005773 C7.11130081,31.5853454 6.35284553,32.8754833 5.32739837,32.8502802 C4.72845528,32.8356195 4.26707317,32.6572207 3.65918699,32.6969198 C2.73219512,32.7573744 2.82162602,32.4461237 2.25081301,31.8213161 C1.6195935,31.1304532 0.696829268,31.0183568 1.10227642,29.9390688 C1.49487805,28.8940439 2.14349593,27.8635973 2.66861789,26.8796035 C3.19544715,25.8923976 3.77837398,25.6016553 4.83162602,26.07615 C5.7196748,26.4761883 6.59113821,26.9191379 7.4697561,27.3401788 C7.76934959,26.6839084 8.27829268,25.936462 8.43178862,25.2329151 C8.50796748,24.883942 8.37447154,24.5402402 8.48495935,24.1653227 C8.66430894,23.5566582 9.17894309,23.1950836 9.64878049,22.8237077 C11.2562602,21.5530075 13.5068293,19.9707271 15.6138211,19.813578 C17.329187,19.6855855 19.6723577,20.0008721 20.6214634,18.1776792 C20.8603252,17.7187512 20.8219512,17.233714 20.9903252,16.7715738 C21.2138211,16.1577205 21.7057724,15.5950148 22.2225203,15.2199326 C22.695122,14.8770543 23.5379675,14.8220357 23.5543902,14.1438567 C23.5569106,14.0403261 23.179187,13.1718056 23.1082927,13.1956086 C22.9800813,13.2386846 23.1219512,13.7208391 22.8858537,13.7177916 C22.6552846,13.7148265 22.5597561,13.39501 22.4478862,13.2129873 C22.0363415,12.5434564 21.8621951,11.1803447 21.089187,10.8605282 C20.1626829,10.4772096 19.1152846,12.183529 18.8522764,12.9256219 C18.6156911,13.593176 19.0277236,13.5873282 19.1426829,14.323491 C19.2338211,14.9074464 18.9087805,15.7132884 18.5204878,16.1610974 C18.0627642,16.6889635 17.2685366,16.8843291 16.7579675,16.3681586 C16.5591057,16.1671099 16.6599187,15.8215137 16.3318699,15.6646941 C15.9138211,15.4648809 15.638374,15.8875691 15.2560976,15.9393755 C13.8347967,16.1321879 14.1182927,14.6108563 14.2418699,13.7444773 C14.4123577,12.5490571 14.4958537,12.6002871 15.5723577,12.0290979 C16.8685366,11.3413648 17.684065,9.56973132 18.5290244,8.39836119 C19.1397561,7.551667 19.7506504,6.70489043 20.3613821,5.85811387 C20.7790244,5.2791826 20.6736585,5.24928474 21.3546341,5.43155461 C22.1021138,5.63161494 23.6930081,5.84798319 24.1063415,6.60193637 C24.5769919,7.46049088 23.5842276,9.81871542 25.3220325,9.8568496 C26.4837398,9.88229985 27.1956911,7.33175712 27.6030894,6.48423929 C28.2639024,5.10934958 28.9101626,3.72597645 29.5860163,2.35866415 C29.9055285,1.71227738 30.2306504,1.07017349 31.0544715,1.06572587 C31.6795935,1.06234898 32.1918699,1.49146151 32.3594309,2.09131305 C32.5910569,2.92021678 32.1296748,3.94316834 32.3939837,4.74456275 C32.6144715,5.4131876 33.4217886,6.15009159 33.8391057,6.71378566 C34.4152846,7.492036 35.0852033,8.2206213 35.3130081,9.18624803 C35.4065854,9.58282708 35.2881301,9.79013537 35.6147154,10.0859842 C35.8056911,10.2590293 36.1029268,10.1053395 36.2911382,10.3237669 C36.6952033,10.7928256 36.0797561,11.2398109 36.440813,11.7069753 C36.8162602,12.1928361 38.2046341,12.1604673 38.7695935,12.2597974 Z M6.85105691,20.5322797 C5.69910569,20.5322797 6.76292683,18.6838837 6.94065041,18.2574892 C7.28569106,17.4302327 7.73666667,16.5911983 7.99365854,15.7323967 C8.27097561,14.8057278 7.67504065,13.8709873 7.92447154,13.0010666 C8.17495935,12.1276044 10.0399187,12.1519015 10.6191057,12.7126305 C11.2418699,13.3153648 10.5363415,14.4523894 10.5500813,15.1532183 C10.568374,16.081864 11.0795122,17.0894136 11.2427642,18.0063636 C11.7652033,20.9410485 8.74406504,20.5322797 6.85105691,20.5322797 Z" id="eu" stroke="#3265B1" stroke-width="1.2"></path>
    </g>
</svg>