<?xml version="1.0" encoding="UTF-8" standalone="no"?>
<svg width="41px" height="27px" viewBox="0 0 41 27" version="1.1" xmlns="http://www.w3.org/2000/svg" xmlns:xlink="http://www.w3.org/1999/xlink">
    <!-- Generator: Sketch 43.1 (39012) - http://www.bohemiancoding.com/sketch -->
    <title>us-flag</title>
    <desc>Created with Sketch.</desc>
    <defs></defs>
    <g id="Welcome" stroke="none" stroke-width="1" fill="none" fill-rule="evenodd">
        <g id="us-flag">
            <rect id="Rectangle-path" fill="#F0F0F0" fill-rule="nonzero" x="0" y="0.024887218" width="40.920078" height="25.6644361"></rect>
            <g id="Group" transform="translate(0.000000, 3.157894)" fill-rule="nonzero" fill="#D80027">
                <rect id="Rectangle-path" x="0" y="0.0747368421" width="40.920078" height="3.20774436"></rect>
                <rect id="Rectangle-path" x="0" y="6.49105263" width="40.920078" height="3.20774436"></rect>
                <rect id="Rectangle-path" x="0" y="12.9065414" width="40.920078" height="3.20774436"></rect>
                <rect id="Rectangle-path" x="0" y="19.3228572" width="40.920078" height="3.20774436"></rect>
            </g>
            <rect id="Rectangle-path" fill="#2E52B2" fill-rule="nonzero" x="0" y="0.024887218" width="20.4600389" height="13.8193233"></rect>
            <g id="Group" transform="translate(2.077973, 2.180451)" fill-rule="nonzero" fill="#F0F0F0">
                <polygon id="Shape" points="5.90000389 3.50556391 5.57048538 4.45924812 4.50464522 4.45924812 5.36708382 5.04834587 5.0375653 6.00195488 5.90000389 5.41285714 6.76188304 6.00195488 6.43244445 5.04834587 7.29488304 4.45924812 6.22896297 4.45924812"></polygon>
                <polygon id="Shape" points="6.22896297 7.90075188 5.90000389 6.94714285 5.57048538 7.90075188 4.50464522 7.90075188 5.36708382 8.48992481 5.0375653 9.44353383 5.90000389 8.85436091 6.76188304 9.44353383 6.43244445 8.48992481 7.29488304 7.90075188"></polygon>
                <polygon id="Shape" points="1.72447759 7.90075188 1.39543859 6.94714285 1.06592008 7.90075188 7.99220273e-05 7.90075188 0.862518518 8.48992481 0.533 9.44353383 1.39543859 8.85436091 2.25739767 9.44353383 1.92795906 8.48992481 2.79023782 7.90075188"></polygon>
                <polygon id="Shape" points="1.39543859 3.50556391 1.06592008 4.45924812 7.99220273e-05 4.45924812 0.862518518 5.04834587 0.533 6.00195488 1.39543859 5.41285714 2.25739767 6.00195488 1.92795906 5.04834587 2.79023782 4.45924812 1.72447759 4.45924812"></polygon>
                <polygon id="Shape" points="5.90000389 0.0639097744 5.57048538 1.01766917 4.50464522 1.01766917 5.36708382 1.6068421 5.0375653 2.56045113 5.90000389 1.97127819 6.76188304 2.56045113 6.43244445 1.6068421 7.29488304 1.01766917 6.22896297 1.01766917"></polygon>
                <polygon id="Shape" points="1.39543859 0.0639097744 1.06592008 1.01766917 7.99220273e-05 1.01766917 0.862518518 1.6068421 0.533 2.56045113 1.39543859 1.97127819 2.25739767 2.56045113 1.92795906 1.6068421 2.79023782 1.01766917 1.72447759 1.01766917"></polygon>
                <polygon id="Shape" points="10.4044893 3.50556391 10.0750507 4.45924812 9.00921052 4.45924812 9.87156921 5.04834587 9.54221052 6.00195488 10.4044893 5.41285714 11.2665283 6.00195488 10.9370097 5.04834587 11.7994483 4.45924812 10.7336082 4.45924812"></polygon>
                <polygon id="Shape" points="10.7336082 7.90075188 10.4044893 6.94714285 10.0750507 7.90075188 9.00921052 7.90075188 9.87156921 8.48992481 9.54221052 9.44353383 10.4044893 8.85436091 11.2665283 9.44353383 10.9370097 8.48992481 11.7994483 7.90075188"></polygon>
                <polygon id="Shape" points="15.2381734 7.90075188 14.9091345 6.94714285 14.579616 7.90075188 13.5138557 7.90075188 14.3761345 8.48992481 14.0466959 9.44353383 14.9091345 8.85436091 15.7710936 9.44353383 15.4415751 8.48992481 16.3040137 7.90075188"></polygon>
                <polygon id="Shape" points="14.9091345 3.50556391 14.579616 4.45924812 13.5138557 4.45924812 14.3761345 5.04834587 14.0466959 6.00195488 14.9091345 5.41285714 15.7710936 6.00195488 15.4415751 5.04834587 16.3040137 4.45924812 15.2381734 4.45924812"></polygon>
                <polygon id="Shape" points="10.4044893 0.0639097744 10.0750507 1.01766917 9.00921052 1.01766917 9.87156921 1.6068421 9.54221052 2.56045113 10.4044893 1.97127819 11.2665283 2.56045113 10.9370097 1.6068421 11.7994483 1.01766917 10.7336082 1.01766917"></polygon>
                <polygon id="Shape" points="14.9091345 0.0639097744 14.579616 1.01766917 13.5138557 1.01766917 14.3761345 1.6068421 14.0466959 2.56045113 14.9091345 1.97127819 15.7710936 2.56045113 15.4415751 1.6068421 16.3040137 1.01766917 15.2381734 1.01766917"></polygon>
            </g>
            <rect id="Rectangle-5-Copy-3" stroke="#D8D8D8" stroke-width="0.25" x="0.125" y="0.125" width="40.75" height="26.75"></rect>
        </g>
    </g>
</svg>