<?xml version="1.0" encoding="UTF-8" standalone="no"?>
<svg width="22px" height="22px" viewBox="0 0 22 22" version="1.1" xmlns="http://www.w3.org/2000/svg" xmlns:xlink="http://www.w3.org/1999/xlink">
    <!-- Generator: Sketch 43.1 (39012) - http://www.bohemiancoding.com/sketch -->
    <title>vs-001</title>
    <desc>Created with Sketch.</desc>
    <defs></defs>
    <g id="Page-1" stroke="none" stroke-width="1" fill="none" fill-rule="evenodd">
        <g id="vs-001" fill-rule="nonzero" fill="#22B14C">
            <path d="M11,22 C4.92486775,22 0,17.0751322 0,11 C0,4.92486775 4.92486775,0 11,0 C17.0751322,0 22,4.92486775 22,11 C22,17.0751322 17.0751322,22 11,22 Z M11,20 C15.9705627,20 20,15.9705627 20,11 C20,6.02943725 15.9705627,2 11,2 C6.02943725,2 2,6.02943725 2,11 C2,15.9705627 6.02943725,20 11,20 Z" id="Oval"></path>
            <path d="M10.1035235,13.0577423 C9.87534265,13.5286378 9.5563302,13.8905244 9.14647662,14.1434128 C8.73662304,14.3963012 8.26428115,14.5227435 7.72943677,14.5227435 C7.19459238,14.5227435 6.72079713,14.3963012 6.30803679,14.1434128 C5.89527645,13.8905244 5.57408396,13.5286378 5.34444969,13.0577423 C5.11481541,12.5868467 5,12.03457 5,11.4008957 L5,11.1262079 C5,10.4925336 5.11481541,9.93953024 5.34444969,9.46718126 C5.57408396,8.99483228 5.89382309,8.63221905 6.30367667,8.37933067 C6.71353024,8.12644229 7.18587214,8 7.72071652,8 C8.2555609,8 8.72862948,8.12644229 9.13993644,8.37933067 C9.55124339,8.63221905 9.8717092,8.99483228 10.1013435,9.46718126 C10.3309778,9.93953024 10.4457932,10.4925336 10.4457932,11.1262079 L10.4457932,11.4008957 C10.4457932,12.03457 10.3317044,12.5868467 10.1035235,13.0577423 Z M8.71046436,9.63722605 C8.47792332,9.2956814 8.14801068,9.12491164 7.72071652,9.12491164 C7.2905156,9.12491164 6.96060296,9.29495472 6.73096868,9.63504599 C6.50133441,9.97513725 6.386519,10.4692795 6.386519,11.1174877 L6.386519,11.4008957 C6.386519,12.0432903 6.50278777,12.5374326 6.73532881,12.8833373 C6.96786984,13.2292421 7.29923585,13.4021919 7.72943677,13.4021919 C8.15673092,13.4021919 8.48519021,13.2292421 8.71482448,12.8833373 C8.94445875,12.5374326 9.05927417,12.0432903 9.05927417,11.4008957 L9.05927417,11.1174877 C9.05927417,10.4721863 8.94300539,9.97877069 8.71046436,9.63722605 Z M13.3233928,11.9415509 L12.656294,12.6653312 L12.656294,14.435541 L11.2872155,14.435541 L11.2872155,8.08720245 L12.656294,8.08720245 L12.656294,10.9343625 L13.2187498,10.1364601 L14.7709535,8.08720245 L16.4539608,8.08720245 L14.2346584,10.9082018 L16.5019221,14.435541 L14.8799565,14.435541 L13.3233928,11.9415509 Z" id="OK"></path>
        </g>
    </g>
</svg>