<?xml version="1.0" encoding="UTF-8" standalone="no"?>
<svg width="24px" height="21px" viewBox="0 0 24 21" version="1.1" xmlns="http://www.w3.org/2000/svg" xmlns:xlink="http://www.w3.org/1999/xlink">
    <!-- Generator: Sketch 43.1 (39012) - http://www.bohemiancoding.com/sketch -->
    <title>vs-002-g</title>
    <desc>Created with Sketch.</desc>
    <defs></defs>
    <g id="Page-1" stroke="none" stroke-width="1" fill="none" fill-rule="evenodd">
        <g id="vs-002-g" fill-rule="nonzero" fill="#F6A623">
            <path d="M9.43213258,2.34612892 C9.97884849,1.44479398 10.9513707,0.897255995 12,0.897255995 C13.0486293,0.897255995 14.0211515,1.44479398 14.5678674,2.34612892 L23.0459905,16.4999396 C23.5790281,17.4230391 23.5822106,18.55966 23.0543507,19.4857299 C22.5264909,20.4117999 21.5468725,20.9882243 20.47,21 L3.51900947,20.9999396 C2.4531275,20.9882243 1.47350913,20.4117999 0.94564925,19.4857299 C0.41778937,18.55966 0.420971911,17.4230391 0.962132578,16.4861289 L9.43213258,2.34612892 Z M2.68599053,17.5000604 C2.50831134,17.8077602 2.5072505,18.1866339 2.68320379,18.4953238 C2.85915708,18.8040138 3.18569654,18.9961553 3.53,19 L20.4590095,19.0000604 C20.8143035,18.9961553 21.1408429,18.8040138 21.3167962,18.4953238 C21.4927495,18.1866339 21.4916887,17.8077602 21.3221326,17.5138711 L12.855,3.378628 C12.6737172,3.07976866 12.3495431,2.897256 12,2.897256 C11.6512233,2.897256 11.3277045,3.07896919 11.1461945,3.37666387 L2.68599053,17.5000604 Z" id="Shape"></path>
            <path d="M11,8 L11,12 C11,12.5522847 11.4477153,13 12,13 C12.5522847,13 13,12.5522847 13,12 L13,8 C13,7.44771525 12.5522847,7 12,7 C11.4477153,7 11,7.44771525 11,8 Z" id="Shape"></path>
            <path d="M12,17 L12.01,17 C12.5622847,17 13.01,16.5522847 13.01,16 C13.01,15.4477153 12.5622847,15 12.01,15 L12,15 C11.4477153,15 11,15.4477153 11,16 C11,16.5522847 11.4477153,17 12,17 Z" id="Shape"></path>
        </g>
    </g>
</svg>