<?xml version="1.0" encoding="UTF-8" standalone="no"?>
<svg width="22px" height="22px" viewBox="0 0 22 22" version="1.1" xmlns="http://www.w3.org/2000/svg" xmlns:xlink="http://www.w3.org/1999/xlink">
    <!-- Generator: Sketch 43.1 (39012) - http://www.bohemiancoding.com/sketch -->
    <title>vs-003-g</title>
    <desc>Created with Sketch.</desc>
    <defs></defs>
    <g id="Page-1" stroke="none" stroke-width="1" fill="none" fill-rule="evenodd">
        <g id="vs-003-g" fill-rule="nonzero" fill="#E93C44">
            <path d="M11,22 C4.92486775,22 0,17.0751322 0,11 C0,4.92486775 4.92486775,0 11,0 C17.0751322,0 22,4.92486775 22,11 C22,17.0751322 17.0751322,22 11,22 Z M11,20 C15.9705627,20 20,15.9705627 20,11 C20,6.02943725 15.9705627,2 11,2 C6.02943725,2 2,6.02943725 2,11 C2,15.9705627 6.02943725,20 11,20 Z" id="Oval"></path>
            <path d="M6.65129662,9 C5.73931068,9 6,9.45097518 6,9.99077797 L6,12.009222 C6,12.5564136 5.7516253,13 6.65129662,13 L15.3487033,13 C16.2606893,13 16,12.5490248 16,12.009222 L16,9.99077797 C16,10.4435864 16.2483747,9 15.3487033,9 L6.65129662,9 Z" id="Rectangle-path"></path>
        </g>
    </g>
</svg>