<svg width="88" height="98" viewBox="0 0 88 98" fill="none" xmlns="http://www.w3.org/2000/svg">
<path d="M22.2 50.6L23.7999 54.3C27.0999 52.9 30.9 52.9 34.2 54.3L35.7999 50.6C31.4999 48.8 26.5 48.8 22.2 50.6Z" fill="#3265B1" stroke="#3265B1" stroke-width="1.5"/>
<path d="M50.2 50.6L51.7999 54.3C55.0999 52.9 58.8999 52.9 62.1999 54.3L63.8 50.6C59.5 48.8 54.5 48.8 50.2 50.6Z" fill="#3265B1" stroke="#3265B1" stroke-width="1.5"/>
<path d="M83.9 41C84 18.9 66.1 1 44 1C43.3 1 42.7 1 42 1.1C20.8 2.1 4 19.6 4 41C2.1 43.5 1 46.6 1 50V51C1 57.9 5.7 63.7 12 65.4C12.2 82.2 25.4 95.9 42 96.9C42.7 97 43.3 97 44 97C57.3 97 68.7 88.9 73.5 77.3C81.3 72.1 86.7 62.4 86.9 51.4C86.9 51.3 86.9 51.1 86.9 51V50C86.9 46.6 85.8 43.5 83.9 41ZM42 5.1C42.7 5 43.3 5 44 5C49 5 53.8 6 58.2 7.9C54.5 16.8 49 24.7 42 31C34.7 37.7 25.8 42.8 16 45.5V35C13.1 35 10.5 35.8 8.2 37.2C10.1 19.8 24.3 6 42 5.1ZM12 48V61.2C7.9 59.6 5 55.6 5 51V50C5 45.3 7.9 41.4 12 39.8V48ZM72 65C72 68.4 71.4 71.6 70.3 74.7C68 76.1 65.4 77 62.8 77.4C62 74.8 59.7 73 57 73C54.9 73 53 74.1 52 75.8C49.4 76.6 46.8 77 44 77C43.3 77 42.7 77 42 76.9C39.2 76.7 36.4 76 33.8 74.9L32.2 78.6C35.3 79.9 38.6 80.7 42 80.9C42.7 80.9 43.3 81 44 81C46.4 81 48.8 80.7 51.1 80.1C51.6 82.9 54.1 85 57 85C59.5 85 61.6 83.5 62.5 81.4C64.2 81.2 65.8 80.9 67.4 80.3C62.4 87.9 53.8 93 44 93C43.3 93 42.7 93 42 92.9C27.5 91.9 16 79.8 16 65V49.7C25.7 47.2 34.5 42.5 42 36.4V36.3C44.1 34.6 46.1 32.7 48 30.8C55.2 34.4 63.1 36.8 71.5 37.6C71.8 39.3 72 41.1 72 43V65ZM59 79C59 80.1 58.1 81 57 81C55.9 81 55 80.1 55 79C55 77.9 55.9 77 57 77C58.1 77 59 77.9 59 79ZM50.8 27.7C55.3 22.3 59.1 16.3 61.8 9.7C70.7 14.8 77.3 23.6 79.3 34C79 34 78.8 34 78.5 34C68.6 34 59.2 31.7 50.8 27.7ZM75.5 70.4C75.8 68.8 75.9 67.1 76 65.4C77.5 65 78.9 64.4 80.1 63.6C78.9 66.2 77.3 68.4 75.5 70.4ZM83 50.5C83 50.9 83 51.3 83 51.6C82.8 56 79.9 59.7 76 61.2V43V39.8C80.1 41.4 83 45.3 83 50V50.5Z" fill="#3265B1" stroke="#3265B1" stroke-width="1.5"/>
</svg>
