<?xml version="1.0" encoding="UTF-8" standalone="no"?>
<svg width="15px" height="15px" viewBox="0 0 15 15" version="1.1" xmlns="http://www.w3.org/2000/svg" xmlns:xlink="http://www.w3.org/1999/xlink">
    <!-- Generator: Sketch 43.1 (39012) - http://www.bohemiancoding.com/sketch -->
    <title>Path</title>
    <desc>Created with Sketch.</desc>
    <defs></defs>
    <g id="Page-1" stroke="none" stroke-width="1" fill="none" fill-rule="evenodd">
        <path d="M14.1666406,10.4166797 C13.1629182,10.4166511 12.1651808,10.2621203 11.2084766,9.95851563 C10.9167188,9.87507812 10.5834766,9.91660156 10.3751953,10.1668359 L8.54164062,11.9999609 C6.1665625,10.7918359 4.25007812,8.87496094 3.0415625,6.49984375 L4.87511719,4.66675781 C5.08339844,4.4584375 5.16660156,4.12519531 5.08339844,3.8334375 C4.74992188,2.87519531 4.58332031,1.875 4.58332031,0.833320313 C4.58332031,0.37515625 4.20835938,0 3.75,0 L0.833320312,0 C0.374960938,0 0,0.37515625 0,0.833320312 C0,8.6665625 6.3334375,15 14.1666406,15 C14.6248438,15 15,14.6248438 15,14.1666797 L15,11.25 C15,10.7918359 14.6248438,10.4166797 14.1666406,10.4166797 L14.1666406,10.4166797 Z" id="Path" fill="#2A2D34"></path>
    </g>
</svg>