<svg width="44" height="44" viewBox="0 0 44 44" fill="none" xmlns="http://www.w3.org/2000/svg">
<path d="M17 15.2363L26.3333 21.2363L17 27.2363V15.2363Z" stroke="white" stroke-width="2" stroke-linecap="round" stroke-linejoin="round"/>
<path d="M21.0001 35.2363C28.7321 35.2363 35.0001 28.9683 35.0001 21.2363C35.0001 13.5043 28.7321 7.23633 21.0001 7.23633C16.8873 7.23633 13.1888 9.00974 10.6275 11.8336C10.215 12.2883 9.49374 12.3237 9.07721 11.8727C8.74537 11.5135 8.72351 10.9633 9.04882 10.5981C11.9793 7.30825 16.2477 5.23633 21.0001 5.23633C29.8366 5.23633 37.0001 12.3998 37.0001 21.2363C37.0001 30.0729 29.8366 37.2363 21.0001 37.2363C15.5603 37.2363 10.7546 34.5217 7.86373 30.3732C7.60695 30.0047 7.65927 29.5087 7.96928 29.1837C8.42101 28.7102 9.20154 28.804 9.58067 29.3375C12.1178 32.9074 16.287 35.2363 21.0001 35.2363Z" fill="white"/>
<path d="M11.0011 31.0364C16.4685 36.5038 25.3328 36.5038 30.8001 31.0364C36.2675 25.5691 36.2675 16.7048 30.8001 11.2374C27.8047 8.24203 23.7896 6.88773 19.8722 7.17454C19.4283 7.20704 19.0331 6.87278 19.0201 6.42785C19.0088 6.03715 19.299 5.70159 19.6887 5.67137C24.1491 5.32544 28.8132 6.42213 32.2143 9.82324C38.4627 16.0716 38.4627 26.2023 32.2143 32.4507C25.966 38.699 15.8353 38.699 9.58693 32.4507C5.74044 28.6042 4.26184 23.2864 5.15113 18.3089C5.23012 17.8667 5.61781 17.553 6.06682 17.5424C6.7211 17.527 7.20665 18.1453 7.09753 18.7906C6.36726 23.1089 7.66847 27.7038 11.0011 31.0364Z" fill="white"/>
</svg>
