<?xml version="1.0" encoding="UTF-8" standalone="no"?>
<svg width="18px" height="39px" viewBox="0 0 18 39" version="1.1" xmlns="http://www.w3.org/2000/svg" xmlns:xlink="http://www.w3.org/1999/xlink">
    <!-- Generator: Sketch 43.1 (39012) - http://www.bohemiancoding.com/sketch -->
    <title>Group</title>
    <desc>Created with Sketch.</desc>
    <defs></defs>
    <g id="Page-1" stroke="none" stroke-width="1" fill="none" fill-rule="evenodd">
        <g id="Group" fill-rule="nonzero" fill="#3265B1">
            <path d="M9,10 C6.23857625,10 4,7.76142375 4,5 C4,2.23857625 6.23857625,0 9,0 C11.7614237,0 14,2.23857625 14,5 C14,7.76142375 11.7614237,10 9,10 Z M9,8 C10.6568542,8 12,6.65685425 12,5 C12,3.34314575 10.6568542,2 9,2 C7.34314575,2 6,3.34314575 6,5 C6,6.65685425 7.34314575,8 9,8 Z" id="Oval"></path>
            <polygon id="Path-2" points="8 9 8 36.5045451 10 36.5045451 10 9"></polygon>
            <polygon id="Path-3" points="1.70177751 28.2876038 0.298222494 29.7123962 9 38.2844686 17.7017775 29.7123962 16.2982225 28.2876038 9 35.477042"></polygon>
        </g>
    </g>
</svg>