<?xml version="1.0" standalone="no"?>
<!DOCTYPE svg PUBLIC "-//W3C//DTD SVG 20010904//EN"
 "http://www.w3.org/TR/2001/REC-SVG-20010904/DTD/svg10.dtd">
<svg version="1.0" xmlns="http://www.w3.org/2000/svg"
 width="700.000000pt" height="700.000000pt" viewBox="0 0 700.000000 700.000000"
 preserveAspectRatio="xMidYMid meet">
<metadata>
Created by potrace 1.11, written by Peter Selinger 2001-2013
</metadata>
<g transform="translate(0.000000,700.000000) scale(0.100000,-0.100000)"
fill="#000000" stroke="none">
<path d="M0 3500 l0 -3500 3500 0 3500 0 0 3500 0 3500 -3500 0 -3500 0 0
-3500z m1855 453 c214 -507 393 -924 396 -927 7 -7 121 278 477 1189 l258 660
318 3 c253 2 317 0 313 -10 -14 -36 -620 -1442 -850 -1973 l-264 -610 -264 0
-263 0 -563 1295 c-310 712 -563 1296 -563 1298 0 1 138 1 307 0 l308 -3 390
-922z m3440 902 c345 -61 575 -197 753 -444 18 -25 32 -49 32 -54 0 -5 -84
-96 -186 -203 l-186 -193 -62 82 c-114 150 -266 253 -440 297 -231 58 -566 -5
-643 -121 -30 -46 -41 -120 -24 -172 34 -102 227 -181 576 -237 266 -42 480
-102 619 -172 305 -154 432 -403 371 -725 -40 -212 -161 -389 -351 -513 -361
-236 -1009 -251 -1449 -35 -167 82 -313 195 -426 331 -42 52 -58 78 -52 87 10
12 333 418 340 427 2 2 23 -18 45 -45 23 -28 80 -88 127 -135 226 -225 405
-305 681 -303 204 1 357 42 463 125 89 71 99 191 21 264 -56 53 -273 117 -537
159 -253 39 -364 71 -537 152 -113 53 -177 91 -248 151 -224 187 -287 538
-147 820 127 255 417 423 815 472 103 12 336 5 445 -15z"/>
</g>
</svg>
