<svg width="111" height="21" viewBox="0 0 111 21" fill="none" xmlns="http://www.w3.org/2000/svg"><path d="M19.885 10.99c-.103-.104-.17-.174-.273-.28-.374.106-.749.35-.987.666a1.68 1.68 0 0 0-.068 1.82c.17.28.442.525.749.665.374.175.783.245 1.226.245V11.62l-.273-.28-.374-.35zm.135-3.325c0 .245.069.49.205.665.068.105.17.245.238.35V6.93a.74.74 0 0 0-.17.105.954.954 0 0 0-.273.63z" fill="#3265B1"/><path d="M0 21h20.497v-4.97c-.817.035-1.6-.14-2.315-.49a3.96 3.96 0 0 1-1.464-1.26 2.951 2.951 0 0 1-.51-1.68c0-.7.204-1.365.612-1.96a4.7 4.7 0 0 1 1.635-1.33 5.702 5.702 0 0 1-.34-.63 2.09 2.09 0 0 1-.205-.91c0-.49.17-.945.408-1.33a3.163 3.163 0 0 1 1.192-1.05c.307-.175.681-.28 1.022-.35V0H0v21zM7.082 5.075l2.622 6.37c.136.35.306.735.477 1.155.068.105.102.21.136.35.034-.105.442-1.085.579-1.47l2.417-6.405h2.588L14.198 9.17l-2.894 6.86h-2.11L4.562 5.075h2.52zm15.663.105c.306.105.579.245.851.42.579.385 1.056.875 1.362 1.505l.068.14-1.396 1.19-.136-.21a2.32 2.32 0 0 0-.783-.945v3.815l.987.98c.069-.14.102-.28.137-.455.068-.28.102-.56.136-.84v-.21h1.907v.21c0 .525-.103 1.05-.273 1.54-.136.42-.34.805-.545 1.19.307.35.58.665.886 1.015.306.35.612.7.817.945l.306.35h-2.553l-.069-.07c-.136-.14-.272-.28-.408-.455a2.439 2.439 0 0 1-.273-.35c-.306.245-.646.42-1.021.595V21h20.497V0H22.745v5.18zm12.155 7a8.294 8.294 0 0 0-2.042-.49 6.773 6.773 0 0 1-2.826-1.05c-.75-.525-1.192-1.435-1.158-2.38 0-.665.204-1.295.613-1.82a3.46 3.46 0 0 1 1.6-1.12c1.498-.56 3.167-.49 4.63.105.682.315 1.26.805 1.703 1.47l.17.245-1.566 1.68-.238-.35c-.273-.42-.647-.735-1.09-.98a3.32 3.32 0 0 0-1.532-.385c-.51-.035-1.022.105-1.498.315-.307.14-.477.42-.477.77 0 .315.204.63.51.735a6.61 6.61 0 0 0 1.805.49c.511.07 1.022.175 1.499.315.476.14.919.315 1.328.525.408.21.749.525.987.91.272.42.409.91.375 1.4 0 .7-.205 1.365-.58 1.925-.408.56-.953.98-1.6 1.26a5.544 5.544 0 0 1-2.383.42c-.885 0-1.77-.14-2.622-.49a5.274 5.274 0 0 1-2.077-1.61l-.17-.245 1.464-1.855.272.35c.409.525.886.945 1.465 1.295a3.212 3.212 0 0 0 1.804.42c.375 0 .75-.035 1.09-.175.306-.07.578-.21.817-.42.17-.14.272-.35.238-.595 0-.21-.034-.49-.51-.665zm21.86-5.286h-3.371v9.38h-2.486v-9.38h-3.337V4.83h9.194v2.065zm5.958.805l-.034 2.38c-.408-.035-.68-.07-.817-.07-.409 0-.75.07-1.021.21-.273.14-.443.35-.58.63v5.46h-2.383V7.77h2.247l.069 1.05c.204-.385.476-.7.783-.91.306-.21.647-.315 1.055-.315.273.035.511.07.681.105zm8.24.07v8.505h-2.247l-.068-.91c-.273.35-.58.595-.954.77-.374.175-.783.28-1.293.28-.852 0-1.533-.245-2.043-.77-.511-.525-.75-1.295-.75-2.38V7.77h2.384v5.53c0 .385.102.7.306.875.205.175.477.28.818.28.68 0 1.157-.245 1.43-.735V7.77h2.417zm8.512 5.53c0 .63-.136 1.155-.442 1.645-.307.49-.715.84-1.26 1.12-.545.28-1.124.385-1.77.385-.818 0-1.533-.175-2.112-.56-.578-.385-1.021-.875-1.293-1.54a5.818 5.818 0 0 1-.443-2.24v-.21c0-.84.136-1.575.442-2.24.273-.665.716-1.155 1.294-1.54.58-.385 1.294-.56 2.111-.56.681 0 1.294.14 1.805.42.51.28.92.665 1.226 1.155.306.525.442 1.12.442 1.82h-2.247c0-.42-.102-.77-.34-1.015-.239-.245-.545-.385-.954-.385-.544 0-.919.21-1.09.63-.204.42-.306.98-.306 1.715v.21c0 .735.102 1.33.307 1.715.204.385.578.595 1.123.595.375 0 .681-.105.92-.315.238-.21.34-.49.34-.875h2.247v.07zm4.359-.315l-.75.77v2.52h-2.383V4.2h2.384v6.545l.34-.455 2.043-2.52h2.86l-2.928 3.535 3.166 4.97h-2.723l-2.01-3.29zm8.508-8.295c.239.245.375.525.375.91 0 .35-.136.665-.375.91-.238.245-.579.35-.953.35-.375 0-.715-.105-.954-.35a1.23 1.23 0 0 1-.374-.91c0-.385.136-.665.374-.91.239-.245.58-.35.954-.35s.68.105.953.35zm-2.179 11.62V7.77h2.383v8.505h-2.383v.035zM100.85 8.4c.443.525.681 1.365.681 2.52v5.39h-2.383v-5.39c0-.49-.102-.84-.306-1.015-.205-.175-.511-.28-.954-.28-.579 0-.987.245-1.26.7v5.985h-2.383V7.77h2.247l.068.98a2.39 2.39 0 0 1 1.022-.84c.408-.21.851-.28 1.328-.28.85 0 1.464.245 1.94.77zm1.666 3.244c0-.873.14-1.637.42-2.293.286-.662.69-1.175 1.214-1.54.524-.37 1.145-.555 1.865-.555.497 0 .92.082 1.269.246.355.164.654.397.897.698l.095-.785h2.174v8.275c0 .789-.177 1.458-.531 2.008a3.32 3.32 0 0 1-1.468 1.253c-.63.286-1.36.429-2.19.429-.355 0-.733-.048-1.135-.143a4.87 4.87 0 0 1-1.158-.436 2.954 2.954 0 0 1-.913-.746l1.048-1.468c.253.286.555.51.904.674.349.17.733.254 1.151.254.597 0 1.06-.158 1.388-.476.333-.312.5-.762.5-1.349v-.42c-.254.28-.55.5-.889.658-.333.154-.719.23-1.158.23-.714 0-1.333-.187-1.857-.563-.518-.38-.92-.9-1.206-1.555-.28-.656-.42-1.4-.42-2.23v-.166zm2.404.166c0 .672.135 1.24.404 1.706.276.466.704.698 1.286.698.349 0 .64-.063.873-.19.232-.127.42-.304.563-.532V9.914c-.291-.476-.764-.714-1.42-.714-.577 0-1.005.235-1.286.706-.28.465-.42 1.045-.42 1.738v.166z" fill="#3265B1"/></svg>