<svg width="159" height="21" viewBox="0 0 159 21" fill="none" xmlns="http://www.w3.org/2000/svg"><path d="M60.452 10.098a4.458 4.458 0 0 0-.263-.165 2.81 2.81 0 0 0 1.028-2.201 2.922 2.922 0 0 0-1.215-2.513c-.758-.546-1.857-.823-3.274-.823h-6.155v12.215h6.472c.541 0 1.081-.054 1.612-.16a4.894 4.894 0 0 0 1.554-.592 3.36 3.36 0 0 0 1.182-1.19c.317-.575.472-1.22.45-1.873a3.257 3.257 0 0 0-.36-1.606 3.187 3.187 0 0 0-1.03-1.092zM53.44 7.112h3.245c.447-.016.89.074 1.294.263.241.12.379.376.342.637a.695.695 0 0 1-.36.64c-.323.203-.698.31-1.082.312h-3.44V7.112zm5.065 6.447a2.848 2.848 0 0 1-1.46.33H53.44v-2.205h3.526c.345 0 .689.043 1.024.126.267.055.515.175.72.35a.712.712 0 0 1 .213.584.833.833 0 0 1-.418.816zm16.009-2.825a3.803 3.803 0 0 0 .202-4.434 4.28 4.28 0 0 0-1.558-1.4 4.352 4.352 0 0 0-2.07-.511h-6.453v12.215h2.884v-4.14h2.524l2.884 4.14 3.512.024-3.288-4.71a4.396 4.396 0 0 0 1.363-1.184zm-2.322-1.69a1.502 1.502 0 0 1-1.298.7H67.5V7.112h3.166c.304-.004.606.058.883.182.242.105.452.269.61.476.137.181.209.401.205.626a1.18 1.18 0 0 1-.173.648zm17.583-3.01a6.764 6.764 0 0 0-2.195-1.327 7.776 7.776 0 0 0-2.74-.472 7.865 7.865 0 0 0-2.773.472c-.812.3-1.556.752-2.188 1.33a6.085 6.085 0 0 0-1.967 4.463c0 1.686.71 3.298 1.966 4.462a6.653 6.653 0 0 0 2.189 1.33 7.863 7.863 0 0 0 2.773.473 7.776 7.776 0 0 0 2.74-.473 6.75 6.75 0 0 0 2.195-1.326 6.047 6.047 0 0 0 1.443-2.016 6.18 6.18 0 0 0 0-4.9 6.052 6.052 0 0 0-1.443-2.016zm-1.442 6.258a3.525 3.525 0 0 1-1.399 1.267 4.496 4.496 0 0 1-2.094.469 4.57 4.57 0 0 1-2.131-.47 3.483 3.483 0 0 1-1.392-1.256 3.29 3.29 0 0 1-.487-1.802 3.292 3.292 0 0 1 .494-1.803 3.489 3.489 0 0 1 1.392-1.256 4.575 4.575 0 0 1 2.13-.47 4.5 4.5 0 0 1 2.096.47c.575.29 1.06.725 1.402 1.26a3.25 3.25 0 0 1 .498 1.799 3.266 3.266 0 0 1-.509 1.792zm4.515-5.18h3.872v9.496h2.866V7.112h3.955v-2.72H92.848v2.72zm21.924 2.076h-5.913V4.393h-2.866v12.215h2.866v-4.7h5.913v4.7h2.867V4.393h-2.867v4.795zm6.53 7.42h9.612v-2.72h-6.746v-2.173h5.845V8.999h-5.845V7.112h6.746v-2.72h-9.612v12.216zm22.793-5.874a3.804 3.804 0 0 0 .202-4.434 4.285 4.285 0 0 0-1.558-1.4 4.352 4.352 0 0 0-2.069-.511h-6.454v12.215h2.884v-4.14h2.524l2.884 4.14 3.512.024-3.288-4.71a4.398 4.398 0 0 0 1.363-1.184zm-2.322-1.69a1.498 1.498 0 0 1-1.298.7h-3.393V7.112h3.169a2.1 2.1 0 0 1 .884.182c.242.105.451.269.609.476a1 1 0 0 1 .205.626 1.18 1.18 0 0 1-.176.648zm16.506 2.044a3.476 3.476 0 0 0-1.201-1.03 7.028 7.028 0 0 0-1.572-.608 16.94 16.94 0 0 0-1.752-.35 8.555 8.555 0 0 1-2.037-.525.722.722 0 0 1-.505-.735c0-.193.054-.445.487-.672a3.567 3.567 0 0 1 1.659-.35 3.598 3.598 0 0 1 1.705.388c.48.251.896.604 1.215 1.033l.382.518 1.98-1.974-.249-.35a4.803 4.803 0 0 0-2.03-1.635 7.268 7.268 0 0 0-2.953-.556 7.185 7.185 0 0 0-2.524.427 4.517 4.517 0 0 0-1.889 1.263 3.073 3.073 0 0 0-.743 2.062 3.055 3.055 0 0 0 1.385 2.691 8.04 8.04 0 0 0 3.317 1.148 10.5 10.5 0 0 1 2.315.54c.468.188.533.437.533.657a.659.659 0 0 1-.252.536 2.271 2.271 0 0 1-.876.434c-.403.11-.819.165-1.237.164a4.015 4.015 0 0 1-1.997-.455 6.476 6.476 0 0 1-1.641-1.4l-.429-.49-1.839 2.244.281.332a6.24 6.24 0 0 0 2.463 1.813c.98.377 2.026.563 3.079.55a7.503 7.503 0 0 0 2.794-.48 4.335 4.335 0 0 0 1.918-1.4 3.57 3.57 0 0 0 .693-2.173 2.7 2.7 0 0 0-.48-1.617zm-137.23-.108a10.732 10.732 0 0 1-.288-.28c-.415.11-.785.34-1.06.66a1.625 1.625 0 0 0-.073 1.814c.186.287.458.513.78.647a3.39 3.39 0 0 0 1.283.252v-2.481l-.281-.27-.361-.343zm.151-3.304c.01.243.09.479.23.68.08.12.167.237.26.35v-1.75a.772.772 0 0 0-.19.122.769.769 0 0 0-.3.598z" fill="#3265B1"/><path d="M0 21h21.687v-4.97a5.808 5.808 0 0 1-2.466-.483 3.784 3.784 0 0 1-1.554-1.277 2.995 2.995 0 0 1-.534-1.694 3.219 3.219 0 0 1 .645-1.943 4.467 4.467 0 0 1 1.72-1.326 4.967 4.967 0 0 1-.36-.617 2.052 2.052 0 0 1-.228-.923 2.37 2.37 0 0 1 .448-1.345 3.26 3.26 0 0 1 1.261-1.05 3.83 3.83 0 0 1 1.082-.35V0H0v21zM7.5 5.089l2.775 6.367c.152.35.318.745.502 1.148.054.112.1.224.155.35.043-.109.461-1.103.609-1.463l2.574-6.388h2.751l-1.803 4.085-3.057 6.856H9.735L4.83 5.089H7.5zm16.585.091c.315.102.616.243.894.42.61.37 1.107.89 1.442 1.509l.08.154-1.479 1.19-.13-.231a2.763 2.763 0 0 0-.818-.945v3.8l1.042.988a2.97 2.97 0 0 0 .159-.441 4.2 4.2 0 0 0 .137-.837v-.203h1.997v.224a5.193 5.193 0 0 1-.876 2.726c.313.35.627.669.94 1.008.315.34.639.7.852.946l.31.35H25.96l-.069-.07a18.405 18.405 0 0 1-.436-.473c-.105-.119-.206-.231-.303-.35a5.499 5.499 0 0 1-1.082.591V21h21.72V0H24.084v5.18zm12.864 7a9.79 9.79 0 0 0-2.163-.5 7.25 7.25 0 0 1-2.99-1.05 2.684 2.684 0 0 1-1.218-2.37 2.712 2.712 0 0 1 .653-1.813 4.015 4.015 0 0 1 1.68-1.127 7.102 7.102 0 0 1 4.914.119 4.299 4.299 0 0 1 1.803 1.46l.173.248-1.64 1.662-.267-.35a3.445 3.445 0 0 0-1.15-.98 3.435 3.435 0 0 0-1.623-.37 3.383 3.383 0 0 0-1.576.325.805.805 0 0 0-.508.756.808.808 0 0 0 .534.739 7.91 7.91 0 0 0 1.896.493c.537.077 1.068.181 1.594.311a6.5 6.5 0 0 1 1.417.536c.42.22.783.532 1.06.91.281.415.425.903.41 1.4.014.688-.2 1.363-.609 1.925-.43.56-1.014.99-1.683 1.246a6.735 6.735 0 0 1-2.524.427 7.451 7.451 0 0 1-2.773-.497 5.585 5.585 0 0 1-2.21-1.624l-.195-.234 1.533-1.87.303.35c.434.51.952.948 1.532 1.296.58.302 1.234.45 1.893.426.394.002.786-.051 1.164-.157a2.1 2.1 0 0 0 .858-.427.719.719 0 0 0 .267-.577c-.007-.214-.054-.497-.551-.697l-.004.014z" fill="#3265B1"/></svg>