<svg width="94" height="21" viewBox="0 0 94 21" fill="none" xmlns="http://www.w3.org/2000/svg"><g clip-path="url(#a)"><path d="M20.44 10.99l-.28-.28c-.385.106-.77.35-1.015.666a1.64 1.64 0 0 0-.07 1.82c.175.28.455.525.77.665.385.175.805.245 1.26.245V11.62l-.28-.28-.385-.35zm.14-3.325c0 .245.07.49.21.665.07.105.175.245.245.35V6.93a.765.765 0 0 0-.175.105.941.941 0 0 0-.28.63z" fill="#3265B1"/><path d="M0 21h21.07v-4.97a5.016 5.016 0 0 1-2.38-.49 4.04 4.04 0 0 1-1.505-1.26 2.895 2.895 0 0 1-.525-1.68c0-.7.21-1.365.63-1.96a4.807 4.807 0 0 1 1.68-1.33c-.14-.21-.245-.42-.35-.63-.14-.28-.21-.595-.21-.91 0-.49.175-.945.42-1.33a3.226 3.226 0 0 1 1.225-1.05c.315-.175.7-.28 1.05-.35V0H0v21zM7.28 5.075l2.695 6.37c.14.35.315.735.49 1.155.07.105.105.21.14.35.035-.105.455-1.085.595-1.47l2.485-6.405h2.66l-1.75 4.095-2.975 6.86H9.45L4.69 5.075h2.59zm16.1.105c.315.105.595.245.875.42.595.385 1.085.875 1.4 1.505l.07.14-1.435 1.19-.14-.21a2.335 2.335 0 0 0-.805-.945v3.815l1.015.98c.07-.14.105-.28.14-.455.07-.28.105-.56.14-.84v-.21h1.96v.21a4.61 4.61 0 0 1-.28 1.54c-.14.42-.35.805-.56 1.19l.91 1.015c.315.35.63.7.84.945l.315.35H25.2l-.07-.07c-.14-.14-.28-.28-.42-.455a2.452 2.452 0 0 1-.28-.35c-.315.245-.665.42-1.05.595V21h21.07V0H23.38v5.18zm12.495 7a8.723 8.723 0 0 0-2.1-.49 7.083 7.083 0 0 1-2.905-1.05 2.77 2.77 0 0 1-1.19-2.38c0-.665.21-1.295.63-1.82.42-.525 1.015-.91 1.645-1.12 1.54-.56 3.255-.49 4.76.105a4.17 4.17 0 0 1 1.75 1.47l.175.245-1.61 1.68-.245-.35c-.28-.42-.665-.735-1.12-.98a3.49 3.49 0 0 0-1.575-.385c-.525-.035-1.05.105-1.54.315a.805.805 0 0 0-.49.77c0 .315.21.63.525.735.595.245 1.225.42 1.855.49.525.07 1.05.175 1.54.315s.945.315 1.365.525c.42.21.77.525 1.015.91.28.42.42.91.385 1.4 0 .7-.21 1.365-.595 1.925-.42.56-.98.98-1.645 1.26a5.84 5.84 0 0 1-2.45.42c-.91 0-1.82-.14-2.695-.49a5.404 5.404 0 0 1-2.135-1.61l-.175-.245 1.505-1.855.28.35c.42.525.91.945 1.505 1.295.56.315 1.19.455 1.855.42.385 0 .77-.035 1.12-.175.315-.07.595-.21.84-.42.175-.14.28-.35.245-.595 0-.21-.035-.49-.525-.665zm21.945 2.344a3.707 3.707 0 0 1-1.61 1.4c-.7.35-1.505.49-2.415.49-.98 0-1.855-.21-2.555-.665-.735-.455-1.26-1.085-1.645-1.925-.385-.84-.56-1.82-.56-2.975v-.665c0-1.12.21-2.1.595-2.94.385-.84.945-1.47 1.68-1.925.735-.455 1.575-.665 2.52-.665.945 0 1.75.175 2.45.525.7.35 1.19.84 1.575 1.435.385.63.595 1.33.665 2.135h-2.555c-.035-.665-.21-1.19-.56-1.505-.315-.315-.84-.49-1.575-.49s-1.295.28-1.645.84c-.35.56-.525 1.435-.525 2.625v.665c0 .805.07 1.47.21 1.995.14.525.385.875.7 1.12.315.245.735.35 1.295.35.7 0 1.19-.14 1.54-.455.35-.315.525-.805.595-1.47h2.555c-.14.805-.35 1.505-.735 2.1zm8.995.842c.07.315.14.56.28.77v.14H64.61c-.105-.21-.175-.455-.245-.77-.525.595-1.225.91-2.1.91a3.465 3.465 0 0 1-1.47-.315 2.435 2.435 0 0 1-1.05-.91 2.465 2.465 0 0 1-.385-1.33c0-.91.315-1.575.98-2.065s1.645-.735 2.975-.735h.91v-.455c0-.385-.105-.665-.28-.91-.175-.21-.49-.315-.875-.315-.35 0-.63.07-.805.245a.977.977 0 0 0-.28.7h-2.45c0-.525.14-.98.455-1.4.315-.42.735-.735 1.295-.98.56-.245 1.19-.35 1.925-.35.665 0 1.26.105 1.785.35.525.245.945.56 1.225 1.015.28.455.455 1.015.455 1.645v3.535c.07.525.105.945.14 1.225z" fill="#3265B1"/><path d="M63.735 14.386c.245-.14.42-.315.56-.525v-1.4h-.875c-.525 0-.91.105-1.155.35a1.213 1.213 0 0 0-.385.91c0 .245.105.455.28.63.175.175.42.245.735.245.28 0 .56-.07.84-.21z" fill="#fff"/><path d="M73.36 7.7l-.035 2.38c-.42-.034-.7-.07-.84-.07-.42 0-.77.07-1.05.21-.28.14-.455.35-.595.63v5.46h-2.45V7.77h2.31l.07 1.05c.21-.384.49-.7.805-.91.315-.21.665-.314 1.085-.314.245.035.49.07.7.105zm9.415 7.91a4.768 4.768 0 0 1-1.47.594c-.595.175-1.295.245-2.065.245-1.015 0-1.89-.21-2.625-.665a4.803 4.803 0 0 1-1.75-1.89c-.42-.84-.63-1.82-.63-3.01v-.665c0-1.155.21-2.17.595-3.01.42-.84.98-1.47 1.715-1.925.735-.455 1.575-.665 2.52-.665 1.47 0 2.555.35 3.29 1.015.735.7 1.19 1.645 1.33 2.835h-2.45c-.105-.595-.28-1.05-.63-1.365-.35-.315-.805-.455-1.47-.455-.735 0-1.33.28-1.715.875-.42.595-.595 1.47-.595 2.625v.665c0 2.345.875 3.5 2.59 3.5.805 0 1.365-.175 1.75-.525v-1.82H79.1v-1.855h4.585v4.655c-.21.35-.525.595-.91.84zm2.695-5.88a3.505 3.505 0 0 1 1.4-1.54c.596-.384 1.33-.56 2.206-.56.84 0 1.575.176 2.205.56.63.386 1.084.876 1.4 1.54.315.666.49 1.4.49 2.24v.176c0 .84-.175 1.575-.49 2.24a3.505 3.505 0 0 1-1.4 1.54c-.596.385-1.33.56-2.206.56-.84 0-1.575-.175-2.204-.56a3.505 3.505 0 0 1-1.4-1.54 5.137 5.137 0 0 1-.49-2.24v-.175c0-.84.175-1.575.49-2.24z" fill="#3265B1"/><path d="M87.815 13.825c.245.42.665.63 1.225.63s.98-.21 1.225-.63c.245-.42.385-.98.385-1.715v-.175c0-.7-.14-1.26-.385-1.715-.245-.455-.665-.665-1.225-.665s-.98.21-1.225.665c-.245.42-.385 1.015-.385 1.715v.175c0 .735.14 1.295.385 1.715z" fill="#fff"/></g><defs><clipPath id="a"><path fill="#fff" d="M0 0h93.1v21H0z"/></clipPath></defs></svg>