<?xml version="1.0" encoding="UTF-8" standalone="no"?>
<svg width="45px" height="30px" viewBox="0 0 45 30" version="1.1" xmlns="http://www.w3.org/2000/svg" xmlns:xlink="http://www.w3.org/1999/xlink">
    <!-- Generator: Sketch 43.1 (39012) - http://www.bohemiancoding.com/sketch -->
    <title>001-flag</title>
    <desc>Created with Sketch.</desc>
    <defs></defs>
    <g id="Page-1" stroke="none" stroke-width="1" fill="none" fill-rule="evenodd">
        <g id="001-flag" fill-rule="nonzero">
            <rect id="Rectangle-path" fill="#F0F0F0" x="0" y="0.0290350877" width="44.9122807" height="29.9418421"></rect>
            <g id="Group" transform="translate(0.000000, 3.684211)" fill="#D80027">
                <rect id="Rectangle-path" x="0" y="0.0871929825" width="44.9122807" height="3.74236842"></rect>
                <rect id="Rectangle-path" x="0" y="7.57289474" width="44.9122807" height="3.74236842"></rect>
                <rect id="Rectangle-path" x="0" y="15.0576316" width="44.9122807" height="3.74236842"></rect>
                <rect id="Rectangle-path" x="0" y="22.5433333" width="44.9122807" height="3.74236842"></rect>
            </g>
            <rect id="Rectangle-path" fill="#2E52B2" x="0" y="0.0290350877" width="22.4561404" height="16.1225439"></rect>
            <g id="Group" transform="translate(2.280702, 2.543860)" fill="#F0F0F0">
                <polygon id="Shape" points="6.47561404 4.08982456 6.11394737 5.20245614 4.94412281 5.20245614 5.89070175 5.88973684 5.52903509 7.0022807 6.47561404 6.315 7.42157895 7.0022807 7.06 5.88973684 8.00657895 5.20245614 6.83666667 5.20245614"></polygon>
                <polygon id="Shape" points="6.83666667 9.21754386 6.47561404 8.105 6.11394737 9.21754386 4.94412281 9.21754386 5.89070175 9.90491228 5.52903509 11.0174561 6.47561404 10.3300877 7.42157895 11.0174561 7.06 9.90491228 8.00657895 9.21754386"></polygon>
                <polygon id="Shape" points="1.8927193 9.21754386 1.53157895 8.105 1.16991228 9.21754386 8.77192982e-05 9.21754386 0.946666667 9.90491228 0.585 11.0174561 1.53157895 10.3300877 2.47763158 11.0174561 2.11605263 9.90491228 3.06245614 9.21754386"></polygon>
                <polygon id="Shape" points="1.53157895 4.08982456 1.16991228 5.20245614 8.77192982e-05 5.20245614 0.946666667 5.88973684 0.585 7.0022807 1.53157895 6.315 2.47763158 7.0022807 2.11605263 5.88973684 3.06245614 5.20245614 1.8927193 5.20245614"></polygon>
                <polygon id="Shape" points="6.47561404 0.0745614035 6.11394737 1.1872807 4.94412281 1.1872807 5.89070175 1.87464912 5.52903509 2.98719298 6.47561404 2.29982456 7.42157895 2.98719298 7.06 1.87464912 8.00657895 1.1872807 6.83666667 1.1872807"></polygon>
                <polygon id="Shape" points="1.53157895 0.0745614035 1.16991228 1.1872807 8.77192982e-05 1.1872807 0.946666667 1.87464912 0.585 2.98719298 1.53157895 2.29982456 2.47763158 2.98719298 2.11605263 1.87464912 3.06245614 1.1872807 1.8927193 1.1872807"></polygon>
                <polygon id="Shape" points="11.4195614 4.08982456 11.0579825 5.20245614 9.88815789 5.20245614 10.8346491 5.88973684 10.4731579 7.0022807 11.4195614 6.315 12.3657018 7.0022807 12.0040351 5.88973684 12.950614 5.20245614 11.7807895 5.20245614"></polygon>
                <polygon id="Shape" points="11.7807895 9.21754386 11.4195614 8.105 11.0579825 9.21754386 9.88815789 9.21754386 10.8346491 9.90491228 10.4731579 11.0174561 11.4195614 10.3300877 12.3657018 11.0174561 12.0040351 9.90491228 12.950614 9.21754386"></polygon>
                <polygon id="Shape" points="16.7248246 9.21754386 16.3636842 8.105 16.0020175 9.21754386 14.8322807 9.21754386 15.7786842 9.90491228 15.4171053 11.0174561 16.3636842 10.3300877 17.3097368 11.0174561 16.9480702 9.90491228 17.8946491 9.21754386"></polygon>
                <polygon id="Shape" points="16.3636842 4.08982456 16.0020175 5.20245614 14.8322807 5.20245614 15.7786842 5.88973684 15.4171053 7.0022807 16.3636842 6.315 17.3097368 7.0022807 16.9480702 5.88973684 17.8946491 5.20245614 16.7248246 5.20245614"></polygon>
                <polygon id="Shape" points="11.4195614 0.0745614035 11.0579825 1.1872807 9.88815789 1.1872807 10.8346491 1.87464912 10.4731579 2.98719298 11.4195614 2.29982456 12.3657018 2.98719298 12.0040351 1.87464912 12.950614 1.1872807 11.7807895 1.1872807"></polygon>
                <polygon id="Shape" points="16.3636842 0.0745614035 16.0020175 1.1872807 14.8322807 1.1872807 15.7786842 1.87464912 15.4171053 2.98719298 16.3636842 2.29982456 17.3097368 2.98719298 16.9480702 1.87464912 17.8946491 1.1872807 16.7248246 1.1872807"></polygon>
            </g>
        </g>
    </g>
</svg>