<?xml version="1.0" encoding="UTF-8" standalone="no"?>
<svg width="45px" height="30px" viewBox="0 0 45 30" version="1.1" xmlns="http://www.w3.org/2000/svg" xmlns:xlink="http://www.w3.org/1999/xlink">
    <!-- Generator: Sketch 43.1 (39012) - http://www.bohemiancoding.com/sketch -->
    <title>005-georgia</title>
    <desc>Created with Sketch.</desc>
    <defs></defs>
    <g id="Page-1" stroke="none" stroke-width="1" fill="none" fill-rule="evenodd">
        <g id="005-georgia" fill-rule="nonzero">
            <rect id="Rectangle-path" fill="#F0F0F0" x="0" y="0.0292105263" width="44.9122807" height="29.9418421"></rect>
            <g id="Group" fill="#D80027">
                <polygon id="Shape" points="25.2631579 0.0289473684 19.6491228 0.0289473684 19.6491228 12.1926316 0 12.1926316 0 17.8066667 19.6491228 17.8066667 19.6491228 29.9703509 25.2631579 29.9703509 25.2631579 17.8066667 44.9122807 17.8066667 44.9122807 12.1926316 25.2631579 12.1926316"></polygon>
                <polygon id="Shape" points="10.8008772 5.1345614 10.8008772 3.18184211 8.84824561 3.18184211 8.84824561 5.1345614 6.89552632 5.1345614 6.89552632 7.0872807 8.84824561 7.0872807 8.84824561 9.04 10.8008772 9.04 10.8008772 7.0872807 12.7535965 7.0872807 12.7535965 5.1345614"></polygon>
                <polygon id="Shape" points="36.0640351 5.1345614 36.0640351 3.18184211 34.1114035 3.18184211 34.1114035 5.1345614 32.1586842 5.1345614 32.1586842 7.0872807 34.1114035 7.0872807 34.1114035 9.04 36.0640351 9.04 36.0640351 7.0872807 38.0167544 7.0872807 38.0167544 5.1345614"></polygon>
                <polygon id="Shape" points="10.8008772 22.9120175 10.8008772 20.9592982 8.84824561 20.9592982 8.84824561 22.9120175 6.89552632 22.9120175 6.89552632 24.8647368 8.84824561 24.8647368 8.84824561 26.8174561 10.8008772 26.8174561 10.8008772 24.8647368 12.7535965 24.8647368 12.7535965 22.9120175"></polygon>
                <polygon id="Shape" points="36.0640351 22.9120175 36.0640351 20.9592982 34.1114035 20.9592982 34.1114035 22.9120175 32.1586842 22.9120175 32.1586842 24.8647368 34.1114035 24.8647368 34.1114035 26.8174561 36.0640351 26.8174561 36.0640351 24.8647368 38.0167544 24.8647368 38.0167544 22.9120175"></polygon>
            </g>
        </g>
    </g>
</svg>