<svg width="90" height="90" viewBox="0 0 90 90" fill="none" xmlns="http://www.w3.org/2000/svg">
<path d="M87 45.5C87 22.0279 67.9721 3 44.5 3C21.0279 3 2 22.0279 2 45.5C2 68.9721 21.0279 88 44.5 88C67.9721 88 87 68.9721 87 45.5Z" fill="url(#paint0_linear_2_2527)"/>
<g filter="url(#filter0_d_2_2527)">
<path d="M44.5 84C65.763 84 83 66.763 83 45.5C83 24.237 65.763 7 44.5 7C23.237 7 6 24.237 6 45.5C6 66.763 23.237 84 44.5 84Z" fill="url(#paint1_linear_2_2527)"/>
</g>
<g filter="url(#filter1_d_2_2527)">
<path d="M44.5 79C63.0015 79 78 64.0015 78 45.5C78 26.9985 63.0015 12 44.5 12C25.9985 12 11 26.9985 11 45.5C11 64.0015 25.9985 79 44.5 79Z" fill="#4F4F4F"/>
</g>
<g filter="url(#filter2_d_2_2527)">
<path fill-rule="evenodd" clip-rule="evenodd" d="M44.05 50H24V30H44.0633V34.7833C43.7149 34.8427 43.3777 34.9551 43.0633 35.1167C42.5951 35.3445 42.1934 35.6888 41.8967 36.1167C41.6344 36.4926 41.4905 36.9383 41.4833 37.3967C41.4852 37.7022 41.557 38.0032 41.6933 38.2767C41.7905 38.4798 41.9018 38.6759 42.0267 38.8633C41.4001 39.1461 40.8538 39.5803 40.4367 40.1267C40.0463 40.6643 39.8373 41.3123 39.84 41.9767C39.8417 42.5513 40.0134 43.1126 40.3333 43.59C40.693 44.1184 41.1896 44.5389 41.77 44.8067C42.4859 45.1291 43.2651 45.2863 44.05 45.2667V50ZM33.5 40.91L30.9333 34.8467H28.4667L33 45.28H35.1L37.9267 38.75L39.5933 34.86H37.05L34.67 40.9433C34.5963 41.1285 34.4499 41.4891 34.3244 41.7983C34.2171 42.0624 34.1251 42.2891 34.1067 42.3367C34.0997 42.3199 34.0928 42.3034 34.0861 42.2871C34.0444 42.1868 34.0063 42.0951 33.9633 42.0033C33.8366 41.7177 33.7192 41.4358 33.6097 41.1727C33.5722 41.0827 33.5357 40.995 33.5 40.91ZM47.0934 35.3333C46.8362 35.1651 46.5583 35.0306 46.2667 34.9333V30H66.3334V50H46.2534V44.7967C46.6071 44.6476 46.9426 44.4586 47.2534 44.2333C47.3245 44.3229 47.3976 44.4082 47.4728 44.4959C47.4929 44.5193 47.5131 44.5429 47.5334 44.5667C47.6801 44.7356 47.8145 44.8856 47.9367 45.0167L48.0001 45.0833H50.4734L50.1867 44.75C49.9901 44.5167 49.6901 44.1733 49.4001 43.85C49.2842 43.7208 49.1683 43.5948 49.0524 43.4688C48.8783 43.2795 48.7042 43.0901 48.5301 42.89C48.7545 42.5393 48.9368 42.1633 49.0734 41.77C49.235 41.2937 49.3248 40.796 49.3401 40.2933V40.08H47.4934V40.2733C47.4774 40.5424 47.435 40.8092 47.3667 41.07C47.3287 41.2136 47.2797 41.354 47.2201 41.49L46.2567 40.55V36.93C46.5741 37.1685 46.8329 37.4764 47.0134 37.83L47.1334 38.05L48.5001 36.9167L48.4267 36.77C48.1169 36.1818 47.6569 35.6862 47.0934 35.3333ZM56.1601 41.1233C56.843 41.2038 57.5143 41.3637 58.1601 41.6L58.1634 41.5867C58.6234 41.7767 58.6667 42.0467 58.6734 42.25C58.6794 42.4614 58.5885 42.6639 58.4267 42.8C58.1979 42.9959 57.9261 43.1352 57.6334 43.2067C57.2834 43.3072 56.9209 43.3577 56.5567 43.3567C55.9477 43.3784 55.3438 43.238 54.8067 42.95C54.2704 42.6189 53.7919 42.2023 53.3901 41.7167L53.1101 41.3833L51.6934 43.1633L51.8734 43.3867C52.4141 44.0653 53.1168 44.5972 53.9167 44.9333C54.732 45.2572 55.6029 45.418 56.4801 45.4067C57.277 45.4258 58.0699 45.2876 58.8134 45C59.4326 44.7569 59.9716 44.3459 60.3701 43.8133C60.7484 43.2779 60.9458 42.6355 60.9334 41.98C60.9465 41.5071 60.8138 41.0416 60.5534 40.6467C60.2975 40.2865 59.9622 39.99 59.5734 39.78C59.1588 39.5581 58.7189 39.3869 58.2634 39.27C57.7777 39.1459 57.286 39.0469 56.7901 38.9733C56.188 38.8919 55.5988 38.7339 55.0367 38.5033C54.7439 38.3916 54.5485 38.1129 54.5434 37.7996C54.5382 37.4862 54.7244 37.2012 55.0134 37.08C55.4659 36.8579 55.9664 36.7514 56.4701 36.77C56.9919 36.7596 57.5078 36.8812 57.9701 37.1233C58.3895 37.3516 58.7527 37.6704 59.0334 38.0567L59.2801 38.39L60.7967 36.8067L60.6367 36.57C60.2199 35.9619 59.6431 35.4809 58.9701 35.18C57.5208 34.5864 55.9039 34.5461 54.4267 35.0667C53.825 35.2844 53.2899 35.6541 52.8734 36.14C52.4722 36.6248 52.2581 37.2375 52.2701 37.8667C52.2273 38.7637 52.654 39.6185 53.3967 40.1233C54.2306 40.6608 55.1753 41.0027 56.1601 41.1233Z" fill="url(#paint2_linear_2_2527)"/>
</g>
<g filter="url(#filter3_d_2_2527)">
<path fill-rule="evenodd" clip-rule="evenodd" d="M33.4165 57.2369C33.6381 57.3924 33.7638 57.6097 33.7937 57.8889H34.9346C34.9283 57.5203 34.8249 57.1943 34.6246 56.9109C34.4243 56.6254 34.1484 56.4027 33.7969 56.2429C33.4474 56.081 33.0405 56 32.576 56C32.1179 56 31.7077 56.081 31.3455 56.2429C30.9833 56.4027 30.6967 56.6275 30.4858 56.9173C30.277 57.207 30.1726 57.5448 30.1726 57.9304C30.1726 58.3992 30.3281 58.7752 30.6392 59.0586C30.9524 59.3399 31.3785 59.5497 31.9176 59.6882L32.6623 59.88C32.8967 59.9396 33.1012 60.0078 33.2759 60.0845C33.4528 60.1591 33.5902 60.2529 33.6882 60.3658C33.7862 60.4766 33.8363 60.6172 33.8384 60.7877C33.8363 60.9752 33.7798 61.1392 33.669 61.2798C33.5582 61.4183 33.4048 61.527 33.2088 61.6058C33.0149 61.6825 32.7891 61.7209 32.5312 61.7209C32.2841 61.7209 32.0604 61.6836 31.8601 61.609C31.6619 61.5345 31.5011 61.4215 31.3775 61.2703C31.2539 61.119 31.1836 60.9293 31.1665 60.7014H30C30.017 61.136 30.13 61.5046 30.3388 61.8072C30.5497 62.1097 30.8416 62.3399 31.2145 62.4975C31.5895 62.6552 32.0316 62.734 32.5408 62.734C33.065 62.734 33.5114 62.6531 33.88 62.4911C34.2507 62.3271 34.5341 62.1002 34.7301 61.8104C34.9261 61.5185 35.0241 61.1808 35.0241 60.7972C35.0241 60.5139 34.9709 60.2667 34.8643 60.0558C34.7578 59.8448 34.6129 59.6648 34.4297 59.5156C34.2486 59.3665 34.043 59.2429 33.8128 59.1449C33.5849 59.0469 33.3473 58.9691 33.1001 58.9116L32.4865 58.7582C32.3523 58.7262 32.2191 58.6868 32.087 58.6399C31.9549 58.5931 31.8345 58.5355 31.7258 58.4673C31.6172 58.397 31.5309 58.3118 31.467 58.2117C31.4052 58.1115 31.3743 57.9933 31.3743 57.8569C31.3764 57.6928 31.4243 57.5469 31.5181 57.419C31.6118 57.2912 31.7471 57.19 31.924 57.1154C32.1008 57.0409 32.3128 57.0036 32.56 57.0036C32.9116 57.0036 33.1971 57.0813 33.4165 57.2369ZM37.2669 62.635V56.0895H36.0812V62.635H37.2669ZM38.5509 62.635V56.0895H39.7367V61.641H42.6195V62.635H38.5509ZM45.551 61.2415L43.8476 56.0895H42.5468L44.8511 62.635H46.3149L48.6224 56.0895H47.3184L45.6182 61.2415H45.551ZM49.4845 62.635V56.0895H53.7416V57.0835H50.6703V58.8605H53.5211V59.8544H50.6703V61.641H53.7672V62.635H49.4845ZM54.9513 56.0895V62.635H56.1371V60.2379H57.3436L58.63 62.635H59.9531L58.5373 60.0436C58.5799 60.0264 58.6215 60.008 58.6619 59.9886C59.0071 59.8203 59.2681 59.5828 59.4449 59.2759C59.6239 58.967 59.7134 58.6026 59.7134 58.1829C59.7134 57.7653 59.625 57.3999 59.4481 57.0867C59.2734 56.7713 59.0145 56.5263 58.6715 56.3516C58.3306 56.1769 57.9087 56.0895 57.4059 56.0895H54.9513ZM56.1371 59.2536H57.2301C57.5241 59.2536 57.7649 59.2131 57.9524 59.1321C58.1399 59.049 58.2784 58.9286 58.3679 58.771C58.4595 58.6112 58.5053 58.4151 58.5053 58.1829C58.5053 57.9507 58.4595 57.7525 58.3679 57.5884C58.2763 57.4222 58.1367 57.2965 57.9492 57.2113C57.7617 57.1239 57.5199 57.0803 57.2237 57.0803H56.1371V59.2536Z" fill="url(#paint3_linear_2_2527)"/>
</g>
<defs>
<filter id="filter0_d_2_2527" x="4" y="7" width="81" height="83" filterUnits="userSpaceOnUse" color-interpolation-filters="sRGB">
<feFlood flood-opacity="0" result="BackgroundImageFix"/>
<feColorMatrix in="SourceAlpha" type="matrix" values="0 0 0 0 0 0 0 0 0 0 0 0 0 0 0 0 0 0 127 0" result="hardAlpha"/>
<feOffset dy="4"/>
<feGaussianBlur stdDeviation="1"/>
<feColorMatrix type="matrix" values="0 0 0 0 0 0 0 0 0 0 0 0 0 0 0 0 0 0 0.6 0"/>
<feBlend mode="normal" in2="BackgroundImageFix" result="effect1_dropShadow_2_2527"/>
<feBlend mode="normal" in="SourceGraphic" in2="effect1_dropShadow_2_2527" result="shape"/>
</filter>
<filter id="filter1_d_2_2527" x="5" y="10" width="79" height="79" filterUnits="userSpaceOnUse" color-interpolation-filters="sRGB">
<feFlood flood-opacity="0" result="BackgroundImageFix"/>
<feColorMatrix in="SourceAlpha" type="matrix" values="0 0 0 0 0 0 0 0 0 0 0 0 0 0 0 0 0 0 127 0" result="hardAlpha"/>
<feOffset dy="4"/>
<feGaussianBlur stdDeviation="3"/>
<feColorMatrix type="matrix" values="0 0 0 0 0 0 0 0 0 0 0 0 0 0 0 0 0 0 0.8 0"/>
<feBlend mode="normal" in2="BackgroundImageFix" result="effect1_dropShadow_2_2527"/>
<feBlend mode="normal" in="SourceGraphic" in2="effect1_dropShadow_2_2527" result="shape"/>
</filter>
<filter id="filter2_d_2_2527" x="19" y="28" width="52.3334" height="30" filterUnits="userSpaceOnUse" color-interpolation-filters="sRGB">
<feFlood flood-opacity="0" result="BackgroundImageFix"/>
<feColorMatrix in="SourceAlpha" type="matrix" values="0 0 0 0 0 0 0 0 0 0 0 0 0 0 0 0 0 0 127 0" result="hardAlpha"/>
<feOffset dy="3"/>
<feGaussianBlur stdDeviation="2.5"/>
<feColorMatrix type="matrix" values="0 0 0 0 0 0 0 0 0 0 0 0 0 0 0 0 0 0 1 0"/>
<feBlend mode="normal" in2="BackgroundImageFix" result="effect1_dropShadow_2_2527"/>
<feBlend mode="normal" in="SourceGraphic" in2="effect1_dropShadow_2_2527" result="shape"/>
</filter>
<filter id="filter3_d_2_2527" x="28" y="55" width="33.9531" height="10.7339" filterUnits="userSpaceOnUse" color-interpolation-filters="sRGB">
<feFlood flood-opacity="0" result="BackgroundImageFix"/>
<feColorMatrix in="SourceAlpha" type="matrix" values="0 0 0 0 0 0 0 0 0 0 0 0 0 0 0 0 0 0 127 0" result="hardAlpha"/>
<feOffset dy="1"/>
<feGaussianBlur stdDeviation="1"/>
<feColorMatrix type="matrix" values="0 0 0 0 0 0 0 0 0 0 0 0 0 0 0 0 0 0 1 0"/>
<feBlend mode="normal" in2="BackgroundImageFix" result="effect1_dropShadow_2_2527"/>
<feBlend mode="normal" in="SourceGraphic" in2="effect1_dropShadow_2_2527" result="shape"/>
</filter>
<linearGradient id="paint0_linear_2_2527" x1="-8" y1="41.5" x2="94.5" y2="52.5" gradientUnits="userSpaceOnUse">
<stop stop-color="#919191"/>
<stop offset="0.395833" stop-color="#B3ADAD"/>
<stop offset="0.6875" stop-color="#ADADAD"/>
<stop offset="1" stop-color="#B6B6B6"/>
</linearGradient>
<linearGradient id="paint1_linear_2_2527" x1="44" y1="4.5" x2="44" y2="87" gradientUnits="userSpaceOnUse">
<stop stop-color="#DBD9D9"/>
<stop offset="1" stop-color="#C8C1C1"/>
</linearGradient>
<linearGradient id="paint2_linear_2_2527" x1="19.0196" y1="39.0588" x2="68.1229" y2="50.2129" gradientUnits="userSpaceOnUse">
<stop stop-color="#919191"/>
<stop offset="0.395833" stop-color="#D1D1D1"/>
<stop offset="0.6875" stop-color="#ECE6E6"/>
<stop offset="1" stop-color="#B6B6B6"/>
</linearGradient>
<linearGradient id="paint3_linear_2_2527" x1="26.4761" y1="59.0501" x2="56.2318" y2="73.254" gradientUnits="userSpaceOnUse">
<stop stop-color="#919191"/>
<stop offset="0.395833" stop-color="#D1D1D1"/>
<stop offset="0.6875" stop-color="#ECE6E6"/>
<stop offset="1" stop-color="#B6B6B6"/>
</linearGradient>
</defs>
</svg>
