<svg width="90" height="90" viewBox="0 0 90 90" fill="none" xmlns="http://www.w3.org/2000/svg">
<path d="M87 45.5C87 22.0279 67.9721 3 44.5 3C21.0279 3 2 22.0279 2 45.5C2 68.9721 21.0279 88 44.5 88C67.9721 88 87 68.9721 87 45.5Z" fill="#EFA31A"/>
<g filter="url(#filter0_d_2_2602)">
<path d="M44.5 84C65.763 84 83 66.763 83 45.5C83 24.237 65.763 7 44.5 7C23.237 7 6 24.237 6 45.5C6 66.763 23.237 84 44.5 84Z" fill="url(#paint0_linear_2_2602)"/>
</g>
<g filter="url(#filter1_d_2_2602)">
<path d="M44.5 79C63.0015 79 78 64.0015 78 45.5C78 26.9985 63.0015 12 44.5 12C25.9985 12 11 26.9985 11 45.5C11 64.0015 25.9985 79 44.5 79Z" fill="#EFA31A"/>
</g>
<g filter="url(#filter2_d_2_2602)">
<path fill-rule="evenodd" clip-rule="evenodd" d="M39.2643 34.6151H50.7872L49.7372 38.2243H40.163C40.1719 37.7844 39.8872 36.9315 39.7537 36.4467C39.6113 35.899 39.3711 35.1538 39.2643 34.6151ZM33.0535 30.1619C33.3383 29.3449 35.8119 25.5561 36.9509 25.2957C38.1254 25.0264 39.6647 25.0264 40.9193 24.9276C43.2239 24.7481 51.1253 24.784 53.1096 25.3047C53.7947 25.4843 54.8803 26.858 55.2807 27.4685C55.5832 27.9353 55.859 28.2945 56.1438 28.7703C56.3573 29.1294 56.8022 29.7489 56.8823 30.153H33.0535V30.1619ZM31.3273 29.4527C31.096 29.4257 30.5888 29.1474 30.2685 29.0217C29.3698 28.6715 27.3499 28.1867 26.5135 28.7164C25.8996 29.1025 25.8818 30.2338 26.2199 30.9341C26.7538 32.0294 28.2753 31.8768 29.3164 31.8229C29.1562 32.2 28.8448 32.5412 28.7558 33.017C30.2863 33.2684 32.3773 33.2953 33.6853 33.8161C35.3047 34.4535 33.5162 36.3479 31.621 36.3479C29.6367 36.3479 29.2452 35.8092 28.5868 35.6745C28.7558 37.5779 28.7647 39.4993 28.9338 41.4116C29.0228 42.4261 29.2363 42.9828 29.9037 43.4766C30.7668 44.123 31.4608 43.9883 32.7421 43.9883C34.406 43.9883 35.5183 42.7404 35.2691 40.9896H54.729C54.6222 41.9772 54.7468 42.5069 55.2807 43.1354C55.8057 43.7549 56.4285 43.9883 57.4785 43.9883C58.6619 43.9883 59.2225 44.0961 60.05 43.5125C60.6817 43.0636 60.9932 42.4621 61.0643 41.4565C61.2067 39.5531 61.2423 37.5779 61.4025 35.6745C60.5305 35.8451 60.3792 36.3479 58.3683 36.3479C56.4819 36.3479 54.729 34.4894 56.2506 33.834C57.4429 33.3223 59.7564 33.2504 61.2334 33.017C61.1978 32.613 60.8152 32.1641 60.6728 31.8229C62.0876 31.8857 63.4846 31.9935 63.8939 30.6108C64.2053 29.5514 63.8405 28.483 62.6749 28.483C60.3169 28.483 59.1869 29.3898 58.6619 29.4527C58.3149 28.9229 58.0568 28.4291 57.7276 27.9174C56.7666 26.436 55.7968 24.8199 54.2663 23.8413C52.5935 22.7729 43.0282 22.9524 40.0207 23.15C35.3759 23.4462 35.1535 23.536 32.2972 27.8725C31.9324 28.4202 31.6922 28.905 31.3273 29.4527Z" fill="url(#paint1_linear_2_2602)"/>
</g>
<g filter="url(#filter3_d_2_2602)">
<path fill-rule="evenodd" clip-rule="evenodd" d="M36.9325 51.7163C37.0263 51.8526 37.0998 52.0071 37.153 52.1797H38.3611C38.3121 51.858 38.2088 51.5639 38.0511 51.2976C37.8934 51.0313 37.6921 50.8011 37.4471 50.6073C37.2042 50.4134 36.9261 50.2642 36.6129 50.1598C36.2997 50.0533 35.962 50 35.5998 50C35.1715 50 34.7752 50.0767 34.4108 50.2301C34.0465 50.3814 33.729 50.603 33.4584 50.8949C33.1878 51.1847 32.9769 51.5373 32.8256 51.9528C32.6765 52.3683 32.6019 52.8402 32.6019 53.3686C32.6019 54.059 32.7287 54.6556 32.9822 55.1584C33.2379 55.6591 33.5927 56.0458 34.0465 56.3185C34.5025 56.5891 35.0319 56.7244 35.6349 56.7244C36.1761 56.7244 36.6555 56.6147 37.0731 56.3953C37.4907 56.1737 37.8189 55.8583 38.0575 55.4492C38.2961 55.0401 38.4155 54.5554 38.4155 53.995V53.2088H35.7596V54.1357H37.2677C37.2622 54.4359 37.1962 54.699 37.0699 54.9251C36.9378 55.1595 36.7493 55.3406 36.5042 55.4684C36.2613 55.5962 35.9737 55.6602 35.6413 55.6602C35.2748 55.6602 34.9531 55.5717 34.6761 55.3949C34.3991 55.2159 34.1829 54.9549 34.0273 54.6119C33.8718 54.2688 33.794 53.8502 33.794 53.3558C33.794 52.8658 33.8718 52.4503 34.0273 52.1094C34.185 51.7663 34.4013 51.5064 34.6761 51.3296C34.951 51.1527 35.2642 51.0643 35.6157 51.0643C35.8118 51.0643 35.9929 51.0899 36.1591 51.141C36.3253 51.19 36.4723 51.2635 36.6001 51.3615C36.7301 51.4595 36.8409 51.5778 36.9325 51.7163ZM45.0145 55.1744C45.2787 54.6715 45.4108 54.0675 45.4108 53.3622C45.4108 52.657 45.2787 52.054 45.0145 51.5533C44.7524 51.0504 44.3944 50.6659 43.9406 50.3995C43.4889 50.1332 42.9765 50 42.4033 50C41.8301 50 41.3167 50.1332 40.8628 50.3995C40.4111 50.6659 40.0532 51.0504 39.789 51.5533C39.5269 52.054 39.3958 52.657 39.3958 53.3622C39.3958 54.0654 39.5269 54.6683 39.789 55.1712C40.0532 55.6719 40.4111 56.0565 40.8628 56.3249C41.3167 56.5913 41.8301 56.7244 42.4033 56.7244C42.9765 56.7244 43.4889 56.5913 43.9406 56.3249C44.3944 56.0586 44.7524 55.6751 45.0145 55.1744ZM43.9853 52.1062C44.1409 52.4471 44.2186 52.8658 44.2186 53.3622C44.2186 53.8587 44.1409 54.2784 43.9853 54.6215C43.8319 54.9624 43.6189 55.2212 43.3461 55.3981C43.0734 55.5728 42.7591 55.6602 42.4033 55.6602C42.0475 55.6602 41.7332 55.5728 41.4605 55.3981C41.1877 55.2212 40.9736 54.9624 40.8181 54.6215C40.6647 54.2784 40.588 53.8587 40.588 53.3622C40.588 52.8658 40.6647 52.4471 40.8181 52.1062C40.9736 51.7632 41.1877 51.5043 41.4605 51.3296C41.7332 51.1527 42.0475 51.0643 42.4033 51.0643C42.7591 51.0643 43.0734 51.1527 43.3461 51.3296C43.6189 51.5043 43.8319 51.7632 43.9853 52.1062ZM46.5318 56.635V50.0895H47.7175V55.641H50.6003V56.635H46.5318ZM51.6294 56.635H53.8475C54.5122 56.635 55.0811 56.5039 55.5541 56.2418C56.0293 55.9798 56.3926 55.6037 56.644 55.1136C56.8975 54.6236 57.0243 54.0377 57.0243 53.3558C57.0243 52.6761 56.8986 52.0923 56.6472 51.6044C56.3958 51.1165 56.0357 50.7426 55.5669 50.4826C55.1003 50.2205 54.5421 50.0895 53.8922 50.0895H51.6294V56.635ZM53.7899 55.609H52.8151V51.1154H53.8251C54.2683 51.1154 54.639 51.1985 54.9373 51.3647C55.2377 51.5288 55.4646 51.777 55.6181 52.1094C55.7715 52.4396 55.8482 52.8551 55.8482 53.3558C55.8482 53.8565 55.7715 54.2742 55.6181 54.6087C55.4646 54.9411 55.2356 55.1914 54.9309 55.3597C54.6262 55.5259 54.2459 55.609 53.7899 55.609ZM30.2181 66.635H28V60.0895H30.2628C30.9127 60.0895 31.4709 60.2205 31.9375 60.4826C32.4063 60.7426 32.7664 61.1165 33.0178 61.6044C33.2692 62.0923 33.3949 62.6761 33.3949 63.3558C33.3949 64.0377 33.2681 64.6236 33.0146 65.1136C32.7632 65.6037 32.3999 65.9798 31.9247 66.2418C31.4517 66.5039 30.8828 66.635 30.2181 66.635ZM29.1858 65.609H30.1605C30.6165 65.609 30.9968 65.5259 31.3015 65.3597C31.6062 65.1914 31.8353 64.9411 31.9887 64.6087C32.1421 64.2742 32.2188 63.8565 32.2188 63.3558C32.2188 62.8551 32.1421 62.4396 31.9887 62.1094C31.8353 61.777 31.6083 61.5288 31.3079 61.3647C31.0096 61.1985 30.6389 61.1154 30.1957 61.1154H29.1858V65.609ZM34.5215 60.0895V66.635H38.8042V65.641H35.7072V63.8544H38.5581V62.8605H35.7072V61.0835H38.7786V60.0895H34.5215ZM40.8289 66.635H39.5632L41.8676 60.0895H43.3313L45.6389 66.635H44.3733L43.831 65.021H41.3702L40.8289 66.635ZM42.625 61.4318L43.5109 64.0685H41.6896L42.5739 61.4318H42.625ZM46.501 60.0895V66.635H50.5695V65.641H47.6867V60.0895H46.501ZM51.5987 66.635V60.0895H55.8558V61.0835H52.7844V62.8605H55.6352V63.8544H52.7844V65.641H55.8813V66.635H51.5987ZM57.0655 60.0895V66.635H58.2512V64.2379H59.4578L60.7441 66.635H62.0672L60.6515 64.0436C60.694 64.0264 60.7356 64.008 60.776 63.9886C61.1212 63.8203 61.3822 63.5828 61.5591 63.2759C61.738 62.967 61.8275 62.6026 61.8275 62.1829C61.8275 61.7653 61.7391 61.3999 61.5623 61.0867C61.3875 60.7713 61.1287 60.5263 60.7856 60.3516C60.4447 60.1769 60.0228 60.0895 59.52 60.0895H57.0655ZM58.2512 63.2536H59.3442C59.6383 63.2536 59.879 63.2131 60.0665 63.1321C60.254 63.049 60.3925 62.9286 60.482 62.771C60.5736 62.6112 60.6194 62.4151 60.6194 62.1829C60.6194 61.9507 60.5736 61.7525 60.482 61.5884C60.3904 61.4222 60.2508 61.2965 60.0633 61.2113C59.8758 61.1239 59.634 61.0803 59.3378 61.0803H58.2512V63.2536Z" fill="url(#paint2_linear_2_2602)"/>
</g>
<defs>
<filter id="filter0_d_2_2602" x="4" y="7" width="81" height="83" filterUnits="userSpaceOnUse" color-interpolation-filters="sRGB">
<feFlood flood-opacity="0" result="BackgroundImageFix"/>
<feColorMatrix in="SourceAlpha" type="matrix" values="0 0 0 0 0 0 0 0 0 0 0 0 0 0 0 0 0 0 127 0" result="hardAlpha"/>
<feOffset dy="4"/>
<feGaussianBlur stdDeviation="1"/>
<feColorMatrix type="matrix" values="0 0 0 0 0 0 0 0 0 0 0 0 0 0 0 0 0 0 0.6 0"/>
<feBlend mode="normal" in2="BackgroundImageFix" result="effect1_dropShadow_2_2602"/>
<feBlend mode="normal" in="SourceGraphic" in2="effect1_dropShadow_2_2602" result="shape"/>
</filter>
<filter id="filter1_d_2_2602" x="5" y="10" width="79" height="79" filterUnits="userSpaceOnUse" color-interpolation-filters="sRGB">
<feFlood flood-opacity="0" result="BackgroundImageFix"/>
<feColorMatrix in="SourceAlpha" type="matrix" values="0 0 0 0 0 0 0 0 0 0 0 0 0 0 0 0 0 0 127 0" result="hardAlpha"/>
<feOffset dy="4"/>
<feGaussianBlur stdDeviation="3"/>
<feColorMatrix type="matrix" values="0 0 0 0 0 0 0 0 0 0 0 0 0 0 0 0 0 0 0.8 0"/>
<feBlend mode="normal" in2="BackgroundImageFix" result="effect1_dropShadow_2_2602"/>
<feBlend mode="normal" in="SourceGraphic" in2="effect1_dropShadow_2_2602" result="shape"/>
</filter>
<filter id="filter2_d_2_2602" x="21" y="21" width="47.9999" height="31" filterUnits="userSpaceOnUse" color-interpolation-filters="sRGB">
<feFlood flood-opacity="0" result="BackgroundImageFix"/>
<feColorMatrix in="SourceAlpha" type="matrix" values="0 0 0 0 0 0 0 0 0 0 0 0 0 0 0 0 0 0 127 0" result="hardAlpha"/>
<feOffset dy="3"/>
<feGaussianBlur stdDeviation="2.5"/>
<feColorMatrix type="matrix" values="0 0 0 0 0 0 0 0 0 0 0 0 0 0 0 0 0 0 1 0"/>
<feBlend mode="normal" in2="BackgroundImageFix" result="effect1_dropShadow_2_2602"/>
<feBlend mode="normal" in="SourceGraphic" in2="effect1_dropShadow_2_2602" result="shape"/>
</filter>
<filter id="filter3_d_2_2602" x="26" y="49" width="38.0672" height="20.635" filterUnits="userSpaceOnUse" color-interpolation-filters="sRGB">
<feFlood flood-opacity="0" result="BackgroundImageFix"/>
<feColorMatrix in="SourceAlpha" type="matrix" values="0 0 0 0 0 0 0 0 0 0 0 0 0 0 0 0 0 0 127 0" result="hardAlpha"/>
<feOffset dy="1"/>
<feGaussianBlur stdDeviation="1"/>
<feColorMatrix type="matrix" values="0 0 0 0 0 0 0 0 0 0 0 0 0 0 0 0 0 0 1 0"/>
<feBlend mode="normal" in2="BackgroundImageFix" result="effect1_dropShadow_2_2602"/>
<feBlend mode="normal" in="SourceGraphic" in2="effect1_dropShadow_2_2602" result="shape"/>
</filter>
<linearGradient id="paint0_linear_2_2602" x1="44" y1="4.5" x2="44" y2="87" gradientUnits="userSpaceOnUse">
<stop stop-color="#FDD077"/>
<stop offset="1" stop-color="#F7AC16"/>
</linearGradient>
<linearGradient id="paint1_linear_2_2602" x1="21.5294" y1="32.5118" x2="66.1963" y2="41.1857" gradientUnits="userSpaceOnUse">
<stop stop-color="white"/>
<stop offset="0.395833" stop-color="#FFE8C6"/>
<stop offset="0.6875" stop-color="#FCF2E1"/>
<stop offset="1" stop-color="#F3C57B"/>
</linearGradient>
<linearGradient id="paint2_linear_2_2602" x1="23.9921" y1="57.5347" x2="63.6316" y2="66.2465" gradientUnits="userSpaceOnUse">
<stop stop-color="white"/>
<stop offset="0.395833" stop-color="#FFE8C6"/>
<stop offset="0.6875" stop-color="#FCF2E1"/>
<stop offset="1" stop-color="#F3C57B"/>
</linearGradient>
</defs>
</svg>
