<svg width="90" height="90" viewBox="0 0 90 90" fill="none" xmlns="http://www.w3.org/2000/svg">
<path d="M87 45.5C87 22.0279 67.9721 3 44.5 3C21.0279 3 2 22.0279 2 45.5C2 68.9721 21.0279 88 44.5 88C67.9721 88 87 68.9721 87 45.5Z" fill="#4172BF"/>
<g filter="url(#filter0_d_4_30)">
<path d="M44.5 84C65.763 84 83 66.763 83 45.5C83 24.237 65.763 7 44.5 7C23.237 7 6 24.237 6 45.5C6 66.763 23.237 84 44.5 84Z" fill="url(#paint0_linear_4_30)"/>
</g>
<g filter="url(#filter1_d_4_30)">
<path d="M44.5 79C63.0015 79 78 64.0015 78 45.5C78 26.9985 63.0015 12 44.5 12C25.9985 12 11 26.9985 11 45.5C11 64.0015 25.9985 79 44.5 79Z" fill="#4072BE"/>
</g>
<g filter="url(#filter2_d_4_30)">
<g filter="url(#filter3_i_4_30)">
<path fill-rule="evenodd" clip-rule="evenodd" d="M36.6192 23.0892C36.6369 23.1644 36.6517 23.1698 36.7055 23.1895C36.7336 23.1998 36.7723 23.2139 36.8276 23.2439L39.2011 24.5685L40.1021 24.8105C40.1442 24.8218 40.191 24.8359 40.2403 24.8507C40.3957 24.8975 40.5761 24.9517 40.7139 24.9517H48.6883C48.8611 24.9517 49.148 24.8742 49.3808 24.8114H49.3809L49.3811 24.8113C49.4472 24.7935 49.5089 24.7768 49.5623 24.7634C49.586 24.758 49.6116 24.753 49.6381 24.7479H49.6382H49.6383C49.7097 24.734 49.7878 24.7189 49.8515 24.6895L50.8062 24.2255C50.8403 24.2085 50.9421 24.1606 51.0823 24.0946L51.0825 24.0945H51.0827L51.0829 24.0943H51.083C51.6068 23.8478 52.6642 23.3503 52.7225 23.2708L51.956 22.948C51.8249 22.8909 51.6989 22.8388 51.5729 22.7867H51.5728H51.5727C51.4467 22.7346 51.3206 22.6825 51.1895 22.6253L51.1243 22.5976C50.8088 22.4637 49.717 22 49.643 22H39.7525C39.6113 22 38.0514 22.5782 37.8093 22.6724C37.6345 22.7396 36.7335 23.0758 36.6192 23.0892ZM46.8759 39.4032V39.4031L46.8761 39.4027L46.8762 39.4024C47.7525 37.2155 48.6624 34.9445 48.89 34.3245C48.9847 34.0665 49.0921 33.8053 49.1999 33.5432V33.5431L49.2 33.543V33.5429L49.2001 33.5428V33.5427C49.3141 33.2655 49.4285 32.9873 49.5287 32.7108C49.6015 32.5028 49.6864 32.2988 49.7709 32.0956C49.7957 32.0362 49.8204 31.9768 49.8447 31.9174C49.8626 31.8727 49.8806 31.8286 49.8985 31.7846V31.7844C49.9344 31.6963 49.9703 31.6081 50.0061 31.514C50.0149 31.4927 50.0253 31.4689 50.0364 31.4434C50.085 31.332 50.1473 31.1889 50.1473 31.0904H39.5171C39.5276 31.1897 39.6762 31.5287 39.7734 31.7506L39.7736 31.751C39.8013 31.8144 39.8249 31.8681 39.8399 31.904L40.882 34.3313C41.1163 34.8794 41.3611 35.443 41.6077 36.0107L41.6078 36.0108C42.0691 37.0728 42.5367 38.1492 42.9529 39.1656L44.6809 43.2066C44.7112 43.2772 44.7381 43.341 44.765 43.4049C44.7919 43.4688 44.8188 43.5327 44.849 43.6033C44.8633 43.6298 44.882 43.6725 44.9029 43.7204C44.9508 43.8302 45.0107 43.9672 45.0575 44C45.0917 43.8561 45.9656 41.6752 46.8759 39.4032ZM43.7738 42.15C44.1263 42.8293 44.6894 43.9147 44.6944 44L43.4841 42.5275C43.4348 42.4648 43.3915 42.414 43.3482 42.3632L43.348 42.3629C43.3264 42.3376 43.3047 42.3123 43.2824 42.2855L34.75 31.8166C34.6782 31.7272 34.5851 31.6105 34.4794 31.478L34.4788 31.4772L34.4779 31.4761L34.4778 31.476V31.4759L34.4777 31.4758C34.0588 30.9507 33.4434 30.1791 33.1699 29.8735L32.3833 28.9053C32.3711 28.8908 32.3532 28.8704 32.3317 28.8458V28.8457L32.3315 28.8456V28.8455C32.2228 28.7211 32.0224 28.4919 32 28.4077C32.1143 28.4346 32.2353 28.4884 32.3362 28.5355L35.6913 30.0214C35.7955 30.0718 35.8964 30.1139 35.9973 30.1559C36.0981 30.1979 36.199 30.2399 36.3032 30.2904L37.5403 30.8417L37.5872 30.8593C37.7502 30.9201 38.0578 31.0349 38.1186 31.1443L39.6113 34.0556C39.6466 34.1219 39.6761 34.1823 39.7075 34.2465C39.7238 34.28 39.7407 34.3146 39.7592 34.3515C40.1075 35.0369 40.4664 35.7283 40.8261 36.4211C41.3273 37.3864 41.8299 38.3545 42.3075 39.3136L43.2152 41.0752C43.261 41.1669 43.3068 41.2516 43.3527 41.3363V41.3364C43.4077 41.4381 43.4627 41.5398 43.5177 41.6534C43.5587 41.7353 43.6541 41.9192 43.7738 42.1499V42.15ZM39.7524 29.7121H50.2818L48.8631 26.5049H40.7072L39.7524 29.7121ZM45.799 43.5365C45.7374 43.6291 45.5121 43.9673 45.4205 44C45.5564 43.743 45.7183 43.4018 45.8833 43.0541C46.0204 42.7651 46.1597 42.4716 46.2879 42.2182L47.5654 39.5893C47.5837 39.5501 47.5989 39.514 47.6138 39.4786C47.6374 39.4227 47.6602 39.3686 47.6932 39.3069L48.8295 36.9737C48.8897 36.8316 48.95 36.7144 49.0121 36.5937V36.5936C49.0469 36.5258 49.0823 36.457 49.1186 36.382L51.3845 31.6889C51.4469 31.5625 51.4907 31.4651 51.5255 31.3878C51.644 31.1242 51.6565 31.0964 51.9425 30.956L55.6608 29.033C55.7077 29.0088 55.8055 28.9573 55.9319 28.8906L55.9321 28.8905L55.9323 28.8904C56.4031 28.6422 57.2693 28.1854 57.3753 28.1589C57.3579 28.2284 57.2807 28.3228 57.2253 28.3906L57.2005 28.4212L53.2738 33.632C53.2403 33.6756 53.2102 33.7158 53.18 33.7561L53.1797 33.7564L53.1795 33.7567C53.1493 33.797 53.1191 33.8372 53.0856 33.8808L45.8038 43.5293L45.799 43.5365ZM35.1104 28.1831C36.6771 28.8471 38.2799 29.5264 38.4346 29.5642C38.4717 29.49 38.5129 29.37 38.5485 29.2665C38.5581 29.2386 38.5672 29.2119 38.5758 29.1876C38.5899 29.1506 38.6035 29.1155 38.6168 29.0812C38.6543 28.9847 38.689 28.8951 38.7237 28.7909C38.7447 28.7316 38.8114 28.5539 38.899 28.3208V28.3207C39.1487 27.656 39.5677 26.5404 39.5776 26.4309L36.0477 24.6021C36.0153 24.5859 35.9852 24.5712 35.9562 24.5571C35.901 24.5302 35.8495 24.5052 35.7922 24.4743C35.7688 24.4607 35.7448 24.4459 35.7206 24.4309C35.6613 24.3944 35.6007 24.357 35.5434 24.3331C35.446 24.2942 35.3557 24.368 35.2367 24.4654C35.1914 24.5025 35.1418 24.543 35.0862 24.5819C34.6123 24.905 33.8752 25.4654 33.2897 25.9106L33.2896 25.9107C33.1441 26.0213 33.008 26.1248 32.8875 26.2158L32.1143 26.7873C32.0891 26.8009 32.0717 26.8072 32.0593 26.8117C32.0286 26.8228 32.0278 26.8231 32.0135 26.8949C32.1482 26.9277 33.6128 27.5484 35.1104 28.1831ZM50.7457 27.8698L49.9456 26.2158L50.8735 25.6981C51.1178 25.5569 51.3578 25.4245 51.6076 25.2866C51.667 25.2538 51.7271 25.2207 51.7879 25.1871C51.9122 25.1183 52.0313 25.0506 52.1493 24.9835C52.3313 24.88 52.5106 24.778 52.7023 24.6761C52.7682 24.6404 52.8296 24.6058 52.8906 24.5714C52.9791 24.5216 53.0668 24.4723 53.1663 24.4205C53.2546 24.3764 53.335 24.3301 53.4149 24.2841C53.481 24.2461 53.5468 24.2083 53.6167 24.1718C53.6773 24.2121 53.7714 24.2928 53.8319 24.3466L54.4236 24.8441C54.5482 24.9438 54.667 25.0464 54.7861 25.1492C54.9241 25.2683 55.0623 25.3876 55.2103 25.5031L56.4071 26.5049C56.4337 26.5296 56.4727 26.5603 56.5156 26.5939C56.6242 26.6793 56.7576 26.7841 56.7769 26.8613C56.5617 26.9756 56.3264 27.0899 56.1045 27.1974C55.8132 27.339 55.0145 27.753 54.1651 28.1934C52.9563 28.8201 51.6446 29.5002 51.5458 29.5238L51.1424 28.6901C51.071 28.5472 51.0047 28.4077 50.9392 28.2699C50.8753 28.1355 50.8121 28.0027 50.7457 27.8698Z" fill="url(#paint1_linear_4_30)"/>
</g>
</g>
<g filter="url(#filter4_d_4_30)">
<path fill-rule="evenodd" clip-rule="evenodd" d="M53.5088 53.7272C53.5088 54.4325 53.3767 55.0365 53.1125 55.5394C52.8505 56.0401 52.4925 56.4236 52.0387 56.6899C51.587 56.9563 51.0745 57.0894 50.5014 57.0894C49.9282 57.0894 49.4147 56.9563 48.9609 56.6899C48.5092 56.4215 48.1512 56.0369 47.887 55.5362C47.625 55.0333 47.4939 54.4304 47.4939 53.7272C47.4939 53.022 47.625 52.419 47.887 51.9183C48.1512 51.4154 48.5092 51.0309 48.9609 50.7645C49.4147 50.4982 49.9282 50.365 50.5014 50.365C51.0745 50.365 51.587 50.4982 52.0387 50.7645C52.4925 51.0309 52.8505 51.4154 53.1125 51.9183C53.3767 52.419 53.5088 53.022 53.5088 53.7272ZM52.3167 53.7272C52.3167 53.2308 52.239 52.8121 52.0834 52.4712C51.93 52.1282 51.7169 51.8693 51.4442 51.6946C51.1715 51.5177 50.8572 51.4293 50.5014 51.4293C50.1456 51.4293 49.8313 51.5177 49.5586 51.6946C49.2858 51.8693 49.0717 52.1282 48.9162 52.4712C48.7628 52.8121 48.686 53.2308 48.686 53.7272C48.686 54.2237 48.7628 54.6434 48.9162 54.9865C49.0717 55.3274 49.2858 55.5862 49.5586 55.7631C49.8313 55.9378 50.1456 56.0252 50.5014 56.0252C50.8572 56.0252 51.1715 55.9378 51.4442 55.7631C51.7169 55.5862 51.93 55.3274 52.0834 54.9865C52.239 54.6434 52.3167 54.2237 52.3167 53.7272ZM24 57H26.218C26.8828 57 27.4517 56.8689 27.9247 56.6068C28.3998 56.3448 28.7631 55.9687 29.0145 55.4786C29.2681 54.9886 29.3949 54.4027 29.3949 53.7208C29.3949 53.0411 29.2691 52.4573 29.0177 51.9694C28.7663 51.4815 28.4062 51.1076 27.9375 50.8476C27.4708 50.5855 26.9126 50.4545 26.2628 50.4545H24V57ZM26.1605 55.974H25.1857V51.4804H26.1956C26.6388 51.4804 27.0096 51.5635 27.3079 51.7297C27.6083 51.8938 27.8352 52.142 27.9886 52.4744C28.142 52.8046 28.2187 53.2201 28.2187 53.7208C28.2187 54.2215 28.142 54.6392 27.9886 54.9737C27.8352 55.3061 27.6061 55.5564 27.3015 55.7247C26.9968 55.8909 26.6164 55.974 26.1605 55.974ZM31.7072 57V50.4545H30.5215V57H31.7072ZM33.8317 57H32.5661L34.8704 50.4545H36.3342L38.6417 57H37.3761L36.8338 55.386H34.373L33.8317 57ZM35.6279 51.7968L36.5138 54.4335H34.6925L35.5768 51.7968H35.6279ZM40.9549 50.4545H39.5039V57H40.6417V52.4936H40.7024L42.5113 56.9808H43.3615L45.1704 52.5032H45.2311V57H46.3689V50.4545H44.9179L42.9748 55.1974H42.898L40.9549 50.4545ZM60.0088 57V50.4545H58.8294V54.9161H58.7719L55.6909 50.4545H54.6298V57H55.8156V52.5415H55.8699L58.9541 57H60.0088ZM63.5188 57H61.3007V50.4545H63.5635C64.2134 50.4545 64.7716 50.5855 65.2382 50.8476C65.707 51.1076 66.0671 51.4815 66.3185 51.9694C66.5699 52.4573 66.6956 53.0411 66.6956 53.7208C66.6956 54.4027 66.5689 54.9886 66.3153 55.4786C66.0639 55.9687 65.7006 56.3448 65.2255 56.6068C64.7525 56.8689 64.1836 57 63.5188 57ZM62.4865 55.974H63.4613C63.9172 55.974 64.2976 55.8909 64.6022 55.7247C64.9069 55.5564 65.136 55.3061 65.2894 54.9737C65.4428 54.6392 65.5195 54.2215 65.5195 53.7208C65.5195 53.2201 65.4428 52.8046 65.2894 52.4744C65.136 52.142 64.9091 51.8938 64.6086 51.7297C64.3103 51.5635 63.9396 51.4804 63.4964 51.4804H62.4865V55.974ZM29.7937 61.8889C29.7639 61.6097 29.6381 61.3924 29.4166 61.2369C29.1971 61.0813 28.9116 61.0036 28.56 61.0036C28.3129 61.0036 28.1009 61.0409 27.924 61.1154C27.7472 61.19 27.6119 61.2912 27.5181 61.419C27.4244 61.5469 27.3764 61.6928 27.3743 61.8569C27.3743 61.9933 27.4052 62.1115 27.467 62.2117C27.5309 62.3118 27.6172 62.397 27.7259 62.4673C27.8345 62.5355 27.9549 62.5931 28.087 62.6399C28.2191 62.6868 28.3523 62.7262 28.4865 62.7582L29.1002 62.9116C29.3473 62.9691 29.5849 63.0469 29.8129 63.1449C30.043 63.2429 30.2486 63.3665 30.4297 63.5156C30.6129 63.6648 30.7578 63.8448 30.8644 64.0558C30.9709 64.2667 31.0242 64.5139 31.0242 64.7972C31.0242 65.1808 30.9261 65.5185 30.7301 65.8104C30.5341 66.1002 30.2507 66.3271 29.88 66.4911C29.5114 66.6531 29.065 66.734 28.5408 66.734C28.0316 66.734 27.5895 66.6552 27.2145 66.4975C26.8416 66.3399 26.5497 66.1097 26.3388 65.8072C26.13 65.5046 26.0171 65.136 26 64.7014H27.1666C27.1836 64.9293 27.2539 65.119 27.3775 65.2703C27.5011 65.4215 27.6619 65.5345 27.8601 65.609C28.0604 65.6836 28.2841 65.7209 28.5313 65.7209C28.7891 65.7209 29.0149 65.6825 29.2088 65.6058C29.4048 65.527 29.5582 65.4183 29.669 65.2798C29.7798 65.1392 29.8363 64.9752 29.8384 64.7877C29.8363 64.6172 29.7862 64.4766 29.6882 64.3658C29.5902 64.2529 29.4528 64.1591 29.2759 64.0845C29.1012 64.0078 28.8967 63.9396 28.6623 63.88L27.9176 63.6882C27.3786 63.5497 26.9524 63.3399 26.6392 63.0586C26.3281 62.7752 26.1726 62.3992 26.1726 61.9304C26.1726 61.5448 26.277 61.207 26.4858 60.9173C26.6967 60.6275 26.9833 60.4027 27.3455 60.2429C27.7078 60.081 28.1179 60 28.576 60C29.0405 60 29.4475 60.081 29.7969 60.2429C30.1484 60.4027 30.4244 60.6254 30.6247 60.9109C30.8249 61.1943 30.9283 61.5203 30.9347 61.8889H29.7937ZM32.0812 60.0896V66.6351H33.267V63.8545H36.3V66.6351H37.4889V60.0896H36.3V62.8606H33.267V60.0896H32.0812ZM39.9642 60.0896V66.6351H38.7785V60.0896H39.9642ZM41.2482 60.0896V66.6351H42.434V64.4234H43.6868C44.1918 64.4234 44.6168 64.3307 44.962 64.1454C45.3072 63.9579 45.5682 63.7011 45.745 63.3751C45.9219 63.0491 46.0103 62.6762 46.0103 62.2565C46.0103 61.841 45.9219 61.4703 45.745 61.1443C45.5703 60.8162 45.3114 60.5584 44.9684 60.3709C44.6275 60.1834 44.2056 60.0896 43.7028 60.0896H41.2482ZM42.434 63.4486H43.527C43.821 63.4486 44.0618 63.3975 44.2493 63.2952C44.4368 63.1929 44.5753 63.0523 44.6648 62.8733C44.7564 62.6944 44.8022 62.4887 44.8022 62.2565C44.8022 62.0243 44.7564 61.8197 44.6648 61.6429C44.5753 61.466 44.4357 61.3286 44.2461 61.2306C44.0586 61.1304 43.8168 61.0804 43.5206 61.0804H42.434V63.4486ZM47.0402 66.6351V60.0896H49.4948C49.9976 60.0896 50.4195 60.1834 50.7604 60.3709C51.1034 60.5584 51.3623 60.8162 51.537 61.1443C51.7139 61.4703 51.8023 61.841 51.8023 62.2565C51.8023 62.6762 51.7139 63.0491 51.537 63.3751C51.3602 63.7011 51.0992 63.9579 50.754 64.1454C50.4088 64.3307 49.9838 64.4234 49.4788 64.4234H48.226V66.6351H47.0402ZM49.319 63.4486H48.226V61.0804H49.3126C49.6088 61.0804 49.8506 61.1304 50.0381 61.2306C50.2277 61.3286 50.3673 61.466 50.4568 61.6429C50.5484 61.8197 50.5942 62.0243 50.5942 62.2565C50.5942 62.4887 50.5484 62.6944 50.4568 62.8733C50.3673 63.0523 50.2288 63.1929 50.0413 63.2952C49.8538 63.3975 49.613 63.4486 49.319 63.4486ZM52.8322 60.0896V66.6351H57.1149V65.6411H54.0179V63.8545H56.8688V62.8606H54.0179V61.0836H57.0893V60.0896H52.8322ZM58.299 66.6351V60.0896H60.7536C61.2564 60.0896 61.6783 60.177 62.0192 60.3517C62.3622 60.5264 62.6211 60.7714 62.7958 61.0868C62.9727 61.4 63.0611 61.7654 63.0611 62.183C63.0611 62.6027 62.9716 62.9671 62.7926 63.276C62.6158 63.5829 62.3548 63.8204 62.0096 63.9887C61.9692 64.0082 61.9276 64.0265 61.885 64.0437L63.3008 66.6351H61.9776L60.6913 64.238H59.4847V66.6351H58.299ZM60.5778 63.2537H59.4847V61.0804H60.5714C60.8676 61.0804 61.1094 61.124 61.2969 61.2114C61.4844 61.2966 61.6239 61.4223 61.7156 61.5885C61.8072 61.7526 61.853 61.9508 61.853 62.183C61.853 62.4152 61.8072 62.6113 61.7156 62.7711C61.6261 62.9287 61.4876 63.0491 61.3001 63.1322C61.1126 63.2132 60.8718 63.2537 60.5778 63.2537Z" fill="url(#paint2_linear_4_30)"/>
</g>
<defs>
<filter id="filter0_d_4_30" x="4" y="7" width="81" height="83" filterUnits="userSpaceOnUse" color-interpolation-filters="sRGB">
<feFlood flood-opacity="0" result="BackgroundImageFix"/>
<feColorMatrix in="SourceAlpha" type="matrix" values="0 0 0 0 0 0 0 0 0 0 0 0 0 0 0 0 0 0 127 0" result="hardAlpha"/>
<feOffset dy="4"/>
<feGaussianBlur stdDeviation="1"/>
<feColorMatrix type="matrix" values="0 0 0 0 0 0 0 0 0 0 0 0 0 0 0 0 0 0 0.6 0"/>
<feBlend mode="normal" in2="BackgroundImageFix" result="effect1_dropShadow_4_30"/>
<feBlend mode="normal" in="SourceGraphic" in2="effect1_dropShadow_4_30" result="shape"/>
</filter>
<filter id="filter1_d_4_30" x="5" y="10" width="79" height="79" filterUnits="userSpaceOnUse" color-interpolation-filters="sRGB">
<feFlood flood-opacity="0" result="BackgroundImageFix"/>
<feColorMatrix in="SourceAlpha" type="matrix" values="0 0 0 0 0 0 0 0 0 0 0 0 0 0 0 0 0 0 127 0" result="hardAlpha"/>
<feOffset dy="4"/>
<feGaussianBlur stdDeviation="3"/>
<feColorMatrix type="matrix" values="0 0 0 0 0 0 0 0 0 0 0 0 0 0 0 0 0 0 0.8 0"/>
<feBlend mode="normal" in2="BackgroundImageFix" result="effect1_dropShadow_4_30"/>
<feBlend mode="normal" in="SourceGraphic" in2="effect1_dropShadow_4_30" result="shape"/>
</filter>
<filter id="filter2_d_4_30" x="29" y="22" width="31.3752" height="28" filterUnits="userSpaceOnUse" color-interpolation-filters="sRGB">
<feFlood flood-opacity="0" result="BackgroundImageFix"/>
<feColorMatrix in="SourceAlpha" type="matrix" values="0 0 0 0 0 0 0 0 0 0 0 0 0 0 0 0 0 0 127 0" result="hardAlpha"/>
<feOffset dy="3"/>
<feGaussianBlur stdDeviation="1.5"/>
<feColorMatrix type="matrix" values="0 0 0 0 0 0 0 0 0 0 0 0 0 0 0 0 0 0 0.8 0"/>
<feBlend mode="normal" in2="BackgroundImageFix" result="effect1_dropShadow_4_30"/>
<feBlend mode="normal" in="SourceGraphic" in2="effect1_dropShadow_4_30" result="shape"/>
</filter>
<filter id="filter3_i_4_30" x="32" y="22" width="25.3752" height="26" filterUnits="userSpaceOnUse" color-interpolation-filters="sRGB">
<feFlood flood-opacity="0" result="BackgroundImageFix"/>
<feBlend mode="normal" in="SourceGraphic" in2="BackgroundImageFix" result="shape"/>
<feColorMatrix in="SourceAlpha" type="matrix" values="0 0 0 0 0 0 0 0 0 0 0 0 0 0 0 0 0 0 127 0" result="hardAlpha"/>
<feOffset dy="4"/>
<feGaussianBlur stdDeviation="2"/>
<feComposite in2="hardAlpha" operator="arithmetic" k2="-1" k3="1"/>
<feColorMatrix type="matrix" values="0 0 0 0 0 0 0 0 0 0 0 0 0 0 0 0 0 0 0.25 0"/>
<feBlend mode="normal" in2="shape" result="effect1_innerShadow_4_30"/>
</filter>
<filter id="filter4_d_4_30" x="22" y="49.365" width="46.6956" height="20.3689" filterUnits="userSpaceOnUse" color-interpolation-filters="sRGB">
<feFlood flood-opacity="0" result="BackgroundImageFix"/>
<feColorMatrix in="SourceAlpha" type="matrix" values="0 0 0 0 0 0 0 0 0 0 0 0 0 0 0 0 0 0 127 0" result="hardAlpha"/>
<feOffset dy="1"/>
<feGaussianBlur stdDeviation="1"/>
<feColorMatrix type="matrix" values="0 0 0 0 0 0 0 0 0 0 0 0 0 0 0 0 0 0 1 0"/>
<feBlend mode="normal" in2="BackgroundImageFix" result="effect1_dropShadow_4_30"/>
<feBlend mode="normal" in="SourceGraphic" in2="effect1_dropShadow_4_30" result="shape"/>
</filter>
<linearGradient id="paint0_linear_4_30" x1="44.5" y1="7" x2="44.5" y2="84" gradientUnits="userSpaceOnUse">
<stop stop-color="#99C8FF"/>
<stop offset="1" stop-color="#7CB9FF"/>
</linearGradient>
<linearGradient id="paint1_linear_4_30" x1="28.4324" y1="27.3514" x2="57.4881" y2="28.8708" gradientUnits="userSpaceOnUse">
<stop stop-color="#3B74BD"/>
<stop offset="0.307292" stop-color="#DDEEFF"/>
<stop offset="0.6875" stop-color="#D9EDFF"/>
<stop offset="1" stop-color="#71AAED"/>
</linearGradient>
<linearGradient id="paint2_linear_4_30" x1="17.9973" y1="54.3466" x2="66.343" y2="60.064" gradientUnits="userSpaceOnUse">
<stop stop-color="#3B74BD"/>
<stop offset="0.307292" stop-color="#DDEEFF"/>
<stop offset="0.6875" stop-color="#D9EDFF"/>
<stop offset="1" stop-color="#71AAED"/>
</linearGradient>
</defs>
</svg>
