<svg width="90" height="90" viewBox="0 0 90 90" fill="none" xmlns="http://www.w3.org/2000/svg">
<path d="M87 45.5C87 22.0279 67.9721 3 44.5 3C21.0279 3 2 22.0279 2 45.5C2 68.9721 21.0279 88 44.5 88C67.9721 88 87 68.9721 87 45.5Z" fill="#4172BF"/>
<g filter="url(#filter0_d_2_2550)">
<path d="M44.5 84C65.763 84 83 66.763 83 45.5C83 24.237 65.763 7 44.5 7C23.237 7 6 24.237 6 45.5C6 66.763 23.237 84 44.5 84Z" fill="url(#paint0_linear_2_2550)"/>
</g>
<g filter="url(#filter1_d_2_2550)">
<path d="M44.5 79C63.0015 79 78 64.0015 78 45.5C78 26.9985 63.0015 12 44.5 12C25.9985 12 11 26.9985 11 45.5C11 64.0015 25.9985 79 44.5 79Z" fill="#4072BE"/>
</g>
<g filter="url(#filter2_d_2_2550)">
<path fill-rule="evenodd" clip-rule="evenodd" d="M44.05 50H24V30H44.0633V34.7833C43.7149 34.8427 43.3777 34.9551 43.0633 35.1167C42.5951 35.3445 42.1934 35.6888 41.8967 36.1167C41.6344 36.4926 41.4905 36.9383 41.4833 37.3967C41.4852 37.7022 41.557 38.0032 41.6933 38.2767C41.7905 38.4798 41.9018 38.6759 42.0267 38.8633C41.4001 39.1461 40.8538 39.5803 40.4367 40.1267C40.0463 40.6643 39.8373 41.3123 39.84 41.9767C39.8417 42.5513 40.0134 43.1126 40.3333 43.59C40.693 44.1184 41.1896 44.5389 41.77 44.8067C42.4859 45.1291 43.2651 45.2863 44.05 45.2667V50ZM33.5 40.91L30.9333 34.8467H28.4667L33 45.28H35.1L37.9267 38.75L39.5933 34.86H37.05L34.67 40.9433C34.5963 41.1285 34.4499 41.4891 34.3244 41.7983C34.2171 42.0624 34.1251 42.2891 34.1067 42.3367C34.0997 42.3199 34.0928 42.3034 34.0861 42.2871C34.0444 42.1868 34.0063 42.0951 33.9633 42.0033C33.8366 41.7177 33.7192 41.4358 33.6097 41.1727C33.5722 41.0827 33.5357 40.995 33.5 40.91ZM47.0934 35.3333C46.8362 35.1651 46.5583 35.0306 46.2667 34.9333V30H66.3334V50H46.2534V44.7967C46.6071 44.6476 46.9426 44.4586 47.2534 44.2333C47.3245 44.3229 47.3976 44.4082 47.4728 44.4959C47.4929 44.5193 47.5131 44.5429 47.5334 44.5667C47.6801 44.7356 47.8145 44.8856 47.9367 45.0167L48.0001 45.0833H50.4734L50.1867 44.75C49.9901 44.5167 49.6901 44.1733 49.4001 43.85C49.2842 43.7208 49.1683 43.5948 49.0524 43.4688C48.8783 43.2795 48.7042 43.0901 48.5301 42.89C48.7545 42.5393 48.9368 42.1633 49.0734 41.77C49.235 41.2937 49.3248 40.796 49.3401 40.2933V40.08H47.4934V40.2733C47.4774 40.5424 47.435 40.8092 47.3667 41.07C47.3287 41.2136 47.2797 41.354 47.2201 41.49L46.2567 40.55V36.93C46.5741 37.1685 46.8329 37.4764 47.0134 37.83L47.1334 38.05L48.5001 36.9167L48.4267 36.77C48.1169 36.1818 47.6569 35.6862 47.0934 35.3333ZM56.1601 41.1233C56.843 41.2038 57.5143 41.3637 58.1601 41.6L58.1634 41.5867C58.6234 41.7767 58.6667 42.0467 58.6734 42.25C58.6794 42.4614 58.5885 42.6639 58.4267 42.8C58.1979 42.9959 57.9261 43.1352 57.6334 43.2067C57.2834 43.3072 56.9209 43.3577 56.5567 43.3567C55.9477 43.3784 55.3438 43.238 54.8067 42.95C54.2704 42.6189 53.7919 42.2023 53.3901 41.7167L53.1101 41.3833L51.6934 43.1633L51.8734 43.3867C52.4141 44.0653 53.1168 44.5972 53.9167 44.9333C54.732 45.2572 55.6029 45.418 56.4801 45.4067C57.277 45.4258 58.0699 45.2876 58.8134 45C59.4326 44.7569 59.9716 44.3459 60.3701 43.8133C60.7484 43.2779 60.9458 42.6355 60.9334 41.98C60.9465 41.5071 60.8138 41.0416 60.5534 40.6467C60.2975 40.2865 59.9622 39.99 59.5734 39.78C59.1588 39.5581 58.7189 39.3869 58.2634 39.27C57.7777 39.1459 57.286 39.0469 56.7901 38.9733C56.188 38.8919 55.5988 38.7339 55.0367 38.5033C54.7439 38.3916 54.5485 38.1129 54.5434 37.7996C54.5382 37.4862 54.7244 37.2012 55.0134 37.08C55.4659 36.8579 55.9664 36.7514 56.4701 36.77C56.9919 36.7596 57.5078 36.8812 57.9701 37.1233C58.3895 37.3516 58.7527 37.6704 59.0334 38.0567L59.2801 38.39L60.7967 36.8067L60.6367 36.57C60.2199 35.9619 59.6431 35.4809 58.9701 35.18C57.5208 34.5864 55.9039 34.5461 54.4267 35.0667C53.825 35.2844 53.2899 35.6541 52.8734 36.14C52.4722 36.6248 52.2581 37.2375 52.2701 37.8667C52.2273 38.7637 52.654 39.6185 53.3967 40.1233C54.2306 40.6608 55.1753 41.0027 56.1601 41.1233Z" fill="url(#paint1_linear_2_2550)"/>
</g>
<g filter="url(#filter3_d_2_2550)">
<path fill-rule="evenodd" clip-rule="evenodd" d="M53.1125 61.1744C53.3767 60.6715 53.5088 60.0675 53.5088 59.3622C53.5088 58.657 53.3767 58.054 53.1125 57.5533C52.8505 57.0504 52.4925 56.6659 52.0387 56.3995C51.587 56.1332 51.0745 56 50.5014 56C49.9282 56 49.4147 56.1332 48.9609 56.3995C48.5092 56.6659 48.1512 57.0504 47.887 57.5533C47.625 58.054 47.4939 58.657 47.4939 59.3622C47.4939 60.0654 47.625 60.6683 47.887 61.1712C48.1512 61.6719 48.5092 62.0565 48.9609 62.3249C49.4147 62.5913 49.9282 62.7244 50.5014 62.7244C51.0745 62.7244 51.587 62.5913 52.0387 62.3249C52.4925 62.0586 52.8505 61.6751 53.1125 61.1744ZM52.0834 58.1062C52.239 58.4471 52.3167 58.8658 52.3167 59.3622C52.3167 59.8587 52.239 60.2784 52.0834 60.6215C51.93 60.9624 51.7169 61.2212 51.4442 61.3981C51.1715 61.5728 50.8572 61.6602 50.5014 61.6602C50.1456 61.6602 49.8313 61.5728 49.5586 61.3981C49.2858 61.2212 49.0717 60.9624 48.9162 60.6215C48.7628 60.2784 48.686 59.8587 48.686 59.3622C48.686 58.8658 48.7628 58.4471 48.9162 58.1062C49.0717 57.7632 49.2858 57.5043 49.5586 57.3296C49.8313 57.1527 50.1456 57.0643 50.5014 57.0643C50.8572 57.0643 51.1715 57.1527 51.4442 57.3296C51.7169 57.5043 51.93 57.7632 52.0834 58.1062ZM26.218 62.635H24V56.0895H26.2628C26.9126 56.0895 27.4708 56.2205 27.9375 56.4826C28.4062 56.7426 28.7663 57.1165 29.0177 57.6044C29.2691 58.0923 29.3949 58.6761 29.3949 59.3558C29.3949 60.0377 29.2681 60.6236 29.0145 61.1136C28.7631 61.6037 28.3998 61.9798 27.9247 62.2418C27.4517 62.5039 26.8828 62.635 26.218 62.635ZM25.1857 61.609H26.1605C26.6164 61.609 26.9968 61.5259 27.3015 61.3597C27.6061 61.1914 27.8352 60.9411 27.9886 60.6087C28.142 60.2742 28.2187 59.8565 28.2187 59.3558C28.2187 58.8551 28.142 58.4396 27.9886 58.1094C27.8352 57.777 27.6083 57.5288 27.3079 57.3647C27.0096 57.1985 26.6388 57.1154 26.1956 57.1154H25.1857V61.609ZM31.7072 56.0895V62.635H30.5215V56.0895H31.7072ZM32.5661 62.635H33.8317L34.373 61.021H36.8338L37.3761 62.635H38.6417L36.3342 56.0895H34.8704L32.5661 62.635ZM36.5138 60.0685L35.6279 57.4318H35.5768L34.6925 60.0685H36.5138ZM39.5039 56.0895H40.9549L42.898 60.8324H42.9748L44.9179 56.0895H46.3689V62.635H45.2311V58.1382H45.1704L43.3615 62.6158H42.5113L40.7024 58.1286H40.6417V62.635H39.5039V56.0895ZM60.0088 56.0895V62.635H58.9541L55.8699 58.1765H55.8156V62.635H54.6298V56.0895H55.6909L58.7719 60.5511H58.8294V56.0895H60.0088ZM61.3007 62.635H63.5188C64.1836 62.635 64.7525 62.5039 65.2255 62.2418C65.7006 61.9798 66.0639 61.6037 66.3153 61.1136C66.5689 60.6236 66.6956 60.0377 66.6956 59.3558C66.6956 58.6761 66.5699 58.0923 66.3185 57.6044C66.0671 57.1165 65.707 56.7426 65.2382 56.4826C64.7716 56.2205 64.2134 56.0895 63.5635 56.0895H61.3007V62.635ZM63.4613 61.609H62.4865V57.1154H63.4964C63.9396 57.1154 64.3103 57.1985 64.6086 57.3647C64.9091 57.5288 65.136 57.777 65.2894 58.1094C65.4428 58.4396 65.5195 58.8551 65.5195 59.3558C65.5195 59.8565 65.4428 60.2742 65.2894 60.6087C65.136 60.9411 64.9069 61.1914 64.6022 61.3597C64.2976 61.5259 63.9172 61.609 63.4613 61.609Z" fill="url(#paint2_linear_2_2550)"/>
</g>
<defs>
<filter id="filter0_d_2_2550" x="4" y="7" width="81" height="83" filterUnits="userSpaceOnUse" color-interpolation-filters="sRGB">
<feFlood flood-opacity="0" result="BackgroundImageFix"/>
<feColorMatrix in="SourceAlpha" type="matrix" values="0 0 0 0 0 0 0 0 0 0 0 0 0 0 0 0 0 0 127 0" result="hardAlpha"/>
<feOffset dy="4"/>
<feGaussianBlur stdDeviation="1"/>
<feColorMatrix type="matrix" values="0 0 0 0 0 0 0 0 0 0 0 0 0 0 0 0 0 0 0.6 0"/>
<feBlend mode="normal" in2="BackgroundImageFix" result="effect1_dropShadow_2_2550"/>
<feBlend mode="normal" in="SourceGraphic" in2="effect1_dropShadow_2_2550" result="shape"/>
</filter>
<filter id="filter1_d_2_2550" x="5" y="10" width="79" height="79" filterUnits="userSpaceOnUse" color-interpolation-filters="sRGB">
<feFlood flood-opacity="0" result="BackgroundImageFix"/>
<feColorMatrix in="SourceAlpha" type="matrix" values="0 0 0 0 0 0 0 0 0 0 0 0 0 0 0 0 0 0 127 0" result="hardAlpha"/>
<feOffset dy="4"/>
<feGaussianBlur stdDeviation="3"/>
<feColorMatrix type="matrix" values="0 0 0 0 0 0 0 0 0 0 0 0 0 0 0 0 0 0 0.8 0"/>
<feBlend mode="normal" in2="BackgroundImageFix" result="effect1_dropShadow_2_2550"/>
<feBlend mode="normal" in="SourceGraphic" in2="effect1_dropShadow_2_2550" result="shape"/>
</filter>
<filter id="filter2_d_2_2550" x="19" y="28" width="52.3334" height="30" filterUnits="userSpaceOnUse" color-interpolation-filters="sRGB">
<feFlood flood-opacity="0" result="BackgroundImageFix"/>
<feColorMatrix in="SourceAlpha" type="matrix" values="0 0 0 0 0 0 0 0 0 0 0 0 0 0 0 0 0 0 127 0" result="hardAlpha"/>
<feOffset dy="3"/>
<feGaussianBlur stdDeviation="2.5"/>
<feColorMatrix type="matrix" values="0 0 0 0 0 0 0 0 0 0 0 0 0 0 0 0 0 0 1 0"/>
<feBlend mode="normal" in2="BackgroundImageFix" result="effect1_dropShadow_2_2550"/>
<feBlend mode="normal" in="SourceGraphic" in2="effect1_dropShadow_2_2550" result="shape"/>
</filter>
<filter id="filter3_d_2_2550" x="22" y="55" width="46.6956" height="10.7244" filterUnits="userSpaceOnUse" color-interpolation-filters="sRGB">
<feFlood flood-opacity="0" result="BackgroundImageFix"/>
<feColorMatrix in="SourceAlpha" type="matrix" values="0 0 0 0 0 0 0 0 0 0 0 0 0 0 0 0 0 0 127 0" result="hardAlpha"/>
<feOffset dy="1"/>
<feGaussianBlur stdDeviation="1"/>
<feColorMatrix type="matrix" values="0 0 0 0 0 0 0 0 0 0 0 0 0 0 0 0 0 0 1 0"/>
<feBlend mode="normal" in2="BackgroundImageFix" result="effect1_dropShadow_2_2550"/>
<feBlend mode="normal" in="SourceGraphic" in2="effect1_dropShadow_2_2550" result="shape"/>
</filter>
<linearGradient id="paint0_linear_2_2550" x1="44.5" y1="7" x2="44.5" y2="84" gradientUnits="userSpaceOnUse">
<stop stop-color="#99C8FF"/>
<stop offset="1" stop-color="#7CB9FF"/>
</linearGradient>
<linearGradient id="paint1_linear_2_2550" x1="18.0483" y1="34.8649" x2="66.2106" y2="39.487" gradientUnits="userSpaceOnUse">
<stop stop-color="#3B74BD"/>
<stop offset="0.307292" stop-color="#DDEEFF"/>
<stop offset="0.6875" stop-color="#D9EDFF"/>
<stop offset="1" stop-color="#71AAED"/>
</linearGradient>
<linearGradient id="paint2_linear_2_2550" x1="17.9973" y1="57.6357" x2="63.2674" y2="70.668" gradientUnits="userSpaceOnUse">
<stop stop-color="#3B74BD"/>
<stop offset="0.307292" stop-color="#DDEEFF"/>
<stop offset="0.6875" stop-color="#D9EDFF"/>
<stop offset="1" stop-color="#71AAED"/>
</linearGradient>
</defs>
</svg>
