<svg width="90" height="90" viewBox="0 0 90 90" fill="none" xmlns="http://www.w3.org/2000/svg">
<path d="M87 45.5C87 22.0279 67.9721 3 44.5 3C21.0279 3 2 22.0279 2 45.5C2 68.9721 21.0279 88 44.5 88C67.9721 88 87 68.9721 87 45.5Z" fill="#4172BF"/>
<g filter="url(#filter0_d_2_2612)">
<path d="M44.5 84C65.763 84 83 66.763 83 45.5C83 24.237 65.763 7 44.5 7C23.237 7 6 24.237 6 45.5C6 66.763 23.237 84 44.5 84Z" fill="url(#paint0_linear_2_2612)"/>
</g>
<g filter="url(#filter1_d_2_2612)">
<path d="M44.5 79C63.0015 79 78 64.0015 78 45.5C78 26.9985 63.0015 12 44.5 12C25.9985 12 11 26.9985 11 45.5C11 64.0015 25.9985 79 44.5 79Z" fill="#4072BE"/>
</g>
<g filter="url(#filter2_d_2_2612)">
<g filter="url(#filter3_i_2_2612)">
<path fill-rule="evenodd" clip-rule="evenodd" d="M36.6192 23.0892C36.6369 23.1644 36.6517 23.1698 36.7055 23.1895C36.7336 23.1998 36.7723 23.2139 36.8276 23.2439L39.2011 24.5685L40.1021 24.8105C40.1442 24.8218 40.191 24.8359 40.2403 24.8507C40.3957 24.8975 40.5761 24.9517 40.7139 24.9517H48.6883C48.8611 24.9517 49.148 24.8742 49.3808 24.8114H49.3809L49.3811 24.8113C49.4472 24.7935 49.5089 24.7768 49.5623 24.7634C49.586 24.758 49.6116 24.753 49.6381 24.7479H49.6382H49.6383C49.7097 24.734 49.7878 24.7189 49.8515 24.6895L50.8062 24.2255C50.8403 24.2085 50.9421 24.1606 51.0823 24.0946L51.0825 24.0945H51.0827L51.0829 24.0943H51.083C51.6068 23.8478 52.6642 23.3503 52.7225 23.2708L51.956 22.948C51.8249 22.8909 51.6989 22.8388 51.5729 22.7867H51.5728H51.5727C51.4467 22.7346 51.3206 22.6825 51.1895 22.6253L51.1243 22.5976C50.8088 22.4637 49.717 22 49.643 22H39.7525C39.6113 22 38.0514 22.5782 37.8093 22.6724C37.6345 22.7396 36.7335 23.0758 36.6192 23.0892ZM46.8759 39.4032V39.4031L46.8761 39.4027L46.8762 39.4024C47.7525 37.2155 48.6624 34.9445 48.89 34.3245C48.9847 34.0665 49.0921 33.8053 49.1999 33.5432V33.5431L49.2 33.543V33.5429L49.2001 33.5428V33.5427C49.3141 33.2655 49.4285 32.9873 49.5287 32.7108C49.6015 32.5028 49.6864 32.2988 49.7709 32.0956C49.7957 32.0362 49.8204 31.9768 49.8447 31.9174C49.8626 31.8727 49.8806 31.8286 49.8985 31.7846V31.7844C49.9344 31.6963 49.9703 31.6081 50.0061 31.514C50.0149 31.4927 50.0253 31.4689 50.0364 31.4434C50.085 31.332 50.1473 31.1889 50.1473 31.0904H39.5171C39.5276 31.1897 39.6762 31.5287 39.7734 31.7506L39.7736 31.751C39.8013 31.8144 39.8249 31.8681 39.8399 31.904L40.882 34.3313C41.1163 34.8794 41.3611 35.443 41.6077 36.0107L41.6078 36.0108C42.0691 37.0728 42.5367 38.1492 42.9529 39.1656L44.6809 43.2066C44.7112 43.2772 44.7381 43.341 44.765 43.4049C44.7919 43.4688 44.8188 43.5327 44.849 43.6033C44.8633 43.6298 44.882 43.6725 44.9029 43.7204C44.9508 43.8302 45.0107 43.9672 45.0575 44C45.0917 43.8561 45.9656 41.6752 46.8759 39.4032ZM43.7738 42.15C44.1263 42.8293 44.6894 43.9147 44.6944 44L43.4841 42.5275C43.4348 42.4648 43.3915 42.414 43.3482 42.3632L43.348 42.3629C43.3264 42.3376 43.3047 42.3123 43.2824 42.2855L34.75 31.8166C34.6782 31.7272 34.5851 31.6105 34.4794 31.478L34.4788 31.4772L34.4779 31.4761L34.4778 31.476V31.4759L34.4777 31.4758C34.0588 30.9507 33.4434 30.1791 33.1699 29.8735L32.3833 28.9053C32.3711 28.8908 32.3532 28.8704 32.3317 28.8458V28.8457L32.3315 28.8456V28.8455C32.2228 28.7211 32.0224 28.4919 32 28.4077C32.1143 28.4346 32.2353 28.4884 32.3362 28.5355L35.6913 30.0214C35.7955 30.0718 35.8964 30.1139 35.9973 30.1559C36.0981 30.1979 36.199 30.2399 36.3032 30.2904L37.5403 30.8417L37.5872 30.8593C37.7502 30.9201 38.0578 31.0349 38.1186 31.1443L39.6113 34.0556C39.6466 34.1219 39.6761 34.1823 39.7075 34.2465C39.7238 34.28 39.7407 34.3146 39.7592 34.3515C40.1075 35.0369 40.4664 35.7283 40.8261 36.4211C41.3273 37.3864 41.8299 38.3545 42.3075 39.3136L43.2152 41.0752C43.261 41.1669 43.3068 41.2516 43.3527 41.3363V41.3364C43.4077 41.4381 43.4627 41.5398 43.5177 41.6534C43.5587 41.7353 43.6541 41.9192 43.7738 42.1499V42.15ZM39.7524 29.7121H50.2818L48.8631 26.5049H40.7072L39.7524 29.7121ZM45.799 43.5365C45.7374 43.6291 45.5121 43.9673 45.4205 44C45.5564 43.743 45.7183 43.4018 45.8833 43.0541C46.0204 42.7651 46.1597 42.4716 46.2879 42.2182L47.5654 39.5893C47.5837 39.5501 47.5989 39.514 47.6138 39.4786C47.6374 39.4227 47.6602 39.3686 47.6932 39.3069L48.8295 36.9737C48.8897 36.8316 48.95 36.7144 49.0121 36.5937V36.5936C49.0469 36.5258 49.0823 36.457 49.1186 36.382L51.3845 31.6889C51.4469 31.5625 51.4907 31.4651 51.5255 31.3878C51.644 31.1242 51.6565 31.0964 51.9425 30.956L55.6608 29.033C55.7077 29.0088 55.8055 28.9573 55.9319 28.8906L55.9321 28.8905L55.9323 28.8904C56.4031 28.6422 57.2693 28.1854 57.3753 28.1589C57.3579 28.2284 57.2807 28.3228 57.2253 28.3906L57.2005 28.4212L53.2738 33.632C53.2403 33.6756 53.2102 33.7158 53.18 33.7561L53.1797 33.7564L53.1795 33.7567C53.1493 33.797 53.1191 33.8372 53.0856 33.8808L45.8038 43.5293L45.799 43.5365ZM35.1104 28.1831C36.6771 28.8471 38.2799 29.5264 38.4346 29.5642C38.4717 29.49 38.5129 29.37 38.5485 29.2665C38.5581 29.2386 38.5672 29.2119 38.5758 29.1876C38.5899 29.1506 38.6035 29.1155 38.6168 29.0812C38.6543 28.9847 38.689 28.8951 38.7237 28.7909C38.7447 28.7316 38.8114 28.5539 38.899 28.3208V28.3207C39.1487 27.656 39.5677 26.5404 39.5776 26.4309L36.0477 24.6021C36.0153 24.5859 35.9852 24.5712 35.9562 24.5571C35.901 24.5302 35.8495 24.5052 35.7922 24.4743C35.7688 24.4607 35.7448 24.4459 35.7206 24.4309C35.6613 24.3944 35.6007 24.357 35.5434 24.3331C35.446 24.2942 35.3557 24.368 35.2367 24.4654C35.1914 24.5025 35.1418 24.543 35.0862 24.5819C34.6123 24.905 33.8752 25.4654 33.2897 25.9106L33.2896 25.9107C33.1441 26.0213 33.008 26.1248 32.8875 26.2158L32.1143 26.7873C32.0891 26.8009 32.0717 26.8072 32.0593 26.8117C32.0286 26.8228 32.0278 26.8231 32.0135 26.8949C32.1482 26.9277 33.6128 27.5484 35.1104 28.1831ZM50.7457 27.8698L49.9456 26.2158L50.8735 25.6981C51.1178 25.5569 51.3578 25.4245 51.6076 25.2866C51.667 25.2538 51.7271 25.2207 51.7879 25.1871C51.9122 25.1183 52.0313 25.0506 52.1493 24.9835C52.3313 24.88 52.5106 24.778 52.7023 24.6761C52.7682 24.6404 52.8296 24.6058 52.8906 24.5714C52.9791 24.5216 53.0668 24.4723 53.1663 24.4205C53.2546 24.3764 53.335 24.3301 53.4149 24.2841C53.481 24.2461 53.5468 24.2083 53.6167 24.1718C53.6773 24.2121 53.7714 24.2928 53.8319 24.3466L54.4236 24.8441C54.5482 24.9438 54.667 25.0464 54.7861 25.1492C54.9241 25.2683 55.0623 25.3876 55.2103 25.5031L56.4071 26.5049C56.4337 26.5296 56.4727 26.5603 56.5156 26.5939C56.6242 26.6793 56.7576 26.7841 56.7769 26.8613C56.5617 26.9756 56.3264 27.0899 56.1045 27.1974C55.8132 27.339 55.0145 27.753 54.1651 28.1934C52.9563 28.8201 51.6446 29.5002 51.5458 29.5238L51.1424 28.6901C51.071 28.5472 51.0047 28.4077 50.9392 28.2699C50.8753 28.1355 50.8121 28.0027 50.7457 27.8698Z" fill="url(#paint1_linear_2_2612)"/>
</g>
</g>
<g filter="url(#filter4_d_2_2612)">
<path fill-rule="evenodd" clip-rule="evenodd" d="M52.847 55.5394C53.1112 55.0365 53.2433 54.4325 53.2433 53.7272C53.2433 53.022 53.1112 52.419 52.847 51.9183C52.585 51.4154 52.227 51.0309 51.7732 50.7645C51.3215 50.4982 50.809 50.365 50.2359 50.365C49.6627 50.365 49.1492 50.4982 48.6954 50.7645C48.2437 51.0309 47.8857 51.4154 47.6215 51.9183C47.3595 52.419 47.2284 53.022 47.2284 53.7272C47.2284 54.4304 47.3595 55.0333 47.6215 55.5362C47.8857 56.0369 48.2437 56.4215 48.6954 56.6899C49.1492 56.9563 49.6627 57.0894 50.2359 57.0894C50.809 57.0894 51.3215 56.9563 51.7732 56.6899C52.227 56.4236 52.585 56.0401 52.847 55.5394ZM51.8179 52.4712C51.9735 52.8121 52.0512 53.2308 52.0512 53.7272C52.0512 54.2237 51.9735 54.6434 51.8179 54.9865C51.6645 55.3274 51.4514 55.5862 51.1787 55.7631C50.906 55.9378 50.5917 56.0252 50.2359 56.0252C49.8801 56.0252 49.5658 55.9378 49.2931 55.7631C49.0203 55.5862 48.8062 55.3274 48.6507 54.9865C48.4973 54.6434 48.4205 54.2237 48.4205 53.7272C48.4205 53.2308 48.4973 52.8121 48.6507 52.4712C48.8062 52.1282 49.0203 51.8693 49.2931 51.6946C49.5658 51.5177 49.8801 51.4293 50.2359 51.4293C50.5917 51.4293 50.906 51.5177 51.1787 51.6946C51.4514 51.8693 51.6645 52.1282 51.8179 52.4712ZM25.9525 57H23.7345V50.4545H25.9973C26.6471 50.4545 27.2053 50.5855 27.672 50.8476C28.1407 51.1076 28.5008 51.4815 28.7522 51.9694C29.0036 52.4573 29.1294 53.0411 29.1294 53.7208C29.1294 54.4027 29.0026 54.9886 28.749 55.4786C28.4976 55.9687 28.1343 56.3448 27.6592 56.6068C27.1862 56.8689 26.6173 57 25.9525 57ZM24.9202 55.974H25.895C26.3509 55.974 26.7313 55.8909 27.036 55.7247C27.3406 55.5564 27.5697 55.3061 27.7231 54.9737C27.8765 54.6392 27.9532 54.2215 27.9532 53.7208C27.9532 53.2201 27.8765 52.8046 27.7231 52.4744C27.5697 52.142 27.3428 51.8938 27.0424 51.7297C26.7441 51.5635 26.3733 51.4804 25.9301 51.4804H24.9202V55.974ZM31.4417 50.4545V57H30.256V50.4545H31.4417ZM32.3006 57H33.5662L34.1075 55.386H36.5683L37.1106 57H38.3762L36.0687 50.4545H34.6049L32.3006 57ZM36.2483 54.4335L35.3624 51.7968H35.3113L34.427 54.4335H36.2483ZM39.2384 50.4545H40.6894L42.6325 55.1974H42.7093L44.6524 50.4545H46.1034V57H44.9656V52.5032H44.9049L43.096 56.9808H42.2458L40.4369 52.4936H40.3762V57H39.2384V50.4545ZM59.7433 50.4545V57H58.6886L55.6044 52.5415H55.5501V57H54.3643V50.4545H55.4254L58.5064 54.9161H58.5639V50.4545H59.7433ZM61.0352 57H63.2533C63.9181 57 64.487 56.8689 64.96 56.6068C65.4351 56.3448 65.7984 55.9687 66.0498 55.4786C66.3034 54.9886 66.4301 54.4027 66.4301 53.7208C66.4301 53.0411 66.3044 52.4573 66.053 51.9694C65.8016 51.4815 65.4415 51.1076 64.9727 50.8476C64.5061 50.5855 63.9479 50.4545 63.298 50.4545H61.0352V57ZM63.1958 55.974H62.221V51.4804H63.2309C63.6741 51.4804 64.0448 51.5635 64.3431 51.7297C64.6436 51.8938 64.8705 52.142 65.0239 52.4744C65.1773 52.8046 65.254 53.2201 65.254 53.7208C65.254 54.2215 65.1773 54.6392 65.0239 54.9737C64.8705 55.3061 64.6414 55.5564 64.3367 55.7247C64.0321 55.8909 63.6517 55.974 63.1958 55.974ZM30.4042 67H28.1861V60.4545H30.4489C31.0988 60.4545 31.657 60.5855 32.1236 60.8476C32.5924 61.1076 32.9525 61.4815 33.2039 61.9694C33.4553 62.4573 33.581 63.0411 33.581 63.7208C33.581 64.4027 33.4542 64.9886 33.2007 65.4786C32.9493 65.9687 32.586 66.3448 32.1108 66.6068C31.6378 66.8689 31.0689 67 30.4042 67ZM29.3719 65.974H30.3466C30.8026 65.974 31.1829 65.8909 31.4876 65.7247C31.7923 65.5564 32.0214 65.3061 32.1748 64.9737C32.3282 64.6392 32.4049 64.2215 32.4049 63.7208C32.4049 63.2201 32.3282 62.8046 32.1748 62.4744C32.0214 62.142 31.7944 61.8938 31.494 61.7297C31.1957 61.5635 30.825 61.4804 30.3818 61.4804H29.3719V65.974ZM34.7076 60.4545V67H38.9903V66.006H35.8933V64.2194H38.7442V63.2255H35.8933V61.4485H38.9647V60.4545H34.7076ZM41.015 67H39.7493L42.0537 60.4545H43.5174L45.825 67H44.5594L44.0171 65.386H41.5563L41.015 67ZM42.8111 61.7968L43.697 64.4335H41.8757L42.76 61.7968H42.8111ZM46.6871 60.4545V67H50.7556V66.006H47.8728V60.4545H46.6871ZM51.7848 67V60.4545H56.0419V61.4485H52.9705V63.2255H55.8213V64.2194H52.9705V66.006H56.0674V67H51.7848ZM57.2516 60.4545V67H58.4373V64.6029H59.6439L60.9302 67H62.2533L60.8376 64.4086C60.8801 64.3914 60.9217 64.3731 60.9621 64.3536C61.3073 64.1853 61.5683 63.9478 61.7452 63.6409C61.9241 63.332 62.0136 62.9676 62.0136 62.5479C62.0136 62.1303 61.9252 61.7649 61.7484 61.4517C61.5736 61.1363 61.3148 60.8913 60.9717 60.7166C60.6308 60.5419 60.2089 60.4545 59.7061 60.4545H57.2516ZM58.4373 63.6186H59.5303C59.8244 63.6186 60.0651 63.5781 60.2526 63.4971C60.4401 63.414 60.5786 63.2936 60.6681 63.136C60.7597 62.9762 60.8055 62.7801 60.8055 62.5479C60.8055 62.3157 60.7597 62.1175 60.6681 61.9534C60.5765 61.7872 60.4369 61.6615 60.2494 61.5763C60.0619 61.4889 59.8201 61.4453 59.5239 61.4453H58.4373V63.6186Z" fill="url(#paint2_linear_2_2612)"/>
</g>
<defs>
<filter id="filter0_d_2_2612" x="4" y="7" width="81" height="83" filterUnits="userSpaceOnUse" color-interpolation-filters="sRGB">
<feFlood flood-opacity="0" result="BackgroundImageFix"/>
<feColorMatrix in="SourceAlpha" type="matrix" values="0 0 0 0 0 0 0 0 0 0 0 0 0 0 0 0 0 0 127 0" result="hardAlpha"/>
<feOffset dy="4"/>
<feGaussianBlur stdDeviation="1"/>
<feColorMatrix type="matrix" values="0 0 0 0 0 0 0 0 0 0 0 0 0 0 0 0 0 0 0.6 0"/>
<feBlend mode="normal" in2="BackgroundImageFix" result="effect1_dropShadow_2_2612"/>
<feBlend mode="normal" in="SourceGraphic" in2="effect1_dropShadow_2_2612" result="shape"/>
</filter>
<filter id="filter1_d_2_2612" x="5" y="10" width="79" height="79" filterUnits="userSpaceOnUse" color-interpolation-filters="sRGB">
<feFlood flood-opacity="0" result="BackgroundImageFix"/>
<feColorMatrix in="SourceAlpha" type="matrix" values="0 0 0 0 0 0 0 0 0 0 0 0 0 0 0 0 0 0 127 0" result="hardAlpha"/>
<feOffset dy="4"/>
<feGaussianBlur stdDeviation="3"/>
<feColorMatrix type="matrix" values="0 0 0 0 0 0 0 0 0 0 0 0 0 0 0 0 0 0 0.8 0"/>
<feBlend mode="normal" in2="BackgroundImageFix" result="effect1_dropShadow_2_2612"/>
<feBlend mode="normal" in="SourceGraphic" in2="effect1_dropShadow_2_2612" result="shape"/>
</filter>
<filter id="filter2_d_2_2612" x="29" y="22" width="31.3753" height="28" filterUnits="userSpaceOnUse" color-interpolation-filters="sRGB">
<feFlood flood-opacity="0" result="BackgroundImageFix"/>
<feColorMatrix in="SourceAlpha" type="matrix" values="0 0 0 0 0 0 0 0 0 0 0 0 0 0 0 0 0 0 127 0" result="hardAlpha"/>
<feOffset dy="3"/>
<feGaussianBlur stdDeviation="1.5"/>
<feColorMatrix type="matrix" values="0 0 0 0 0 0 0 0 0 0 0 0 0 0 0 0 0 0 0.8 0"/>
<feBlend mode="normal" in2="BackgroundImageFix" result="effect1_dropShadow_2_2612"/>
<feBlend mode="normal" in="SourceGraphic" in2="effect1_dropShadow_2_2612" result="shape"/>
</filter>
<filter id="filter3_i_2_2612" x="32" y="22" width="25.3753" height="26" filterUnits="userSpaceOnUse" color-interpolation-filters="sRGB">
<feFlood flood-opacity="0" result="BackgroundImageFix"/>
<feBlend mode="normal" in="SourceGraphic" in2="BackgroundImageFix" result="shape"/>
<feColorMatrix in="SourceAlpha" type="matrix" values="0 0 0 0 0 0 0 0 0 0 0 0 0 0 0 0 0 0 127 0" result="hardAlpha"/>
<feOffset dy="4"/>
<feGaussianBlur stdDeviation="2"/>
<feComposite in2="hardAlpha" operator="arithmetic" k2="-1" k3="1"/>
<feColorMatrix type="matrix" values="0 0 0 0 0 0 0 0 0 0 0 0 0 0 0 0 0 0 0.25 0"/>
<feBlend mode="normal" in2="shape" result="effect1_innerShadow_2_2612"/>
</filter>
<filter id="filter4_d_2_2612" x="21.7345" y="49.365" width="46.6956" height="20.635" filterUnits="userSpaceOnUse" color-interpolation-filters="sRGB">
<feFlood flood-opacity="0" result="BackgroundImageFix"/>
<feColorMatrix in="SourceAlpha" type="matrix" values="0 0 0 0 0 0 0 0 0 0 0 0 0 0 0 0 0 0 127 0" result="hardAlpha"/>
<feOffset dy="1"/>
<feGaussianBlur stdDeviation="1"/>
<feColorMatrix type="matrix" values="0 0 0 0 0 0 0 0 0 0 0 0 0 0 0 0 0 0 1 0"/>
<feBlend mode="normal" in2="BackgroundImageFix" result="effect1_dropShadow_2_2612"/>
<feBlend mode="normal" in="SourceGraphic" in2="effect1_dropShadow_2_2612" result="shape"/>
</filter>
<linearGradient id="paint0_linear_2_2612" x1="44.5" y1="7" x2="44.5" y2="84" gradientUnits="userSpaceOnUse">
<stop stop-color="#99C8FF"/>
<stop offset="1" stop-color="#7CB9FF"/>
</linearGradient>
<linearGradient id="paint1_linear_2_2612" x1="28.4324" y1="27.3514" x2="57.4881" y2="28.8708" gradientUnits="userSpaceOnUse">
<stop stop-color="#3B74BD"/>
<stop offset="0.307292" stop-color="#DDEEFF"/>
<stop offset="0.6875" stop-color="#D9EDFF"/>
<stop offset="1" stop-color="#71AAED"/>
</linearGradient>
<linearGradient id="paint2_linear_2_2612" x1="17.7318" y1="54.4114" x2="66.0986" y2="60.0398" gradientUnits="userSpaceOnUse">
<stop stop-color="#3B74BD"/>
<stop offset="0.307292" stop-color="#DDEEFF"/>
<stop offset="0.6875" stop-color="#D9EDFF"/>
<stop offset="1" stop-color="#71AAED"/>
</linearGradient>
</defs>
</svg>
