<svg width="90" height="90" viewBox="0 0 90 90" fill="none" xmlns="http://www.w3.org/2000/svg">
<path d="M87 45.5C87 22.0279 67.9721 3 44.5 3C21.0279 3 2 22.0279 2 45.5C2 68.9721 21.0279 88 44.5 88C67.9721 88 87 68.9721 87 45.5Z" fill="#EFA31A"/>
<g filter="url(#filter0_d_2_2537)">
<path d="M44.5 84C65.763 84 83 66.763 83 45.5C83 24.237 65.763 7 44.5 7C23.237 7 6 24.237 6 45.5C6 66.763 23.237 84 44.5 84Z" fill="url(#paint0_linear_2_2537)"/>
</g>
<g filter="url(#filter1_d_2_2537)">
<path d="M44.5 79C63.0015 79 78 64.0015 78 45.5C78 26.9985 63.0015 12 44.5 12C25.9985 12 11 26.9985 11 45.5C11 64.0015 25.9985 79 44.5 79Z" fill="#EFA31A"/>
</g>
<g filter="url(#filter2_d_2_2537)">
<path fill-rule="evenodd" clip-rule="evenodd" d="M44.05 50H24V30H44.0633V34.7833C43.7149 34.8427 43.3777 34.9551 43.0633 35.1167C42.5951 35.3445 42.1934 35.6888 41.8967 36.1167C41.6344 36.4926 41.4905 36.9383 41.4833 37.3967C41.4852 37.7022 41.557 38.0032 41.6933 38.2767C41.7905 38.4798 41.9018 38.6759 42.0267 38.8633C41.4001 39.1461 40.8538 39.5803 40.4367 40.1267C40.0463 40.6643 39.8373 41.3123 39.84 41.9767C39.8417 42.5513 40.0134 43.1126 40.3333 43.59C40.693 44.1184 41.1896 44.5389 41.77 44.8067C42.4859 45.1291 43.2651 45.2863 44.05 45.2667V50ZM33.5 40.91L30.9333 34.8467H28.4667L33 45.28H35.1L37.9267 38.75L39.5933 34.86H37.05L34.67 40.9433C34.5963 41.1285 34.4499 41.4891 34.3244 41.7983C34.2171 42.0624 34.1251 42.2891 34.1067 42.3367C34.0997 42.3199 34.0928 42.3034 34.0861 42.2871C34.0444 42.1868 34.0063 42.0951 33.9633 42.0033C33.8366 41.7177 33.7192 41.4358 33.6097 41.1727C33.5722 41.0827 33.5357 40.995 33.5 40.91ZM47.0934 35.3333C46.8362 35.1651 46.5583 35.0306 46.2667 34.9333V30H66.3334V50H46.2534V44.7967C46.6071 44.6476 46.9426 44.4586 47.2534 44.2333C47.3245 44.3229 47.3976 44.4082 47.4728 44.4959C47.4929 44.5193 47.5131 44.5429 47.5334 44.5667C47.6801 44.7356 47.8145 44.8856 47.9367 45.0167L48.0001 45.0833H50.4734L50.1867 44.75C49.9901 44.5167 49.6901 44.1733 49.4001 43.85C49.2842 43.7208 49.1683 43.5948 49.0524 43.4688C48.8783 43.2795 48.7042 43.0901 48.5301 42.89C48.7545 42.5393 48.9368 42.1633 49.0734 41.77C49.235 41.2937 49.3248 40.796 49.3401 40.2933V40.08H47.4934V40.2733C47.4774 40.5424 47.435 40.8092 47.3667 41.07C47.3287 41.2136 47.2797 41.354 47.2201 41.49L46.2567 40.55V36.93C46.5741 37.1685 46.8329 37.4764 47.0134 37.83L47.1334 38.05L48.5001 36.9167L48.4267 36.77C48.1169 36.1818 47.6569 35.6862 47.0934 35.3333ZM56.1601 41.1233C56.843 41.2038 57.5143 41.3637 58.1601 41.6L58.1634 41.5867C58.6234 41.7767 58.6667 42.0467 58.6734 42.25C58.6794 42.4614 58.5885 42.6639 58.4267 42.8C58.1979 42.9959 57.9261 43.1352 57.6334 43.2067C57.2834 43.3072 56.9209 43.3577 56.5567 43.3567C55.9477 43.3784 55.3438 43.238 54.8067 42.95C54.2704 42.6189 53.7919 42.2023 53.3901 41.7167L53.1101 41.3833L51.6934 43.1633L51.8734 43.3867C52.4141 44.0653 53.1168 44.5972 53.9167 44.9333C54.732 45.2572 55.6029 45.418 56.4801 45.4067C57.277 45.4258 58.0699 45.2876 58.8134 45C59.4326 44.7569 59.9716 44.3459 60.3701 43.8133C60.7484 43.2779 60.9458 42.6355 60.9334 41.98C60.9465 41.5071 60.8138 41.0416 60.5534 40.6467C60.2975 40.2865 59.9622 39.99 59.5734 39.78C59.1588 39.5581 58.7189 39.3869 58.2634 39.27C57.7777 39.1459 57.286 39.0469 56.7901 38.9733C56.188 38.8919 55.5988 38.7339 55.0367 38.5033C54.7439 38.3916 54.5485 38.1129 54.5434 37.7996C54.5382 37.4862 54.7244 37.2012 55.0134 37.08C55.4659 36.8579 55.9664 36.7514 56.4701 36.77C56.9919 36.7596 57.5078 36.8812 57.9701 37.1233C58.3895 37.3516 58.7527 37.6704 59.0334 38.0567L59.2801 38.39L60.7967 36.8067L60.6367 36.57C60.2199 35.9619 59.6431 35.4809 58.9701 35.18C57.5208 34.5864 55.9039 34.5461 54.4267 35.0667C53.825 35.2844 53.2899 35.6541 52.8734 36.14C52.4722 36.6248 52.2581 37.2375 52.2701 37.8667C52.2273 38.7637 52.654 39.6185 53.3967 40.1233C54.2306 40.6608 55.1753 41.0027 56.1601 41.1233Z" fill="url(#paint1_linear_2_2537)"/>
</g>
<g filter="url(#filter3_d_2_2537)">
<path fill-rule="evenodd" clip-rule="evenodd" d="M37.3306 58.0813C37.4244 58.2176 37.4979 58.3721 37.5511 58.5447H38.7592C38.7102 58.223 38.6069 57.9289 38.4492 57.6626C38.2915 57.3963 38.0902 57.1661 37.8452 56.9723C37.6023 56.7784 37.3242 56.6292 37.011 56.5248C36.6978 56.4183 36.3601 56.365 35.9979 56.365C35.5696 56.365 35.1733 56.4417 34.8089 56.5951C34.4446 56.7464 34.1271 56.968 33.8565 57.2599C33.5859 57.5497 33.375 57.9023 33.2237 58.3178C33.0746 58.7333 33 59.2052 33 59.7336C33 60.424 33.1268 61.0206 33.3803 61.5234C33.636 62.0241 33.9908 62.4108 34.4446 62.6835C34.9006 62.9541 35.43 63.0894 36.033 63.0894C36.5742 63.0894 37.0536 62.9797 37.4712 62.7603C37.8888 62.5387 38.217 62.2233 38.4556 61.8142C38.6942 61.4051 38.8136 60.9204 38.8136 60.36V59.5738H36.1577V60.5007H37.6658C37.6603 60.8008 37.5943 61.064 37.468 61.2901C37.3359 61.5245 37.1474 61.7056 36.9023 61.8334C36.6594 61.9612 36.3718 62.0252 36.0394 62.0252C35.6729 62.0252 35.3512 61.9367 35.0742 61.7599C34.7972 61.5809 34.581 61.3199 34.4254 60.9769C34.2699 60.6338 34.1921 60.2152 34.1921 59.7208C34.1921 59.2308 34.2699 58.8153 34.4254 58.4744C34.5831 58.1313 34.7994 57.8714 35.0742 57.6946C35.3491 57.5177 35.6623 57.4293 36.0138 57.4293C36.2099 57.4293 36.391 57.4549 36.5572 57.506C36.7234 57.555 36.8704 57.6285 36.9982 57.7265C37.1282 57.8245 37.239 57.9428 37.3306 58.0813ZM45.4126 61.5394C45.6768 61.0365 45.8089 60.4325 45.8089 59.7272C45.8089 59.022 45.6768 58.419 45.4126 57.9183C45.1505 57.4154 44.7925 57.0309 44.3387 56.7645C43.887 56.4982 43.3746 56.365 42.8014 56.365C42.2282 56.365 41.7148 56.4982 41.2609 56.7645C40.8092 57.0309 40.4513 57.4154 40.1871 57.9183C39.925 58.419 39.7939 59.022 39.7939 59.7272C39.7939 60.4304 39.925 61.0333 40.1871 61.5362C40.4513 62.0369 40.8092 62.4215 41.2609 62.6899C41.7148 62.9563 42.2282 63.0894 42.8014 63.0894C43.3746 63.0894 43.887 62.9563 44.3387 62.6899C44.7925 62.4236 45.1505 62.0401 45.4126 61.5394ZM44.3834 58.4712C44.539 58.8121 44.6167 59.2308 44.6167 59.7272C44.6167 60.2237 44.539 60.6434 44.3834 60.9865C44.23 61.3274 44.017 61.5862 43.7442 61.7631C43.4715 61.9378 43.1572 62.0252 42.8014 62.0252C42.4456 62.0252 42.1313 61.9378 41.8586 61.7631C41.5858 61.5862 41.3717 61.3274 41.2162 60.9865C41.0628 60.6434 40.9861 60.2237 40.9861 59.7272C40.9861 59.2308 41.0628 58.8121 41.2162 58.4712C41.3717 58.1282 41.5858 57.8693 41.8586 57.6946C42.1313 57.5177 42.4456 57.4293 42.8014 57.4293C43.1572 57.4293 43.4715 57.5177 43.7442 57.6946C44.017 57.8693 44.23 58.1282 44.3834 58.4712ZM46.9299 63.0001V56.4546H48.1156V62.0061H50.9984V63.0001H46.9299ZM52.0275 63.0001H54.2456C54.9103 63.0001 55.4792 62.869 55.9522 62.6069C56.4274 62.3449 56.7907 61.9688 57.0421 61.4787C57.2956 60.9887 57.4224 60.4028 57.4224 59.7209C57.4224 59.0412 57.2967 58.4574 57.0453 57.9695C56.7939 57.4816 56.4338 57.1077 55.965 56.8477C55.4984 56.5856 54.9402 56.4546 54.2903 56.4546H52.0275V63.0001ZM54.188 61.9741H53.2132V57.4805H54.2232C54.6664 57.4805 55.0371 57.5636 55.3354 57.7298C55.6358 57.8939 55.8627 58.1421 56.0162 58.4745C56.1696 58.8047 56.2463 59.2202 56.2463 59.7209C56.2463 60.2216 56.1696 60.6393 56.0162 60.9738C55.8627 61.3062 55.6337 61.5565 55.329 61.7248C55.0243 61.891 54.644 61.9741 54.188 61.9741Z" fill="url(#paint2_linear_2_2537)"/>
</g>
<defs>
<filter id="filter0_d_2_2537" x="4" y="7" width="81" height="83" filterUnits="userSpaceOnUse" color-interpolation-filters="sRGB">
<feFlood flood-opacity="0" result="BackgroundImageFix"/>
<feColorMatrix in="SourceAlpha" type="matrix" values="0 0 0 0 0 0 0 0 0 0 0 0 0 0 0 0 0 0 127 0" result="hardAlpha"/>
<feOffset dy="4"/>
<feGaussianBlur stdDeviation="1"/>
<feColorMatrix type="matrix" values="0 0 0 0 0 0 0 0 0 0 0 0 0 0 0 0 0 0 0.6 0"/>
<feBlend mode="normal" in2="BackgroundImageFix" result="effect1_dropShadow_2_2537"/>
<feBlend mode="normal" in="SourceGraphic" in2="effect1_dropShadow_2_2537" result="shape"/>
</filter>
<filter id="filter1_d_2_2537" x="5" y="10" width="79" height="79" filterUnits="userSpaceOnUse" color-interpolation-filters="sRGB">
<feFlood flood-opacity="0" result="BackgroundImageFix"/>
<feColorMatrix in="SourceAlpha" type="matrix" values="0 0 0 0 0 0 0 0 0 0 0 0 0 0 0 0 0 0 127 0" result="hardAlpha"/>
<feOffset dy="4"/>
<feGaussianBlur stdDeviation="3"/>
<feColorMatrix type="matrix" values="0 0 0 0 0 0 0 0 0 0 0 0 0 0 0 0 0 0 0.8 0"/>
<feBlend mode="normal" in2="BackgroundImageFix" result="effect1_dropShadow_2_2537"/>
<feBlend mode="normal" in="SourceGraphic" in2="effect1_dropShadow_2_2537" result="shape"/>
</filter>
<filter id="filter2_d_2_2537" x="19" y="28" width="52.3334" height="30" filterUnits="userSpaceOnUse" color-interpolation-filters="sRGB">
<feFlood flood-opacity="0" result="BackgroundImageFix"/>
<feColorMatrix in="SourceAlpha" type="matrix" values="0 0 0 0 0 0 0 0 0 0 0 0 0 0 0 0 0 0 127 0" result="hardAlpha"/>
<feOffset dy="3"/>
<feGaussianBlur stdDeviation="2.5"/>
<feColorMatrix type="matrix" values="0 0 0 0 0 0 0 0 0 0 0 0 0 0 0 0 0 0 1 0"/>
<feBlend mode="normal" in2="BackgroundImageFix" result="effect1_dropShadow_2_2537"/>
<feBlend mode="normal" in="SourceGraphic" in2="effect1_dropShadow_2_2537" result="shape"/>
</filter>
<filter id="filter3_d_2_2537" x="31" y="55.365" width="28.4224" height="10.7244" filterUnits="userSpaceOnUse" color-interpolation-filters="sRGB">
<feFlood flood-opacity="0" result="BackgroundImageFix"/>
<feColorMatrix in="SourceAlpha" type="matrix" values="0 0 0 0 0 0 0 0 0 0 0 0 0 0 0 0 0 0 127 0" result="hardAlpha"/>
<feOffset dy="1"/>
<feGaussianBlur stdDeviation="1"/>
<feColorMatrix type="matrix" values="0 0 0 0 0 0 0 0 0 0 0 0 0 0 0 0 0 0 1 0"/>
<feBlend mode="normal" in2="BackgroundImageFix" result="effect1_dropShadow_2_2537"/>
<feBlend mode="normal" in="SourceGraphic" in2="effect1_dropShadow_2_2537" result="shape"/>
</filter>
<linearGradient id="paint0_linear_2_2537" x1="44" y1="4.5" x2="44" y2="87" gradientUnits="userSpaceOnUse">
<stop stop-color="#FDD077"/>
<stop offset="1" stop-color="#F7AC16"/>
</linearGradient>
<linearGradient id="paint1_linear_2_2537" x1="19.0196" y1="39.0588" x2="68.1229" y2="50.2129" gradientUnits="userSpaceOnUse">
<stop stop-color="white"/>
<stop offset="0.395833" stop-color="#FFE8C6"/>
<stop offset="0.6875" stop-color="#FCF2E1"/>
<stop offset="1" stop-color="#F3C57B"/>
</linearGradient>
<linearGradient id="paint2_linear_2_2537" x1="30.1268" y1="59.4109" x2="55.9878" y2="69.4906" gradientUnits="userSpaceOnUse">
<stop stop-color="white"/>
<stop offset="0.395833" stop-color="#FFE8C6"/>
<stop offset="0.6875" stop-color="#FCF2E1"/>
<stop offset="1" stop-color="#F3C57B"/>
</linearGradient>
</defs>
</svg>
