<svg width="90" height="90" viewBox="0 0 90 90" fill="none" xmlns="http://www.w3.org/2000/svg">
<path d="M87 45.5C87 22.0279 67.9721 3 44.5 3C21.0279 3 2 22.0279 2 45.5C2 68.9721 21.0279 88 44.5 88C67.9721 88 87 68.9721 87 45.5Z" fill="#EFA31A"/>
<g filter="url(#filter0_d_2_2560)">
<path d="M44.5 84C65.763 84 83 66.763 83 45.5C83 24.237 65.763 7 44.5 7C23.237 7 6 24.237 6 45.5C6 66.763 23.237 84 44.5 84Z" fill="url(#paint0_linear_2_2560)"/>
</g>
<g filter="url(#filter1_d_2_2560)">
<path d="M44.5 79C63.0015 79 78 64.0015 78 45.5C78 26.9985 63.0015 12 44.5 12C25.9985 12 11 26.9985 11 45.5C11 64.0015 25.9985 79 44.5 79Z" fill="#EFA31A"/>
</g>
<g filter="url(#filter2_d_2_2560)">
<path fill-rule="evenodd" clip-rule="evenodd" d="M37.3391 52.5447C37.2859 52.3721 37.2123 52.2176 37.1185 52.0813C37.0269 51.9428 36.9162 51.8245 36.7862 51.7265C36.6584 51.6285 36.5113 51.555 36.3451 51.506C36.1789 51.4549 35.9979 51.4293 35.8018 51.4293C35.4503 51.4293 35.1371 51.5177 34.8622 51.6946C34.5874 51.8714 34.3711 52.1313 34.2134 52.4744C34.0579 52.8153 33.98 53.2308 33.98 53.7208C33.98 54.2152 34.0579 54.6338 34.2134 54.9769C34.369 55.3199 34.5852 55.5809 34.8622 55.7599C35.1392 55.9367 35.4609 56.0252 35.8274 56.0252C36.1598 56.0252 36.4474 55.9612 36.6903 55.8334C36.9354 55.7056 37.1239 55.5245 37.256 55.2901C37.3823 55.064 37.4483 54.8009 37.4538 54.5007H35.9457V53.5738H38.6016V54.36C38.6016 54.9204 38.4821 55.4051 38.2435 55.8142C38.0049 56.2233 37.6768 56.5387 37.2592 56.7603C36.8416 56.9797 36.3621 57.0894 35.8209 57.0894C35.2179 57.0894 34.6886 56.9541 34.2326 56.6835C33.7788 56.4108 33.424 56.0241 33.1683 55.5234C32.9148 55.0206 32.7879 54.424 32.7879 53.7336C32.7879 53.2052 32.8626 52.7333 33.0117 52.3178C33.163 51.9023 33.3739 51.5497 33.6445 51.2599C33.9151 50.968 34.2326 50.7464 34.5969 50.5951C34.9613 50.4417 35.3576 50.365 35.7859 50.365C36.1481 50.365 36.4858 50.4183 36.799 50.5248C37.1122 50.6292 37.3903 50.7784 37.6332 50.9723C37.8782 51.1661 38.0795 51.3963 38.2372 51.6626C38.3949 51.9289 38.4981 52.223 38.5471 52.5447H37.3391ZM45.5969 53.7272C45.5969 54.4325 45.4648 55.0365 45.2005 55.5394C44.9385 56.0401 44.5805 56.4236 44.1267 56.6899C43.675 56.9563 43.1626 57.0894 42.5894 57.0894C42.0162 57.0894 41.5027 56.9563 41.0489 56.6899C40.5972 56.4215 40.2392 56.0369 39.9749 55.5362C39.7129 55.0333 39.5819 54.4304 39.5819 53.7272C39.5819 53.022 39.7129 52.419 39.9749 51.9183C40.2392 51.4154 40.5972 51.0309 41.0489 50.7645C41.5027 50.4982 42.0162 50.365 42.5894 50.365C43.1626 50.365 43.675 50.4982 44.1267 50.7645C44.5805 51.0309 44.9385 51.4154 45.2005 51.9183C45.4648 52.419 45.5969 53.022 45.5969 53.7272ZM44.4047 53.7272C44.4047 53.2308 44.3269 52.8121 44.1713 52.4712C44.0179 52.1282 43.805 51.8693 43.5322 51.6946C43.2595 51.5177 42.9452 51.4293 42.5894 51.4293C42.2336 51.4293 41.9192 51.5177 41.6465 51.6946C41.3737 51.8693 41.1597 52.1282 41.0042 52.4712C40.8508 52.8121 40.7741 53.2308 40.7741 53.7272C40.7741 54.2237 40.8508 54.6434 41.0042 54.9865C41.1597 55.3274 41.3737 55.5862 41.6465 55.7631C41.9192 55.9378 42.2336 56.0252 42.5894 56.0252C42.9452 56.0252 43.2595 55.9378 43.5322 55.7631C43.805 55.5862 44.0179 55.3274 44.1713 54.9865C44.3269 54.6434 44.4047 54.2237 44.4047 53.7272ZM46.7178 50.4545V57H50.7864V56.006H47.9035V50.4545H46.7178ZM54.0336 57H51.8154V50.4545H54.0783C54.7282 50.4545 55.2863 50.5855 55.7529 50.8476C56.2217 51.1076 56.5819 51.4815 56.8333 51.9694C57.0847 52.4573 57.2104 53.0411 57.2104 53.7208C57.2104 54.4027 57.0836 54.9886 56.8301 55.4786C56.5787 55.9687 56.2154 56.3448 55.7402 56.6068C55.2672 56.8689 54.6983 57 54.0336 57ZM53.0012 55.974H53.976C54.432 55.974 54.8123 55.8909 55.117 55.7247C55.4217 55.5564 55.6506 55.3061 55.8041 54.9737C55.9575 54.6392 56.0343 54.2215 56.0343 53.7208C56.0343 53.2201 55.9575 52.8046 55.8041 52.4744C55.6506 52.142 55.4238 51.8938 55.1234 51.7297C54.8251 51.5635 54.4544 51.4804 54.0112 51.4804H53.0012V55.974ZM29.8675 61.602C30.0891 61.7575 30.2149 61.9748 30.2448 62.254H31.3857C31.3793 61.8854 31.276 61.5594 31.0757 61.276C30.8754 60.9905 30.5994 60.7678 30.2479 60.608C29.8984 60.4461 29.4916 60.3651 29.0271 60.3651C28.569 60.3651 28.1588 60.4461 27.7966 60.608C27.4344 60.7678 27.1477 60.9926 26.9368 61.2824C26.728 61.5721 26.6236 61.9099 26.6236 62.2955C26.6236 62.7643 26.7792 63.1403 27.0903 63.4237C27.4035 63.705 27.8296 63.9148 28.3687 64.0533L29.1133 64.2451C29.3476 64.3047 29.5522 64.3729 29.7269 64.4496C29.9038 64.5242 30.0412 64.618 30.1392 64.7309C30.2372 64.8417 30.2873 64.9823 30.2894 65.1528C30.2873 65.3403 30.2309 65.5043 30.1201 65.6449C30.0093 65.7834 29.8559 65.8921 29.6599 65.9709C29.466 66.0476 29.2401 66.086 28.9823 66.086C28.7352 66.086 28.5113 66.0487 28.3111 65.9741C28.1129 65.8996 27.9521 65.7866 27.8286 65.6354C27.705 65.4841 27.6346 65.2944 27.6175 65.0665H26.451C26.468 65.5011 26.5811 65.8697 26.7899 66.1723C27.0008 66.4748 27.2927 66.705 27.6656 66.8626C28.0406 67.0203 28.4826 67.0991 28.9918 67.0991C29.516 67.0991 29.9624 67.0182 30.3311 66.8562C30.7018 66.6922 30.9852 66.4653 31.1812 66.1755C31.3772 65.8836 31.4752 65.5459 31.4752 65.1623C31.4752 64.879 31.4219 64.6318 31.3153 64.4209C31.2088 64.2099 31.064 64.0299 30.8808 63.8807C30.6997 63.7316 30.494 63.608 30.2639 63.51C30.036 63.412 29.7984 63.3342 29.5512 63.2767L28.9375 63.1233C28.8033 63.0913 28.6701 63.0519 28.538 63.005C28.4059 62.9582 28.2856 62.9006 28.1769 62.8324C28.0683 62.7621 27.982 62.6769 27.9181 62.5768C27.8563 62.4766 27.8253 62.3584 27.8253 62.222C27.8274 62.0579 27.8754 61.912 27.9692 61.7841C28.0629 61.6563 28.1981 61.5551 28.375 61.4805C28.5518 61.406 28.7639 61.3687 29.0111 61.3687C29.3627 61.3687 29.6481 61.4464 29.8675 61.602ZM32.5322 67V60.4545H33.7179V63.2255H36.751V60.4545H37.9399V67H36.751V64.2194H33.7179V67H32.5322ZM40.4152 67V60.4545H39.2295V67H40.4152ZM41.6992 67V60.4545H44.1539C44.6567 60.4545 45.0785 60.5483 45.4194 60.7358C45.7624 60.9233 46.0213 61.1811 46.196 61.5092C46.3729 61.8352 46.4613 62.2059 46.4613 62.6214C46.4613 63.0411 46.3729 63.414 46.196 63.74C46.0192 64.066 45.7583 64.3228 45.4131 64.5103C45.0679 64.6956 44.6428 64.7883 44.1379 64.7883H42.8849V67H41.6992ZM43.9781 63.8135H42.8849V61.4453H43.9716C44.2677 61.4453 44.5097 61.4953 44.6972 61.5955C44.8868 61.6935 45.0263 61.8309 45.1158 62.0078C45.2074 62.1846 45.2533 62.3892 45.2533 62.6214C45.2533 62.8536 45.2074 63.0593 45.1158 63.2382C45.0263 63.4172 44.8879 63.5578 44.7004 63.6601C44.5129 63.7624 44.2721 63.8135 43.9781 63.8135ZM47.4912 60.4545V67H48.6769V64.7883H49.9299C50.4348 64.7883 50.8599 64.6956 51.2051 64.5103C51.5502 64.3228 51.8112 64.066 51.988 63.74C52.1648 63.414 52.2533 63.0411 52.2533 62.6214C52.2533 62.2059 52.1648 61.8352 51.988 61.5092C51.8133 61.1811 51.5544 60.9233 51.2114 60.7358C50.8705 60.5483 50.4487 60.4545 49.9458 60.4545H47.4912ZM48.6769 63.8135H49.7701C50.0641 63.8135 50.3049 63.7624 50.4924 63.6601C50.6799 63.5578 50.8183 63.4172 50.9077 63.2382C50.9994 63.0593 51.0452 62.8536 51.0452 62.6214C51.0452 62.3892 50.9994 62.1846 50.9077 62.0078C50.8183 61.8309 50.6788 61.6935 50.4892 61.5955C50.3017 61.4953 50.0597 61.4453 49.7636 61.4453H48.6769V63.8135ZM53.2832 67V60.4545H57.5404V61.4485H54.469V63.2255H57.3199V64.2194H54.469V66.006H57.566V67H53.2832ZM58.75 60.4545V67H59.9357V64.6029H61.1423L62.4286 67H63.7519L62.3361 64.4086C62.3787 64.3914 62.4203 64.3731 62.4607 64.3536C62.8058 64.1853 63.0667 63.9478 63.2436 63.6409C63.4226 63.332 63.5121 62.9676 63.5121 62.5479C63.5121 62.1303 63.4236 61.7649 63.2468 61.4517C63.0721 61.1363 62.8132 60.8913 62.4702 60.7166C62.1292 60.5419 61.7075 60.4545 61.2046 60.4545H58.75ZM59.9357 63.6186H61.0289C61.3229 63.6186 61.5637 63.5781 61.7512 63.4971C61.9387 63.414 62.077 63.2936 62.1665 63.136C62.2582 62.9762 62.3041 62.7801 62.3041 62.5479C62.3041 62.3157 62.2582 62.1175 62.1665 61.9534C62.0749 61.7872 61.9355 61.6615 61.748 61.5763C61.5605 61.4889 61.3185 61.4453 61.0224 61.4453H59.9357V63.6186Z" fill="url(#paint1_linear_2_2560)"/>
</g>
<g filter="url(#filter3_d_2_2560)">
<path fill-rule="evenodd" clip-rule="evenodd" d="M41.2538 32.4194C41.2538 31.851 41.9995 31.2479 42.6102 31.844C43.1216 32.35 42.8162 33.2165 41.9924 33.2165C41.6657 33.2165 41.2538 32.8352 41.2538 32.4194ZM48.6752 21.329H49.5488V19.8664H48.6752V21.329ZM40.5152 21.3013H41.3603L41.4171 19.8664H40.4654C40.4654 20.1437 40.4939 20.317 40.4939 20.5804C40.4939 20.8576 40.5152 21.0517 40.5152 21.3013ZM43.4269 21.329C44.5206 21.329 45.522 21.3013 46.6086 21.3013L46.637 20.7467C46.637 20.5527 46.637 20.3586 46.637 20.1645C46.637 19.9565 46.6654 19.8318 46.6654 19.61C46.6654 19.409 46.6654 19.201 46.6654 19H43.4269V21.329ZM39.322 21.939C39.322 22.133 39.5422 23.5678 39.599 23.8728C39.6132 23.956 39.6416 24.0531 39.6487 24.1432C39.8192 24.1432 47.4963 24.1709 47.7733 24.1362L50.4436 24.0877L50.6922 22.4727C50.7135 22.334 50.7703 22.0568 50.7703 21.9112C50.2874 21.9112 49.8825 21.8835 49.3854 21.8835C48.9167 21.8835 48.4409 21.8835 47.9721 21.8835C47.4892 21.8835 47.0844 21.8558 46.5873 21.8558C45.6143 21.8558 44.6485 21.8558 43.6755 21.8558C43.1642 21.8558 42.7452 21.8835 42.2338 21.8835C41.7438 21.8835 41.2538 21.8835 40.7637 21.8835L39.6771 21.9112C39.5209 21.9112 39.4854 21.939 39.322 21.939ZM32.0071 45C32.2557 45 32.5326 44.9515 32.7599 44.9099C33.257 44.8267 33.8891 44.6049 34.3152 44.3554C34.4146 44.2999 34.4857 44.2514 34.5851 44.1959C34.6774 44.1405 34.7413 44.092 34.8265 44.0365C35.1248 43.8286 35.7356 43.3087 35.9415 43.0523C36.0197 42.9552 36.2824 42.6641 36.389 42.6364C36.4387 42.8166 37.4116 43.7315 37.5963 43.8702C38.4698 44.5425 39.4996 44.9723 40.6572 44.9723C42.0137 44.9653 43.2991 44.3692 44.1726 43.5167C44.3289 43.3642 44.8615 42.8374 44.9822 42.6641L46.4949 44.0227C48.313 45.3535 50.7135 45.2842 52.3966 43.8494C52.844 43.4681 53.05 43.2602 53.469 42.8512C53.5258 42.7958 53.6323 42.6641 53.6821 42.6294L54.5059 43.4681C55.1734 44.0157 55.5854 44.4108 56.5796 44.7366C56.7998 44.8059 57.027 44.8683 57.2472 44.903C57.4816 44.9446 57.7514 44.9931 58 44.9931V44.1682C57.8793 44.1613 57.7372 44.1266 57.6023 44.1058C57.2046 44.0435 56.8992 43.9672 56.5228 43.8078C55.7132 43.4681 54.9817 42.8374 54.4491 42.172C54.307 41.9917 54.1934 41.8323 54.0656 41.6452C53.9377 41.458 53.8241 41.2501 53.6252 41.1461C53.4974 41.3263 53.3767 41.4927 53.2488 41.6798C53.1849 41.7769 53.1281 41.8462 53.0571 41.9432L52.077 43.0037C51.729 43.3156 51.2674 43.6206 50.8058 43.8078C50.4791 43.9395 50.0885 44.0573 49.7192 44.1058C49.6482 44.1128 49.3286 44.1405 49.2931 44.1336C48.5545 44.092 48.0787 43.9187 47.5105 43.6137C46.914 43.2949 46.1683 42.671 45.7706 42.1581C45.6214 41.964 45.0817 41.1669 44.9964 41.1114C44.8473 41.2085 44.3218 42.0818 44.0093 42.4076C43.4056 43.0384 42.9511 43.378 42.1699 43.7662C40.2382 44.7158 38.3207 43.6276 37.1063 42.1789C37.0281 42.0888 36.9855 42.0195 36.9074 41.9155C36.7512 41.7006 36.4387 41.1877 36.3179 41.1114C36.2256 41.1738 36.0126 41.5204 35.9344 41.6382C35.8066 41.8254 35.693 41.9848 35.5509 42.165C35.274 42.5116 34.9757 42.8097 34.6277 43.0938C33.9956 43.6206 33.2428 43.9603 32.419 44.092C32.277 44.1128 32.1207 44.1474 32 44.1613V45H32.0071ZM38.1005 24.8017C38.0011 25.2106 37.923 25.7929 37.8306 26.2365L37.0849 30.229C37.0778 30.2775 37.0636 30.3607 37.0494 30.4092L37.0352 30.5409C37.0352 30.631 37.1063 30.5894 37.2838 30.5271C37.8733 30.333 39.9186 29.4873 40.5436 29.2239C40.714 29.1477 40.8703 29.0853 41.0407 29.016C41.6373 28.7734 44.7692 27.4218 45.0107 27.3455C45.0817 27.3247 45.0462 27.3178 45.245 27.4079C45.3373 27.4495 45.3942 27.4703 45.4865 27.5119C45.6569 27.5881 45.8132 27.6505 45.9836 27.7198L47.9579 28.5516C49.4351 29.1546 50.962 29.8339 52.4463 30.4092C52.6168 30.4785 52.8014 30.5686 52.979 30.6033C52.9719 30.2498 52.0983 25.8067 51.9776 25.1066C51.9137 24.7393 51.9776 24.7947 51.4876 24.7947C51.1751 24.7947 50.9691 24.767 50.6709 24.767C50.1169 24.767 49.563 24.767 49.009 24.767C48.448 24.767 47.9579 24.7393 47.3756 24.7393H41.9639C41.6728 24.7393 41.4952 24.767 41.204 24.767C40.6856 24.767 40.1743 24.767 39.6558 24.767C39.1019 24.7809 38.6474 24.8017 38.1005 24.8017ZM47.1554 32.3639C47.1554 31.6361 47.965 31.4143 48.4835 31.8371C49.3002 32.5025 48.171 33.7571 47.3685 32.9531C47.2264 32.8214 47.1554 32.6273 47.1554 32.3639ZM49.2434 43.5375C48.8457 43.5375 48.5119 43.4335 48.2136 43.3226C47.6952 43.1285 47.127 42.7057 46.7506 42.3383C46.5376 42.1304 46.3529 41.9363 46.1754 41.7075C45.9907 41.4719 45.8203 41.2431 45.6569 40.9936C45.5078 40.7787 45.3302 40.5916 45.3302 40.4114C45.3302 40.3143 45.3302 40.2103 45.3302 40.1202V28.1288L52.4747 31.1093C53.6465 31.5945 54.8894 32.1421 56.047 32.6134C56.1748 32.662 56.2742 32.7105 56.4092 32.7659C56.5299 32.8144 56.6506 32.856 56.7501 32.9115L56.2245 34.069C56.189 34.1453 56.1748 34.1938 56.1322 34.2701L55.6848 35.2197C55.6209 35.3444 55.5712 35.4692 55.5001 35.6009L53.5258 39.7737C53.263 40.2866 53.0571 40.7441 52.7659 41.257C52.4747 41.7699 52.3256 41.9709 51.9137 42.366C51.6722 42.6017 51.4237 42.8097 51.1396 42.9899C50.5643 43.3642 50.0672 43.5375 49.2434 43.5375ZM33.257 32.8976L34.0382 34.6028C34.0666 34.6721 34.1022 34.7206 34.1306 34.783L36.7157 40.2727C36.7512 40.342 36.7654 40.3975 36.808 40.4737C37.0849 41.0629 37.2057 41.354 37.646 41.8808C37.994 42.2967 38.3491 42.6433 38.8178 42.9413C40.0677 43.7523 41.3816 43.7385 42.6031 42.879C42.9795 42.6156 43.1073 42.4839 43.4127 42.1858L43.6897 41.8739C43.7394 41.8046 43.782 41.763 43.8317 41.6937C44.0874 41.3887 44.3431 40.9797 44.5774 40.647C44.7195 40.446 44.684 40.4529 44.684 40.1341V28.1218L43.9667 28.406C43.8459 28.4615 43.7394 28.51 43.6045 28.5585C43.4624 28.614 43.3772 28.6556 43.2423 28.711L41.8148 29.3071C40.8561 29.723 39.9186 30.0834 38.9598 30.4993C38.0082 30.9152 37.0707 31.2965 36.1049 31.6985L33.257 32.8976Z" fill="url(#paint2_linear_2_2560)"/>
</g>
<defs>
<filter id="filter0_d_2_2560" x="4" y="7" width="81" height="83" filterUnits="userSpaceOnUse" color-interpolation-filters="sRGB">
<feFlood flood-opacity="0" result="BackgroundImageFix"/>
<feColorMatrix in="SourceAlpha" type="matrix" values="0 0 0 0 0 0 0 0 0 0 0 0 0 0 0 0 0 0 127 0" result="hardAlpha"/>
<feOffset dy="4"/>
<feGaussianBlur stdDeviation="1"/>
<feColorMatrix type="matrix" values="0 0 0 0 0 0 0 0 0 0 0 0 0 0 0 0 0 0 0.6 0"/>
<feBlend mode="normal" in2="BackgroundImageFix" result="effect1_dropShadow_2_2560"/>
<feBlend mode="normal" in="SourceGraphic" in2="effect1_dropShadow_2_2560" result="shape"/>
</filter>
<filter id="filter1_d_2_2560" x="5" y="10" width="79" height="79" filterUnits="userSpaceOnUse" color-interpolation-filters="sRGB">
<feFlood flood-opacity="0" result="BackgroundImageFix"/>
<feColorMatrix in="SourceAlpha" type="matrix" values="0 0 0 0 0 0 0 0 0 0 0 0 0 0 0 0 0 0 127 0" result="hardAlpha"/>
<feOffset dy="4"/>
<feGaussianBlur stdDeviation="3"/>
<feColorMatrix type="matrix" values="0 0 0 0 0 0 0 0 0 0 0 0 0 0 0 0 0 0 0.8 0"/>
<feBlend mode="normal" in2="BackgroundImageFix" result="effect1_dropShadow_2_2560"/>
<feBlend mode="normal" in="SourceGraphic" in2="effect1_dropShadow_2_2560" result="shape"/>
</filter>
<filter id="filter2_d_2_2560" x="24.451" y="49.365" width="41.3008" height="20.7341" filterUnits="userSpaceOnUse" color-interpolation-filters="sRGB">
<feFlood flood-opacity="0" result="BackgroundImageFix"/>
<feColorMatrix in="SourceAlpha" type="matrix" values="0 0 0 0 0 0 0 0 0 0 0 0 0 0 0 0 0 0 127 0" result="hardAlpha"/>
<feOffset dy="1"/>
<feGaussianBlur stdDeviation="1"/>
<feColorMatrix type="matrix" values="0 0 0 0 0 0 0 0 0 0 0 0 0 0 0 0 0 0 1 0"/>
<feBlend mode="normal" in2="BackgroundImageFix" result="effect1_dropShadow_2_2560"/>
<feBlend mode="normal" in="SourceGraphic" in2="effect1_dropShadow_2_2560" result="shape"/>
</filter>
<filter id="filter3_d_2_2560" x="27" y="17" width="36" height="36" filterUnits="userSpaceOnUse" color-interpolation-filters="sRGB">
<feFlood flood-opacity="0" result="BackgroundImageFix"/>
<feColorMatrix in="SourceAlpha" type="matrix" values="0 0 0 0 0 0 0 0 0 0 0 0 0 0 0 0 0 0 127 0" result="hardAlpha"/>
<feOffset dy="3"/>
<feGaussianBlur stdDeviation="2.5"/>
<feColorMatrix type="matrix" values="0 0 0 0 0 0 0 0 0 0 0 0 0 0 0 0 0 0 1 0"/>
<feBlend mode="normal" in2="BackgroundImageFix" result="effect1_dropShadow_2_2560"/>
<feBlend mode="normal" in="SourceGraphic" in2="effect1_dropShadow_2_2560" result="shape"/>
</filter>
<linearGradient id="paint0_linear_2_2560" x1="44" y1="4.5" x2="44" y2="87" gradientUnits="userSpaceOnUse">
<stop stop-color="#FDD077"/>
<stop offset="1" stop-color="#F7AC16"/>
</linearGradient>
<linearGradient id="paint1_linear_2_2560" x1="22.0627" y1="57.9445" x2="65.0984" y2="68.2393" gradientUnits="userSpaceOnUse">
<stop stop-color="white"/>
<stop offset="0.395833" stop-color="#FFE8C6"/>
<stop offset="0.6875" stop-color="#FCF2E1"/>
<stop offset="1" stop-color="#F3C57B"/>
</linearGradient>
<linearGradient id="paint2_linear_2_2560" x1="28.9412" y1="30.7765" x2="60.2941" y2="34.1412" gradientUnits="userSpaceOnUse">
<stop stop-color="white"/>
<stop offset="0.395833" stop-color="#FFE8C6"/>
<stop offset="0.6875" stop-color="#FCF2E1"/>
<stop offset="1" stop-color="#F3C57B"/>
</linearGradient>
</defs>
</svg>
