<svg width="90" height="90" viewBox="0 0 90 90" fill="none" xmlns="http://www.w3.org/2000/svg">
<path d="M87 45.5C87 22.0279 67.9721 3 44.5 3C21.0279 3 2 22.0279 2 45.5C2 68.9721 21.0279 88 44.5 88C67.9721 88 87 68.9721 87 45.5Z" fill="url(#paint0_linear_2_2570)"/>
<g filter="url(#filter0_d_2_2570)">
<path d="M44.5 84C65.763 84 83 66.763 83 45.5C83 24.237 65.763 7 44.5 7C23.237 7 6 24.237 6 45.5C6 66.763 23.237 84 44.5 84Z" fill="url(#paint1_linear_2_2570)"/>
</g>
<g filter="url(#filter1_d_2_2570)">
<path d="M44.5 79C63.0015 79 78 64.0015 78 45.5C78 26.9985 63.0015 12 44.5 12C25.9985 12 11 26.9985 11 45.5C11 64.0015 25.9985 79 44.5 79Z" fill="#4F4F4F"/>
</g>
<g filter="url(#filter2_d_2_2570)">
<path fill-rule="evenodd" clip-rule="evenodd" d="M39.2643 34.6151H50.7872L49.7372 38.2243H40.163C40.1719 37.7844 39.8872 36.9315 39.7537 36.4467C39.6113 35.899 39.3711 35.1538 39.2643 34.6151ZM33.0535 30.1619C33.3383 29.3449 35.8119 25.5561 36.9509 25.2957C38.1254 25.0264 39.6647 25.0264 40.9193 24.9276C43.2239 24.7481 51.1253 24.784 53.1096 25.3047C53.7947 25.4843 54.8803 26.858 55.2807 27.4685C55.5832 27.9353 55.859 28.2945 56.1438 28.7703C56.3573 29.1294 56.8022 29.7489 56.8823 30.153H33.0535V30.1619ZM31.3273 29.4527C31.096 29.4257 30.5888 29.1474 30.2685 29.0217C29.3698 28.6715 27.3499 28.1867 26.5135 28.7164C25.8996 29.1025 25.8818 30.2338 26.2199 30.9341C26.7538 32.0294 28.2753 31.8768 29.3164 31.8229C29.1562 32.2 28.8448 32.5412 28.7558 33.017C30.2863 33.2684 32.3773 33.2953 33.6853 33.8161C35.3047 34.4535 33.5162 36.3479 31.621 36.3479C29.6367 36.3479 29.2452 35.8092 28.5868 35.6745C28.7558 37.5779 28.7647 39.4993 28.9338 41.4116C29.0228 42.4261 29.2363 42.9828 29.9037 43.4766C30.7668 44.123 31.4608 43.9883 32.7421 43.9883C34.406 43.9883 35.5183 42.7404 35.2691 40.9896H54.729C54.6222 41.9772 54.7468 42.5069 55.2807 43.1354C55.8057 43.7549 56.4285 43.9883 57.4785 43.9883C58.6619 43.9883 59.2225 44.0961 60.05 43.5125C60.6817 43.0636 60.9932 42.4621 61.0644 41.4565C61.2067 39.5531 61.2423 37.5779 61.4025 35.6745C60.5305 35.8451 60.3792 36.3479 58.3683 36.3479C56.4819 36.3479 54.729 34.4894 56.2506 33.834C57.4429 33.3223 59.7564 33.2504 61.2334 33.017C61.1978 32.613 60.8152 32.1641 60.6728 31.8229C62.0876 31.8857 63.4846 31.9935 63.8939 30.6108C64.2053 29.5514 63.8405 28.483 62.6749 28.483C60.3169 28.483 59.1869 29.3898 58.6619 29.4527C58.3149 28.9229 58.0568 28.4291 57.7276 27.9174C56.7666 26.436 55.7968 24.8199 54.2663 23.8413C52.5935 22.7729 43.0282 22.9524 40.0207 23.15C35.3759 23.4462 35.1535 23.536 32.2972 27.8725C31.9324 28.4202 31.6922 28.905 31.3273 29.4527Z" fill="url(#paint2_linear_2_2570)"/>
</g>
<g filter="url(#filter3_d_2_2570)">
<path fill-rule="evenodd" clip-rule="evenodd" d="M33.3553 51.6019C33.5769 51.7574 33.7026 51.9747 33.7325 52.2539H34.8734C34.8671 51.8853 34.7637 51.5593 34.5634 51.2759C34.3631 50.9904 34.0872 50.7677 33.7357 50.6079C33.3862 50.446 32.9793 50.365 32.5148 50.365C32.0567 50.365 31.6465 50.446 31.2843 50.6079C30.9221 50.7677 30.6355 50.9925 30.4246 51.2823C30.2158 51.572 30.1114 51.9098 30.1114 52.2954C30.1114 52.7642 30.2669 53.1402 30.578 53.4236C30.8912 53.7049 31.3173 53.9147 31.8564 54.0532L32.6011 54.245C32.8354 54.3046 33.04 54.3728 33.2147 54.4495C33.3916 54.5241 33.529 54.6179 33.627 54.7308C33.725 54.8416 33.7751 54.9822 33.7772 55.1527C33.7751 55.3402 33.7186 55.5042 33.6078 55.6448C33.497 55.7833 33.3436 55.892 33.1476 55.9708C32.9537 56.0475 32.7278 56.0859 32.47 56.0859C32.2229 56.0859 31.9992 56.0486 31.7989 55.974C31.6007 55.8995 31.4399 55.7865 31.3163 55.6353C31.1927 55.484 31.1224 55.2943 31.1053 55.0664H29.9388C29.9558 55.501 30.0688 55.8696 30.2776 56.1722C30.4885 56.4747 30.7804 56.7049 31.1533 56.8625C31.5283 57.0202 31.9704 57.099 32.4796 57.099C33.0038 57.099 33.4502 57.0181 33.8188 56.8561C34.1895 56.6921 34.4729 56.4652 34.6689 56.1754C34.8649 55.8835 34.9629 55.5458 34.9629 55.1622C34.9629 54.8789 34.9097 54.6317 34.8031 54.4208C34.6966 54.2098 34.5517 54.0298 34.3685 53.8806C34.1874 53.7315 33.9818 53.6079 33.7516 53.5099C33.5237 53.4119 33.2861 53.3341 33.0389 53.2766L32.4253 53.1232C32.2911 53.0912 32.1579 53.0518 32.0258 53.0049C31.8937 52.9581 31.7733 52.9005 31.6646 52.8323C31.556 52.762 31.4697 52.6768 31.4058 52.5767C31.344 52.4765 31.3131 52.3583 31.3131 52.2219C31.3152 52.0578 31.3631 51.9119 31.4569 51.784C31.5506 51.6562 31.6859 51.555 31.8628 51.4804C32.0396 51.4059 32.2516 51.3686 32.4988 51.3686C32.8504 51.3686 33.1359 51.4463 33.3553 51.6019ZM37.2057 57.0001V50.4546H36.02V57.0001H37.2057ZM38.4897 57.0001V50.4546H39.6755V56.0061H42.5583V57.0001H38.4897ZM45.4898 55.6066L43.7864 50.4546H42.4856L44.7899 57.0001H46.2537L48.5612 50.4546H47.2572L45.557 55.6066H45.4898ZM49.4233 57.0001V50.4546H53.6804V51.4486H50.6091V53.2256H53.4599V54.2195H50.6091V56.0061H53.706V57.0001H49.4233ZM54.8901 50.4546V57.0001H56.0759V54.603H57.2824L58.5688 57.0001H59.8919L58.4761 54.4087C58.5187 54.3915 58.5602 54.3732 58.6007 54.3537C58.9459 54.1854 59.2069 53.9479 59.3837 53.641C59.5627 53.3321 59.6522 52.9677 59.6522 52.548C59.6522 52.1304 59.5638 51.765 59.3869 51.4518C59.2122 51.1364 58.9533 50.8914 58.6103 50.7167C58.2694 50.542 57.8475 50.4546 57.3447 50.4546H54.8901ZM56.0759 53.6187H57.1689C57.4629 53.6187 57.7037 53.5782 57.8912 53.4972C58.0787 53.4141 58.2172 53.2937 58.3067 53.1361C58.3983 52.9763 58.4441 52.7802 58.4441 52.548C58.4441 52.3158 58.3983 52.1176 58.3067 51.9535C58.2151 51.7873 58.0755 51.6616 57.888 51.5764C57.7005 51.489 57.4587 51.4454 57.1625 51.4454H56.0759V53.6187ZM30.218 67.0001H28V60.4546H30.2628C30.9126 60.4546 31.4709 60.5856 31.9375 60.8477C32.4063 61.1077 32.7663 61.4816 33.0178 61.9695C33.2692 62.4574 33.3949 63.0412 33.3949 63.7209C33.3949 64.4028 33.2681 64.9887 33.0146 65.4787C32.7631 65.9688 32.3999 66.3449 31.9247 66.6069C31.4517 66.869 30.8828 67.0001 30.218 67.0001ZM29.1857 65.9741H30.1605C30.6165 65.9741 30.9968 65.891 31.3015 65.7248C31.6062 65.5565 31.8352 65.3062 31.9886 64.9738C32.142 64.6393 32.2188 64.2216 32.2188 63.7209C32.2188 63.2202 32.142 62.8047 31.9886 62.4745C31.8352 62.1421 31.6083 61.8939 31.3079 61.7298C31.0096 61.5636 30.6388 61.4805 30.1957 61.4805H29.1857V65.9741ZM34.5215 60.4546V67.0001H38.8042V66.0061H35.7072V64.2195H38.5581V63.2256H35.7072V61.4486H38.7786V60.4546H34.5215ZM40.8288 67.0001H39.5632L41.8675 60.4546H43.3313L45.6388 67.0001H44.3732L43.8309 65.3861H41.3701L40.8288 67.0001ZM42.625 61.7969L43.5109 64.4336H41.6896L42.5739 61.7969H42.625ZM46.501 60.4546V67.0001H50.5695V66.0061H47.6867V60.4546H46.501ZM51.5986 67.0001V60.4546H55.8557V61.4486H52.7844V63.2256H55.6352V64.2195H52.7844V66.0061H55.8813V67.0001H51.5986ZM57.0654 60.4546V67.0001H58.2512V64.603H59.4577L60.7441 67.0001H62.0672L60.6515 64.4087C60.6941 64.3915 60.7356 64.3732 60.776 64.3537C61.1212 64.1854 61.3822 63.9479 61.559 63.641C61.738 63.3321 61.8275 62.9677 61.8275 62.548C61.8275 62.1304 61.7391 61.765 61.5622 61.4518C61.3875 61.1364 61.1286 60.8914 60.7856 60.7167C60.4447 60.542 60.0228 60.4546 59.52 60.4546H57.0654ZM58.2512 63.6187H59.3442C59.6382 63.6187 59.879 63.5782 60.0665 63.4972C60.254 63.4141 60.3925 63.2937 60.482 63.1361C60.5736 62.9763 60.6194 62.7802 60.6194 62.548C60.6194 62.3158 60.5736 62.1176 60.482 61.9535C60.3904 61.7873 60.2508 61.6616 60.0633 61.5764C59.8758 61.489 59.634 61.4454 59.3378 61.4454H58.2512V63.6187Z" fill="url(#paint3_linear_2_2570)"/>
</g>
<defs>
<filter id="filter0_d_2_2570" x="4" y="7" width="81" height="83" filterUnits="userSpaceOnUse" color-interpolation-filters="sRGB">
<feFlood flood-opacity="0" result="BackgroundImageFix"/>
<feColorMatrix in="SourceAlpha" type="matrix" values="0 0 0 0 0 0 0 0 0 0 0 0 0 0 0 0 0 0 127 0" result="hardAlpha"/>
<feOffset dy="4"/>
<feGaussianBlur stdDeviation="1"/>
<feColorMatrix type="matrix" values="0 0 0 0 0 0 0 0 0 0 0 0 0 0 0 0 0 0 0.6 0"/>
<feBlend mode="normal" in2="BackgroundImageFix" result="effect1_dropShadow_2_2570"/>
<feBlend mode="normal" in="SourceGraphic" in2="effect1_dropShadow_2_2570" result="shape"/>
</filter>
<filter id="filter1_d_2_2570" x="5" y="10" width="79" height="79" filterUnits="userSpaceOnUse" color-interpolation-filters="sRGB">
<feFlood flood-opacity="0" result="BackgroundImageFix"/>
<feColorMatrix in="SourceAlpha" type="matrix" values="0 0 0 0 0 0 0 0 0 0 0 0 0 0 0 0 0 0 127 0" result="hardAlpha"/>
<feOffset dy="4"/>
<feGaussianBlur stdDeviation="3"/>
<feColorMatrix type="matrix" values="0 0 0 0 0 0 0 0 0 0 0 0 0 0 0 0 0 0 0.8 0"/>
<feBlend mode="normal" in2="BackgroundImageFix" result="effect1_dropShadow_2_2570"/>
<feBlend mode="normal" in="SourceGraphic" in2="effect1_dropShadow_2_2570" result="shape"/>
</filter>
<filter id="filter2_d_2_2570" x="21" y="21" width="47.9999" height="31" filterUnits="userSpaceOnUse" color-interpolation-filters="sRGB">
<feFlood flood-opacity="0" result="BackgroundImageFix"/>
<feColorMatrix in="SourceAlpha" type="matrix" values="0 0 0 0 0 0 0 0 0 0 0 0 0 0 0 0 0 0 127 0" result="hardAlpha"/>
<feOffset dy="3"/>
<feGaussianBlur stdDeviation="2.5"/>
<feColorMatrix type="matrix" values="0 0 0 0 0 0 0 0 0 0 0 0 0 0 0 0 0 0 1 0"/>
<feBlend mode="normal" in2="BackgroundImageFix" result="effect1_dropShadow_2_2570"/>
<feBlend mode="normal" in="SourceGraphic" in2="effect1_dropShadow_2_2570" result="shape"/>
</filter>
<filter id="filter3_d_2_2570" x="26" y="49.365" width="38.0673" height="20.635" filterUnits="userSpaceOnUse" color-interpolation-filters="sRGB">
<feFlood flood-opacity="0" result="BackgroundImageFix"/>
<feColorMatrix in="SourceAlpha" type="matrix" values="0 0 0 0 0 0 0 0 0 0 0 0 0 0 0 0 0 0 127 0" result="hardAlpha"/>
<feOffset dy="1"/>
<feGaussianBlur stdDeviation="1"/>
<feColorMatrix type="matrix" values="0 0 0 0 0 0 0 0 0 0 0 0 0 0 0 0 0 0 1 0"/>
<feBlend mode="normal" in2="BackgroundImageFix" result="effect1_dropShadow_2_2570"/>
<feBlend mode="normal" in="SourceGraphic" in2="effect1_dropShadow_2_2570" result="shape"/>
</filter>
<linearGradient id="paint0_linear_2_2570" x1="-8" y1="41.5" x2="94.5" y2="52.5" gradientUnits="userSpaceOnUse">
<stop stop-color="#919191"/>
<stop offset="0.395833" stop-color="#B3ADAD"/>
<stop offset="0.6875" stop-color="#ADADAD"/>
<stop offset="1" stop-color="#B6B6B6"/>
</linearGradient>
<linearGradient id="paint1_linear_2_2570" x1="44" y1="4.5" x2="44" y2="87" gradientUnits="userSpaceOnUse">
<stop stop-color="#DBD9D9"/>
<stop offset="1" stop-color="#C8C1C1"/>
</linearGradient>
<linearGradient id="paint2_linear_2_2570" x1="21.5294" y1="32.5118" x2="66.1963" y2="41.1857" gradientUnits="userSpaceOnUse">
<stop stop-color="#919191"/>
<stop offset="0.395833" stop-color="#D1D1D1"/>
<stop offset="0.6875" stop-color="#ECE6E6"/>
<stop offset="1" stop-color="#B6B6B6"/>
</linearGradient>
<linearGradient id="paint3_linear_2_2570" x1="23.9921" y1="57.8997" x2="63.6316" y2="66.6115" gradientUnits="userSpaceOnUse">
<stop stop-color="#919191"/>
<stop offset="0.395833" stop-color="#D1D1D1"/>
<stop offset="0.6875" stop-color="#ECE6E6"/>
<stop offset="1" stop-color="#B6B6B6"/>
</linearGradient>
</defs>
</svg>
