<svg width="90" height="90" viewBox="0 0 90 90" fill="none" xmlns="http://www.w3.org/2000/svg">
<path d="M87 45.5C87 22.0279 67.9721 3 44.5 3C21.0279 3 2 22.0279 2 45.5C2 68.9721 21.0279 88 44.5 88C67.9721 88 87 68.9721 87 45.5Z" fill="url(#paint0_linear_2_2591)"/>
<g filter="url(#filter0_d_2_2591)">
<path d="M44.5 84C65.763 84 83 66.763 83 45.5C83 24.237 65.763 7 44.5 7C23.237 7 6 24.237 6 45.5C6 66.763 23.237 84 44.5 84Z" fill="url(#paint1_linear_2_2591)"/>
</g>
<g filter="url(#filter1_d_2_2591)">
<path d="M44.5 79C63.0015 79 78 64.0015 78 45.5C78 26.9985 63.0015 12 44.5 12C25.9985 12 11 26.9985 11 45.5C11 64.0015 25.9985 79 44.5 79Z" fill="#4F4F4F"/>
</g>
<g filter="url(#filter2_d_2_2591)">
<path fill-rule="evenodd" clip-rule="evenodd" d="M41.2538 32.4194C41.2538 31.851 41.9995 31.2479 42.6102 31.844C43.1216 32.35 42.8162 33.2165 41.9924 33.2165C41.6657 33.2165 41.2538 32.8352 41.2538 32.4194ZM48.6752 21.329H49.5488V19.8664H48.6752V21.329ZM40.5152 21.3013H41.3603L41.4171 19.8664H40.4654C40.4654 20.1437 40.4939 20.317 40.4939 20.5804C40.4939 20.8576 40.5152 21.0517 40.5152 21.3013ZM43.4269 21.329C44.5206 21.329 45.522 21.3013 46.6086 21.3013L46.637 20.7467C46.637 20.5527 46.637 20.3586 46.637 20.1645C46.637 19.9565 46.6654 19.8318 46.6654 19.61C46.6654 19.409 46.6654 19.201 46.6654 19H43.4269V21.329ZM39.322 21.939C39.322 22.133 39.5422 23.5678 39.599 23.8728C39.6132 23.956 39.6416 24.0531 39.6487 24.1432C39.8192 24.1432 47.4963 24.1709 47.7733 24.1362L50.4436 24.0877L50.6922 22.4727C50.7135 22.334 50.7703 22.0568 50.7703 21.9112C50.2874 21.9112 49.8825 21.8835 49.3854 21.8835C48.9167 21.8835 48.4409 21.8835 47.9721 21.8835C47.4892 21.8835 47.0844 21.8558 46.5873 21.8558C45.6143 21.8558 44.6485 21.8558 43.6755 21.8558C43.1642 21.8558 42.7452 21.8835 42.2338 21.8835C41.7438 21.8835 41.2538 21.8835 40.7637 21.8835L39.6771 21.9112C39.5209 21.9112 39.4854 21.939 39.322 21.939ZM32.0071 45C32.2557 45 32.5326 44.9515 32.7599 44.9099C33.257 44.8267 33.8891 44.6049 34.3152 44.3554C34.4146 44.2999 34.4857 44.2514 34.5851 44.1959C34.6774 44.1405 34.7413 44.092 34.8265 44.0365C35.1248 43.8286 35.7356 43.3087 35.9415 43.0523C36.0197 42.9552 36.2824 42.6641 36.389 42.6364C36.4387 42.8166 37.4116 43.7315 37.5963 43.8702C38.4698 44.5425 39.4996 44.9723 40.6572 44.9723C42.0137 44.9653 43.2991 44.3692 44.1726 43.5167C44.3289 43.3642 44.8615 42.8374 44.9822 42.6641L46.4949 44.0227C48.313 45.3535 50.7135 45.2842 52.3966 43.8494C52.844 43.4681 53.05 43.2602 53.469 42.8512C53.5258 42.7958 53.6323 42.6641 53.6821 42.6294L54.5059 43.4681C55.1734 44.0157 55.5854 44.4108 56.5796 44.7366C56.7998 44.8059 57.027 44.8683 57.2472 44.903C57.4816 44.9446 57.7514 44.9931 58 44.9931V44.1682C57.8793 44.1613 57.7372 44.1266 57.6023 44.1058C57.2046 44.0435 56.8992 43.9672 56.5228 43.8078C55.7132 43.4681 54.9817 42.8374 54.4491 42.172C54.307 41.9917 54.1934 41.8323 54.0656 41.6452C53.9377 41.458 53.8241 41.2501 53.6252 41.1461C53.4974 41.3263 53.3767 41.4927 53.2488 41.6798C53.1849 41.7769 53.1281 41.8462 53.0571 41.9432L52.077 43.0037C51.729 43.3156 51.2674 43.6206 50.8058 43.8078C50.4791 43.9395 50.0885 44.0573 49.7192 44.1058C49.6482 44.1128 49.3286 44.1405 49.2931 44.1336C48.5545 44.092 48.0787 43.9187 47.5105 43.6137C46.914 43.2949 46.1683 42.671 45.7706 42.1581C45.6214 41.964 45.0817 41.1669 44.9964 41.1114C44.8473 41.2085 44.3218 42.0818 44.0093 42.4076C43.4056 43.0384 42.9511 43.378 42.1699 43.7662C40.2382 44.7158 38.3207 43.6276 37.1063 42.1789C37.0281 42.0888 36.9855 42.0195 36.9074 41.9155C36.7512 41.7006 36.4387 41.1877 36.3179 41.1114C36.2256 41.1738 36.0126 41.5204 35.9344 41.6382C35.8066 41.8254 35.693 41.9848 35.5509 42.165C35.274 42.5116 34.9757 42.8097 34.6277 43.0938C33.9956 43.6206 33.2428 43.9603 32.419 44.092C32.277 44.1128 32.1207 44.1474 32 44.1613V45H32.0071ZM38.1005 24.8017C38.0011 25.2106 37.923 25.7929 37.8306 26.2365L37.0849 30.229C37.0778 30.2775 37.0636 30.3607 37.0494 30.4092L37.0352 30.5409C37.0352 30.631 37.1063 30.5894 37.2838 30.5271C37.8733 30.333 39.9186 29.4873 40.5436 29.2239C40.714 29.1477 40.8703 29.0853 41.0407 29.016C41.6373 28.7734 44.7692 27.4218 45.0107 27.3455C45.0817 27.3247 45.0462 27.3178 45.245 27.4079C45.3373 27.4495 45.3942 27.4703 45.4865 27.5119C45.6569 27.5881 45.8132 27.6505 45.9836 27.7198L47.9579 28.5516C49.4351 29.1546 50.962 29.8339 52.4463 30.4092C52.6168 30.4785 52.8014 30.5686 52.979 30.6033C52.9719 30.2498 52.0983 25.8067 51.9776 25.1066C51.9137 24.7393 51.9776 24.7947 51.4876 24.7947C51.1751 24.7947 50.9691 24.767 50.6709 24.767C50.1169 24.767 49.563 24.767 49.009 24.767C48.448 24.767 47.9579 24.7393 47.3756 24.7393H41.9639C41.6728 24.7393 41.4952 24.767 41.204 24.767C40.6856 24.767 40.1743 24.767 39.6558 24.767C39.1019 24.7809 38.6474 24.8017 38.1005 24.8017ZM47.1554 32.3639C47.1554 31.6361 47.965 31.4143 48.4835 31.8371C49.3002 32.5025 48.171 33.7571 47.3685 32.9531C47.2264 32.8214 47.1554 32.6273 47.1554 32.3639ZM49.2434 43.5375C48.8457 43.5375 48.5119 43.4335 48.2136 43.3226C47.6952 43.1285 47.127 42.7057 46.7506 42.3383C46.5376 42.1304 46.3529 41.9363 46.1754 41.7075C45.9907 41.4719 45.8203 41.2431 45.6569 40.9936C45.5078 40.7787 45.3302 40.5916 45.3302 40.4114C45.3302 40.3143 45.3302 40.2103 45.3302 40.1202V28.1288L52.4747 31.1093C53.6465 31.5945 54.8894 32.1421 56.047 32.6134C56.1748 32.662 56.2742 32.7105 56.4092 32.7659C56.5299 32.8144 56.6506 32.856 56.7501 32.9115L56.2245 34.069C56.189 34.1453 56.1748 34.1938 56.1322 34.2701L55.6848 35.2197C55.6209 35.3444 55.5712 35.4692 55.5001 35.6009L53.5258 39.7737C53.263 40.2866 53.0571 40.7441 52.7659 41.257C52.4747 41.7699 52.3256 41.9709 51.9137 42.366C51.6722 42.6017 51.4237 42.8097 51.1396 42.9899C50.5643 43.3642 50.0672 43.5375 49.2434 43.5375ZM33.257 32.8976L34.0382 34.6028C34.0666 34.6721 34.1022 34.7206 34.1306 34.783L36.7157 40.2727C36.7512 40.342 36.7654 40.3975 36.808 40.4737C37.0849 41.0629 37.2057 41.354 37.646 41.8808C37.994 42.2967 38.3491 42.6433 38.8178 42.9413C40.0677 43.7523 41.3816 43.7385 42.6031 42.879C42.9795 42.6156 43.1073 42.4839 43.4127 42.1858L43.6897 41.8739C43.7394 41.8046 43.782 41.763 43.8317 41.6937C44.0874 41.3887 44.3431 40.9797 44.5774 40.647C44.7195 40.446 44.684 40.4529 44.684 40.1341V28.1218L43.9667 28.406C43.8459 28.4615 43.7394 28.51 43.6045 28.5585C43.4624 28.614 43.3772 28.6556 43.2423 28.711L41.8148 29.3071C40.8561 29.723 39.9186 30.0834 38.9598 30.4993C38.0082 30.9152 37.0707 31.2965 36.1049 31.6985L33.257 32.8976Z" fill="url(#paint2_linear_2_2591)"/>
</g>
<g filter="url(#filter3_d_2_2591)">
<g filter="url(#filter4_i_2_2591)">
<path fill-rule="evenodd" clip-rule="evenodd" d="M33.4675 51.8889C33.4377 51.6097 33.312 51.3924 33.0904 51.2369C32.8709 51.0813 32.5854 51.0036 32.2339 51.0036C31.9867 51.0036 31.7747 51.0409 31.5978 51.1154C31.421 51.19 31.2857 51.2912 31.1919 51.419C31.0982 51.5469 31.0503 51.6928 31.0481 51.8569C31.0481 51.9933 31.079 52.1115 31.1408 52.2117C31.2047 52.3118 31.291 52.397 31.3997 52.4673C31.5084 52.5355 31.6287 52.5931 31.7608 52.6399C31.8929 52.6868 32.0261 52.7262 32.1603 52.7582L32.774 52.9116C33.0211 52.9691 33.2587 53.0469 33.4867 53.1449C33.7168 53.2429 33.9224 53.3665 34.1035 53.5156C34.2868 53.6648 34.4317 53.8448 34.5382 54.0558C34.6447 54.2667 34.698 54.5139 34.698 54.7972C34.698 55.1808 34.6 55.5185 34.404 55.8104C34.2079 56.1002 33.9245 56.3271 33.5538 56.4911C33.1852 56.6531 32.7388 56.734 32.2147 56.734C31.7054 56.734 31.2633 56.6552 30.8883 56.4975C30.5155 56.3399 30.2236 56.1097 30.0126 55.8072C29.8038 55.5046 29.6909 55.136 29.6738 54.7014H30.8404C30.8574 54.9293 30.9277 55.119 31.0513 55.2703C31.1749 55.4215 31.3358 55.5345 31.5339 55.609C31.7342 55.6836 31.9579 55.7209 32.2051 55.7209C32.4629 55.7209 32.6888 55.6825 32.8826 55.6058C33.0787 55.527 33.2321 55.4183 33.3429 55.2798C33.4537 55.1392 33.5101 54.9752 33.5123 54.7877C33.5101 54.6172 33.4601 54.4766 33.362 54.3658C33.264 54.2529 33.1266 54.1591 32.9498 54.0845C32.775 54.0078 32.5705 53.9396 32.3361 53.88L31.5915 53.6882C31.0524 53.5497 30.6263 53.3399 30.313 53.0586C30.002 52.7752 29.8464 52.3992 29.8464 51.9304C29.8464 51.5448 29.9508 51.207 30.1596 50.9173C30.3706 50.6275 30.6571 50.4027 31.0194 50.2429C31.3816 50.081 31.7917 50 32.2498 50C32.7143 50 33.1213 50.081 33.4707 50.2429C33.8223 50.4027 34.0982 50.6254 34.2985 50.9109C34.4988 51.1943 34.6021 51.5203 34.6085 51.8889H33.4675ZM36.9408 50.0895V56.635H35.7551V50.0895H36.9408ZM38.2248 50.0895V56.635H42.2933V55.641H39.4105V50.0895H38.2248ZM43.5214 50.0895L45.2249 55.2415H45.292L46.9923 50.0895H48.2963L45.9887 56.635H44.525L42.2206 50.0895H43.5214ZM49.1584 50.0895V56.635H53.4411V55.641H50.3441V53.8544H53.195V52.8605H50.3441V51.0835H53.4155V50.0895H49.1584ZM54.6252 56.635V50.0895H57.0797C57.5826 50.0895 58.0045 50.1769 58.3454 50.3516C58.6884 50.5263 58.9473 50.7713 59.122 51.0867C59.2988 51.3999 59.3873 51.7653 59.3873 52.1829C59.3873 52.6026 59.2978 52.967 59.1188 53.2759C58.942 53.5828 58.6809 53.8203 58.3358 53.9886C58.2954 54.008 58.2538 54.0264 58.2112 54.0436L59.627 56.635H58.3038L57.0175 54.2379H55.8109V56.635H54.6252ZM56.904 53.2536H55.8109V51.0803H56.8976C57.1937 51.0803 57.4356 51.1239 57.6231 51.2113C57.8106 51.2965 57.9501 51.4222 58.0417 51.5884C58.1334 51.7525 58.1792 51.9507 58.1792 52.1829C58.1792 52.4151 58.1334 52.6112 58.0417 52.771C57.9522 52.9286 57.8138 53.049 57.6263 53.1321C57.4388 53.2131 57.198 53.2536 56.904 53.2536ZM29.4166 61.2369C29.6381 61.3924 29.7639 61.6097 29.7937 61.8889H30.9347C30.9283 61.5203 30.8249 61.1943 30.6247 60.9109C30.4244 60.6254 30.1484 60.4027 29.7969 60.2429C29.4475 60.081 29.0405 60 28.576 60C28.1179 60 27.7078 60.081 27.3455 60.2429C26.9833 60.4027 26.6967 60.6275 26.4858 60.9173C26.277 61.207 26.1726 61.5448 26.1726 61.9304C26.1726 62.3992 26.3281 62.7752 26.6392 63.0586C26.9524 63.3399 27.3786 63.5497 27.9176 63.6882L28.6623 63.88C28.8967 63.9396 29.1012 64.0078 29.2759 64.0845C29.4528 64.1591 29.5902 64.2529 29.6882 64.3658C29.7862 64.4766 29.8363 64.6172 29.8384 64.7877C29.8363 64.9752 29.7798 65.1392 29.669 65.2798C29.5582 65.4183 29.4048 65.527 29.2088 65.6058C29.0149 65.6825 28.7891 65.7209 28.5313 65.7209C28.2841 65.7209 28.0604 65.6836 27.8601 65.609C27.6619 65.5345 27.5011 65.4215 27.3775 65.2703C27.2539 65.119 27.1836 64.9293 27.1666 64.7014H26C26.0171 65.136 26.13 65.5046 26.3388 65.8072C26.5497 66.1097 26.8416 66.3399 27.2145 66.4975C27.5895 66.6552 28.0316 66.734 28.5408 66.734C29.065 66.734 29.5114 66.6531 29.88 66.4911C30.2507 66.3271 30.5341 66.1002 30.7301 65.8104C30.9261 65.5185 31.0242 65.1808 31.0242 64.7972C31.0242 64.5139 30.9709 64.2667 30.8644 64.0558C30.7578 63.8448 30.6129 63.6648 30.4297 63.5156C30.2486 63.3665 30.043 63.2429 29.8129 63.1449C29.5849 63.0469 29.3473 62.9691 29.1002 62.9116L28.4865 62.7582C28.3523 62.7262 28.2191 62.6868 28.087 62.6399C27.9549 62.5931 27.8345 62.5355 27.7259 62.4673C27.6172 62.397 27.5309 62.3118 27.467 62.2117C27.4052 62.1115 27.3743 61.9933 27.3743 61.8569C27.3764 61.6928 27.4244 61.5469 27.5181 61.419C27.6119 61.2912 27.7472 61.19 27.924 61.1154C28.1009 61.0409 28.3129 61.0036 28.56 61.0036C28.9116 61.0036 29.1971 61.0813 29.4166 61.2369ZM32.0812 66.6351V60.0896H33.267V62.8606H36.3V60.0896H37.4889V66.6351H36.3V63.8545H33.267V66.6351H32.0812ZM39.9642 66.6351V60.0896H38.7785V66.6351H39.9642ZM41.2482 66.6351V60.0896H43.7028C44.2056 60.0896 44.6275 60.1834 44.9684 60.3709C45.3114 60.5584 45.5703 60.8162 45.745 61.1443C45.9219 61.4703 46.0103 61.841 46.0103 62.2565C46.0103 62.6762 45.9219 63.0491 45.745 63.3751C45.5682 63.7011 45.3072 63.9579 44.962 64.1454C44.6168 64.3307 44.1918 64.4234 43.6868 64.4234H42.434V66.6351H41.2482ZM43.527 63.4486H42.434V61.0804H43.5206C43.8168 61.0804 44.0586 61.1304 44.2461 61.2306C44.4357 61.3286 44.5753 61.466 44.6648 61.6429C44.7564 61.8197 44.8022 62.0243 44.8022 62.2565C44.8022 62.4887 44.7564 62.6944 44.6648 62.8733C44.5753 63.0523 44.4368 63.1929 44.2493 63.2952C44.0618 63.3975 43.821 63.4486 43.527 63.4486ZM47.0402 60.0896V66.6351H48.226V64.4234H49.4788C49.9838 64.4234 50.4088 64.3307 50.754 64.1454C51.0992 63.9579 51.3602 63.7011 51.537 63.3751C51.7139 63.0491 51.8023 62.6762 51.8023 62.2565C51.8023 61.841 51.7139 61.4703 51.537 61.1443C51.3623 60.8162 51.1034 60.5584 50.7604 60.3709C50.4195 60.1834 49.9976 60.0896 49.4948 60.0896H47.0402ZM48.226 63.4486H49.319C49.613 63.4486 49.8538 63.3975 50.0413 63.2952C50.2288 63.1929 50.3673 63.0523 50.4568 62.8733C50.5484 62.6944 50.5942 62.4887 50.5942 62.2565C50.5942 62.0243 50.5484 61.8197 50.4568 61.6429C50.3673 61.466 50.2277 61.3286 50.0381 61.2306C49.8506 61.1304 49.6088 61.0804 49.3126 61.0804H48.226V63.4486ZM52.8322 66.6351V60.0896H57.0893V61.0836H54.0179V62.8606H56.8688V63.8545H54.0179V65.6411H57.1149V66.6351H52.8322ZM58.299 60.0896V66.6351H59.4847V64.238H60.6913L61.9776 66.6351H63.3008L61.885 64.0437C61.9276 64.0265 61.9692 64.0082 62.0096 63.9887C62.3548 63.8204 62.6158 63.5829 62.7926 63.276C62.9716 62.9671 63.0611 62.6027 63.0611 62.183C63.0611 61.7654 62.9727 61.4 62.7958 61.0868C62.6211 60.7714 62.3622 60.5264 62.0192 60.3517C61.6783 60.177 61.2564 60.0896 60.7536 60.0896H58.299ZM59.4847 63.2537H60.5778C60.8718 63.2537 61.1126 63.2132 61.3001 63.1322C61.4876 63.0491 61.6261 62.9287 61.7156 62.7711C61.8072 62.6113 61.853 62.4152 61.853 62.183C61.853 61.9508 61.8072 61.7526 61.7156 61.5885C61.6239 61.4223 61.4844 61.2966 61.2969 61.2114C61.1094 61.124 60.8676 61.0804 60.5714 61.0804H59.4847V63.2537Z" fill="url(#paint3_linear_2_2591)"/>
</g>
</g>
<defs>
<filter id="filter0_d_2_2591" x="4" y="7" width="81" height="83" filterUnits="userSpaceOnUse" color-interpolation-filters="sRGB">
<feFlood flood-opacity="0" result="BackgroundImageFix"/>
<feColorMatrix in="SourceAlpha" type="matrix" values="0 0 0 0 0 0 0 0 0 0 0 0 0 0 0 0 0 0 127 0" result="hardAlpha"/>
<feOffset dy="4"/>
<feGaussianBlur stdDeviation="1"/>
<feColorMatrix type="matrix" values="0 0 0 0 0 0 0 0 0 0 0 0 0 0 0 0 0 0 0.6 0"/>
<feBlend mode="normal" in2="BackgroundImageFix" result="effect1_dropShadow_2_2591"/>
<feBlend mode="normal" in="SourceGraphic" in2="effect1_dropShadow_2_2591" result="shape"/>
</filter>
<filter id="filter1_d_2_2591" x="5" y="10" width="79" height="79" filterUnits="userSpaceOnUse" color-interpolation-filters="sRGB">
<feFlood flood-opacity="0" result="BackgroundImageFix"/>
<feColorMatrix in="SourceAlpha" type="matrix" values="0 0 0 0 0 0 0 0 0 0 0 0 0 0 0 0 0 0 127 0" result="hardAlpha"/>
<feOffset dy="4"/>
<feGaussianBlur stdDeviation="3"/>
<feColorMatrix type="matrix" values="0 0 0 0 0 0 0 0 0 0 0 0 0 0 0 0 0 0 0.8 0"/>
<feBlend mode="normal" in2="BackgroundImageFix" result="effect1_dropShadow_2_2591"/>
<feBlend mode="normal" in="SourceGraphic" in2="effect1_dropShadow_2_2591" result="shape"/>
</filter>
<filter id="filter2_d_2_2591" x="27" y="17" width="36" height="36" filterUnits="userSpaceOnUse" color-interpolation-filters="sRGB">
<feFlood flood-opacity="0" result="BackgroundImageFix"/>
<feColorMatrix in="SourceAlpha" type="matrix" values="0 0 0 0 0 0 0 0 0 0 0 0 0 0 0 0 0 0 127 0" result="hardAlpha"/>
<feOffset dy="3"/>
<feGaussianBlur stdDeviation="2.5"/>
<feColorMatrix type="matrix" values="0 0 0 0 0 0 0 0 0 0 0 0 0 0 0 0 0 0 1 0"/>
<feBlend mode="normal" in2="BackgroundImageFix" result="effect1_dropShadow_2_2591"/>
<feBlend mode="normal" in="SourceGraphic" in2="effect1_dropShadow_2_2591" result="shape"/>
</filter>
<filter id="filter3_d_2_2591" x="24" y="49" width="41.3008" height="20.7339" filterUnits="userSpaceOnUse" color-interpolation-filters="sRGB">
<feFlood flood-opacity="0" result="BackgroundImageFix"/>
<feColorMatrix in="SourceAlpha" type="matrix" values="0 0 0 0 0 0 0 0 0 0 0 0 0 0 0 0 0 0 127 0" result="hardAlpha"/>
<feOffset dy="1"/>
<feGaussianBlur stdDeviation="1"/>
<feColorMatrix type="matrix" values="0 0 0 0 0 0 0 0 0 0 0 0 0 0 0 0 0 0 1 0"/>
<feBlend mode="normal" in2="BackgroundImageFix" result="effect1_dropShadow_2_2591"/>
<feBlend mode="normal" in="SourceGraphic" in2="effect1_dropShadow_2_2591" result="shape"/>
</filter>
<filter id="filter4_i_2_2591" x="26" y="50" width="37.3008" height="20.7339" filterUnits="userSpaceOnUse" color-interpolation-filters="sRGB">
<feFlood flood-opacity="0" result="BackgroundImageFix"/>
<feBlend mode="normal" in="SourceGraphic" in2="BackgroundImageFix" result="shape"/>
<feColorMatrix in="SourceAlpha" type="matrix" values="0 0 0 0 0 0 0 0 0 0 0 0 0 0 0 0 0 0 127 0" result="hardAlpha"/>
<feOffset dy="4"/>
<feGaussianBlur stdDeviation="2"/>
<feComposite in2="hardAlpha" operator="arithmetic" k2="-1" k3="1"/>
<feColorMatrix type="matrix" values="0 0 0 0 0 0 0 0 0 0 0 0 0 0 0 0 0 0 0.25 0"/>
<feBlend mode="normal" in2="shape" result="effect1_innerShadow_2_2591"/>
</filter>
<linearGradient id="paint0_linear_2_2591" x1="-8" y1="41.5" x2="94.5" y2="52.5" gradientUnits="userSpaceOnUse">
<stop stop-color="#919191"/>
<stop offset="0.395833" stop-color="#B3ADAD"/>
<stop offset="0.6875" stop-color="#ADADAD"/>
<stop offset="1" stop-color="#B6B6B6"/>
</linearGradient>
<linearGradient id="paint1_linear_2_2591" x1="44" y1="4.5" x2="44" y2="87" gradientUnits="userSpaceOnUse">
<stop stop-color="#DBD9D9"/>
<stop offset="1" stop-color="#C8C1C1"/>
</linearGradient>
<linearGradient id="paint2_linear_2_2591" x1="28.9412" y1="30.7765" x2="60.2941" y2="34.1412" gradientUnits="userSpaceOnUse">
<stop stop-color="#919191"/>
<stop offset="0.395833" stop-color="#D1D1D1"/>
<stop offset="0.6875" stop-color="#ECE6E6"/>
<stop offset="1" stop-color="#B6B6B6"/>
</linearGradient>
<linearGradient id="paint3_linear_2_2591" x1="-16" y1="54.5" x2="72.6373" y2="80.243" gradientUnits="userSpaceOnUse">
<stop stop-color="#919191"/>
<stop offset="0.354167" stop-color="white"/>
<stop offset="0.730213" stop-color="white"/>
<stop offset="1" stop-color="#B6B6B6"/>
</linearGradient>
</defs>
</svg>
