<?xml version="1.0" encoding="UTF-8" standalone="no"?>
<svg width="15px" height="15px" viewBox="0 0 15 15" version="1.1" xmlns="http://www.w3.org/2000/svg" xmlns:xlink="http://www.w3.org/1999/xlink">
    <!-- Generator: Sketch 43.1 (39012) - http://www.bohemiancoding.com/sketch -->
    <title>Oval-2</title>
    <desc>Created with Sketch.</desc>
    <defs></defs>
    <g id="Page-1" stroke="none" stroke-width="1" fill="none" fill-rule="evenodd">
        <g id="target" fill-rule="nonzero" fill="#2A2D34">
            <path d="M7.5,15 C3.35786438,15 0,11.6421356 0,7.5 C0,3.35786438 3.35786438,0 7.5,0 C11.6421356,0 15,3.35786438 15,7.5 C15,11.6421356 11.6421356,15 7.5,15 Z M7.5,13.3333333 C10.721661,13.3333333 13.3333333,10.721661 13.3333333,7.5 C13.3333333,4.27833896 10.721661,1.66666667 7.5,1.66666667 C4.27833896,1.66666667 1.66666667,4.27833896 1.66666667,7.5 C1.66666667,10.721661 4.27833896,13.3333333 7.5,13.3333333 Z M8.99849398,7.4748996 C9.30472041,7.66733697 9.54651852,7.9057884 9.72389558,8.19026104 C9.90127264,8.47473368 9.98995984,8.82780914 9.98995984,9.24949799 C9.98995984,9.63771948 9.90796601,9.97573484 9.7439759,10.2635542 C9.57998579,10.5513736 9.34739106,10.7814583 9.04618474,10.9538153 C8.74497841,11.1261722 8.39190296,11.2341029 7.98694779,11.2776104 L7.98694779,12.2766064 L7.18875502,12.2766064 L7.18875502,11.2776104 C6.78714659,11.2341029 6.42235773,11.1236622 6.09437751,10.9462851 C5.76639729,10.7689081 5.50200904,10.5087032 5.30120482,10.1656627 C5.1004006,9.82262211 5,9.39340954 5,8.87801205 L6.51606426,8.87801205 C6.51606426,9.30639438 6.61646486,9.61512623 6.81726908,9.80421687 C7.01807329,9.99330751 7.27242149,10.0878514 7.58032129,10.0878514 C7.8714874,10.0878514 8.09404207,10.0117143 8.24799197,9.85943775 C8.40194187,9.70716122 8.47891566,9.50719669 8.47891566,9.25953815 C8.47891566,9.07546762 8.44628547,8.92068336 8.3810241,8.79518072 C8.31576273,8.66967809 8.21201544,8.55840075 8.06977912,8.46134538 C7.9275428,8.36429001 7.73092495,8.26723609 7.47991968,8.17018072 C6.97790914,7.97606998 6.57296004,7.78447216 6.26506024,7.59538153 C5.95716044,7.40629089 5.71452565,7.1695128 5.53714859,6.88504016 C5.35977154,6.60056752 5.27108434,6.24581872 5.27108434,5.82078313 C5.27108434,5.44594859 5.35475151,5.11295326 5.52208835,4.82178715 C5.6894252,4.53062103 5.92536662,4.29635296 6.22991968,4.1189759 C6.53447274,3.94159885 6.88754819,3.83283153 7.28915663,3.79267068 L7.28915663,2.72339357 L8.0873494,2.72339357 L8.0873494,3.80773092 C8.47557088,3.86462545 8.81358624,3.99347289 9.10140562,4.19427711 C9.389225,4.39508133 9.610943,4.66114292 9.76656627,4.99246988 C9.92218953,5.32379684 10,5.70699247 10,6.14206827 L8.48895582,6.14206827 C8.48895582,5.76054026 8.41030868,5.4727252 8.25301205,5.27861446 C8.09571541,5.08450371 7.88152746,4.9874498 7.61044177,4.9874498 C7.33600934,4.9874498 7.1301881,5.06526027 6.99297189,5.22088353 C6.85575567,5.3765068 6.78714859,5.57981802 6.78714859,5.83082329 C6.78714859,5.9948134 6.81810545,6.13537425 6.88002008,6.25251004 C6.94193471,6.36964583 7.04484533,6.47841315 7.18875502,6.57881526 C7.33266471,6.67921737 7.53513926,6.78129132 7.79618474,6.88504016 C8.29150181,7.08584438 8.69226755,7.28246222 8.99849398,7.4748996 Z" id="Oval-2"></path>
        </g>
    </g>
</svg>