<?xml version="1.0" encoding="UTF-8" standalone="no"?>
<svg width="441px" height="60px" viewBox="0 0 441 60" version="1.1" xmlns="http://www.w3.org/2000/svg" xmlns:xlink="http://www.w3.org/1999/xlink">
    <!-- Generator: Sketch 43.1 (39012) - http://www.bohemiancoding.com/sketch -->
    <title>logo-vs</title>
    <desc>Created with Sketch.</desc>
    <defs></defs>
    <g id="Page-1" stroke="none" stroke-width="1" fill="none" fill-rule="evenodd">
        <g id="logo-vs" fill-rule="nonzero" fill="#3265B1">
            <path d="M167.67,28.85 C167.43,28.6833333 167.186667,28.5266667 166.94,28.38 C167.485674,27.9163836 167.966637,27.381607 168.37,26.79 C169.31226,25.4051373 169.807813,23.7649275 169.79,22.09 C169.931255,19.2850327 168.667985,16.5935552 166.42,14.91 C164.32,13.35 161.27,12.56 157.34,12.56 L140.27,12.56 L140.27,47.46 L158.22,47.46 C159.721795,47.4596373 161.219606,47.3055001 162.69,47 C164.214241,46.6923645 165.672901,46.1204072 167,45.31 C168.363006,44.4719563 169.491451,43.3022258 170.28,41.91 C171.157844,40.2668489 171.58888,38.4220119 171.53,36.56 C171.584466,34.9705647 171.240711,33.39273 170.53,31.97 C169.838243,30.7174345 168.8578,29.6478602 167.67,28.85 L167.67,28.85 Z M148.22,20.32 L157.22,20.32 C158.45988,20.2739992 159.692239,20.5314558 160.81,21.07 C161.47987,21.4145362 161.860338,22.1434323 161.76,22.89 C161.796233,23.6392651 161.410146,24.3458052 160.76,24.72 C159.865828,25.2977578 158.824583,25.6066604 157.76,25.61 L148.22,25.61 L148.22,20.32 Z M162.27,38.74 C161.031548,39.4182863 159.630607,39.743443 158.22,39.68 L148.22,39.68 L148.22,33.38 L158,33.38 C158.957913,33.3820736 159.911867,33.5029974 160.84,33.74 C161.580474,33.8989265 162.268574,34.2429764 162.84,34.74 C163.276912,35.1801727 163.49344,35.7930562 163.43,36.41 C163.534619,37.3471048 163.080806,38.258643 162.27,38.74 L162.27,38.74 Z" id="Shape"></path>
            <path d="M206.67,30.67 C209.479929,26.9764587 209.703108,21.9270457 207.23,18 C206.144498,16.3286239 204.659815,14.9539175 202.91,14 C201.152067,13.0328458 199.176395,12.5303229 197.17,12.54 L179.27,12.54 L179.27,47.44 L187.27,47.44 L187.27,35.61 L194.27,35.61 L202.27,47.44 L212.01,47.51 L202.89,34.05 C204.370911,33.197866 205.658218,32.0467819 206.67,30.67 L206.67,30.67 Z M200.23,25.84 C199.86055,26.4449178 199.34468,26.9470308 198.73,27.3 C198.093069,27.6699133 197.366367,27.8567795 196.63,27.84 L187.22,27.84 L187.22,20.32 L196,20.32 C196.845218,20.3085407 197.682305,20.486208 198.45,20.84 C199.120776,21.1406836 199.702803,21.6090608 200.14,22.2 C200.52131,22.717935 200.72161,23.3469452 200.71,23.99 C200.727414,24.6395647 200.561029,25.280842 200.23,25.84 L200.23,25.84 Z" id="Shape"></path>
            <path d="M249,17.24 C247.234204,15.594711 245.165999,14.3076014 242.91,13.45 C240.481841,12.5342774 237.904986,12.0765465 235.31,12.1 C232.68527,12.0709597 230.077894,12.5286914 227.62,13.45 C225.36697,14.3061948 223.304452,15.5973924 221.55,17.25 C218.066644,20.5765305 216.095976,25.1834061 216.095976,30 C216.095976,34.8165939 218.066644,39.4234695 221.55,42.75 C223.304292,44.4028151 225.366853,45.6940399 227.62,46.55 C230.077894,47.4713086 232.68527,47.9290403 235.31,47.9 C237.904986,47.9234535 240.481841,47.4657226 242.91,46.55 C245.166452,45.6933129 247.234824,44.4060991 249,42.76 C250.713007,41.1335755 252.074369,39.1732134 253,37 C254.87224,32.5211162 254.87224,27.4788838 253,23 C252.07412,20.8269242 250.712791,18.8666098 249,17.24 L249,17.24 Z M245,35.12 C244.060578,36.6575847 242.718949,37.9093109 241.12,38.74 C239.324406,39.6615177 237.327818,40.1220043 235.31,40.08 C233.259369,40.1302531 231.228427,39.6697688 229.4,38.74 C227.808708,37.9196035 226.473435,36.6777304 225.54,35.15 C224.614474,33.5945184 224.146552,31.8094845 224.19,30 C224.152584,28.1885736 224.627474,26.4034031 225.56,24.85 C226.493836,23.3225972 227.829006,22.08082 229.42,21.26 C231.24857,20.3306279 233.27941,19.8701667 235.33,19.92 C237.347775,19.8784153 239.344261,20.3388786 241.14,21.26 C242.736865,22.0882725 244.080737,23.3319586 245.03,24.86 C245.969807,26.4070794 246.448557,28.190247 246.41,30 C246.43407,31.8057206 245.945124,33.5811864 245,35.12 L245,35.12 Z" id="Shape"></path>
            <polygon id="Shape" points="257.52 20.32 268.26 20.32 268.26 47.45 276.21 47.45 276.21 20.32 287.18 20.32 287.18 12.55 257.52 12.55"></polygon>
            <polygon id="Shape" points="318.33 26.25 301.93 26.25 301.93 12.55 293.98 12.55 293.98 47.45 301.93 47.45 301.93 34.02 318.33 34.02 318.33 47.45 326.28 47.45 326.28 12.55 318.33 12.55"></polygon>
            <polygon id="Shape" points="336.44 47.45 363.1 47.45 363.1 39.68 344.39 39.68 344.39 33.47 360.6 33.47 360.6 25.71 344.39 25.71 344.39 20.32 363.1 20.32 363.1 12.55 336.44 12.55"></polygon>
            <path d="M399.66,30.67 C402.469929,26.9764587 402.693108,21.9270457 400.22,18 C399.134498,16.3286239 397.649815,14.9539175 395.9,14 C394.142067,13.0328458 392.166395,12.5303229 390.16,12.54 L372.26,12.54 L372.26,47.44 L380.26,47.44 L380.26,35.61 L387.26,35.61 L395.26,47.44 L405,47.51 L395.88,34.05 C397.360911,33.197866 398.648218,32.0467819 399.66,30.67 L399.66,30.67 Z M393.22,25.84 C392.85055,26.4449178 392.33468,26.9470308 391.72,27.3 C391.083069,27.6699133 390.356367,27.8567795 389.62,27.84 L380.21,27.84 L380.21,20.32 L389,20.32 C389.845218,20.3085407 390.682305,20.486208 391.45,20.84 C392.120776,21.1406836 392.702803,21.6090608 393.14,22.2 C393.52131,22.717935 393.72161,23.3469452 393.71,23.99 C393.724397,24.6405362 393.554527,25.2818814 393.22,25.84 L393.22,25.84 Z" id="Shape"></path>
            <path d="M439,31.68 C438.131276,30.4565842 436.99164,29.4504194 435.67,28.74 C434.293396,27.9836625 432.829097,27.3992866 431.31,27 C429.709268,26.5790563 428.086886,26.2452327 426.45,26 C424.51085,25.740749 422.612385,25.2367317 420.8,24.5 C419.908949,24.2012937 419.333017,23.3373956 419.4,22.4 C419.4,21.85 419.55,21.13 420.75,20.48 C422.177135,19.7716544 423.757589,19.4280776 425.35,19.48 C426.995117,19.4445108 428.622409,19.8263913 430.08,20.59 C431.411924,21.3058928 432.564153,22.3145208 433.45,23.54 L434.51,25.02 L440,19.38 L439.31,18.38 C437.902747,16.3313297 435.953447,14.7144147 433.68,13.71 C431.095373,12.5995839 428.302365,12.0573517 425.49,12.12 C423.101456,12.0922467 420.728326,12.5058495 418.49,13.34 C416.461379,14.0715776 414.656321,15.3151385 413.25,16.95 C411.878208,18.6021974 411.146969,20.6929749 411.19,22.84 C411.047884,25.8962138 412.501551,28.8073325 415.03,30.53 C417.810494,32.302277 420.955439,33.4235183 424.23,33.81 C426.422786,34.0709186 428.577465,34.5877732 430.65,35.35 C431.95,35.89 432.13,36.6 432.13,37.23 C432.147503,37.821149 431.888736,38.3867382 431.43,38.76 C430.721926,39.3483424 429.891899,39.7718949 429,40 C427.88387,40.314372 426.729556,40.4725433 425.57,40.47 C423.640706,40.5358156 421.728638,40.0871355 420.03,39.17 C418.299607,38.101453 416.761446,36.749224 415.48,35.17 L414.29,33.77 L409.19,40.18 L409.97,41.13 C411.776967,43.4013731 414.125477,45.1825272 416.8,46.31 C419.517086,47.3850961 422.418201,47.9184392 425.34,47.88 C427.988009,47.9337872 430.620912,47.4683579 433.09,46.51 C435.203446,45.702112 437.047,44.3159815 438.41,42.51 C439.697056,40.6983053 440.369932,38.521971 440.33,36.3 C440.378741,34.6590559 439.91376,33.0438605 439,31.68 L439,31.68 Z" id="Shape"></path>
            <path d="M58.38,31.37 C58.11,31.11 57.84,30.84 57.58,30.57 C56.4303022,30.8856892 55.4045087,31.5451278 54.64,32.46 C53.5565156,33.9957565 53.4781559,36.0252732 54.44,37.64 C54.9556259,38.4615342 55.7089779,39.1067662 56.6,39.49 C57.7267121,39.9652182 58.9371703,40.21003 60.16,40.21 L60.16,33.12 L59.38,32.35 L58.38,31.37 Z" id="Shape"></path>
            <path d="M58.8,21.93 C58.8254289,22.6242049 59.0473611,23.2969366 59.44,23.87 C59.6603118,24.2170765 59.9007218,24.5509793 60.16,24.87 L60.16,19.87 C59.9668342,19.9595232 59.7881818,20.0775011 59.63,20.22 C59.110964,20.636743 58.8063153,21.2643926 58.8,21.93 L58.8,21.93 Z" id="Shape"></path>
            <path d="M0,60 L60.15,60 L60.15,45.8 C57.7953487,45.8589083 55.4576172,45.3872607 53.31,44.42 C51.5688589,43.6167885 50.0790035,42.355078 49,40.77 C48.0401095,39.3379446 47.5251816,37.6539912 47.52,35.93 C47.5118355,33.9368051 48.1388122,31.9928272 49.31,30.38 C50.5612882,28.7408325 52.2004427,27.4384436 54.08,26.59 C53.7055669,26.0276571 53.3713989,25.4395214 53.08,24.83 C52.6711077,24.0096726 52.4555944,23.106569 52.45,22.19 C52.4714532,20.8150345 52.9032555,19.4778401 53.69,18.35 C54.5801838,17.0664816 55.7854361,16.0334083 57.19,15.35 C58.1329965,14.8652578 59.1447575,14.5280041 60.19,14.35 L60.19,0 L0,0 L0,60 Z M20.8,14.54 L28.5,32.73 C28.92,33.73 29.38,34.86 29.89,36.01 C30.04,36.33 30.17,36.65 30.32,37.01 C30.44,36.7 31.6,33.86 32.01,32.83 L39.15,14.58 L46.78,14.58 L41.78,26.25 L33.3,45.84 L27,45.84 L13.4,14.54 L20.8,14.54 Z" id="Shape"></path>
            <path d="M66.8,14.8 C67.6747561,15.0918716 68.5082791,15.4951892 69.28,16 C70.970317,17.0585034 72.350376,18.545517 73.28,20.31 L73.5,20.75 L69.4,24.15 L69.04,23.49 C68.4985488,22.4290559 67.722183,21.5056252 66.77,20.79 L66.77,31.65 L69.66,34.47 C69.8388602,34.0619437 69.9859636,33.6406931 70.1,33.21 C70.3046673,32.427708 70.4319459,31.6271928 70.48,30.82 L70.48,30.24 L76.02,30.24 L76.02,30.88 C75.9742456,32.3881422 75.7046345,33.8811138 75.22,35.31 C74.8102819,36.4900339 74.2631901,37.6177814 73.59,38.67 C74.46,39.67 75.33,40.58 76.2,41.55 C77.07,42.52 77.97,43.55 78.56,44.25 L79.42,45.25 L72,45.25 L71.81,45.05 C71.4433333,44.6566667 71.04,44.2066667 70.6,43.7 C70.31,43.36 70.03,43.04 69.76,42.7 C68.8275684,43.3756581 67.8210521,43.9426623 66.76,44.39 L66.76,60 L127,60 L127,0 L66.8,0 L66.8,14.8 Z M102.48,34.8 C100.542534,34.0912329 98.5288766,33.6113113 96.48,33.37 C93.5257597,33.0080855 90.6916818,31.9824844 88.19,30.37 C85.9618476,28.855403 84.6816051,26.2911302 84.81,23.6 C84.7741572,21.7123922 85.4163535,19.8745044 86.62,18.42 C87.8693432,16.9624122 89.4747594,15.8530903 91.28,15.2 C95.7113403,13.638304 100.562036,13.7593045 104.91,15.54 C106.929102,16.4426707 108.659461,17.8857903 109.91,19.71 L110.39,20.42 L105.84,25.17 L105.1,24.17 C104.2579,23.0112556 103.168155,22.054739 101.91,21.37 C100.523136,20.6435204 98.9753112,20.2789217 97.41,20.31 C95.8988645,20.2541351 94.3974398,20.5736602 93.04,21.24 C92.1729071,21.603685 91.6145041,22.4585413 91.6299163,23.3986899 C91.6453286,24.3388385 92.2314521,25.1749321 93.11,25.51 C94.7962391,26.2017691 96.5638405,26.6755938 98.37,26.92 C99.8576265,27.1406404 101.332911,27.4377 102.79,27.81 C104.156589,28.1606378 105.476059,28.6743247 106.72,29.34 C107.886268,29.9699558 108.892157,30.859518 109.66,31.94 C110.441191,33.1248848 110.839173,34.5213116 110.8,35.94 C110.837084,37.9065725 110.244971,39.8335682 109.11,41.44 C107.914646,43.0378241 106.297412,44.2706623 104.44,45 C102.209554,45.8628761 99.8308457,46.277451 97.44,46.22 C94.8084883,46.2539001 92.1958656,45.7714652 89.75,44.8 C87.3500746,43.7915447 85.2421517,42.1959881 83.62,40.16 L83.08,39.49 L87.33,34.15 L88.17,35.15 C89.3753247,36.6069346 90.8109653,37.8567863 92.42,38.85 C94.031202,39.7140947 95.8428726,40.1350925 97.67,40.07 C98.7625036,40.0731172 99.8499514,39.9216152 100.9,39.62 C101.778064,39.4056962 102.593374,38.9877646 103.28,38.4 C103.765354,37.9916064 104.037828,37.3840628 104.02,36.75 C104,36.14 103.87,35.33 102.49,34.76 L102.48,34.8 Z" id="Shape"></path>
        </g>
    </g>
</svg>