<?xml version="1.0" encoding="UTF-8" standalone="no"?>
<svg width="294px" height="40px" viewBox="0 0 294 40" version="1.1" xmlns="http://www.w3.org/2000/svg" xmlns:xlink="http://www.w3.org/1999/xlink">
    <!-- Generator: Sketch 43.1 (39012) - http://www.bohemiancoding.com/sketch -->
    <title>logo-footer</title>
    <desc>Created with Sketch.</desc>
    <defs></defs>
    <g id="Page-1" stroke="none" stroke-width="1" fill="none" fill-rule="evenodd">
        <g id="logo-footer" fill-rule="nonzero" fill="#FFFFFF">
            <path d="M111.78,19.2333333 C111.62,19.1222222 111.457778,19.0177778 111.293333,18.92 C111.657116,18.6109224 111.977758,18.2544047 112.246667,17.86 C112.87484,16.9367582 113.205209,15.843285 113.193333,14.7266667 C113.287503,12.8566885 112.445323,11.0623701 110.946667,9.94 C109.546667,8.9 107.513333,8.37333333 104.893333,8.37333333 L93.5133333,8.37333333 L93.5133333,31.64 L105.48,31.64 C106.481197,31.6397582 107.479737,31.5370001 108.46,31.3333333 C109.476161,31.128243 110.448601,30.7469381 111.333333,30.2066667 C112.242004,29.6479709 112.994301,28.8681505 113.52,27.94 C114.105229,26.8445659 114.392587,25.6146746 114.353333,24.3733333 C114.389644,23.3137098 114.160474,22.26182 113.686667,21.3133333 C113.225495,20.4782897 112.571867,19.7652401 111.78,19.2333333 L111.78,19.2333333 Z M98.8133333,13.5466667 L104.813333,13.5466667 C105.63992,13.5159995 106.461493,13.6876372 107.206667,14.0466667 C107.653247,14.2763575 107.906892,14.7622882 107.84,15.26 C107.864155,15.7595101 107.606764,16.2305368 107.173333,16.48 C106.577219,16.8651719 105.883055,17.0711069 105.173333,17.0733333 L98.8133333,17.0733333 L98.8133333,13.5466667 Z M108.18,25.8266667 C107.354365,26.2788575 106.420405,26.4956287 105.48,26.4533333 L98.8133333,26.4533333 L98.8133333,22.2533333 L105.333333,22.2533333 C105.971942,22.2547157 106.607911,22.3353316 107.226667,22.4933333 C107.720316,22.5992843 108.179049,22.8286509 108.56,23.16 C108.851275,23.4534485 108.995627,23.8620375 108.953333,24.2733333 C109.023079,24.8980699 108.720537,25.505762 108.18,25.8266667 L108.18,25.8266667 Z" id="Shape"></path>
            <path d="M137.78,20.4466667 C139.653286,17.9843058 139.802072,14.6180305 138.153333,12 C137.429665,10.8857493 136.439877,9.96927833 135.273333,9.33333333 C134.101378,8.68856387 132.784263,8.3535486 131.446667,8.36 L119.513333,8.36 L119.513333,31.6266667 L124.846667,31.6266667 L124.846667,23.74 L129.513333,23.74 L134.846667,31.6266667 L141.34,31.6733333 L135.26,22.7 C136.247274,22.1319107 137.105479,21.3645213 137.78,20.4466667 L137.78,20.4466667 Z M133.486667,17.2266667 C133.240367,17.6299452 132.896453,17.9646872 132.486667,18.2 C132.062046,18.4466089 131.577578,18.5711863 131.086667,18.56 L124.813333,18.56 L124.813333,13.5466667 L130.666667,13.5466667 C131.230145,13.5390271 131.788203,13.657472 132.3,13.8933333 C132.747184,14.0937891 133.135202,14.4060405 133.426667,14.8 C133.680873,15.14529 133.814407,15.5646301 133.806667,15.9933333 C133.818276,16.4263765 133.707353,16.8538947 133.486667,17.2266667 L133.486667,17.2266667 Z" id="Shape"></path>
            <path d="M166,11.4933333 C164.822803,10.396474 163.443999,9.53840093 161.94,8.96666667 C160.321227,8.35618493 158.603324,8.051031 156.873333,8.06666667 C155.123513,8.04730647 153.385263,8.35246093 151.746667,8.96666667 C150.244647,9.5374632 148.869635,10.3982616 147.7,11.5 C145.377763,13.717687 144.063984,16.7889374 144.063984,20 C144.063984,23.2110626 145.377763,26.282313 147.7,28.5 C148.869528,29.6018767 150.244569,30.4626933 151.746667,31.0333333 C153.385263,31.6475391 155.123513,31.9526935 156.873333,31.9333333 C158.603324,31.948969 160.321227,31.6438151 161.94,31.0333333 C163.444301,30.4622086 164.823216,29.6040661 166,28.5066667 C167.142005,27.4223837 168.049579,26.1154756 168.666667,24.6666667 C169.914827,21.6807441 169.914827,18.3192559 168.666667,15.3333333 C168.049413,13.8846161 167.141861,12.5777399 166,11.4933333 L166,11.4933333 Z M163.333333,23.4133333 C162.707052,24.4383898 161.812633,25.2728739 160.746667,25.8266667 C159.549604,26.4410118 158.218545,26.7480029 156.873333,26.72 C155.506246,26.7535021 154.152285,26.4465125 152.933333,25.8266667 C151.872472,25.2797357 150.98229,24.4518203 150.36,23.4333333 C149.742983,22.3963456 149.431035,21.206323 149.46,20 C149.435056,18.7923824 149.751649,17.6022687 150.373333,16.5666667 C150.995891,15.5483981 151.886004,14.7205467 152.946667,14.1733333 C154.165713,13.5537519 155.519607,13.2467778 156.886667,13.28 C158.23185,13.2522769 159.562841,13.5592524 160.76,14.1733333 C161.824577,14.725515 162.720491,15.5546391 163.353333,16.5733333 C163.979871,17.6047196 164.299038,18.793498 164.273333,20 C164.28938,21.2038137 163.963416,22.3874576 163.333333,23.4133333 L163.333333,23.4133333 Z" id="Shape"></path>
            <polygon id="Shape" points="171.68 13.5466667 178.84 13.5466667 178.84 31.6333333 184.14 31.6333333 184.14 13.5466667 191.453333 13.5466667 191.453333 8.36666667 171.68 8.36666667"></polygon>
            <polygon id="Shape" points="212.22 17.5 201.286667 17.5 201.286667 8.36666667 195.986667 8.36666667 195.986667 31.6333333 201.286667 31.6333333 201.286667 22.68 212.22 22.68 212.22 31.6333333 217.52 31.6333333 217.52 8.36666667 212.22 8.36666667"></polygon>
            <polygon id="Shape" points="224.293333 31.6333333 242.066667 31.6333333 242.066667 26.4533333 229.593333 26.4533333 229.593333 22.3133333 240.4 22.3133333 240.4 17.14 229.593333 17.14 229.593333 13.5466667 242.066667 13.5466667 242.066667 8.36666667 224.293333 8.36666667"></polygon>
            <path d="M266.44,20.4466667 C268.313286,17.9843058 268.462072,14.6180305 266.813333,12 C266.089665,10.8857493 265.099877,9.96927833 263.933333,9.33333333 C262.761378,8.68856387 261.444263,8.3535486 260.106667,8.36 L248.173333,8.36 L248.173333,31.6266667 L253.506667,31.6266667 L253.506667,23.74 L258.173333,23.74 L263.506667,31.6266667 L270,31.6733333 L263.92,22.7 C264.907274,22.1319107 265.765479,21.3645213 266.44,20.4466667 L266.44,20.4466667 Z M262.146667,17.2266667 C261.900367,17.6299452 261.556453,17.9646872 261.146667,18.2 C260.722046,18.4466089 260.237578,18.5711863 259.746667,18.56 L253.473333,18.56 L253.473333,13.5466667 L259.333333,13.5466667 C259.896812,13.5390271 260.45487,13.657472 260.966667,13.8933333 C261.413851,14.0937891 261.801869,14.4060405 262.093333,14.8 C262.34754,15.14529 262.481073,15.5646301 262.473333,15.9933333 C262.482931,16.4270241 262.369685,16.8545876 262.146667,17.2266667 L262.146667,17.2266667 Z" id="Shape"></path>
            <path d="M292.666667,21.12 C292.087517,20.3043895 291.32776,19.6336129 290.446667,19.16 C289.528931,18.655775 288.552731,18.2661911 287.54,18 C286.472845,17.7193709 285.391257,17.4968218 284.3,17.3333333 C283.007233,17.1604993 281.74159,16.8244878 280.533333,16.3333333 C279.939299,16.1341958 279.555345,15.5582637 279.6,14.9333333 C279.6,14.5666667 279.7,14.0866667 280.5,13.6533333 C281.451423,13.1811029 282.505059,12.9520517 283.566667,12.9866667 C284.663411,12.9630072 285.748273,13.2175942 286.72,13.7266667 C287.607949,14.2039285 288.376102,14.8763472 288.966667,15.6933333 L289.673333,16.68 L293.333333,12.92 L292.873333,12.2533333 C291.935165,10.8875531 290.635631,9.8096098 289.12,9.14 C287.396915,8.3997226 285.53491,8.03823447 283.66,8.08 C282.067637,8.0614978 280.485551,8.337233 278.993333,8.89333333 C277.640919,9.38105173 276.437547,10.2100923 275.5,11.3 C274.585472,12.4014649 274.097979,13.7953166 274.126667,15.2266667 C274.031923,17.2641425 275.001034,19.2048883 276.686667,20.3533333 C278.540329,21.5348513 280.636959,22.2823455 282.82,22.54 C284.281857,22.7139457 285.71831,23.0585155 287.1,23.5666667 C287.966667,23.9266667 288.086667,24.4 288.086667,24.82 C288.098335,25.2140993 287.925824,25.5911588 287.62,25.84 C287.147951,26.2322283 286.594599,26.5145966 286,26.6666667 C285.255913,26.876248 284.486371,26.9816955 283.713333,26.98 C282.427137,27.0238771 281.152425,26.724757 280.02,26.1133333 C278.866405,25.4009687 277.840964,24.4994827 276.986667,23.4466667 L276.193333,22.5133333 L272.793333,26.7866667 L273.313333,27.42 C274.517978,28.9342487 276.083651,30.1216848 277.866667,30.8733333 C279.678057,31.5900641 281.612134,31.9456261 283.56,31.92 C285.325339,31.9558581 287.080608,31.6455719 288.726667,31.0066667 C290.135631,30.4680747 291.364667,29.5439877 292.273333,28.34 C293.131371,27.1322035 293.579955,25.681314 293.553333,24.2 C293.585827,23.1060373 293.27584,22.0292403 292.666667,21.12 L292.666667,21.12 Z" id="Shape"></path>
            <path d="M38.92,20.9133333 C38.74,20.74 38.56,20.56 38.3866667,20.38 C37.6202015,20.5904595 36.9363391,21.0300852 36.4266667,21.64 C35.7043437,22.6638377 35.6521039,24.0168488 36.2933333,25.0933333 C36.6370839,25.6410228 37.1393186,26.0711775 37.7333333,26.3266667 C38.4844747,26.6434788 39.2914469,26.8066867 40.1066667,26.8066667 L40.1066667,22.08 L39.5866667,21.5666667 L38.92,20.9133333 Z" id="Shape"></path>
            <path d="M39.2,14.62 C39.2169526,15.0828033 39.3649074,15.5312911 39.6266667,15.9133333 C39.7735412,16.1447177 39.9338145,16.3673195 40.1066667,16.58 L40.1066667,13.2466667 C39.9778895,13.3063488 39.8587879,13.3850007 39.7533333,13.48 C39.4073093,13.7578287 39.2042102,14.1762617 39.2,14.62 L39.2,14.62 Z" id="Shape"></path>
            <path d="M0,40 L40.1,40 L40.1,30.5333333 C38.5302325,30.5726055 36.9717448,30.2581738 35.54,29.6133333 C34.3792393,29.077859 33.3860023,28.2367187 32.6666667,27.18 C32.0267397,26.2252964 31.6834544,25.1026608 31.68,23.9533333 C31.674557,22.6245367 32.0925415,21.3285515 32.8733333,20.2533333 C33.7075255,19.160555 34.8002951,18.2922957 36.0533333,17.7266667 C35.8037113,17.3517714 35.5809326,16.9596809 35.3866667,16.5533333 C35.1140718,16.0064484 34.9703963,15.4043793 34.9666667,14.7933333 C34.9809688,13.8766897 35.268837,12.9852267 35.7933333,12.2333333 C36.3867892,11.3776544 37.1902907,10.6889389 38.1266667,10.2333333 C38.755331,9.91017187 39.4298383,9.68533607 40.1266667,9.56666667 L40.1266667,0 L0,0 L0,40 Z M13.8666667,9.69333333 L19,21.82 C19.28,22.4866667 19.5866667,23.24 19.9266667,24.0066667 C20.0266667,24.22 20.1133333,24.4333333 20.2133333,24.6733333 C20.2933333,24.4666667 21.0666667,22.5733333 21.34,21.8866667 L26.1,9.72 L31.1866667,9.72 L27.8533333,17.5 L22.2,30.56 L18,30.56 L8.93333333,9.69333333 L13.8666667,9.69333333 Z" id="Shape"></path>
            <path d="M44.5333333,9.86666667 C45.1165041,10.0612477 45.6721861,10.3301261 46.1866667,10.6666667 C47.3135447,11.3723356 48.233584,12.363678 48.8533333,13.54 L49,13.8333333 L46.2666667,16.1 L46.0266667,15.66 C45.6656992,14.9527039 45.148122,14.3370835 44.5133333,13.86 L44.5133333,21.1 L46.44,22.98 C46.5592401,22.7079625 46.6573091,22.4271287 46.7333333,22.14 C46.8697782,21.618472 46.9546306,21.0847952 46.9866667,20.5466667 L46.9866667,20.16 L50.68,20.16 L50.68,20.5866667 C50.6494971,21.5920948 50.4697563,22.5874092 50.1466667,23.54 C49.8735213,24.3266893 49.5087934,25.0785209 49.06,25.78 C49.64,26.4466667 50.22,27.0533333 50.8,27.7 C51.38,28.3466667 51.98,29.0333333 52.3733333,29.5 L52.9466667,30.1666667 L48,30.1666667 L47.8733333,30.0333333 C47.6288889,29.7711111 47.36,29.4711111 47.0666667,29.1333333 C46.8733333,28.9066667 46.6866667,28.6933333 46.5066667,28.4666667 C45.8850456,28.9171054 45.2140347,29.2951082 44.5066667,29.5933333 L44.5066667,40 L84.6666667,40 L84.6666667,0 L44.5333333,0 L44.5333333,9.86666667 Z M68.32,23.2 C67.028356,22.7274886 65.6859177,22.4075409 64.32,22.2466667 C62.3505065,22.0053903 60.4611212,21.3216563 58.7933333,20.2466667 C57.3078984,19.2369353 56.4544034,17.5274201 56.54,15.7333333 C56.5161048,14.4749281 56.9442357,13.2496696 57.7466667,12.28 C58.5795621,11.3082748 59.6498396,10.5687269 60.8533333,10.1333333 C63.8075602,9.09220267 67.0413573,9.17286967 69.94,10.36 C71.286068,10.9617805 72.4396407,11.9238602 73.2733333,13.14 L73.5933333,13.6133333 L70.56,16.78 L70.0666667,16.1133333 C69.5052667,15.3408371 68.77877,14.7031593 67.94,14.2466667 C67.015424,13.7623469 65.9835408,13.5192811 64.94,13.54 C63.9325763,13.5027567 62.9316265,13.7157735 62.0266667,14.16 C61.4486047,14.4024567 61.0763361,14.9723609 61.0866109,15.5991266 C61.0968857,16.2258923 61.4876347,16.7832881 62.0733333,17.0066667 C63.1974927,17.4678461 64.3758937,17.7837292 65.58,17.9466667 C66.571751,18.0937603 67.555274,18.2918 68.5266667,18.54 C69.437726,18.7737585 70.3173727,19.1162165 71.1466667,19.56 C71.9241787,19.9799705 72.5947713,20.573012 73.1066667,21.2933333 C73.6274607,22.0832565 73.892782,23.0142077 73.8666667,23.96 C73.8913893,25.2710483 73.4966473,26.5557121 72.74,27.6266667 C71.9430973,28.6918827 70.8649413,29.5137749 69.6266667,30 C68.1397027,30.5752507 66.5538971,30.851634 64.96,30.8133333 C63.2056589,30.8359334 61.4639104,30.5143101 59.8333333,29.8666667 C58.2333831,29.1943631 56.8281011,28.1306587 55.7466667,26.7733333 L55.3866667,26.3266667 L58.22,22.7666667 L58.78,23.4333333 C59.5835498,24.4046231 60.5406435,25.2378575 61.6133333,25.9 C62.687468,26.4760631 63.8952484,26.7567283 65.1133333,26.7133333 C65.8416691,26.7154115 66.5666343,26.6144101 67.2666667,26.4133333 C67.8520427,26.2704641 68.3955827,25.9918431 68.8533333,25.6 C69.1769027,25.3277376 69.358552,24.9227085 69.3466667,24.5 C69.3333333,24.0933333 69.2466667,23.5533333 68.3266667,23.1733333 L68.32,23.2 Z" id="Shape"></path>
        </g>
    </g>
</svg>